<?xml version="1.0" encoding="utf-8"?>
<!-- Generator: Adobe Illustrator 17.0.0, SVG Export Plug-In . SVG Version: 6.00 Build 0)  -->
<!DOCTYPE svg PUBLIC "-//W3C//DTD SVG 1.1//EN" "http://www.w3.org/Graphics/SVG/1.1/DTD/svg11.dtd">
<svg version="1.1" id="Layer_1" xmlns="http://www.w3.org/2000/svg" xmlns:xlink="http://www.w3.org/1999/xlink" x="0px" y="0px"
	 width="111.928px" height="103.284px" viewBox="0 0 111.928 103.284" enable-background="new 0 0 111.928 103.284"
	 xml:space="preserve">
<g>
	<g>
		<path fill="#28B09A" d="M39.859,24.21c0.31-1.333,3.721-12.823,20.847-8.62c-8.744-0.63-12.908,4.501-14.063,6.288
			c-2.67,4.178-2.695,9.734,0.367,14.015c3.206,4.482,9.441,5.517,13.924,2.311c2.962-2.119,4.037-5.896,2.866-9.163
			c0.35,0.94,0.539,1.94,0.539,2.974c0,5.591-5.468,10.123-12.213,10.123c-5.77,0-10.375-3.252-12.105-7.68
			c-0.293-0.747-0.502-1.529-0.622-2.334c0-0.002,0-0.006-0.002-0.008c-0.202-0.825-0.355-2.572-0.235-4.225
			C39.23,26.218,39.743,24.709,39.859,24.21z"/>
		<path fill="#FFDCAA" d="M41.431,20.717c3.042-5.305,11.569-11.264,23.456-7.619c11.82,3.419,22.094,24.448,2.619,36.187
			c11.97-8.701,10.862-29.858-6.636-33.662C46.913,12.655,41.431,20.717,41.431,20.717z"/>
		<path fill="#F99562" d="M67.505,49.286c-19.07,11.677-42.291-5.143-45.509-8.084c8.878,29.968,49.134,25.404,56.065,2.271
			C82.986,27.361,72.018,17.6,72.018,17.6S88.977,34.907,67.505,49.286z"/>
		<path fill="#3E7692" d="M63.104,27.578c0,0,5.745,9.358-4.398,15.127c-11.086,5.022-17.561-4.326-18.686-8.246
			c0,0,5.736,11.336,18.04,6.406C67.993,35.478,63.104,27.578,63.104,27.578z"/>
		<path fill="#FF543F" d="M49.196,62.198C39.041,62.476,12.172,54.243,0,30.631l1.489-14.427c0,0,7.798,15.374,20.507,24.996
			C22.626,42.995,27.26,61.343,49.196,62.198"/>
		<path fill="#5D5D5D" d="M48.794,34.138c0.1,0.184,0.209,0.365,0.327,0.544c-0.05-0.072-0.097-0.144-0.143-0.217
			C48.914,34.357,48.853,34.248,48.794,34.138z"/>
	</g>
	<g>
		<path fill="#28B09A" d="M72.068,38.049c-0.311,1.333-3.721,12.823-20.847,8.62c8.744,0.63,12.908-4.501,14.063-6.288
			c2.67-4.178,2.695-9.734-0.367-14.015c-3.206-4.482-9.441-5.517-13.924-2.311c-2.962,2.119-4.037,5.896-2.866,9.163
			c-0.35-0.94-0.539-1.94-0.539-2.974c0-5.591,5.468-10.123,12.213-10.123c5.77,0,10.375,3.252,12.105,7.68
			c0.293,0.747,0.502,1.529,0.622,2.334c0,0.002,0,0.006,0.002,0.008c0.202,0.825,0.355,2.572,0.235,4.225
			C72.697,36.042,72.184,37.55,72.068,38.049z"/>
		<path fill="#FFDCAA" d="M70.496,41.543c-3.042,5.305-11.569,11.263-23.456,7.618c-11.82-3.419-22.094-24.447-2.619-36.187
			c-11.97,8.701-10.862,29.857,6.636,33.661C65.014,49.605,70.496,41.543,70.496,41.543z"/>
		<path fill="#F99562" d="M44.422,12.973c19.07-11.677,42.291,5.143,45.509,8.084C81.053-8.91,40.796-4.346,33.865,18.787
			c-4.925,16.11,6.044,25.872,6.044,25.872S22.95,27.352,44.422,12.973z"/>
		<path fill="#3E7692" d="M48.824,34.681c0,0-5.745-9.358,4.398-15.127c11.086-5.022,17.561,4.326,18.686,8.246
			c0,0-5.736-11.336-18.04-6.406C43.935,26.781,48.824,34.681,48.824,34.681z"/>
		<path fill="#FF543F" d="M62.731,0.062c10.155-0.279,37.024,7.954,49.196,31.566l-1.489,14.427c0,0-7.798-15.374-20.507-24.996
			C89.301,19.265,84.667,0.916,62.731,0.062"/>
		<path fill="#5D5D5D" d="M63.133,28.122c-0.1-0.184-0.209-0.365-0.327-0.544c0.05,0.072,0.097,0.144,0.143,0.217
			C63.013,27.903,63.074,28.012,63.133,28.122z"/>
	</g>
</g>
<g>
	<g>
		<path fill="#FF543F" d="M5.462,84.82c-0.207,0-0.385-0.061-0.534-0.182c-0.149-0.121-0.224-0.265-0.224-0.433v-8.753h0.007
			c-0.005-0.297-0.142-0.556-0.411-0.779c-0.269-0.219-0.587-0.329-0.952-0.334H3.305c-0.371,0-0.688,0.109-0.952,0.328
			c-0.265,0.215-0.399,0.476-0.404,0.784v8.753c0,0.167-0.074,0.312-0.224,0.433c-0.149,0.121-0.327,0.182-0.534,0.182
			s-0.382-0.061-0.527-0.182c-0.149-0.121-0.224-0.265-0.224-0.433v-8.746l0.007-0.07c0.024-0.621,0.305-1.15,0.844-1.586
			c0.558-0.453,1.227-0.683,2.006-0.691h0.036l0.101,0.006c0.755,0.02,1.4,0.252,1.934,0.697c0.043,0.035,0.084,0.07,0.123,0.105
			c0.043-0.042,0.089-0.084,0.137-0.123c0.553-0.449,1.222-0.677,2.006-0.685h0.036l0.094,0.006c0.755,0.02,1.402,0.252,1.941,0.697
			c0.553,0.453,0.832,0.998,0.837,1.633v8.759c0,0.167-0.072,0.312-0.216,0.433c-0.149,0.121-0.327,0.182-0.534,0.182
			c-0.207,0-0.385-0.061-0.534-0.182c-0.144-0.121-0.217-0.265-0.217-0.433v-8.758c-0.005-0.293-0.139-0.55-0.404-0.773
			c-0.269-0.219-0.589-0.329-0.96-0.334l-0.043-0.005c-0.366,0.004-0.683,0.115-0.952,0.333c-0.265,0.215-0.399,0.476-0.404,0.784
			v8.753c0,0.167-0.075,0.312-0.224,0.433c-0.144,0.121-0.32,0.182-0.527,0.182L5.462,84.82L5.462,84.82z"/>
		<path fill="#FF543F" d="M20.126,82.479c0.005,0.308,0.14,0.57,0.404,0.784c0.265,0.215,0.582,0.324,0.952,0.328h0.043
			c0.365-0.004,0.683-0.117,0.952-0.339c0.269-0.219,0.406-0.476,0.411-0.773h-0.007v-8.753c0-0.172,0.075-0.316,0.224-0.434
			c0.149-0.121,0.327-0.182,0.534-0.182c0.207,0,0.382,0.061,0.527,0.182c0.149,0.117,0.224,0.261,0.224,0.434v8.753v0.005
			c-0.01,0.632-0.291,1.177-0.844,1.633c-0.534,0.445-1.179,0.678-1.934,0.697l-0.101,0.006h-0.029v-0.006h-0.007
			c-0.779-0.004-1.448-0.232-2.007-0.685c-0.539-0.437-0.82-0.966-0.844-1.587l-0.007-0.07v-8.747c0-0.172,0.075-0.316,0.224-0.434
			c0.144-0.121,0.32-0.182,0.527-0.182c0.207,0,0.385,0.061,0.534,0.182c0.149,0.117,0.224,0.261,0.224,0.434L20.126,82.479
			L20.126,82.479z"/>
		<path fill="#FF543F" d="M38.284,75.477c0,0.167-0.075,0.312-0.224,0.433c-0.144,0.121-0.322,0.182-0.534,0.182
			c-0.207,0-0.385-0.061-0.534-0.182c-0.149-0.121-0.224-0.265-0.224-0.433v-0.012v-0.012v-0.017
			c-0.01-0.297-0.147-0.55-0.411-0.761c-0.269-0.219-0.59-0.329-0.96-0.334h-0.036c-0.38,0.008-0.703,0.121-0.967,0.34
			c-0.27,0.219-0.407,0.478-0.411,0.779v0.018c0,0.465,0.18,0.907,0.541,1.329c0.217,0.25,0.621,0.601,1.212,1.054
			c0.924,0.71,1.554,1.304,1.891,1.779c0.558,0.804,0.777,1.749,0.657,2.834v0.006v0.017c-0.015,0.629-0.298,1.169-0.852,1.622
			c-0.544,0.445-1.191,0.68-1.941,0.703h-0.108h-0.029h-0.007c-0.784-0.008-1.458-0.238-2.02-0.691
			c-0.539-0.437-0.823-0.966-0.852-1.587l-0.007-0.076v-0.006c0-0.172,0.075-0.318,0.224-0.439c0.149-0.121,0.327-0.181,0.534-0.181
			c0.211,0,0.389,0.061,0.534,0.181c0.149,0.121,0.224,0.267,0.224,0.439v0.018c0.005,0.304,0.141,0.564,0.411,0.778
			c0.269,0.219,0.589,0.33,0.96,0.334h0.029h0.021h0.021c0.361-0.011,0.674-0.125,0.938-0.339c0.269-0.219,0.404-0.476,0.404-0.773
			v-0.018l0.007-0.082c0.096-0.827-0.084-1.559-0.541-2.195c-0.274-0.375-0.786-0.851-1.537-1.428
			c-0.75-0.577-1.265-1.036-1.544-1.376c-0.457-0.57-0.685-1.204-0.685-1.903v-0.018h0.007l-0.007-0.006
			c0.01-0.636,0.291-1.182,0.844-1.639h0.007c0.539-0.445,1.193-0.677,1.963-0.697l0.087-0.006h0.029v0.006l0.007-0.006
			c0.784,0.008,1.458,0.239,2.02,0.691c0.544,0.441,0.83,0.967,0.859,1.581v0.082L38.284,75.477L38.284,75.477z"/>
		<path fill="#FF543F" d="M46.54,75.459l0.007-0.07c0.024-0.621,0.308-1.15,0.852-1.586c0.558-0.453,1.232-0.683,2.02-0.691h0.007
			h0.036l0.115,0.006c0.39,0.016,0.76,0.09,1.111,0.223l0.037,0.017l0.029,0.012l0.007,0.006l0.159,0.07l0.036,0.018l0.029,0.012
			l0.007,0.005c0.428,0.219,0.763,0.507,1.003,0.867c0.101,0.148,0.12,0.304,0.057,0.468c-0.057,0.16-0.178,0.281-0.361,0.363
			c-0.183,0.082-0.373,0.097-0.57,0.047c-0.202-0.047-0.354-0.144-0.455-0.293c-0.115-0.175-0.279-0.316-0.491-0.421l-0.137-0.059
			v-0.006c-0.178-0.066-0.368-0.101-0.57-0.105h-0.043c-0.375,0-0.695,0.109-0.959,0.328c-0.27,0.215-0.407,0.476-0.411,0.784v7.025
			c0.005,0.304,0.141,0.565,0.411,0.784c0.269,0.219,0.589,0.328,0.959,0.328h0.036h0.022h0.021
			c0.178-0.004,0.356-0.041,0.534-0.111l0.159-0.071h0.007c0.193-0.101,0.346-0.238,0.462-0.409
			c0.101-0.149,0.253-0.248,0.455-0.299c0.197-0.047,0.387-0.029,0.57,0.053c0.183,0.082,0.303,0.203,0.361,0.363
			c0.063,0.164,0.043,0.32-0.057,0.469c-0.24,0.355-0.568,0.642-0.982,0.86l-0.094,0.041l-0.108,0.047
			c-0.019,0.011-0.06,0.031-0.123,0.058c-0.361,0.137-0.733,0.211-1.118,0.223l-0.109,0.006h-0.036v-0.006h-0.007
			c-0.789-0.004-1.463-0.232-2.02-0.685c-0.539-0.437-0.823-0.964-0.852-1.581l-0.007-0.076L46.54,75.459L46.54,75.459z
			 M48.019,79.61c-0.207,0-0.385-0.061-0.534-0.181c-0.149-0.117-0.224-0.261-0.224-0.434s0.074-0.316,0.224-0.434
			c0.149-0.121,0.327-0.181,0.534-0.181h2.865c0.207,0,0.385,0.06,0.534,0.181c0.149,0.117,0.224,0.261,0.224,0.434
			s-0.075,0.316-0.224,0.434c-0.149,0.121-0.327,0.181-0.534,0.181H48.019z"/>
		<path fill="#FF543F" d="M65.245,84.82c-0.207,0-0.385-0.061-0.534-0.182c-0.149-0.121-0.224-0.265-0.224-0.433v-8.753h0.007
			c-0.005-0.297-0.142-0.556-0.411-0.779c-0.269-0.219-0.587-0.329-0.952-0.334h-0.043c-0.371,0-0.688,0.109-0.952,0.328
			c-0.265,0.215-0.399,0.476-0.404,0.784v8.753c0,0.167-0.074,0.312-0.224,0.433c-0.149,0.121-0.327,0.182-0.534,0.182
			c-0.207,0-0.382-0.061-0.527-0.182c-0.149-0.121-0.224-0.265-0.224-0.433v-8.746l0.007-0.07c0.024-0.621,0.305-1.15,0.844-1.586
			c0.558-0.453,1.227-0.683,2.007-0.691h0.036l0.101,0.006c0.755,0.02,1.4,0.252,1.934,0.697c0.043,0.035,0.084,0.07,0.123,0.105
			c0.043-0.042,0.089-0.084,0.137-0.123c0.553-0.449,1.222-0.677,2.006-0.685h0.036l0.094,0.006c0.755,0.02,1.402,0.252,1.941,0.697
			c0.553,0.453,0.832,0.998,0.837,1.633v8.759c0,0.167-0.072,0.312-0.216,0.433c-0.149,0.121-0.327,0.182-0.534,0.182
			c-0.207,0-0.385-0.061-0.534-0.182c-0.144-0.121-0.217-0.265-0.217-0.433v-8.758c-0.005-0.293-0.139-0.55-0.404-0.773
			c-0.269-0.219-0.589-0.329-0.96-0.334l-0.043-0.005c-0.366,0.004-0.683,0.115-0.952,0.333c-0.265,0.215-0.399,0.476-0.404,0.784
			v8.753c0,0.167-0.075,0.312-0.224,0.433c-0.144,0.121-0.32,0.182-0.527,0.182L65.245,84.82L65.245,84.82z"/>
		<path fill="#FF543F" d="M78.402,75.459l0.007-0.07c0.024-0.621,0.308-1.15,0.852-1.586c0.558-0.453,1.232-0.683,2.02-0.691h0.007
			h0.036l0.115,0.006c0.39,0.016,0.76,0.09,1.111,0.223l0.037,0.017l0.029,0.012l0.007,0.006l0.159,0.07l0.036,0.018l0.029,0.012
			l0.007,0.005c0.428,0.219,0.763,0.507,1.003,0.867c0.101,0.148,0.12,0.304,0.057,0.468c-0.057,0.16-0.178,0.281-0.361,0.363
			c-0.183,0.082-0.373,0.097-0.57,0.047c-0.202-0.047-0.354-0.144-0.455-0.293c-0.115-0.175-0.279-0.316-0.491-0.421l-0.137-0.059
			v-0.006c-0.178-0.066-0.368-0.101-0.57-0.105h-0.043c-0.375,0-0.695,0.109-0.959,0.328c-0.27,0.215-0.407,0.476-0.411,0.784v7.025
			c0.005,0.304,0.141,0.565,0.411,0.784c0.269,0.219,0.589,0.328,0.959,0.328h0.036h0.022h0.021
			c0.178-0.004,0.356-0.041,0.534-0.111l0.159-0.071h0.007c0.193-0.101,0.346-0.238,0.462-0.409
			c0.101-0.149,0.253-0.248,0.455-0.299c0.197-0.047,0.387-0.029,0.57,0.053c0.183,0.082,0.303,0.203,0.361,0.363
			c0.063,0.164,0.043,0.32-0.057,0.469c-0.24,0.355-0.568,0.642-0.982,0.86l-0.094,0.041l-0.108,0.047
			c-0.019,0.011-0.06,0.031-0.123,0.058c-0.361,0.137-0.733,0.211-1.118,0.223l-0.109,0.006h-0.036v-0.006h-0.007
			c-0.789-0.004-1.463-0.232-2.02-0.685c-0.539-0.437-0.823-0.964-0.852-1.581l-0.007-0.076L78.402,75.459L78.402,75.459z
			 M79.881,79.61c-0.207,0-0.385-0.061-0.534-0.181c-0.149-0.117-0.224-0.261-0.224-0.434s0.074-0.316,0.224-0.434
			c0.149-0.121,0.327-0.181,0.534-0.181h2.865c0.207,0,0.385,0.06,0.534,0.181c0.149,0.117,0.224,0.261,0.224,0.434
			s-0.075,0.316-0.224,0.434c-0.149,0.121-0.327,0.181-0.534,0.181H79.881z"/>
		<path fill="#FF543F" d="M93.593,84.206c0,0.167-0.074,0.312-0.224,0.433c-0.149,0.121-0.327,0.182-0.534,0.182
			s-0.382-0.061-0.527-0.182c-0.149-0.121-0.224-0.265-0.224-0.433v-8.747l0.007-0.07c0.024-0.621,0.305-1.15,0.844-1.586
			c0.558-0.453,1.227-0.683,2.006-0.691h0.007h0.029l0.101,0.006c0.755,0.02,1.4,0.252,1.934,0.697
			c0.553,0.457,0.834,1.001,0.844,1.633v0.006v8.753c0,0.167-0.075,0.312-0.224,0.433c-0.145,0.121-0.32,0.182-0.527,0.182
			c-0.207,0-0.385-0.061-0.534-0.182c-0.149-0.121-0.224-0.265-0.224-0.433v-8.753h0.007c-0.005-0.297-0.142-0.556-0.411-0.779
			c-0.269-0.219-0.587-0.329-0.952-0.334H94.95c-0.371,0-0.688,0.109-0.952,0.328c-0.265,0.215-0.399,0.476-0.404,0.784
			L93.593,84.206L93.593,84.206z"/>
		<path fill="#FF543F" d="M110.999,73.111c0.207,0,0.385,0.061,0.533,0.182c0.149,0.121,0.224,0.266,0.224,0.434
			c0,0.172-0.074,0.318-0.224,0.439c-0.149,0.117-0.327,0.176-0.533,0.176h-1.4v9.865c0,0.167-0.074,0.312-0.224,0.433
			c-0.144,0.121-0.322,0.182-0.533,0.182c-0.207,0-0.385-0.061-0.534-0.182c-0.149-0.121-0.224-0.265-0.224-0.433v-9.865h-1.393
			c-0.207,0-0.385-0.058-0.534-0.176c-0.149-0.121-0.224-0.267-0.224-0.439c0-0.167,0.075-0.313,0.224-0.434
			c0.149-0.121,0.327-0.182,0.534-0.182H110.999z"/>
	</g>
	<g>
		<path fill="#28B09A" d="M6.612,93.924l0.007-0.071c0.024-0.621,0.308-1.149,0.852-1.586c0.558-0.453,1.232-0.683,2.02-0.691h0.007
			h0.036l0.115,0.006c0.39,0.016,0.76,0.09,1.111,0.222l0.037,0.018l0.029,0.012l0.007,0.005l0.159,0.07l0.036,0.018l0.029,0.011
			l0.007,0.005c0.428,0.219,0.763,0.507,1.003,0.867c0.101,0.149,0.12,0.305,0.057,0.468c-0.057,0.161-0.178,0.281-0.361,0.363
			c-0.183,0.082-0.373,0.097-0.57,0.047c-0.202-0.047-0.354-0.145-0.455-0.293c-0.115-0.176-0.279-0.316-0.491-0.421l-0.137-0.059
			V92.91c-0.178-0.066-0.368-0.101-0.57-0.105H9.499c-0.375,0-0.695,0.109-0.96,0.328c-0.27,0.215-0.407,0.476-0.411,0.785v7.025
			c0.005,0.304,0.141,0.566,0.411,0.784c0.269,0.219,0.589,0.328,0.96,0.328h0.036h0.022h0.021c0.178-0.004,0.356-0.041,0.534-0.111
			l0.159-0.07h0.007c0.193-0.101,0.346-0.238,0.462-0.41c0.101-0.148,0.253-0.248,0.455-0.298c0.197-0.047,0.387-0.03,0.57,0.053
			c0.183,0.082,0.303,0.203,0.361,0.363c0.063,0.164,0.043,0.32-0.057,0.468c-0.24,0.355-0.568,0.642-0.982,0.861l-0.094,0.041
			l-0.108,0.047c-0.019,0.012-0.06,0.031-0.123,0.059c-0.361,0.137-0.733,0.211-1.118,0.222l-0.109,0.006H9.499v-0.006H9.492
			c-0.789-0.004-1.463-0.232-2.02-0.685c-0.539-0.437-0.823-0.964-0.852-1.581l-0.007-0.076V93.924z"/>
		<path fill="#28B09A" d="M20.233,91.576l0.101,0.006c0.755,0.019,1.4,0.25,1.934,0.691c0.553,0.457,0.834,1.003,0.844,1.639v0.006
			v7.008v0.088c-0.034,0.613-0.318,1.138-0.852,1.575l-0.065,0.053c-0.553,0.421-1.2,0.634-1.941,0.638h-0.007v0.006h-0.029
			l-0.101-0.006c-0.751-0.023-1.395-0.255-1.934-0.696c-0.554-0.457-0.835-1.003-0.844-1.639l0.007-0.006H17.34V93.93l0.007-0.077
			c0.024-0.621,0.305-1.151,0.844-1.592c0.558-0.453,1.227-0.681,2.006-0.685h0.007L20.233,91.576L20.233,91.576z M20.204,92.805
			c-0.371,0.004-0.688,0.114-0.952,0.328c-0.265,0.219-0.399,0.48-0.404,0.785v7.02h-0.007c0.005,0.301,0.139,0.56,0.404,0.779
			c0.26,0.215,0.573,0.328,0.938,0.34h0.015l0.021-0.006h0.029v0.006c0.351-0.004,0.657-0.105,0.916-0.304l0.036-0.035
			c0.26-0.214,0.397-0.466,0.411-0.755v-0.017l-0.007-0.017v-7.008h0.007c-0.005-0.301-0.14-0.56-0.404-0.779
			c-0.269-0.219-0.59-0.329-0.96-0.334L20.204,92.805L20.204,92.805z"/>
		<path fill="#28B09A" d="M28.233,92.196c0-0.172,0.075-0.318,0.224-0.439c0.149-0.121,0.327-0.181,0.534-0.181
			c0.211,0,0.392,0.061,0.541,0.181c0.149,0.121,0.224,0.267,0.224,0.439v9.859h2.836c0.207,0,0.385,0.061,0.533,0.181
			c0.149,0.121,0.224,0.266,0.224,0.433c0,0.172-0.074,0.318-0.224,0.439c-0.149,0.117-0.327,0.175-0.533,0.175h-3.601
			c-0.207,0-0.385-0.058-0.534-0.175c-0.149-0.121-0.224-0.267-0.224-0.439L28.233,92.196L28.233,92.196z"/>
		<path fill="#28B09A" d="M38.469,92.196c0-0.172,0.075-0.318,0.224-0.439c0.149-0.121,0.327-0.181,0.534-0.181
			c0.211,0,0.392,0.061,0.541,0.181c0.149,0.121,0.224,0.267,0.224,0.439v9.859h2.836c0.207,0,0.385,0.061,0.533,0.181
			c0.149,0.121,0.224,0.266,0.224,0.433c0,0.172-0.074,0.318-0.224,0.439c-0.149,0.117-0.327,0.175-0.533,0.175h-3.601
			c-0.207,0-0.385-0.058-0.534-0.175c-0.149-0.121-0.224-0.267-0.224-0.439V92.196z"/>
		<path fill="#28B09A" d="M48.706,93.924l0.007-0.071c0.024-0.621,0.308-1.149,0.852-1.586c0.558-0.453,1.232-0.683,2.02-0.691
			h0.007h0.036l0.115,0.006c0.39,0.016,0.76,0.09,1.111,0.222l0.037,0.018l0.029,0.012l0.007,0.005l0.159,0.07l0.036,0.018
			l0.029,0.011l0.007,0.005c0.428,0.219,0.763,0.507,1.003,0.867c0.101,0.149,0.12,0.305,0.057,0.468
			c-0.057,0.161-0.178,0.281-0.361,0.363c-0.183,0.082-0.373,0.097-0.57,0.047c-0.202-0.047-0.354-0.145-0.455-0.293
			c-0.115-0.176-0.279-0.316-0.491-0.421l-0.137-0.059V92.91c-0.178-0.066-0.368-0.101-0.57-0.105h-0.043
			c-0.375,0-0.695,0.109-0.96,0.328c-0.27,0.215-0.407,0.476-0.411,0.785v7.025c0.005,0.304,0.141,0.566,0.411,0.784
			c0.269,0.219,0.589,0.328,0.96,0.328h0.036h0.022h0.021c0.178-0.004,0.356-0.041,0.534-0.111l0.159-0.07h0.007
			c0.193-0.101,0.346-0.238,0.462-0.41c0.101-0.148,0.253-0.248,0.455-0.298c0.197-0.047,0.387-0.03,0.57,0.053
			c0.183,0.082,0.303,0.203,0.361,0.363c0.063,0.164,0.043,0.32-0.057,0.468c-0.24,0.355-0.568,0.642-0.982,0.861l-0.094,0.041
			l-0.108,0.047c-0.019,0.012-0.06,0.031-0.123,0.059c-0.361,0.137-0.733,0.211-1.118,0.222l-0.109,0.006h-0.036v-0.006h-0.007
			c-0.789-0.004-1.463-0.232-2.02-0.685c-0.539-0.437-0.823-0.964-0.852-1.581l-0.007-0.076L48.706,93.924L48.706,93.924z
			 M50.186,98.075c-0.207,0-0.385-0.061-0.534-0.182c-0.149-0.117-0.224-0.261-0.224-0.433c0-0.172,0.074-0.316,0.224-0.433
			c0.149-0.121,0.327-0.182,0.534-0.182h2.865c0.207,0,0.385,0.061,0.534,0.182c0.149,0.117,0.224,0.261,0.224,0.433
			s-0.075,0.316-0.224,0.433c-0.149,0.121-0.327,0.182-0.534,0.182H50.186z"/>
		<path fill="#28B09A" d="M59.434,93.924l0.007-0.071c0.024-0.621,0.308-1.149,0.852-1.586c0.558-0.453,1.232-0.683,2.02-0.691
			h0.007h0.036l0.115,0.006c0.39,0.016,0.76,0.09,1.111,0.222l0.037,0.018l0.029,0.012l0.007,0.005l0.159,0.07l0.036,0.018
			l0.029,0.011l0.007,0.005c0.428,0.219,0.763,0.507,1.003,0.867c0.101,0.149,0.12,0.305,0.057,0.468
			c-0.057,0.161-0.178,0.281-0.361,0.363c-0.183,0.082-0.373,0.097-0.57,0.047c-0.202-0.047-0.354-0.145-0.455-0.293
			c-0.115-0.176-0.279-0.316-0.491-0.421l-0.137-0.059V92.91c-0.178-0.066-0.368-0.101-0.57-0.105H62.32
			c-0.375,0-0.695,0.109-0.96,0.328c-0.27,0.215-0.407,0.476-0.411,0.785v7.025c0.005,0.304,0.141,0.566,0.411,0.784
			c0.269,0.219,0.589,0.328,0.96,0.328h0.036h0.022h0.021c0.178-0.004,0.356-0.041,0.534-0.111l0.159-0.07h0.007
			c0.193-0.101,0.346-0.238,0.462-0.41c0.101-0.148,0.253-0.248,0.455-0.298c0.197-0.047,0.387-0.03,0.57,0.053
			c0.183,0.082,0.303,0.203,0.361,0.363c0.063,0.164,0.043,0.32-0.057,0.468c-0.24,0.355-0.568,0.642-0.982,0.861l-0.094,0.041
			l-0.108,0.047c-0.019,0.012-0.06,0.031-0.123,0.059c-0.361,0.137-0.733,0.211-1.118,0.222l-0.109,0.006h-0.036v-0.006h-0.007
			c-0.789-0.004-1.463-0.232-2.02-0.685c-0.539-0.437-0.823-0.964-0.852-1.581l-0.007-0.076L59.434,93.924L59.434,93.924z"/>
		<path fill="#28B09A" d="M75.227,91.576c0.207,0,0.385,0.061,0.533,0.181c0.149,0.121,0.224,0.266,0.224,0.434
			c0,0.172-0.074,0.318-0.224,0.439c-0.149,0.117-0.327,0.175-0.533,0.175h-1.4v9.865c0,0.168-0.074,0.312-0.224,0.434
			c-0.144,0.121-0.322,0.181-0.533,0.181c-0.207,0-0.385-0.06-0.534-0.181c-0.149-0.121-0.224-0.265-0.224-0.434v-9.865h-1.393
			c-0.207,0-0.385-0.058-0.534-0.175c-0.149-0.121-0.224-0.267-0.224-0.439c0-0.167,0.075-0.312,0.224-0.434
			c0.149-0.121,0.327-0.181,0.534-0.181H75.227z"/>
		<path fill="#28B09A" d="M81.105,92.196c0-0.172,0.072-0.318,0.217-0.439c0.144-0.121,0.319-0.181,0.527-0.181
			c0.202,0,0.376,0.061,0.519,0.181c0.145,0.121,0.217,0.267,0.217,0.439v10.462c0,0.172-0.072,0.32-0.217,0.445
			c-0.144,0.121-0.317,0.181-0.519,0.181c-0.207,0-0.382-0.06-0.527-0.181c-0.145-0.125-0.217-0.273-0.217-0.445V92.196z"/>
		<path fill="#28B09A" d="M87.87,91.863c0.115-0.144,0.274-0.234,0.476-0.269c0.202-0.035,0.392-0.008,0.57,0.082
			c0.178,0.09,0.289,0.219,0.332,0.387l2.136,7.78l2.129-7.78c0.043-0.168,0.154-0.297,0.332-0.387
			c0.178-0.09,0.368-0.117,0.57-0.082c0.207,0.035,0.366,0.125,0.476,0.269c0.111,0.145,0.145,0.299,0.101,0.462l-2.85,10.41
			c-0.039,0.293-0.238,0.472-0.599,0.538c-0.202,0.035-0.392,0.008-0.57-0.082c-0.178-0.094-0.288-0.222-0.332-0.387l-2.872-10.48
			C87.726,92.161,87.76,92.007,87.87,91.863z"/>
		<path fill="#28B09A" d="M100.178,93.924l0.007-0.071c0.024-0.621,0.308-1.149,0.852-1.586c0.558-0.453,1.232-0.683,2.02-0.691
			h0.007h0.036l0.115,0.006c0.39,0.016,0.76,0.09,1.111,0.222l0.037,0.018l0.029,0.012l0.007,0.005l0.159,0.07l0.036,0.018
			l0.029,0.011l0.007,0.005c0.428,0.219,0.763,0.507,1.003,0.867c0.101,0.149,0.12,0.305,0.057,0.468
			c-0.057,0.161-0.178,0.281-0.361,0.363c-0.183,0.082-0.373,0.097-0.57,0.047c-0.202-0.047-0.354-0.145-0.455-0.293
			c-0.115-0.176-0.279-0.316-0.491-0.421l-0.137-0.059V92.91c-0.178-0.066-0.368-0.101-0.57-0.105h-0.043
			c-0.375,0-0.695,0.109-0.96,0.328c-0.27,0.215-0.407,0.476-0.411,0.785v7.025c0.005,0.304,0.141,0.566,0.411,0.784
			c0.269,0.219,0.589,0.328,0.96,0.328h0.036h0.022h0.021c0.178-0.004,0.356-0.041,0.534-0.111l0.159-0.07h0.007
			c0.193-0.101,0.346-0.238,0.462-0.41c0.101-0.148,0.253-0.248,0.455-0.298c0.197-0.047,0.387-0.03,0.57,0.053
			c0.183,0.082,0.303,0.203,0.361,0.363c0.063,0.164,0.043,0.32-0.057,0.468c-0.24,0.355-0.568,0.642-0.982,0.861l-0.094,0.041
			l-0.108,0.047c-0.019,0.012-0.06,0.031-0.123,0.059c-0.361,0.137-0.733,0.211-1.118,0.222l-0.109,0.006h-0.036v-0.006h-0.007
			c-0.789-0.004-1.463-0.232-2.02-0.685c-0.539-0.437-0.823-0.964-0.852-1.581l-0.007-0.076L100.178,93.924L100.178,93.924z
			 M101.657,98.075c-0.207,0-0.385-0.061-0.534-0.182c-0.149-0.117-0.224-0.261-0.224-0.433c0-0.172,0.074-0.316,0.224-0.433
			c0.149-0.121,0.327-0.182,0.534-0.182h2.865c0.207,0,0.385,0.061,0.534,0.182c0.149,0.117,0.224,0.261,0.224,0.433
			s-0.075,0.316-0.224,0.433c-0.149,0.121-0.327,0.182-0.534,0.182H101.657z"/>
	</g>
</g>
</svg>
