<?xml version="1.0" encoding="UTF-8" standalone="no"?>
<!DOCTYPE svg PUBLIC "-//W3C//DTD SVG 1.1//EN" "http://www.w3.org/Graphics/SVG/1.1/DTD/svg11.dtd">
<svg width="100%" height="100%" viewBox="0 0 19 19" version="1.1" xmlns="http://www.w3.org/2000/svg" xmlns:xlink="http://www.w3.org/1999/xlink" xml:space="preserve" style="fill-rule:evenodd;clip-rule:evenodd;stroke-linejoin:round;stroke-miterlimit:1.41421;">
    <g id="XMLID_511_" transform="matrix(0.703704,0,0,0.766129,129.481,-225.319)">
        <g transform="matrix(1.42105,0,0,1.30526,-184,294.1)">
            <path d="M14.003,0C14.173,0.002 14.342,0.009 14.51,0.026C14.923,0.068 15.33,0.161 15.719,0.304C16.399,0.553 17.022,0.953 17.535,1.465C18.047,1.978 18.447,2.601 18.696,3.281C18.824,3.631 18.913,3.995 18.96,4.364C18.981,4.533 18.992,4.702 18.998,4.871C19.037,7.915 19,10.959 19,14.003C18.998,14.173 18.991,14.342 18.974,14.51C18.932,14.923 18.839,15.33 18.696,15.719C18.447,16.399 18.047,17.022 17.535,17.535C17.022,18.047 16.399,18.447 15.719,18.696C15.369,18.824 15.005,18.913 14.636,18.96C14.467,18.981 14.298,18.992 14.129,18.998C11.085,19.037 8.041,19 4.997,19C4.827,18.998 4.658,18.991 4.49,18.974C4.077,18.932 3.67,18.839 3.281,18.696C2.601,18.447 1.978,18.047 1.465,17.535C0.953,17.022 0.553,16.399 0.304,15.719C0.176,15.369 0.087,15.005 0.04,14.636C0.019,14.467 0.008,14.298 0.002,14.129C-0.037,11.085 0,8.041 0,4.997C0.002,4.827 0.009,4.658 0.026,4.49C0.068,4.077 0.161,3.67 0.304,3.281C0.553,2.601 0.953,1.978 1.465,1.465C1.978,0.953 2.601,0.553 3.281,0.304C3.631,0.176 3.995,0.087 4.364,0.04C4.533,0.019 4.702,0.008 4.871,0.002C7.915,-0.037 10.959,0 14.003,0ZM5.003,1C4.865,1.002 4.728,1.007 4.591,1.021C4.261,1.054 3.936,1.129 3.625,1.243C2.53,1.644 1.644,2.53 1.243,3.625C1.093,4.035 1.018,4.462 1.001,4.897C0.963,7.93 1,10.963 1,13.997C1.002,14.135 1.007,14.272 1.021,14.409C1.054,14.739 1.129,15.064 1.243,15.375C1.644,16.47 2.53,17.356 3.625,17.757C4.035,17.907 4.462,17.982 4.897,17.999C7.93,18.037 10.963,18 13.997,18C14.135,17.998 14.272,17.993 14.409,17.979C14.739,17.946 15.064,17.871 15.375,17.757C16.47,17.356 17.356,16.47 17.757,15.375C17.907,14.965 17.982,14.538 17.999,14.103C18.037,11.07 18,8.037 18,5.003C17.998,4.865 17.993,4.728 17.979,4.591C17.946,4.261 17.871,3.936 17.757,3.625C17.356,2.53 16.47,1.644 15.375,1.243C14.965,1.093 14.538,1.018 14.103,1.001C11.07,0.963 8.037,1 5.003,1Z" style="fill:rgb(102,102,102);fill-rule:nonzero;"/>
        </g>
        <g transform="matrix(0.947368,0,0,0.290058,-179.5,307.66)">
            <path d="M15.596,-1.747C16.097,-1.689 16.586,-1.375 17.043,-0.755C18.041,0.599 18.808,3.262 19.108,6.422C19.22,7.607 19.266,8.847 19.245,10.077C19.225,11.291 19.138,12.494 18.989,13.625C18.823,14.888 18.58,16.058 18.275,17.064C17.952,18.132 17.559,19.012 17.126,19.639C16.646,20.333 16.128,20.686 15.596,20.747C11.532,20.901 7.468,20.901 3.404,20.747C2.872,20.686 2.354,20.333 1.874,19.639C1.441,19.012 1.048,18.132 0.725,17.064C0.42,16.058 0.177,14.888 0.011,13.625C-0.138,12.494 -0.225,11.291 -0.245,10.077C-0.266,8.847 -0.22,7.607 -0.108,6.422C0.192,3.262 0.959,0.599 1.957,-0.755C2.414,-1.375 2.903,-1.689 3.404,-1.747C7.468,-1.901 11.532,-1.901 15.596,-1.747ZM3.505,2.75C3.183,2.762 2.869,2.947 2.575,3.346C2.311,3.704 2.071,4.216 1.872,4.845C1.684,5.434 1.533,6.125 1.427,6.875C1.332,7.543 1.275,8.256 1.257,8.979C1.238,9.719 1.259,10.468 1.321,11.187C1.489,13.151 1.959,14.819 2.575,15.654C2.849,16.026 3.142,16.213 3.442,16.248C7.5,16.402 11.561,16.704 15.616,16.241C15.933,16.181 16.24,15.947 16.523,15.512C16.781,15.117 17.012,14.571 17.201,13.915C17.379,13.298 17.52,12.585 17.614,11.819C17.697,11.133 17.743,10.406 17.749,9.675C17.755,8.938 17.722,8.198 17.649,7.494C17.459,5.666 17.006,4.134 16.425,3.346C16.169,2.998 15.896,2.812 15.616,2.759C11.582,2.299 7.542,2.75 3.505,2.75Z" style="fill:rgb(102,102,102);fill-rule:nonzero;"/>
        </g>
        <g transform="matrix(0.947368,0,0,0.290058,-179.5,299.829)">
            <path d="M15.596,-1.747C16.128,-1.686 16.646,-1.333 17.126,-0.639C17.559,-0.012 17.952,0.868 18.275,1.936C18.58,2.942 18.823,4.112 18.989,5.375C19.138,6.506 19.225,7.709 19.245,8.923C19.266,10.153 19.22,11.393 19.108,12.578C18.808,15.738 18.041,18.401 17.043,19.755C16.586,20.375 16.097,20.689 15.596,20.747C11.532,20.901 7.468,20.901 3.404,20.747C2.903,20.689 2.414,20.375 1.957,19.755C0.959,18.401 0.192,15.738 -0.108,12.578C-0.22,11.393 -0.266,10.153 -0.245,8.923C-0.225,7.709 -0.138,6.506 0.011,5.375C0.177,4.112 0.42,2.942 0.725,1.936C1.048,0.868 1.441,-0.012 1.874,-0.639C2.354,-1.333 2.872,-1.686 3.404,-1.747C7.468,-1.901 11.532,-1.901 15.596,-1.747ZM3.505,2.75C3.183,2.762 2.869,2.947 2.575,3.346C2.311,3.704 2.071,4.216 1.872,4.845C1.684,5.434 1.533,6.125 1.427,6.875C1.332,7.543 1.275,8.256 1.257,8.979C1.238,9.719 1.259,10.468 1.321,11.187C1.489,13.151 1.959,14.819 2.575,15.654C2.849,16.026 3.142,16.213 3.442,16.248C7.5,16.402 11.561,16.704 15.616,16.241C15.896,16.188 16.169,16.002 16.425,15.654C17.006,14.866 17.459,13.334 17.649,11.506C17.722,10.802 17.755,10.062 17.749,9.325C17.743,8.594 17.697,7.867 17.614,7.181C17.52,6.415 17.379,5.702 17.201,5.085C17.012,4.429 16.781,3.883 16.523,3.488C16.24,3.053 15.933,2.819 15.616,2.759C11.582,2.298 7.542,2.75 3.505,2.75Z" style="fill:rgb(102,102,102);fill-rule:nonzero;"/>
        </g>
    </g>
</svg>
