<?xml version="1.0" encoding="utf-8"?>
<!-- Generator: Adobe Illustrator 19.0.0, SVG Export Plug-In . SVG Version: 6.00 Build 0)  -->
<svg version="1.1" id="Layer_1" xmlns="http://www.w3.org/2000/svg" xmlns:xlink="http://www.w3.org/1999/xlink" x="0px" y="0px"
	 viewBox="0 0 27 27" style="enable-background:new 0 0 27 27;" xml:space="preserve">
<style type="text/css">
	.st0{fill:#B4B4B4;}
</style>
<g id="XMLID_1099_">
	<g id="XMLID_39_">
		<path id="XMLID_40_" class="st0" d="M60.5,176.1H49.1c-0.9,0-1.7,0.8-1.7,1.7v1.9c0,0.5,0.2,0.8,0.5,1.1l4.5,5.3
			c0.1,0.1,0.1,0.2,0.1,0.3v7.6c0,0.9,0.8,1.7,1.7,1.7c0.2,0,0.6-0.1,0.8-0.3l1.1-0.6c0.6-0.2,0.9-0.8,0.9-1.5v-7
			c0-0.1,0-0.2,0.1-0.3l4.5-5.3c0.3-0.3,0.5-0.7,0.5-1.1v-1.8C62.2,176.9,61.4,176.1,60.5,176.1L60.5,176.1z M49.1,177.3h11.4
			c0.3,0,0.6,0.2,0.6,0.6v1.7H48.6v-1.7C48.6,177.5,48.8,177.3,49.1,177.3z M56.4,185.3c-0.3,0.3-0.5,0.7-0.5,1.1v7
			c0,0.1-0.1,0.3-0.3,0.5l-1.1,0.6c-0.3,0.2-0.8,0-0.8-0.5v-7.6c0-0.5-0.2-0.8-0.5-1.1l-4-4.7h11.1L56.4,185.3L56.4,185.3z"/>
	</g>
</g>
<g id="XMLID_1_">
	<g id="XMLID_50_">
		<path id="XMLID_51_" class="st0" d="M21,0.4H6c-1.2,0-2.3,1.1-2.3,2.3v2.6c0,0.6,0.3,1.1,0.6,1.5l6,7.1c0.2,0.2,0.2,0.3,0.2,0.5
			v10.1c0,1.2,1.1,2.3,2.3,2.3c0.3,0,0.8-0.2,1.1-0.5l1.5-0.8c0.8-0.3,1.2-1.1,1.2-2v-9.3c0-0.2,0-0.3,0.2-0.5l6-7.1
			c0.5-0.5,0.6-0.9,0.6-1.5V2.7C23.3,1.5,22.2,0.4,21,0.4L21,0.4z M6,1.9h15c0.5,0,0.8,0.3,0.8,0.8v2.3H5.2V2.7
			C5.2,2.2,5.5,1.9,6,1.9z M15.6,12.6C15.2,13,15,13.5,15,14.1v9.3c0,0.2-0.2,0.5-0.5,0.6L13,24.8c-0.5,0.3-1.1,0-1.1-0.6V14.1
			c0-0.6-0.3-1.1-0.6-1.5L6.1,6.4h14.7L15.6,12.6L15.6,12.6z"/>
	</g>
</g>
</svg>
