<?xml version="1.0" encoding="utf-8"?>
<!-- Generator: Adobe Illustrator 19.0.0, SVG Export Plug-In . SVG Version: 6.00 Build 0)  -->
<svg version="1.1" id="Layer_1" xmlns="http://www.w3.org/2000/svg" xmlns:xlink="http://www.w3.org/1999/xlink" x="0px" y="0px"
	 viewBox="0 0 27 27" style="enable-background:new 0 0 27 27;" xml:space="preserve">
<style type="text/css">
	.st0{fill:#B4B4B4;}
	.st1{fill:#A7A9AC;}
	.st2{fill:#D1D3D4;}
	.st3{fill:#F1F2F2;}
</style>
<g id="XMLID_1099_">
	<g id="XMLID_39_">
		<path id="XMLID_40_" class="st0" d="M60.5,176.1H49.1c-0.9,0-1.7,0.8-1.7,1.7v1.9c0,0.5,0.2,0.8,0.5,1.1l4.5,5.3
			c0.1,0.1,0.1,0.2,0.1,0.3v7.6c0,0.9,0.8,1.7,1.7,1.7c0.2,0,0.6-0.1,0.8-0.3l1.1-0.6c0.6-0.2,0.9-0.8,0.9-1.5v-7
			c0-0.1,0-0.2,0.1-0.3l4.5-5.3c0.3-0.3,0.5-0.7,0.5-1.1v-1.8C62.2,176.9,61.4,176.1,60.5,176.1L60.5,176.1z M49.1,177.3h11.4
			c0.3,0,0.6,0.2,0.6,0.6v1.7H48.6v-1.7C48.6,177.5,48.8,177.3,49.1,177.3z M56.4,185.3c-0.3,0.3-0.5,0.7-0.5,1.1v7
			c0,0.1-0.1,0.3-0.3,0.5l-1.1,0.6c-0.3,0.2-0.8,0-0.8-0.5v-7.6c0-0.5-0.2-0.8-0.5-1.1l-4-4.7h11.1L56.4,185.3L56.4,185.3z"/>
	</g>
</g>
<g id="XMLID_1321_">
	<path id="XMLID_1320_" class="st1" d="M23.9,4.2l0.9,11c0.2,2.9-1.8,5.3-4.5,5.3H6.7c-2.7,0-4.7-2.4-4.5-5.3l0.9-11
		C3.3,1.8,5.4,0,7.7,0h11.6C21.6,0,23.7,1.8,23.9,4.2z"/>
	<path id="XMLID_1319_" class="st2" d="M25.3,5.7l1,11.3c0.3,2.9-2,5.4-5.1,5.4H5.8c-3.1,0-5.4-2.5-5.1-5.4l1-11.3
		c0.2-2.4,2.5-4.3,5.2-4.3h13.2C22.8,1.5,25.1,3.3,25.3,5.7z"/>
	<path id="XMLID_1333_" class="st3" d="M26.5,8.6v12.9c0,3-2.5,5.5-5.5,5.5H6c-3,0-5.5-2.5-5.5-5.5V8.6c0-3,2.5-5.5,5.5-5.5H21
		C24.1,3.1,26.5,5.6,26.5,8.6z"/>
</g>
</svg>
