<?xml version="1.0" encoding="UTF-8" standalone="no"?>
<!DOCTYPE svg PUBLIC "-//W3C//DTD SVG 1.1//EN" "http://www.w3.org/Graphics/SVG/1.1/DTD/svg11.dtd">
<svg width="100%" height="100%" viewBox="0 0 21 21" version="1.1" xmlns="http://www.w3.org/2000/svg" xmlns:xlink="http://www.w3.org/1999/xlink" xml:space="preserve" style="fill-rule:evenodd;clip-rule:evenodd;stroke-linejoin:round;stroke-miterlimit:1.41421;">
    <g id="XMLID_1942_" transform="matrix(0.807692,0,0,0.807692,-0.323077,-0.403846)">
        <circle cx="13.4" cy="13.5" r="13" style="fill:rgb(63,77,85);"/>
    </g>
    <g transform="matrix(0.846154,0,0,0.846154,1.61538,1.61538)">
        <g transform="matrix(1,0,0,1.18182,0,-1.90909)">
            <path d="M17,10.5C17,10.224 16.735,10 16.409,10L4.591,10C4.265,10 4,10.224 4,10.5C4,10.776 4.265,11 4.591,11L16.409,11C16.735,11 17,10.776 17,10.5Z" style="fill:rgb(235,235,235);"/>
        </g>
        <g transform="matrix(2.83277e-16,1,-1.18182,3.34782e-16,22.9091,-3.27844e-15)">
            <path d="M17,10.5C17,10.224 16.735,10 16.409,10L4.591,10C4.265,10 4,10.224 4,10.5C4,10.776 4.265,11 4.591,11L16.409,11C16.735,11 17,10.776 17,10.5Z" style="fill:rgb(235,235,235);"/>
        </g>
    </g>
</svg>
