<?xml version="1.0" encoding="utf-8"?>
<!-- Generator: Adobe Illustrator 19.0.0, SVG Export Plug-In . SVG Version: 6.00 Build 0)  -->
<svg version="1.1" id="Layer_1" xmlns="http://www.w3.org/2000/svg" xmlns:xlink="http://www.w3.org/1999/xlink" x="0px" y="0px"
	 viewBox="0 0 27 27" style="enable-background:new 0 0 27 27;" xml:space="preserve">
<style type="text/css">
	.st0{fill:#3b4d57;}
	.st1{fill:#F1F2F2;}
</style>
<g id="XMLID_1099_">
	<g id="XMLID_39_">
		<path id="XMLID_40_" class="st0" d="M60.5,176.1H49.1c-0.9,0-1.7,0.8-1.7,1.7v1.9c0,0.5,0.2,0.8,0.5,1.1l4.5,5.3
			c0.1,0.1,0.1,0.2,0.1,0.3v7.6c0,0.9,0.8,1.7,1.7,1.7c0.2,0,0.6-0.1,0.8-0.3l1.1-0.6c0.6-0.2,0.9-0.8,0.9-1.5v-7
			c0-0.1,0-0.2,0.1-0.3l4.5-5.3c0.3-0.3,0.5-0.7,0.5-1.1v-1.8C62.2,176.9,61.4,176.1,60.5,176.1L60.5,176.1z M49.1,177.3h11.4
			c0.3,0,0.6,0.2,0.6,0.6v1.7H48.6v-1.7C48.6,177.5,48.8,177.3,49.1,177.3z M56.4,185.3c-0.3,0.3-0.5,0.7-0.5,1.1v7
			c0,0.1-0.1,0.3-0.3,0.5l-1.1,0.6c-0.3,0.2-0.8,0-0.8-0.5v-7.6c0-0.5-0.2-0.8-0.5-1.1l-4-4.7h11.1L56.4,185.3L56.4,185.3z"/>
	</g>
</g>
<g id="XMLID_511_">
	<path id="XMLID_535_" class="st1" d="M21.3,1.1H5.7C2.6,1.1,0,3.7,0,6.8v13.4c0,3.1,2.6,5.7,5.7,5.7h15.6c3.1,0,5.7-2.6,5.7-5.7
		V6.8C27,3.7,24.4,1.1,21.3,1.1z M25.1,20.2c0,2.1-1.7,3.8-3.8,3.8H5.7c-2.1,0-3.8-1.7-3.8-3.8V6.8C1.9,4.7,3.6,3,5.7,3h15.6
		c2.1,0,3.8,1.7,3.8,3.8V20.2z"/>
	<path id="XMLID_531_" class="st1" d="M19.9,14.2H7.1c-2,0-3.5,1.6-3.5,3.5s1.6,3.5,3.5,3.5h12.7c2,0,3.5-1.6,3.5-3.5
		C23.4,15.8,21.8,14.2,19.9,14.2z M19.9,19.4H7.1c-0.9,0-1.6-0.7-1.6-1.6c0-0.9,0.7-1.6,1.6-1.6h12.7c0.9,0,1.6,0.7,1.6,1.6
		C21.5,18.7,20.8,19.4,19.9,19.4z"/>
	<path id="XMLID_512_" class="st1" d="M19.9,5.7H7.1c-2,0-3.5,1.6-3.5,3.5c0,2,1.6,3.5,3.5,3.5h12.7c2,0,3.5-1.6,3.5-3.5
		C23.4,7.3,21.8,5.7,19.9,5.7z M19.9,10.8H7.1c-0.9,0-1.6-0.7-1.6-1.6s0.7-1.6,1.6-1.6h12.7c0.9,0,1.6,0.7,1.6,1.6
		C21.5,10.1,20.8,10.8,19.9,10.8z"/>
</g>
</svg>
