<?xml version="1.0" encoding="utf-8"?>
<!-- Generator: Adobe Illustrator 19.1.0, SVG Export Plug-In . SVG Version: 6.00 Build 0)  -->
<svg version="1.1" id="Layer_1" xmlns="http://www.w3.org/2000/svg" xmlns:xlink="http://www.w3.org/1999/xlink" x="0px" y="0px"
	 viewBox="-184 293 27 27" style="enable-background:new -184 293 27 27;" xml:space="preserve">
<style type="text/css">
	.st0{fill:#666666;}
</style>
<g id="XMLID_511_">
	<path id="XMLID_535_" class="st0" d="M-162.7,294.1h-15.6c-3.1,0-5.7,2.6-5.7,5.7v13.4c0,3.1,2.6,5.7,5.7,5.7h15.6
		c3.1,0,5.7-2.6,5.7-5.7v-13.4C-157,296.7-159.6,294.1-162.7,294.1z M-158.9,313.2c0,2.1-1.7,3.8-3.8,3.8h-15.6
		c-2.1,0-3.8-1.7-3.8-3.8v-13.4c0-2.1,1.7-3.8,3.8-3.8h15.6c2.1,0,3.8,1.7,3.8,3.8C-158.9,299.8-158.9,313.2-158.9,313.2z"/>
	<path id="XMLID_531_" class="st0" d="M-164.1,307.2h-12.8c-2,0-3.5,1.6-3.5,3.5c0,1.9,1.6,3.5,3.5,3.5h12.7c2,0,3.5-1.6,3.5-3.5
		C-160.6,308.8-162.2,307.2-164.1,307.2z M-164.1,312.4h-12.8c-0.9,0-1.6-0.7-1.6-1.6c0-0.9,0.7-1.6,1.6-1.6h12.7
		c0.9,0,1.6,0.7,1.6,1.6C-162.5,311.7-163.2,312.4-164.1,312.4z"/>
	<path id="XMLID_512_" class="st0" d="M-164.1,298.7h-12.8c-2,0-3.5,1.6-3.5,3.5c0,2,1.6,3.5,3.5,3.5h12.7c2,0,3.5-1.6,3.5-3.5
		C-160.6,300.3-162.2,298.7-164.1,298.7z M-164.1,303.8h-12.8c-0.9,0-1.6-0.7-1.6-1.6c0-0.9,0.7-1.6,1.6-1.6h12.7
		c0.9,0,1.6,0.7,1.6,1.6C-162.5,303.1-163.2,303.8-164.1,303.8z"/>
</g>
</svg>
