<?xml version="1.0" encoding="utf-8"?>
<!-- Generator: Adobe Illustrator 19.1.0, SVG Export Plug-In . SVG Version: 6.00 Build 0)  -->
<svg version="1.1" id="Layer_1" xmlns="http://www.w3.org/2000/svg" xmlns:xlink="http://www.w3.org/1999/xlink" x="0px" y="0px"
	 viewBox="-232 241 19 19" style="enable-background:new -232 241 19 19;" xml:space="preserve">
<style type="text/css">
	.st0{fill:#3F4D55;}
</style>
<g id="XMLID_1873_">
	<g id="XMLID_33_">
		<g id="notifications_9_">
			<path id="XMLID_34_" class="st0" d="M-222.5,260c0.6,0,1.3-0.4,1.6-0.9c0.3-0.4-0.1-1-0.6-1h-2.1c-0.5,0-0.9,0.6-0.6,1
				C-223.8,259.6-223.2,260-222.5,260z M-216.1,254.5c-0.1-0.1-0.2-0.3-0.2-0.5v-5c0-2.8-1.8-5-4.3-5.9c-0.3-0.1-0.5-0.4-0.5-0.6
				v-0.1c0-0.8-0.6-1.4-1.4-1.4c-0.8,0-1.4,0.6-1.4,1.4v0.1c0,0.3-0.2,0.6-0.5,0.6c-2.5,0.8-4.3,3-4.3,5.9v5c0,0.2-0.1,0.4-0.2,0.5
				l-1.5,1.5c-0.1,0.1-0.2,0.3-0.2,0.5l0,0c0,0.4,0.3,0.6,0.6,0.6h15c0.4,0,0.6-0.3,0.6-0.6l0,0c0-0.2-0.1-0.4-0.2-0.5L-216.1,254.5
				z"/>
		</g>
	</g>
</g>
</svg>
