<?xml version="1.0" encoding="UTF-8" standalone="no"?>
<!DOCTYPE svg PUBLIC "-//W3C//DTD SVG 1.1//EN" "http://www.w3.org/Graphics/SVG/1.1/DTD/svg11.dtd">
<svg width="100%" height="100%" viewBox="0 0 21 21" version="1.1" xmlns="http://www.w3.org/2000/svg" xmlns:xlink="http://www.w3.org/1999/xlink" xml:space="preserve" style="fill-rule:evenodd;clip-rule:evenodd;stroke-linejoin:round;stroke-miterlimit:1.41421;">
    <g transform="matrix(1.05263,0,0,1.05263,244.755,-252.684)">
        <path d="M-222.5,260C-221.9,260 -221.2,259.6 -220.9,259.1C-220.6,258.7 -221,258.1 -221.5,258.1L-223.6,258.1C-224.1,258.1 -224.5,258.7 -224.2,259.1C-223.8,259.6 -223.2,260 -222.5,260Z" style="fill:rgb(63,77,85);"/>
    </g>
    <g transform="matrix(1.125,0,0,1.11801,260.86,-269.441)">
        <path d="M-216.564,254.581C-216.664,254.481 -216.764,254.281 -216.764,254.081L-216.764,249C-216.764,246.2 -218.1,244 -220.6,243.1C-220.9,243 -221.209,242.7 -221.209,242.5L-221.209,242.4C-221.209,241.6 -221.567,241 -222.5,241C-223.433,241 -223.875,241.6 -223.875,242.4L-223.875,242.5C-223.875,242.8 -223.936,242.952 -224.4,243.1C-226.9,243.9 -228.32,246.1 -228.32,249L-228.32,254.081C-228.32,254.281 -228.42,254.481 -228.52,254.581L-230.4,256C-230.5,256.1 -230.6,256.3 -230.6,256.5C-230.6,256.9 -230.3,257.1 -230,257.1L-215,257.1C-214.6,257.1 -214.4,256.8 -214.4,256.5C-214.4,256.3 -214.5,256.1 -214.6,256L-216.564,254.581Z" style="fill:rgb(63,77,85);"/>
    </g>
</svg>
