<?xml version="1.0" encoding="utf-8"?>
<!-- Generator: Adobe Illustrator 19.1.0, SVG Export Plug-In . SVG Version: 6.00 Build 0)  -->
<svg version="1.1" id="Layer_1" xmlns="http://www.w3.org/2000/svg" xmlns:xlink="http://www.w3.org/1999/xlink" x="0px" y="0px"
	 viewBox="-184 293 27 27" style="enable-background:new -184 293 27 27;" xml:space="preserve">
<style type="text/css">
	.st0{fill:#666666;}
</style>
<g id="XMLID_516_">
	<path id="XMLID_519_" class="st0" d="M-158.6,308.1c0-4-2-7.6-5.3-9.9c-0.7-0.4-1.6-0.3-2,0.4s-0.3,1.6,0.4,2c2.5,1.7,4,4.5,4,7.4
		c0,4.9-4,9-9,9s-9-4-9-9c0-3,1.5-5.8,4-7.4c0.7-0.4,0.8-1.4,0.4-2c-0.5-0.6-1.4-0.8-2-0.3c-3.3,2.2-5.2,5.9-5.2,9.8
		c-0.1,6.6,5.3,11.9,11.8,11.9S-158.6,314.7-158.6,308.1z"/>
	<path id="XMLID_517_" class="st0" d="M-170.5,311.3L-170.5,311.3c-0.8,0-1.5-0.6-1.5-1.5v-15.3c0-0.9,0.7-1.5,1.5-1.5l0,0
		c0.8,0,1.5,0.6,1.5,1.5v15.4C-169,310.6-169.7,311.3-170.5,311.3z"/>
</g>
</svg>
