<?xml version="1.0" encoding="UTF-8" standalone="no"?>
<!DOCTYPE svg PUBLIC "-//W3C//DTD SVG 1.1//EN" "http://www.w3.org/Graphics/SVG/1.1/DTD/svg11.dtd">
<svg width="100%" height="100%" viewBox="0 0 21 21" version="1.1" xmlns="http://www.w3.org/2000/svg" xmlns:xlink="http://www.w3.org/1999/xlink" xml:space="preserve" style="fill-rule:evenodd;clip-rule:evenodd;stroke-linejoin:round;stroke-miterlimit:1.41421;">
    <g transform="matrix(0.95,0,0,0.95,-0.475,1.525)">
        <path d="M15.565,0.5L15.629,0.502L15.693,0.504L15.757,0.507L15.821,0.51L15.884,0.515L15.948,0.52L16.011,0.526L16.074,0.533L16.136,0.54L16.199,0.549L16.261,0.558L16.385,0.578L16.507,0.602L16.629,0.628L16.749,0.658L16.868,0.69L16.986,0.725L17.103,0.763L17.218,0.804L17.333,0.847L17.445,0.893L17.557,0.942L17.667,0.993L17.775,1.047L17.882,1.104L17.988,1.163L18.092,1.224L18.194,1.288L18.295,1.354L18.394,1.423L18.491,1.494L18.586,1.567L18.68,1.642L18.771,1.72L18.861,1.8L18.949,1.881L19.035,1.965L19.119,2.051L19.2,2.139L19.28,2.229L19.358,2.32L19.433,2.414L19.506,2.509L19.577,2.606L19.646,2.705L19.712,2.806L19.776,2.908L19.837,3.012L19.896,3.118L19.953,3.225L20.007,3.333L20.058,3.443L20.107,3.555L20.153,3.667L20.196,3.782L20.237,3.897L20.275,4.014L20.31,4.132L20.342,4.251L20.372,4.371L20.398,4.493L20.422,4.615L20.442,4.739L20.451,4.801L20.46,4.864L20.467,4.926L20.474,4.989L20.48,5.052L20.485,5.116L20.49,5.179L20.493,5.243L20.496,5.307L20.498,5.371L20.5,5.435L20.5,5.5L20.5,15.5L20.5,15.565L20.498,15.629L20.496,15.693L20.493,15.757L20.49,15.821L20.485,15.884L20.48,15.948L20.474,16.011L20.467,16.074L20.46,16.136L20.451,16.199L20.442,16.261L20.422,16.385L20.398,16.507L20.372,16.629L20.342,16.749L20.31,16.868L20.275,16.986L20.237,17.103L20.196,17.218L20.153,17.333L20.107,17.445L20.058,17.557L20.007,17.667L19.953,17.775L19.896,17.882L19.837,17.988L19.776,18.092L19.712,18.194L19.646,18.295L19.577,18.394L19.506,18.491L19.433,18.586L19.358,18.68L19.28,18.771L19.2,18.861L19.119,18.949L19.035,19.035L18.949,19.119L18.861,19.2L18.771,19.28L18.68,19.358L18.586,19.433L18.491,19.506L18.394,19.577L18.295,19.646L18.194,19.712L18.092,19.776L17.988,19.837L17.882,19.896L17.775,19.953L17.667,20.007L17.557,20.058L17.445,20.107L17.333,20.153L17.218,20.196L17.103,20.237L16.986,20.275L16.868,20.31L16.749,20.342L16.629,20.372L16.507,20.398L16.385,20.422L16.261,20.442L16.199,20.451L16.136,20.46L16.074,20.467L16.011,20.474L15.948,20.48L15.884,20.485L15.821,20.49L15.757,20.493L15.693,20.496L15.629,20.498L15.565,20.5L15.5,20.5L5.5,20.5L5.435,20.5L5.371,20.498L5.307,20.496L5.243,20.493L5.179,20.49L5.116,20.485L5.052,20.48L4.989,20.474L4.926,20.467L4.864,20.46L4.801,20.451L4.739,20.442L4.615,20.422L4.493,20.398L4.371,20.372L4.251,20.342L4.132,20.31L4.014,20.275L3.897,20.237L3.782,20.196L3.667,20.153L3.555,20.107L3.443,20.058L3.333,20.007L3.225,19.953L3.118,19.896L3.012,19.837L2.908,19.776L2.806,19.712L2.705,19.646L2.606,19.577L2.509,19.506L2.414,19.433L2.32,19.358L2.229,19.28L2.139,19.2L2.051,19.119L1.965,19.035L1.881,18.949L1.8,18.861L1.72,18.771L1.642,18.68L1.567,18.586L1.494,18.491L1.423,18.394L1.354,18.295L1.288,18.194L1.224,18.092L1.163,17.988L1.104,17.882L1.047,17.775L0.993,17.667L0.942,17.557L0.893,17.445L0.847,17.333L0.804,17.218L0.763,17.103L0.725,16.986L0.69,16.868L0.658,16.749L0.628,16.629L0.602,16.507L0.578,16.385L0.558,16.261L0.549,16.199L0.54,16.136L0.533,16.074L0.526,16.011L0.52,15.948L0.515,15.884L0.51,15.821L0.507,15.757L0.504,15.693L0.502,15.629L0.5,15.565L0.5,15.5L0.5,5.5L0.5,5.435L0.502,5.371L0.504,5.307L0.507,5.243L0.51,5.179L0.515,5.116L0.52,5.052L0.526,4.989L0.533,4.926L0.54,4.864L0.549,4.801L0.558,4.739L0.578,4.615L0.602,4.493L0.628,4.371L0.658,4.251L0.69,4.132L0.725,4.014L0.763,3.897L0.804,3.782L0.847,3.667L0.893,3.555L0.942,3.443L0.993,3.333L1.047,3.225L1.104,3.118L1.163,3.012L1.224,2.908L1.288,2.806L1.354,2.705L1.423,2.606L1.494,2.509L1.567,2.414L1.642,2.32L1.72,2.229L1.8,2.139L1.881,2.051L1.965,1.965L2.051,1.881L2.139,1.8L2.229,1.72L2.32,1.642L2.414,1.567L2.509,1.494L2.606,1.423L2.705,1.354L2.806,1.288L2.908,1.224L3.012,1.163L3.118,1.104L3.225,1.047L3.333,0.993L3.443,0.942L3.555,0.893L3.667,0.847L3.782,0.804L3.897,0.763L4.014,0.725L4.132,0.69L4.251,0.658L4.371,0.628L4.493,0.602L4.615,0.578L4.739,0.558L4.801,0.549L4.864,0.54L4.926,0.533L4.989,0.526L5.052,0.52L5.116,0.515L5.179,0.51L5.243,0.507L5.307,0.504L5.371,0.502L5.435,0.5L5.5,0.5L15.5,0.5L15.565,0.5ZM5.507,2.605L5.462,2.606L5.424,2.606L5.387,2.607L5.35,2.609L5.312,2.611L5.275,2.614L5.239,2.617L5.202,2.62L5.166,2.624L5.129,2.629L5.093,2.633L5.064,2.638L4.986,2.651L4.915,2.664L4.845,2.68L4.776,2.696L4.708,2.715L4.64,2.735L4.572,2.757L4.506,2.78L4.44,2.806L4.375,2.832L4.311,2.86L4.247,2.89L4.185,2.921L4.123,2.954L4.062,2.988L4.002,3.023L3.942,3.06L3.884,3.099L3.827,3.139L3.77,3.18L3.715,3.222L3.661,3.266L3.607,3.311L3.555,3.358L3.504,3.405L3.454,3.454L3.405,3.504L3.358,3.555L3.311,3.607L3.266,3.661L3.222,3.715L3.18,3.77L3.139,3.827L3.099,3.884L3.06,3.942L3.023,4.002L2.988,4.062L2.954,4.123L2.921,4.185L2.89,4.247L2.86,4.311L2.832,4.375L2.806,4.44L2.78,4.506L2.757,4.572L2.735,4.64L2.715,4.708L2.696,4.776L2.68,4.845L2.664,4.915L2.651,4.986L2.638,5.064L2.633,5.093L2.629,5.129L2.624,5.166L2.62,5.202L2.617,5.239L2.614,5.275L2.611,5.312L2.609,5.35L2.607,5.387L2.606,5.424L2.606,5.462L2.605,5.507L2.605,15.493L2.606,15.538L2.606,15.576L2.607,15.613L2.609,15.65L2.611,15.688L2.614,15.725L2.617,15.761L2.62,15.798L2.624,15.834L2.629,15.871L2.633,15.907L2.638,15.936L2.651,16.014L2.664,16.085L2.68,16.155L2.696,16.224L2.715,16.292L2.735,16.36L2.757,16.428L2.78,16.494L2.806,16.56L2.832,16.625L2.86,16.689L2.89,16.753L2.921,16.815L2.954,16.877L2.988,16.938L3.023,16.998L3.06,17.058L3.099,17.116L3.139,17.173L3.18,17.23L3.222,17.285L3.266,17.339L3.311,17.393L3.358,17.445L3.405,17.496L3.454,17.546L3.504,17.595L3.555,17.642L3.607,17.689L3.661,17.734L3.715,17.778L3.77,17.82L3.827,17.861L3.884,17.901L3.943,17.94L4.002,17.977L4.062,18.012L4.123,18.046L4.185,18.079L4.247,18.11L4.311,18.14L4.375,18.168L4.44,18.194L4.506,18.22L4.572,18.243L4.64,18.265L4.708,18.285L4.776,18.304L4.845,18.32L4.915,18.336L4.986,18.349L5.064,18.362L5.093,18.367L5.129,18.371L5.166,18.376L5.202,18.38L5.239,18.383L5.275,18.386L5.312,18.389L5.35,18.391L5.387,18.393L5.424,18.394L5.462,18.394L5.507,18.395L15.493,18.395L15.538,18.394L15.576,18.394L15.613,18.393L15.65,18.391L15.688,18.389L15.725,18.386L15.761,18.383L15.798,18.38L15.834,18.376L15.871,18.371L15.907,18.367L15.936,18.362L16.014,18.349L16.085,18.336L16.155,18.32L16.224,18.304L16.292,18.285L16.36,18.265L16.428,18.243L16.494,18.22L16.56,18.194L16.625,18.168L16.689,18.14L16.753,18.11L16.815,18.079L16.877,18.046L16.938,18.012L16.998,17.977L17.057,17.94L17.116,17.901L17.173,17.861L17.23,17.82L17.285,17.778L17.339,17.734L17.393,17.689L17.445,17.642L17.496,17.595L17.546,17.546L17.595,17.496L17.642,17.445L17.689,17.393L17.734,17.339L17.778,17.285L17.82,17.23L17.861,17.173L17.901,17.116L17.94,17.058L17.977,16.998L18.012,16.938L18.046,16.877L18.079,16.815L18.11,16.753L18.14,16.689L18.168,16.625L18.194,16.56L18.22,16.494L18.243,16.428L18.265,16.36L18.285,16.292L18.304,16.224L18.32,16.155L18.336,16.085L18.349,16.014L18.362,15.936L18.367,15.907L18.371,15.871L18.376,15.834L18.38,15.798L18.383,15.761L18.386,15.725L18.389,15.688L18.391,15.65L18.393,15.613L18.394,15.576L18.394,15.538L18.395,15.493L18.395,5.507L18.394,5.462L18.394,5.424L18.393,5.387L18.391,5.35L18.389,5.312L18.386,5.275L18.383,5.239L18.38,5.202L18.376,5.166L18.371,5.129L18.367,5.093L18.362,5.064L18.349,4.986L18.336,4.915L18.32,4.845L18.304,4.776L18.285,4.708L18.265,4.64L18.243,4.572L18.22,4.506L18.194,4.44L18.168,4.375L18.14,4.311L18.11,4.247L18.079,4.185L18.046,4.123L18.012,4.062L17.977,4.002L17.94,3.942L17.901,3.884L17.861,3.827L17.82,3.77L17.778,3.715L17.734,3.661L17.689,3.607L17.642,3.555L17.595,3.504L17.546,3.454L17.496,3.405L17.445,3.358L17.393,3.311L17.339,3.266L17.285,3.222L17.23,3.18L17.173,3.139L17.116,3.099L17.057,3.06L16.998,3.023L16.938,2.988L16.877,2.954L16.815,2.921L16.753,2.89L16.689,2.86L16.625,2.832L16.56,2.806L16.494,2.78L16.428,2.757L16.36,2.735L16.292,2.715L16.224,2.696L16.155,2.68L16.085,2.664L16.014,2.651L15.936,2.638L15.907,2.633L15.871,2.629L15.834,2.624L15.798,2.62L15.761,2.617L15.725,2.614L15.688,2.611L15.65,2.609L15.613,2.607L15.576,2.606L15.538,2.606L15.493,2.605L5.507,2.605Z" style="fill:rgb(63,77,85);"/>
    </g>
    <g transform="matrix(1.125,0,0,1.125,-2.625,0)">
        <circle cx="17" cy="4" r="4" style="fill:rgb(237,60,64);"/>
    </g>
</svg>
