<?xml version="1.0" encoding="utf-8"?>
<!-- Generator: Adobe Illustrator 19.0.0, SVG Export Plug-In . SVG Version: 6.00 Build 0)  -->
<svg version="1.1" id="Layer_1" xmlns="http://www.w3.org/2000/svg" xmlns:xlink="http://www.w3.org/1999/xlink" x="0px" y="0px"
	 viewBox="0 0 27 27" style="enable-background:new 0 0 27 27;" xml:space="preserve">
<style type="text/css">
	.st0{fill:#3F4D55;}
</style>
<g id="XMLID_1137_">
	<g id="XMLID_25_">
		<path id="XMLID_27_" class="st0" d="M0.5,26.5c-0.7-0.7-0.7-1.8,0-2.4L24.1,0.5c0.7-0.7,1.8-0.7,2.4,0c0.7,0.7,0.7,1.8,0,2.4
			L2.9,26.5C2.3,27.2,1.2,27.2,0.5,26.5z"/>
		<path id="XMLID_26_" class="st0" d="M24.1,26.5L0.5,2.9c-0.7-0.7-0.7-1.8,0-2.4s1.8-0.7,2.4,0l23.6,23.6c0.7,0.7,0.7,1.8,0,2.4
			C25.8,27.2,24.7,27.2,24.1,26.5z"/>
	</g>
</g>
</svg>
