<?xml version="1.0" encoding="utf-8"?>
<!-- Generator: Adobe Illustrator 19.0.0, SVG Export Plug-In . SVG Version: 6.00 Build 0)  -->
<svg version="1.1" id="Layer_1" xmlns="http://www.w3.org/2000/svg" xmlns:xlink="http://www.w3.org/1999/xlink" x="0px" y="0px"
	 viewBox="0 0 27 27" style="enable-background:new 0 0 27 27;" xml:space="preserve">
<style type="text/css">
	.st0{fill:#B4B4B4;}
	.st1{fill:#CDCCCC;}
	.st2{fill:#F3F3F3;}
</style>
<g id="XMLID_1099_">
	<g id="XMLID_39_">
		<path id="XMLID_40_" class="st0" d="M60.5,176.1H49.1c-0.9,0-1.7,0.8-1.7,1.7v1.9c0,0.5,0.2,0.8,0.5,1.1l4.5,5.3
			c0.1,0.1,0.1,0.2,0.1,0.3v7.6c0,0.9,0.8,1.7,1.7,1.7c0.2,0,0.6-0.1,0.8-0.3l1.1-0.6c0.6-0.2,0.9-0.8,0.9-1.5v-7
			c0-0.1,0-0.2,0.1-0.3l4.5-5.3c0.3-0.3,0.5-0.7,0.5-1.1v-1.8C62.2,176.9,61.4,176.1,60.5,176.1L60.5,176.1z M49.1,177.3h11.4
			c0.3,0,0.6,0.2,0.6,0.6v1.7H48.6v-1.7C48.6,177.5,48.8,177.3,49.1,177.3z M56.4,185.3c-0.3,0.3-0.5,0.7-0.5,1.1v7
			c0,0.1-0.1,0.3-0.3,0.5l-1.1,0.6c-0.3,0.2-0.8,0-0.8-0.5v-7.6c0-0.5-0.2-0.8-0.5-1.1l-4-4.7h11.1L56.4,185.3L56.4,185.3z"/>
	</g>
</g>
<g id="XMLID_498_">
	<path id="XMLID_503_" class="st1" d="M4.8,22.9L4.8,22.9c2.4-0.1,4.5-1,6.3-2.4c-0.2-0.1-0.4-0.3-0.6-0.4l-0.7-0.3l-2.7-1.4
		c-0.4-0.2-0.7-0.7-0.7-1.2v-1.3c0.1-0.1,0.2-0.3,0.3-0.4c0.5-0.6,0.8-1.4,1-2.1c0.3-0.1,0.5-0.3,0.6-0.5c0.1-0.1,0.1-0.3,0.1-0.5
		V11c0-0.3-0.1-0.6-0.4-0.8V8.9V8.2c0,0,0.4-3.2-3.9-3.2c-4.3,0-3.9,3.2-3.9,3.2v2C0.1,10.4,0,10.7,0,11v1.4c0,0.4,0.2,0.7,0.5,0.9
		c0.4,1.5,1.3,2.6,1.3,2.6v1.3c0,0.5-0.3,0.9-0.7,1.1l-0.7,0.4c1.1,1.6,2.5,3,4.1,4.1L4.8,22.9z"/>
	<path id="XMLID_502_" class="st1" d="M24.9,15.9v1.3c0,0.5,0.3,0.9,0.7,1.2l1.2,0.6c-1.1,1.5-2.4,2.8-3.9,3.8c0,0,0,0,0,0
		c-0.1,0-0.1,0.1-0.2,0.1c-2.6,0-4.9-1-6.7-2.5c0.2-0.1,0.3-0.3,0.5-0.4l0.7-0.4l2.5-1.4c0.4-0.2,0.7-0.7,0.7-1.1v-1.3
		c0,0-0.9-1.1-1.3-2.6c-0.1,0-0.1-0.1-0.2-0.2c-0.2-0.2-0.3-0.4-0.3-0.7V11c0-0.3,0.1-0.6,0.4-0.8v-2c0,0-0.1-0.8,0.3-1.6
		C19.6,5.8,20.6,5,22.8,5c4.3,0,3.9,3.2,3.9,3.2v2c0.2,0.2,0.4,0.5,0.4,0.8v1.4c0,0.5-0.3,0.9-0.8,1c-0.2,0.8-0.6,1.5-1,2.1
		C25.1,15.7,25,15.8,24.9,15.9z"/>
	<path id="XMLID_500_" class="st2" d="M4.8,22.9L4.8,22.9c2.6,1.7,5.7,2.7,9,2.7c3.3,0,6.4-1,8.9-2.7c0.1,0,0.1-0.1,0.2-0.1
		c-0.1-0.1-0.3-0.2-0.4-0.2l-4.7-2.4c-0.2-0.1-0.4-0.3-0.6-0.5c-0.3-0.3-0.4-0.7-0.4-1.1v-1.9c0.1-0.2,0.3-0.3,0.4-0.6
		c0.6-0.9,1.1-1.9,1.5-3c0.1,0,0.1,0,0.2-0.1c0.5-0.2,0.9-0.7,0.9-1.3v-2c0-0.4-0.2-0.8-0.5-1.1V6.6V5.8c0,0,0.6-4.5-5.4-4.5
		S8.3,5.8,8.3,5.8v2.9C8.2,8.8,8.2,8.8,8.1,8.9C7.9,9.2,7.8,9.5,7.8,9.8v2c0,0.5,0.2,0.9,0.5,1.1c0,0,0.1,0.1,0.1,0.1
		c0.5,2.2,1.8,3.7,1.8,3.7v1.8c0,0.5-0.2,0.9-0.5,1.2c-0.1,0.1-0.3,0.3-0.4,0.3l-4.4,2.4c-0.1,0.1-0.3,0.2-0.4,0.2L4.8,22.9z"/>
</g>
</svg>
