<?xml version="1.0" encoding="utf-8"?>
<!-- Generator: Adobe Illustrator 19.0.0, SVG Export Plug-In . SVG Version: 6.00 Build 0)  -->
<svg version="1.1" id="Layer_1" xmlns="http://www.w3.org/2000/svg" xmlns:xlink="http://www.w3.org/1999/xlink" x="0px" y="0px"
	 viewBox="0 0 30 30" style="enable-background:new 0 0 30 30;" xml:space="preserve">
<style type="text/css">
	.st0{fill:#8BCEB7;}
	.st1{fill:#5FBEA0;}
	.st2{fill:#20AD8A;}
	.st3{fill:#FFFFFF;}
</style>
<g id="XMLID_491_">
	<g id="XMLID_533_">
		<path id="XMLID_535_" class="st0" d="M29.4,8.3v6.1c0,2.5-1.3,4.8-3.3,6.1c0.8-1.2,1.3-2.6,1.3-4.2v-6.1c0-4.1-3.3-7.4-7.4-7.4
			H9.5c-1.6,0-3,0.5-4.2,1.3c1.3-2,3.6-3.2,6.1-3.2H22C26.1,0.9,29.4,4.2,29.4,8.3z"/>
	</g>
	<g id="XMLID_522_">
		<path id="XMLID_523_" class="st1" d="M28,9.7v6.1c0,1.5-0.5,3-1.3,4.2c-0.7,1.1-1.7,1.9-2.9,2.5c0,0,0,0-0.1,0
			c0.4-0.5,0.6-1,0.9-1.5c0,0,0.1,0,0.1,0c0.4-1,0.7-2,0.7-3.1v-6.1c0-4.1-3.3-7.4-7.4-7.4H7.5C6.7,4.3,6,4.4,5.3,4.7
			C5,4.8,4.7,4.9,4.4,5c0,0,0,0-0.1,0c0.4-0.6,1-1.1,1.6-1.5c1.2-0.8,2.6-1.3,4.2-1.3h10.5C24.7,2.3,28,5.6,28,9.7z"/>
	</g>
	<path id="XMLID_517_" class="st2" d="M26,11.2v6.1c0,1.1-0.2,2.2-0.7,3.1c-0.2,0.5-0.5,1-0.8,1.4c0,0-0.1,0.1-0.1,0.1
		c-1.4,1.7-3.5,2.8-5.8,2.8h-0.8c-3.1,0-6.1,1.2-8.4,3.4L8.6,29c-0.2,0.2-0.4,0.1-0.4-0.2v-4c-4.1,0-7.6-3.4-7.6-7.5v-6.1
		c0-3,1.7-5.5,4.2-6.7c0,0,0,0,0.1,0c0.3-0.1,0.6-0.3,0.9-0.4C6.5,3.9,7.3,3.8,8,3.8h10.5C22.6,3.8,26,7.1,26,11.2z"/>
	<circle id="XMLID_495_" class="st3" cx="7.1" cy="14.6" r="1.6"/>
	<circle id="XMLID_493_" class="st3" cx="13.6" cy="14.6" r="1.6"/>
	<circle id="XMLID_492_" class="st3" cx="20" cy="14.6" r="1.6"/>
</g>
</svg>
