<?xml version="1.0" encoding="utf-8"?>
<!-- Generator: Adobe Illustrator 19.1.0, SVG Export Plug-In . SVG Version: 6.00 Build 0)  -->
<svg version="1.1" id="Layer_1" xmlns="http://www.w3.org/2000/svg" xmlns:xlink="http://www.w3.org/1999/xlink" x="0px" y="0px"
	 viewBox="-187 297 20 20" style="enable-background:new -187 297 20 20;" xml:space="preserve">
<style type="text/css">
	.st0{fill:#F7C16C;}
</style>
<g id="XMLID_113_">
	<g id="XMLID_39_">
		<path id="XMLID_40_" class="st0" d="M-177.1,297.2c-5.4,0.1-9.7,4.5-9.6,9.9c0.1,5.4,4.5,9.7,9.9,9.6c5.4-0.1,9.7-4.5,9.6-9.9
			C-167.3,301.5-171.7,297.2-177.1,297.2z M-177.2,313L-177.2,313c-0.9,0-1.5-0.6-1.4-1.5c0-0.8,0.6-1.4,1.4-1.4l0,0
			c0.9,0,1.4,0.6,1.4,1.5C-175.7,312.4-176.3,313-177.2,313z M-173.7,306c-0.2,0.3-0.6,0.6-1.2,1l-0.6,0.4c-0.3,0.3-0.5,0.6-0.5,0.8
			c-0.1,0.2-0.1,0.2-0.1,0.6v0.1h-2.3v-0.2c0-0.8,0-1.3,0.4-1.6c0.5-0.6,1.7-1.3,1.7-1.4c0.2-0.1,0.3-0.3,0.4-0.4
			c0.2-0.3,0.3-0.6,0.3-0.8c0-0.4-0.1-0.7-0.3-1c-0.2-0.3-0.6-0.5-1.1-0.5c-0.6,0-0.9,0.2-1.1,0.6c-0.3,0.3-0.4,0.7-0.4,1.1v0.1
			h-2.3v-0.1c0.1-1.4,0.6-2.5,1.5-3.1c0.6-0.4,1.3-0.6,2.2-0.6c1.1,0,2.1,0.3,2.9,0.9s1.2,1.4,1.2,2.5
			C-173.1,304.9-173.3,305.5-173.7,306z"/>
	</g>
</g>
</svg>
