<?xml version="1.0" encoding="utf-8"?>
<!-- Generator: Adobe Illustrator 19.0.0, SVG Export Plug-In . SVG Version: 6.00 Build 0)  -->
<svg version="1.1" id="Layer_1" xmlns="http://www.w3.org/2000/svg" xmlns:xlink="http://www.w3.org/1999/xlink" x="0px" y="0px"
	 viewBox="0 0 20 20" style="enable-background:new 0 0 20 20;" xml:space="preserve">
<style type="text/css">
	.st0{fill:#ED3C40;}
</style>
<g id="XMLID_113_">
	<g id="XMLID_39_">
		<path id="XMLID_40_" class="st0" d="M9.9,0.2c-5.4,0.1-9.7,4.5-9.6,9.9c0.1,5.4,4.5,9.7,9.9,9.6c5.4-0.1,9.7-4.5,9.6-9.9
			C19.7,4.5,15.3,0.2,9.9,0.2z M9.8,16L9.8,16c-0.9,0-1.5-0.6-1.4-1.5c0-0.8,0.6-1.4,1.4-1.4l0,0c0.9,0,1.4,0.6,1.4,1.5
			C11.3,15.4,10.7,16,9.8,16z M13.3,9c-0.2,0.3-0.6,0.6-1.2,1l-0.6,0.4C11.2,10.7,11,11,11,11.2c-0.1,0.2-0.1,0.2-0.1,0.6l0,0.1H8.6
			l0-0.2c0-0.8,0-1.3,0.4-1.6c0.5-0.6,1.7-1.3,1.7-1.4c0.2-0.1,0.3-0.3,0.4-0.4c0.2-0.3,0.3-0.6,0.3-0.8c0-0.4-0.1-0.7-0.3-1
			C10.9,6.2,10.5,6,10,6C9.4,6,9.1,6.2,8.9,6.6C8.6,6.9,8.5,7.3,8.5,7.7v0.1H6.2l0-0.1c0.1-1.4,0.6-2.5,1.5-3.1C8.3,4.2,9,4,9.9,4
			C11,4,12,4.3,12.8,4.9c0.8,0.6,1.2,1.4,1.2,2.5C13.9,7.9,13.7,8.5,13.3,9z"/>
	</g>
</g>
</svg>
