<?xml version="1.0" encoding="UTF-8" standalone="no"?>
<!DOCTYPE svg PUBLIC "-//W3C//DTD SVG 1.1//EN" "http://www.w3.org/Graphics/SVG/1.1/DTD/svg11.dtd">
<svg width="100%" height="100%" viewBox="0 0 70 70" version="1.1" xmlns="http://www.w3.org/2000/svg" xmlns:xlink="http://www.w3.org/1999/xlink" xml:space="preserve" style="fill-rule:evenodd;clip-rule:evenodd;stroke-linejoin:round;stroke-miterlimit:1.41421;">
    <rect x="0" y="0" width="70" height="70" style="fill:black;fill-opacity:0.6;"/>
    <path d="M32,28.974L32,30.998C31.334,30.999 30.669,31 30.003,31C29.467,31.003 28.938,31.105 28.444,31.314C27.447,31.736 26.645,32.567 26.26,33.58C26.093,34.018 26.009,34.48 26,34.948C25.979,38.333 25.937,41.719 26.001,45.104C26.018,45.636 26.133,46.159 26.353,46.645C26.793,47.617 27.624,48.39 28.626,48.757C29.05,48.913 29.497,48.991 29.948,49C33.333,49.021 36.719,49.063 40.104,48.999C40.636,48.982 41.159,48.867 41.645,48.647C42.617,48.207 43.39,47.376 43.757,46.374C43.913,45.95 43.991,45.503 44,45.052C44.021,41.667 44.063,38.281 43.999,34.896C43.982,34.364 43.867,33.841 43.647,33.355C43.207,32.383 42.376,31.61 41.374,31.243C40.95,31.087 40.503,31.009 40.052,31C39.368,30.996 38.684,30.993 38,30.992L38,28.986C38.692,28.991 39.385,28.996 40.077,29C40.755,29.013 41.425,29.131 42.062,29.365C42.789,29.631 43.461,30.039 44.034,30.56C44.64,31.11 45.132,31.785 45.469,32.531C45.799,33.26 45.973,34.047 45.998,34.846C46.063,38.281 46.063,41.719 45.998,45.154C45.973,45.953 45.799,46.74 45.469,47.469C45.012,48.479 44.273,49.354 43.355,49.974C42.994,50.218 42.607,50.42 42.203,50.582C41.551,50.843 40.854,50.976 40.154,50.998C36.719,51.063 33.281,51.063 29.846,50.998C29.047,50.973 28.26,50.799 27.531,50.469C26.521,50.012 25.646,49.273 25.026,48.355C24.782,47.994 24.58,47.607 24.418,47.203C24.157,46.551 24.024,45.854 24.002,45.154C23.937,41.719 23.937,38.281 24.002,34.846C24.024,34.146 24.157,33.449 24.418,32.797C24.58,32.393 24.782,32.006 25.026,31.645C25.646,30.727 26.521,29.988 27.531,29.531C28.26,29.201 29.047,29.027 29.846,29.002C30.564,28.988 31.282,28.979 32,28.974ZM34,27.573L34,22.414L29,27.414L27.586,26L34.293,19.293L35,18.586L42.414,26L41,27.414L36,22.414L36,28.973C36,28.973 36,30.991 36,30.991C36,30.991 36,40.043 36,40.043L34,40.043L34,32.213C34,32.213 34,27.573 34,27.573L34,27.573Z" style="fill:white;"/>
</svg>
