<?xml version="1.0" encoding="utf-8"?>
<!-- Generator: Adobe Illustrator 17.0.0, SVG Export Plug-In . SVG Version: 6.00 Build 0)  -->
<!DOCTYPE svg PUBLIC "-//W3C//DTD SVG 1.1//EN" "http://www.w3.org/Graphics/SVG/1.1/DTD/svg11.dtd">
<svg version="1.1" xmlns="http://www.w3.org/2000/svg" xmlns:xlink="http://www.w3.org/1999/xlink" x="0px" y="0px"
	 width="21.131px" height="13.852px" viewBox="0 0 21.131 13.852" enable-background="new 0 0 21.131 13.852" xml:space="preserve">
<g id="Layer_1">
</g>
<g id="Layer_3">
</g>
<g id="Layer_4">
</g>
<g id="Layer_6">
</g>
<g id="Layer_5">
	<g>
		<defs>
			<rect id="SVGID_9_" x="5100.399" y="-442.234" width="918" height="768"/>
		</defs>
		<clipPath id="SVGID_2_">
			<use xlink:href="#SVGID_9_"  overflow="visible"/>
		</clipPath>
	</g>
	<g>
		<g id="Shape_17_1_">
			<g>
				<path fill="#FF543F" d="M21.131,1.755c0-0.451-0.178-0.859-0.462-1.17c-0.005-0.006-0.006-0.013-0.011-0.02
					c-0.005-0.005-0.011-0.008-0.016-0.013C20.318,0.214,19.862,0,19.355,0H1.776C1.269,0,0.813,0.214,0.489,0.552
					c0,0-0.012,0.007-0.016,0.013c-0.005,0.006-0.006,0.013-0.011,0.02C0.178,0.896,0,1.304,0,1.755v10.343
					c0,0.462,0.185,0.88,0.482,1.194c0,0,0.008,0.015,0.014,0.021c0,0,0.005,0.003,0.007,0.005c0.323,0.329,0.773,0.536,1.273,0.536
					h17.579c0.5,0,0.95-0.207,1.273-0.536l0.007-0.004c0.006-0.006,0.008-0.014,0.008-0.014c0.303-0.32,0.488-0.738,0.488-1.201
					L21.131,1.755L21.131,1.755z M14.215,6.38l6.09-5.049c0.06,0.13,0.095,0.273,0.095,0.424v10.343
					c0,0.137-0.028,0.267-0.078,0.387L14.215,6.38z M19.355,0.723c0.153,0,0.298,0.035,0.43,0.094l-9.219,7.644L1.346,0.817
					c0.132-0.059,0.276-0.094,0.43-0.094H19.355z M0.81,12.484c-0.049-0.12-0.078-0.25-0.078-0.387V1.755
					c0-0.152,0.035-0.295,0.095-0.424l6.09,5.049L0.81,12.484z M1.776,13.129c-0.169,0-0.326-0.044-0.468-0.114l6.171-6.169
					l2.851,2.364c0.068,0.056,0.152,0.085,0.235,0.085c0.083,0,0.167-0.028,0.235-0.085l2.851-2.364l6.171,6.169
					c-0.141,0.071-0.299,0.114-0.468,0.114L1.776,13.129L1.776,13.129z"/>
			</g>
		</g>
	</g>
</g>
<g id="Layer_7">
</g>
<g id="Layer_2">
</g>
</svg>
