<?xml version="1.0" encoding="utf-8"?>
<!-- Generator: Adobe Illustrator 17.0.0, SVG Export Plug-In . SVG Version: 6.00 Build 0)  -->
<!DOCTYPE svg PUBLIC "-//W3C//DTD SVG 1.1//EN" "http://www.w3.org/Graphics/SVG/1.1/DTD/svg11.dtd">
<svg version="1.1" id="Layer_1" xmlns="http://www.w3.org/2000/svg" xmlns:xlink="http://www.w3.org/1999/xlink" x="0px" y="0px"
	 width="11.744px" height="17.054px" viewBox="0 0 11.744 17.054" enable-background="new 0 0 11.744 17.054" xml:space="preserve">
<g>
	<g>
		<path fill="#FF543F" d="M10.274,6.15H9.996V4.124C9.997,1.85,8.146,0,5.872,0C3.598,0,1.747,1.85,1.747,4.124V6.15H1.469
			C0.659,6.15,0,6.809,0,7.619v7.965c0,0.81,0.659,1.469,1.469,1.469h8.805c0.81,0,1.469-0.659,1.469-1.469V7.619
			C11.744,6.809,11.085,6.15,10.274,6.15z M3.007,4.124c0-1.58,1.285-2.865,2.865-2.865s2.865,1.285,2.865,2.865V6.15h-5.73V4.124z
			 M10.484,15.585c0,0.114-0.096,0.21-0.21,0.21H1.469c-0.114,0-0.21-0.096-0.21-0.21V7.619c0-0.114,0.096-0.21,0.21-0.21h0.908
			h6.99h0.908c0.114,0,0.21,0.096,0.21,0.21V15.585z"/>
		<path fill="#FF543F" d="M5.872,9.766c-0.348,0-0.63,0.282-0.63,0.63v2.411c0,0.348,0.282,0.63,0.63,0.63s0.63-0.282,0.63-0.63
			v-2.411C6.502,10.048,6.22,9.766,5.872,9.766z"/>
	</g>
</g>
</svg>
