<?xml version="1.0" encoding="utf-8"?>
<!-- Generator: Adobe Illustrator 17.0.0, SVG Export Plug-In . SVG Version: 6.00 Build 0)  -->
<!DOCTYPE svg PUBLIC "-//W3C//DTD SVG 1.1//EN" "http://www.w3.org/Graphics/SVG/1.1/DTD/svg11.dtd">
<svg version="1.1" id="Layer_1" xmlns="http://www.w3.org/2000/svg" xmlns:xlink="http://www.w3.org/1999/xlink" x="0px" y="0px"
	 width="13.431px" height="18.393px" viewBox="0 0 13.431 18.393" enable-background="new 0 0 13.431 18.393" xml:space="preserve">
<g>
	<g>
		<g>
			<path fill="#FF543F" d="M1.797,18.393L1.797,18.393c-0.636,0-1.116-0.435-1.347-0.693c-0.332-0.378-0.503-0.967-0.436-1.502
				l0.606-3.779c0.241-1.909,1.898-3.365,3.854-3.366l4.47-0.004c1.958,0,3.617,1.454,3.863,3.382l0.606,3.746
				c0.07,0.554-0.1,1.141-0.431,1.517c-0.228,0.259-0.705,0.692-1.346,0.692L1.797,18.393z M8.948,10.298l-4.472,0.004
				c-1.328,0.001-2.453,0.986-2.618,2.293l-0.606,3.779c-0.019,0.153,0.042,0.391,0.135,0.497c0.165,0.186,0.328,0.271,0.409,0.271
				l9.842-0.008c0.084,0,0.246-0.084,0.409-0.269c0.093-0.105,0.152-0.34,0.131-0.513l-0.606-3.745
				C11.402,11.282,10.275,10.298,8.948,10.298z"/>
			<path fill="#FF543F" d="M6.711,8.209H6.708c-2.262,0-4.104-1.84-4.105-4.101C2.601,1.845,4.441,0.002,6.703,0
				c2.264,0,4.106,1.84,4.108,4.101C10.812,6.364,8.973,8.207,6.711,8.209z M6.706,1.25C5.132,1.252,3.851,2.533,3.852,4.107
				c0.002,1.571,1.282,2.852,2.855,2.852c1.574-0.002,2.854-1.283,2.854-2.857C9.559,2.529,8.279,1.25,6.706,1.25z"/>
		</g>
	</g>
</g>
</svg>
