<?xml version="1.0" encoding="utf-8"?>
<!-- Generator: Adobe Illustrator 19.0.0, SVG Export Plug-In . SVG Version: 6.00 Build 0)  -->
<svg version="1.1" id="Layer_1" xmlns="http://www.w3.org/2000/svg" xmlns:xlink="http://www.w3.org/1999/xlink" x="0px" y="0px"
	 viewBox="0 0 30 30" style="enable-background:new 0 0 30 30;" xml:space="preserve">
<style type="text/css">
	.st0{fill:#66CBB3;}
	.st1{fill:#33B999;}
	.st2{fill:#00A880;}
</style>
<g id="XMLID_1062_">
	<path id="XMLID_1093_" class="st0" d="M26.5,4.6l1,12.3c0.3,3.2-2,5.9-5,5.9h-15c-3,0-5.2-2.7-5-5.9l1-12.3C3.7,2,6,0,8.6,0h12.9
		C24,0,26.3,2,26.5,4.6z"/>
	<path id="XMLID_1091_" class="st1" d="M28.1,6.4l1.1,12.6c0.3,3.3-2.3,6-5.7,6H6.4c-3.4,0-6-2.8-5.7-6L1.9,6.4
		c0.2-2.7,2.8-4.7,5.8-4.7h14.7C25.3,1.6,27.9,3.7,28.1,6.4z"/>
	<path id="XMLID_1075_" class="st2" d="M29.5,9.6v14.4c0,3.4-2.7,6.1-6.1,6.1H6.6c-3.4,0-6.1-2.7-6.1-6.1V9.6c0-3.4,2.7-6.1,6.1-6.1
		h16.7C26.7,3.5,29.5,6.2,29.5,9.6z"/>
</g>
</svg>
