<svg id="Layer_1" xmlns="http://www.w3.org/2000/svg" viewBox="0 0 30 30"><style>.st0{fill:#fabe78}.st1{fill:#f9a94b}.st2{fill:#f7931e}</style><g id="XMLID_916_"><path id="XMLID_920_" class="st0" d="M26.5 4.6l1 12.3c.3 3.2-2 5.9-5 5.9h-15c-3 0-5.2-2.7-5-5.9l1-12.3C3.7 2 6 0 8.6 0h12.9c2.5 0 4.8 2 5 4.6z"/><path id="XMLID_919_" class="st1" d="M28.1 6.4L29.2 19c.3 3.3-2.3 6-5.7 6H6.4C3 25 .4 22.2.7 19L1.9 6.4c.2-2.7 2.8-4.7 5.8-4.7h14.7c2.9-.1 5.5 2 5.7 4.7z"/><path id="XMLID_918_" class="st2" d="M29.5 9.6V24c0 3.4-2.7 6.1-6.1 6.1H6.6C3.2 30.1.5 27.4.5 24V9.6c0-3.4 2.7-6.1 6.1-6.1h16.7c3.4 0 6.2 2.7 6.2 6.1z"/></g></svg>