<svg id="Layer_1" xmlns="http://www.w3.org/2000/svg" viewBox="0 0 234 173"><style>.st0{fill:#fff}.st1{fill:#7e7687}.st2{fill:#b9bac0}.st3{fill:#69cdef}.st4{fill:#f9ec23}.st5{fill:#8a8895}.st6{fill:#faf076}.st7{opacity:.7}.st8{fill:#faef69}.st9{fill:#fcf6b9}.st10{opacity:.4}.st11{fill:#fcf4a7}</style><g id="XMLID_247_"><g id="XMLID_325_"><path id="XMLID_358_" class="st0" d="M53.9 79.9h120.4v77.2H53.9z"/><g id="XMLID_354_"><path id="XMLID_355_" class="st1" d="M169.1 73.7H57c-5.6 0-10.2 4.6-10.2 10.1v80.3c0 1.2 1 2.2 2.2 2.2h128c1.2 0 2.2-1 2.2-2.2V83.8c.1-5.6-4.5-10.1-10.1-10.1zM55.7 150.9V84.7c0-1.2 1-2.2 2.2-2.2h110.4c1.2 0 2.2 1 2.2 2.2v66.2c0 1.2-1 2.2-2.2 2.2H57.9c-1.2 0-2.2-1-2.2-2.2z"/></g><g id="XMLID_352_"><path id="XMLID_353_" class="st2" d="M181.5 162H44.7c-1.2 0-2.2 1-2.2 2.2 0 4.9 4 8.8 8.8 8.8h123.6c4.9 0 8.8-4 8.8-8.8 0-1.3-1-2.2-2.2-2.2z"/></g><g id="XMLID_350_"><path id="XMLID_351_" class="st3" d="M159.1 138.6h-37.5c-1.2 0-2.2-1-2.2-2.2v-35.3c0-1.2 1-2.2 2.2-2.2h37.5c1.2 0 2.2 1 2.2 2.2v35.3c0 1.3-1 2.2-2.2 2.2z"/></g><g id="XMLID_347_"><g id="XMLID_348_"><path id="XMLID_349_" class="st2" d="M84.7 121H67.1c-1.2 0-2.2-1-2.2-2.2 0-1.2 1-2.2 2.2-2.2h17.7c1.2 0 2.2 1 2.2 2.2-.1 1.2-1 2.2-2.3 2.2z"/></g></g><g id="XMLID_344_"><g id="XMLID_345_"><path id="XMLID_346_" class="st2" d="M84.7 129.8H67.1c-1.2 0-2.2-1-2.2-2.2s1-2.2 2.2-2.2h17.7c1.2 0 2.2 1 2.2 2.2s-1 2.2-2.3 2.2z"/></g></g><g id="XMLID_341_"><g id="XMLID_342_"><path id="XMLID_343_" class="st2" d="M84.7 138.6H67.1c-1.2 0-2.2-1-2.2-2.2s1-2.2 2.2-2.2h17.7c1.2 0 2.2 1 2.2 2.2s-1 2.2-2.3 2.2z"/></g></g><g id="XMLID_338_"><g id="XMLID_339_"><path id="XMLID_340_" class="st2" d="M111.2 121H93.6c-1.2 0-2.2-1-2.2-2.2 0-1.2 1-2.2 2.2-2.2h17.7c1.2 0 2.2 1 2.2 2.2-.1 1.2-1.1 2.2-2.3 2.2z"/></g></g><g id="XMLID_335_"><g id="XMLID_336_"><path id="XMLID_337_" class="st2" d="M111.2 129.8H93.6c-1.2 0-2.2-1-2.2-2.2s1-2.2 2.2-2.2h17.7c1.2 0 2.2 1 2.2 2.2s-1.1 2.2-2.3 2.2z"/></g></g><g id="XMLID_332_"><g id="XMLID_333_"><path id="XMLID_334_" class="st2" d="M111.2 138.6H93.6c-1.2 0-2.2-1-2.2-2.2s1-2.2 2.2-2.2h17.7c1.2 0 2.2 1 2.2 2.2s-1.1 2.2-2.3 2.2z"/></g></g><g id="XMLID_329_"><g id="XMLID_330_"><path id="XMLID_331_" class="st4" d="M95.8 112.2H67.1c-1.2 0-2.2-1-2.2-2.2s1-2.2 2.2-2.2h28.7c1.2 0 2.2 1 2.2 2.2s-1 2.2-2.2 2.2z"/></g></g><g id="XMLID_327_"><path id="XMLID_328_" class="st5" d="M104.3 166.4H122c2.4 0 4.4-2 4.4-4.4H99.8c0 2.4 2 4.4 4.5 4.4z"/></g><path class="st5" d="M64.9 102v-5.7c0-.4.2-.8.4-1 .3-.3.7-.4 1.1-.5h.1c.4 0 .7.2 1 .5.3.3.4.7.4 1.1v5.7c0 .1 0 .2-.1.3-.1.1-.2.1-.3.1-.1 0-.2 0-.3-.1-.1-.1-.1-.2-.1-.3v-5.7c0-.2-.1-.4-.2-.5-.1-.1-.3-.2-.5-.2s-.4.1-.5.2c-.1.1-.2.3-.2.5v5.7c0 .1 0 .2-.1.3s-.2.1-.3.1c-.1 0-.2 0-.3-.1-.1-.2-.1-.3-.1-.4zm3.8-1.1v-4.6c0-.4.2-.8.5-1 .3-.3.7-.4 1.1-.5h.1c.2 0 .4.1.6.1h.1c.2.1.4.3.5.6v.3c0 .1-.1.2-.2.2H71.1c-.1 0-.2-.1-.2-.2-.1-.1-.1-.2-.3-.3h-.1c-.1 0-.2-.1-.3-.1-.2 0-.4.1-.5.2-.1.1-.2.3-.2.5v4.6c0 .2.1.4.2.5.1.1.3.2.5.2.1 0 .2 0 .3-.1h.1c.1-.1.2-.2.2-.3.1-.1.1-.2.2-.2h.3c.1.1.2.1.2.2v.3c-.1.2-.3.4-.5.6h-.2c-.2.1-.4.1-.6.1h-.1c-.4 0-.8-.2-1.1-.4-.2.1-.3-.3-.3-.7zm.3-2.3c0-.1 0-.2.1-.3.1-.1.2-.1.3-.1H71c.1 0 .2 0 .3.1.1.1.1.2.1.3 0 .1 0 .2-.1.3-.1.1-.2.1-.3.1h-1.5c-.1 0-.2 0-.3-.1-.1-.1-.2-.2-.2-.3zm3.4 2.3v-5.7c0-.1 0-.2.1-.3.1-.1.2-.1.3-.1s.2 0 .3.1c.1.1.1.2.1.3v5.7c0 .2.1.4.2.5.1.1.3.2.5.2s.4-.1.5-.2c.1-.1.2-.3.2-.5v-5.7c0-.1 0-.2.1-.3.1-.1.2-.1.3-.1.1 0 .2 0 .3.1.1.1.1.2.1.3v5.7c0 .2.1.4.2.5.1.1.3.2.5.2s.4-.1.5-.2c.1-.1.2-.3.2-.5v-5.7c0-.1 0-.2.1-.3.1-.1.2-.1.3-.1.1 0 .2 0 .3.1.1.1.1.2.1.3v5.7c0 .4-.2.8-.4 1.1-.3.3-.6.4-1 .5-.4 0-.8-.2-1.1-.4l-.1-.1-.1.1c-.3.3-.6.4-1 .5h-.1c-.4 0-.8-.2-1.1-.5-.2-.4-.3-.8-.3-1.2zm8.8 1.1v-5.7c0-.4.2-.8.4-1 .3-.3.7-.4 1.1-.5h.1c.4 0 .7.2 1 .5l.1.1s0-.1.1-.1c.3-.3.7-.4 1.1-.4.4 0 .7.2 1 .5.3.3.4.7.4 1.1v5.7c0 .1 0 .2-.1.3-.1.1-.2.1-.3.1s-.2 0-.3-.1c-.1-.1-.1-.2-.1-.3v-5.7c0-.2-.1-.4-.2-.5-.1-.1-.3-.2-.5-.2s-.4.1-.5.2c-.1.1-.2.3-.2.5v5.7c0 .1 0 .2-.1.3-.1.1-.2.1-.3.1-.1 0-.2 0-.3-.1-.1-.1-.1-.2-.1-.3v-5.7c0-.2-.1-.4-.2-.5-.1-.1-.3-.2-.5-.2s-.4.1-.5.2c-.1.1-.2.3-.2.5v5.7c0 .1 0 .2-.1.3s-.2.1-.3.1c-.1 0-.2 0-.3-.1-.2-.3-.2-.4-.2-.5zm6.1-1.1v-4.7c0-.4.2-.8.4-1 .3-.3.7-.4 1.1-.4h.1c.4 0 .7.2 1 .5.3.3.4.7.4 1.1v4.7c0 .4-.2.7-.5 1-.3.3-.6.4-1 .4h-.1c-.4 0-.7-.2-1-.5-.3-.3-.4-.7-.4-1.1zm.8 0c0 .2.1.4.2.5.1.1.3.2.5.2s.3-.1.5-.2c.1-.1.2-.3.2-.5v-4.6c0-.2-.1-.4-.2-.5-.1-.1-.3-.2-.5-.2s-.4.1-.5.2c-.1.1-.2.3-.2.5v4.6zm3 1.1v-5.7c0-.4.2-.8.4-1 .3-.3.7-.4 1.1-.5h.1c.4 0 .7.2 1 .5l.1.1s0-.1.1-.1c.3-.3.7-.4 1.1-.4.4 0 .7.2 1 .5.3.3.4.7.4 1.1v5.7c0 .1 0 .2-.1.3-.1.1-.2.1-.3.1-.1 0-.2 0-.3-.1-.1-.1-.1-.2-.1-.3v-5.7c0-.2-.1-.4-.2-.5-.1-.1-.3-.2-.5-.2s-.4.1-.5.2c-.1.1-.2.3-.2.5v5.7c0 .1 0 .2-.1.3-.1.1-.2.1-.3.1-.1 0-.2 0-.3-.1-.1-.1-.1-.2-.1-.3v-5.7c0-.2-.1-.4-.2-.5-.1-.1-.3-.2-.5-.2s-.4.1-.5.2c-.1.1-.2.3-.2.5v5.7c0 .1 0 .2-.1.3s-.2.1-.3.1c-.1 0-.2 0-.3-.1-.2-.3-.2-.4-.2-.5zm6.1-1.1v-4.6c0-.4.2-.8.5-1 .3-.3.7-.4 1.1-.5h.1c.2 0 .4.1.6.1h.1c.2.1.4.3.5.6v.3c0 .1-.1.2-.2.2H99.6c-.1 0-.2-.1-.2-.2-.1-.1-.1-.2-.3-.3H99c-.1 0-.2-.1-.3-.1-.2 0-.4.1-.5.2-.1.1-.2.3-.2.5v4.6c0 .2.1.4.2.5.1.1.3.2.5.2.1 0 .2 0 .3-.1h.1c.1-.1.2-.2.2-.3.1-.1.1-.2.2-.2h.3c.1.1.2.1.2.2v.3c-.1.2-.3.4-.5.6h-.2c-.2.1-.4.1-.6.1h-.1c-.4 0-.8-.2-1.1-.4-.2.1-.3-.3-.3-.7zm.4-2.3c0-.1 0-.2.1-.3.1-.1.2-.1.3-.1h1.5c.1 0 .2 0 .3.1.1.1.1.2.1.3 0 .1 0 .2-.1.3-.1.1-.2.1-.3.1H98c-.1 0-.2 0-.3-.1-.1-.1-.1-.2-.1-.3zm3.3 3.4v-5.7c0-.4.2-.8.4-1 .3-.3.7-.4 1.1-.5h.1c.4 0 .7.2 1 .5.3.3.4.7.4 1.1v5.7c0 .1 0 .2-.1.3-.1.1-.2.1-.3.1-.1 0-.2 0-.3-.1-.1-.1-.1-.2-.1-.3v-5.7c0-.2-.1-.4-.2-.5-.1-.1-.3-.2-.5-.2s-.4.1-.5.2c-.1.1-.2.3-.2.5v5.7c0 .1 0 .2-.1.3s-.2.1-.3.1-.2 0-.3-.1c-.1-.2-.1-.3-.1-.4zm3.5-6.9c0-.1 0-.2.1-.3.1-.1.2-.1.3-.1h2.3c.1 0 .2 0 .3.1.1.1.1.2.1.3 0 .1 0 .2-.1.3-.1.1-.2.1-.3.1h-.7v6.5c0 .1 0 .2-.1.3-.1.1-.2.1-.3.1-.1 0-.2 0-.3-.1-.1-.1-.1-.2-.1-.3v-6.5h-.7c-.1 0-.2 0-.3-.1-.1-.1-.2-.1-.2-.3z"/></g><g id="XMLID_299_"><g id="XMLID_317_"><g id="XMLID_323_"><path id="XMLID_324_" class="st4" d="M76.8 53.8c0 5-4.1 9.1-9.1 9.1s-9.1-4.1-9.1-9.1 4.1-9.1 9.1-9.1 9.1 4.1 9.1 9.1z"/></g><g id="XMLID_318_"><path id="XMLID_322_" class="st0" d="M68 50.7l3 5.1c.1.2 0 .4-.2.4h-5.9c-.2 0-.3-.2-.2-.4l3-5.1c0-.1.2-.1.3 0z"/><path id="XMLID_319_" class="st0" d="M70.8 56.5h-5.9c-.2 0-.4-.1-.5-.3-.1-.2-.1-.4 0-.6l3-5.1c.1-.2.3-.3.5-.3s.4.1.5.3l3 5.1c.1.2.1.4 0 .6-.2.2-.4.3-.6.3zm-5.7-.6h5.6L67.8 51l-2.7 4.9z"/></g></g><g id="XMLID_300_"><path id="XMLID_315_" class="st6" d="M85 59.1c0 .4.1.8.4 1s.6.4 1 .4.7-.2 1-.4c.3-.3.4-.6.4-1V47.5c0-.2.1-.4.2-.6.2-.2.4-.2.6-.2s.4.1.6.2c.2.2.2.3.2.6v11.6c0 .8-.3 1.6-.9 2.2-.6.6-1.3.9-2.1.9h-.1c-.8 0-1.6-.3-2.2-.9-.6-.6-.9-1.3-.9-2.1V47.5c0-.2.1-.4.2-.6.2-.2.3-.2.6-.2s.4.1.6.2c.2.2.2.3.2.6v11.6z"/><path id="XMLID_312_" class="st6" d="M94.9 57.5c-.5 0-1-.1-1.5-.4v4.2c0 .2-.1.4-.2.6-.2.2-.4.2-.6.2s-.4-.1-.6-.2c-.2-.2-.2-.4-.2-.6V49.8c0-.8.3-1.6.9-2.2.6-.6 1.3-.9 2.1-.9h.2c.8 0 1.6.3 2.2.9.6.6.9 1.3.9 2.1v4.8c0 .8-.3 1.6-.9 2.2-.6.6-1.3.9-2.1.9l-.2-.1zm.1-1.6c.4 0 .7-.2 1-.4.3-.3.4-.6.4-1v-4.7c0-.4-.2-.7-.4-1-.3-.3-.6-.4-1-.4h-.1c-.4 0-.7.2-1 .4-.3.3-.4.6-.4 1v4.7c0 .4.1.8.4 1 .3.3.6.4 1.1.4z"/><path id="XMLID_309_" class="st6" d="M102.7 46.7c1.1 0 2 .4 2.8 1.1.7.7 1.1 1.6 1.1 2.6v7.9c0 1-.4 1.9-1.1 2.6-.7.7-1.6 1.1-2.7 1.1h-1.6c-.2 0-.4-.1-.6-.2-.2-.2-.2-.4-.2-.6V47.5c0-.2.1-.4.2-.6.2-.2.4-.2.6-.2h1.5zm-.7 1.6v12.2h.8c.6 0 1.1-.2 1.6-.7.4-.4.7-1 .7-1.6v-7.7c0-.6-.2-1.1-.7-1.5-.4-.4-1-.7-1.6-.7h-.8z"/><path id="XMLID_306_" class="st6" d="M110.6 54.4v6.9c0 .2-.1.4-.2.6-.2.2-.4.2-.6.2s-.4-.1-.6-.2c-.2-.2-.2-.4-.2-.6V49.7c0-.8.3-1.5.9-2.1.6-.6 1.3-.9 2.2-.9h.1c.8 0 1.5.3 2.1.9.6.6.9 1.3.9 2.2v11.6c0 .2-.1.4-.2.6-.2.2-.3.2-.6.2s-.4-.1-.6-.2c-.2-.2-.2-.4-.2-.6v-6.9h-3zm0-1.5h3v-3.1c0-.4-.2-.7-.4-1-.3-.3-.6-.4-1-.4s-.7.1-1 .4c-.3.3-.4.6-.4 1v3.1z"/><path id="XMLID_304_" class="st6" d="M122.9 46.7c.2 0 .4.1.6.2.2.2.2.4.2.6 0 .2-.1.4-.2.6-.2.2-.4.2-.6.2h-1.5v13.1c0 .2-.1.4-.2.6-.2.2-.3.2-.6.2-.2 0-.4-.1-.6-.2-.2-.2-.2-.4-.2-.6V48.3h-1.5c-.2 0-.4-.1-.6-.2-.2-.2-.2-.4-.2-.6 0-.2.1-.4.2-.6.2-.2.4-.2.6-.2h4.6z"/><path id="XMLID_301_" class="st6" d="M126.1 49.8c0-.9.3-1.6.9-2.2.6-.6 1.3-.9 2.2-.9h.1c.4 0 .8.1 1.2.3l.2.1c.5.3.8.7 1.1 1.1.1.1.1.2.1.4v.2c-.1.2-.2.4-.4.5-.1.1-.2.1-.4.1h-.2c-.2-.1-.4-.2-.5-.4-.1-.2-.3-.4-.5-.6l-.1-.1c-.2-.1-.4-.1-.6-.1-.4 0-.7.1-1 .4-.3.3-.4.6-.4 1v9.3c0 .4.2.7.4 1 .3.3.6.4 1 .4h.1c.2 0 .4-.1.6-.1l.2-.1c.2-.1.4-.3.5-.5.1-.2.3-.3.5-.4h.2c.1 0 .3 0 .4.1.2.1.3.3.4.5v.2c0 .1 0 .3-.1.4-.3.5-.6.9-1.1 1.1l-.1.1-.1.1s-.1 0-.1.1c-.4.2-.8.3-1.2.3h-.1c-.8 0-1.6-.3-2.2-.9-.6-.6-.9-1.3-.9-2.1v-9.3zm1.5 5.5c-.2 0-.4-.1-.6-.2-.2-.2-.2-.3-.2-.6 0-.2.1-.4.2-.6.2-.2.4-.2.6-.2h3.1c.2 0 .4.1.6.2.2.2.2.3.2.6 0 .2-.1.4-.2.6-.2.2-.4.2-.6.2h-3.1z"/></g></g><g id="XMLID_274_" class="st7"><g id="XMLID_297_"><path id="XMLID_298_" class="st8" d="M76.8 31.7c0 5-4.1 9.1-9.1 9.1s-9.1-4.1-9.1-9.1 4.1-9.1 9.1-9.1 9.1 4.1 9.1 9.1z"/></g><g id="XMLID_292_"><path id="XMLID_296_" class="st0" d="M68 28.6l3 5.1c.1.2 0 .4-.2.4h-5.9c-.2 0-.3-.2-.2-.4l3-5.1c0-.1.2-.1.3 0z"/><path id="XMLID_293_" class="st0" d="M70.8 34.4h-5.9c-.2 0-.4-.1-.5-.3-.1-.2-.1-.4 0-.6l3-5.1c.1-.2.3-.3.5-.3s.4.1.5.3l3 5.1c.1.2.1.4 0 .6-.2.2-.4.3-.6.3zm-5.7-.7h5.6l-2.8-4.8-2.8 4.8z"/></g><g id="XMLID_275_"><path id="XMLID_290_" class="st9" d="M85 37c0 .4.1.8.4 1s.6.4 1 .4.7-.2 1-.4c.3-.3.4-.6.4-1V25.4c0-.2.1-.4.2-.6.2-.2.4-.2.6-.2s.4.1.6.2c.2.2.2.3.2.6V37c0 .8-.3 1.6-.9 2.2-.6.6-1.3.9-2.1.9h-.1c-.8 0-1.6-.3-2.2-.9-.6-.6-.9-1.3-.9-2.1V25.4c0-.2.1-.4.2-.6.2-.2.3-.2.6-.2s.4.1.6.2c.2.2.2.3.2.6V37z"/><path id="XMLID_287_" class="st9" d="M94.9 35.4c-.5 0-1-.1-1.5-.4v4.2c0 .2-.1.4-.2.6-.2.2-.4.2-.6.2s-.4-.1-.6-.2c-.2-.2-.2-.4-.2-.6V27.7c0-.8.3-1.6.9-2.2.6-.6 1.3-.9 2.1-.9h.2c.8 0 1.6.3 2.2.9.6.6.9 1.3.9 2.1v4.8c0 .8-.3 1.6-.9 2.2-.6.6-1.3.9-2.1.9l-.2-.1zm.1-1.6c.4 0 .7-.2 1-.4.3-.3.4-.6.4-1v-4.7c0-.4-.2-.7-.4-1-.3-.3-.6-.4-1-.4h-.1c-.4 0-.7.2-1 .4-.3.3-.4.6-.4 1v4.7c0 .4.1.8.4 1 .3.3.6.4 1.1.4z"/><path id="XMLID_284_" class="st9" d="M102.7 24.6c1.1 0 2 .4 2.8 1.1.7.7 1.1 1.6 1.1 2.6v7.9c0 1-.4 1.9-1.1 2.6-.7.7-1.6 1.1-2.7 1.1h-1.6c-.2 0-.4-.1-.6-.2-.2-.2-.2-.4-.2-.6V25.4c0-.2.1-.4.2-.6.2-.2.4-.2.6-.2h1.5zm-.7 1.6v12.2h.8c.6 0 1.1-.2 1.6-.7.4-.4.7-1 .7-1.6v-7.7c0-.6-.2-1.1-.7-1.5-.4-.4-1-.7-1.6-.7h-.8z"/><path id="XMLID_281_" class="st9" d="M110.6 32.3v6.9c0 .2-.1.4-.2.6-.2.2-.4.2-.6.2s-.4-.1-.6-.2c-.2-.2-.2-.4-.2-.6V27.6c0-.8.3-1.5.9-2.1.6-.6 1.3-.9 2.2-.9h.1c.8 0 1.5.3 2.1.9.6.6.9 1.3.9 2.2v11.6c0 .2-.1.4-.2.6-.2.2-.3.2-.6.2s-.4-.1-.6-.2c-.2-.2-.2-.4-.2-.6v-6.9h-3zm0-1.5h3v-3.1c0-.4-.2-.7-.4-1-.3-.3-.6-.4-1-.4s-.7.1-1 .4c-.3.3-.4.6-.4 1v3.1z"/><path id="XMLID_279_" class="st9" d="M122.9 24.6c.2 0 .4.1.6.2.2.2.2.4.2.6 0 .2-.1.4-.2.6-.2.2-.4.2-.6.2h-1.5v13.1c0 .2-.1.4-.2.6-.2.2-.3.2-.6.2-.2 0-.4-.1-.6-.2-.2-.2-.2-.4-.2-.6V26.2h-1.5c-.2 0-.4-.1-.6-.2-.2-.2-.2-.4-.2-.6 0-.2.1-.4.2-.6.2-.2.4-.2.6-.2h4.6z"/><path id="XMLID_276_" class="st9" d="M126.1 27.7c0-.9.3-1.6.9-2.2.6-.6 1.3-.9 2.2-.9h.1c.4 0 .8.1 1.2.3l.2.1c.5.3.8.7 1.1 1.1.1.1.1.2.1.4v.2c-.1.2-.2.4-.4.5-.1.1-.2.1-.4.1h-.2c-.2-.1-.4-.2-.5-.4-.1-.2-.3-.4-.5-.6l-.1-.1c-.2-.1-.4-.1-.6-.1-.4 0-.7.1-1 .4-.3.3-.4.6-.4 1V37c0 .4.2.7.4 1 .3.3.6.4 1 .4h.1c.2 0 .4-.1.6-.1l.2-.1c.2-.1.4-.3.5-.5.1-.2.3-.3.5-.4h.2c.1 0 .3 0 .4.1.2.1.3.3.4.5v.2c0 .1 0 .3-.1.4-.3.5-.6.9-1.1 1.1l-.1.1-.1.1s-.1 0-.1.1c-.4.2-.8.3-1.2.3h-.1c-.8 0-1.6-.3-2.2-.9-.6-.6-.9-1.3-.9-2.1v-9.5zm1.5 5.5c-.2 0-.4-.1-.6-.2-.2-.2-.2-.3-.2-.6 0-.2.1-.4.2-.6.2-.2.4-.2.6-.2h3.1c.2 0 .4.1.6.2.2.2.2.3.2.6 0 .2-.1.4-.2.6-.2.2-.4.2-.6.2h-3.1z"/></g></g><g id="XMLID_248_" class="st10"><g id="XMLID_266_"><g id="XMLID_272_"><path id="XMLID_273_" class="st11" d="M76.8 9.3c0 5-4.1 9.1-9.1 9.1s-9.1-4.1-9.1-9.1S62.7.2 67.7.2c5-.1 9.1 4 9.1 9.1z"/></g><g id="XMLID_267_"><path id="XMLID_271_" class="st0" d="M68 6.2l3 5.1c.1.2 0 .4-.2.4h-5.9c-.2 0-.3-.2-.2-.4l3-5.1c0-.2.2-.2.3 0z"/><path id="XMLID_268_" class="st0" d="M70.8 12h-5.9c-.2 0-.4-.1-.5-.3-.1-.2-.1-.4 0-.6l3-5.1c.1-.2.3-.3.5-.3s.4.1.5.3l3 5.1c.1.2.1.4 0 .6-.2.2-.4.3-.6.3zm-5.7-.7h5.6l-2.8-4.8-2.8 4.8z"/></g></g><g id="XMLID_249_"><path id="XMLID_264_" class="st9" d="M85 14.5c0 .4.1.8.4 1s.6.4 1 .4.7-.2 1-.4c.3-.3.4-.6.4-1V2.9c0-.2.1-.4.2-.6.2-.2.4-.2.6-.2s.4.1.6.2c.2.2.2.3.2.6v11.6c0 .8-.3 1.6-.9 2.2-.6.6-1.3.9-2.1.9h-.1c-.8 0-1.6-.3-2.2-.9-.6-.6-.9-1.3-.9-2.1V2.9c0-.2.1-.4.2-.6.2-.2.3-.2.6-.2s.4.1.6.2c.3.2.4.4.4.6v11.6z"/><path id="XMLID_261_" class="st9" d="M94.9 13c-.5 0-1-.1-1.5-.4v4.2c0 .2-.1.4-.2.6-.2.2-.4.2-.6.2s-.4-.1-.6-.2c-.2-.2-.2-.4-.2-.6V5.2c0-.8.3-1.6.9-2.2.6-.6 1.3-.9 2.1-.9h.2c.8 0 1.6.3 2.2.9.6.6.9 1.3.9 2.1v4.8c0 .8-.3 1.6-.9 2.2-.6.6-1.3.9-2.1.9h-.2zm.1-1.6c.4 0 .7-.2 1-.4.3-.3.4-.6.4-1V5.2c0-.4-.2-.7-.4-1-.3-.3-.6-.4-1-.4h-.1c-.4 0-.7.2-1 .4-.3.3-.4.6-.4 1v4.7c0 .4.1.8.4 1 .3.3.6.5 1.1.5z"/><path id="XMLID_258_" class="st9" d="M102.7 2.1c1.1 0 2 .4 2.8 1.1.7.7 1.1 1.6 1.1 2.6v7.9c0 1-.4 1.9-1.1 2.6-.7.7-1.6 1.1-2.7 1.1h-1.6c-.2 0-.4-.1-.6-.2-.2-.2-.2-.4-.2-.6V2.9c0-.2.1-.4.2-.6.2-.2.4-.2.6-.2h1.5zm-.7 1.6V16h.8c.6 0 1.1-.2 1.6-.7s.7-1 .7-1.6V6c0-.6-.2-1.1-.7-1.5-.4-.4-1-.7-1.6-.7h-.8z"/><path id="XMLID_255_" class="st9" d="M110.6 9.9v6.9c0 .2-.1.4-.2.6-.2.2-.4.2-.6.2s-.4-.1-.6-.2c-.2-.2-.2-.4-.2-.6V5.1c0-.8.3-1.5.9-2.1.6-.6 1.3-.9 2.2-.9h.1c.8 0 1.5.3 2.1.9.6.6.9 1.3.9 2.2v11.6c0 .2-.1.4-.2.6-.2.2-.3.2-.6.2s-.4-.1-.6-.2c-.2-.2-.2-.4-.2-.6V9.9h-3zm0-1.6h3V5.2c0-.4-.2-.7-.4-1-.3-.3-.6-.4-1-.4s-.7.1-1 .4c-.3.3-.4.6-.4 1v3.1z"/><path id="XMLID_253_" class="st9" d="M122.9 2.1c.2 0 .4.1.6.2.2.2.2.4.2.6 0 .2-.1.4-.2.6-.2.2-.4.2-.6.2h-1.5v13.1c0 .2-.1.4-.2.6-.2.2-.3.2-.6.2-.2 0-.4-.1-.6-.2-.2-.2-.2-.4-.2-.6V3.7h-1.5c-.2 0-.4-.1-.6-.2-.2-.2-.2-.4-.2-.6 0-.2.1-.4.2-.6.2-.2.4-.2.6-.2h4.6z"/><path id="XMLID_250_" class="st9" d="M126.1 5.2c0-.9.3-1.6.9-2.2.6-.6 1.3-.9 2.2-.9h.1c.4 0 .8.1 1.2.3l.2.1c.5.3.8.7 1.1 1.1.2.3.2.4.2.5v.2c-.1.2-.2.4-.4.5-.1.1-.2.1-.4.1h-.2c-.2-.1-.4-.2-.5-.4-.1-.2-.3-.4-.5-.6l-.1-.1c-.2-.1-.4-.1-.6-.1-.4 0-.7.1-1 .4-.3.3-.4.6-.4 1v9.3c0 .4.2.7.4 1 .3.3.6.4 1 .4h.1c.2 0 .4-.1.6-.1l.2-.1c.2-.1.4-.3.5-.5.1-.2.3-.3.5-.4h.2c.1 0 .3 0 .4.1.2.1.3.3.4.5v.2c0 .1 0 .3-.1.4-.3.5-.6.9-1.1 1.1l-.1.1-.1.1s-.1 0-.1.1c-.4.2-.8.3-1.2.3h-.1c-.8 0-1.6-.3-2.2-.9-.6-.6-.9-1.3-.9-2.1V5.2zm1.5 5.5c-.2 0-.4-.1-.6-.2-.2-.2-.2-.3-.2-.6 0-.2.1-.4.2-.6.2-.2.4-.2.6-.2h3.1c.2 0 .4.1.6.2.2.2.2.3.2.6 0 .2-.1.4-.2.6-.2.2-.4.2-.6.2h-3.1z"/></g></g></g></svg>