<?xml version="1.0" encoding="utf-8"?>
<!-- Generator: Adobe Illustrator 19.2.1, SVG Export Plug-In . SVG Version: 6.00 Build 0)  -->
<svg version="1.1" xmlns="http://www.w3.org/2000/svg" xmlns:xlink="http://www.w3.org/1999/xlink" x="0px" y="0px"
	 viewBox="0 0 317.8 333.9" style="enable-background:new 0 0 317.8 333.9;" xml:space="preserve">
<style type="text/css">
	.st0{opacity:0.49;fill:url(#SVGID_3_);}
	.st1{fill:#FFFFFF;}
	.st2{fill:#262626;}
	.st3{fill:#EAEDF4;}
	.st4{fill:#ADE9E9;}
	.st5{fill:#20AD8A;}
	.st6{fill:#FFC06C;}
	.st7{fill:#3F4D55;}
	.st8{fill:#5D5D5D;}
	.st9{fill:#B7B7B7;}
	.st10{fill:#ADADAD;}
	.st11{fill:#B2B2B2;}
	.st12{fill:#808080;}
	.st13{fill:#4D4D4D;}
	.st14{fill:#333333;}
	.st15{fill:#EFCE4A;}
	.st16{fill:#ED8A19;}
	.st17{fill:#EBBA16;}
	.st18{fill:#C7CAC7;}
	.st19{fill:#E7ECED;}
	.st20{opacity:0.7;clip-path:url(#SVGID_5_);}
	.st21{opacity:0.12;fill:#FFC06C;}
	.st22{opacity:0.16;fill:#FFC06C;}
	.st23{opacity:0.22;fill:#FFC06C;}
	.st24{opacity:0.3;fill:#FFC06C;}
	.st25{clip-path:url(#SVGID_7_);}
	.st26{opacity:0.15;fill:#20AD8A;}
	.st27{opacity:0.23;fill:#20AD8A;}
	.st28{opacity:0.3;fill:#20AD8A;}
	.st29{fill:#AAAAAA;}
	.st30{fill:none;stroke:#3F4D55;stroke-miterlimit:10;}
	.st31{fill:none;stroke:#3F4D55;stroke-linecap:round;stroke-miterlimit:10;}
	.st32{fill:#F00101;}
	.st33{fill:#030303;}
	.st34{fill:#70CADB;}
	.st35{fill:#E01765;}
	.st36{fill:#E8A723;}
	.st37{fill:#3EB890;}
	.st38{fill:#CC2027;}
	.st39{fill:#361238;}
	.st40{fill:#65863A;}
	.st41{fill:#1A937D;}
	.st42{fill:#666666;}
	.st43{fill:#D5E1E8;}
	.st44{fill:#E6EEF2;}
	.st45{fill:#573D82;}
	.st46{fill:#453068;}
	.st47{fill:#3FBA91;}
	.st48{fill:#6FCBDC;}
	.st49{fill:#DCDCDC;}
	.st50{fill:#FFC585;}
	.st51{fill:#FF3E88;}
	.st52{fill:#675470;}
	.st53{fill:#4A4687;}
	.st54{fill:#F3F3F3;}
	.st55{opacity:0.5;fill:#8977A7;}
	.st56{fill:#E1E9EF;}
	.st57{fill:#FFD7A3;}
	.st58{fill:#FDC88E;}
	.st59{fill:#FFE1B2;}
	.st60{fill:#A2CDE2;}
	.st61{fill:#545465;}
	.st62{fill:#29394A;}
	.st63{fill:#B5E0F0;}
	.st64{fill:#4A698E;}
	.st65{fill:#416185;}
	.st66{fill:#395A7F;}
	.st67{fill:#FFD5AB;}
	.st68{fill:#E4EBF0;}
	.st69{fill:#D0D7DC;}
	.st70{fill:#527992;}
	.st71{fill:#475F7F;}
	.st72{fill:#D3E5BD;}
	.st73{fill:#827873;}
	.st74{fill:#E0DDDC;}
	.st75{fill:#A19996;}
	.st76{fill:#33CCFF;}
	.st77{fill:#D8DCE1;}
	.st78{fill:#DB4026;}
	.st79{fill:#5C546A;}
	.st80{fill:#E8D21D;}
	.st81{fill:#4AECAF;}
	.st82{fill:#80362D;}
	.st83{fill:#FFB980;}
	.st84{fill:#F8AB6B;}
	.st85{fill:#BF9B5F;}
	.st86{fill:#83603F;}
	.st87{fill:#B0E070;}
	.st88{fill:#7E5C62;}
	.st89{fill:#A27082;}
	.st90{fill:#7E5449;}
	.st91{fill:#FFDA44;}
	.st92{fill:#FFCD00;}
	.st93{fill:#B1664F;}
	.st94{fill:#FFDAA9;}
	.st95{fill:#5FBEA0;}
	.st96{fill:none;stroke:#FFFFFF;stroke-width:2;stroke-linecap:round;stroke-miterlimit:10;}
	.st97{fill:#188268;}
	.st98{fill:#D2EFE8;}
	.st99{fill:#79CEB9;}
	.st100{fill:#EBEBED;}
	.st101{fill:#474F49;}
	.st102{fill:#DAABA9;}
	.st103{fill:#757EAF;}
	.st104{fill:#EDCC70;}
	.st105{fill:#B9BBC1;}
	.st106{fill:#53DCFF;}
	.st107{fill:#FCEE21;}
	.st108{fill:#8B8996;}
	.st109{fill:#686777;}
	.st110{fill:#67A2A9;}
	.st111{fill:#FF93B5;}
	.st112{fill:#FF93B5;stroke:#FFFFFF;stroke-width:2;stroke-linecap:round;stroke-miterlimit:10;}
	.st113{fill:#F3D960;}
	.st114{fill:#F3D960;stroke:#FFFFFF;stroke-width:2;stroke-linecap:round;stroke-miterlimit:10;}
	.st115{fill:#7BD766;}
	.st116{fill:#8166A4;}
	.st117{fill:#F67D69;}
	.st118{fill:#CCCCCC;}
	.st119{fill:#E6E6E6;}
	.st120{fill:#B3B3B3;}
	.st121{fill:none;stroke:#DA6F67;stroke-linecap:round;stroke-miterlimit:10;}
	.st122{fill:#BC679B;}
	.st123{fill:#09614B;}
	.st124{fill:#50748A;}
	.st125{fill:#E2E4FF;}
	.st126{fill:#A7795E;}
	.st127{fill:#ADB4BA;}
	.st128{fill:#4EA0CA;}
	.st129{fill:#394959;}
	.st130{fill:#E05040;}
	.st131{fill:#B4A87D;}
	.st132{fill:#7B7256;}
	.st133{fill:#FCC261;}
	.st134{fill:#111820;}
	.st135{fill:#DFDED6;}
	.st136{fill:#FF6953;}
	.st137{fill:#B06E53;}
	.st138{fill:#728EA0;}
	.st139{fill:#E5E4E3;}
	.st140{fill:#F7F3A8;}
	.st141{fill:#82827F;}
	.st142{fill:#353535;}
	.st143{fill:#A0B7D1;}
	.st144{fill:#ECEC66;}
	.st145{fill:#90BA72;}
	.st146{fill:#E7F2FC;}
	
		.st147{fill:none;stroke:#C6C6C6;stroke-width:2;stroke-linecap:round;stroke-linejoin:round;stroke-miterlimit:10;stroke-dasharray:5,10,5,10,5,10;}
	.st148{fill:#73A950;}
	.st149{fill:#FFA168;}
	.st150{fill:#2D688D;}
</style>
<g id="Capa_2">
</g>
<g id="Capa_3">
	<g>
		<g>
			<g>
				<path class="st82" d="M112.7,43.7L88.5,174.9l17.3,3.5C142.4,151.6,158,43.7,112.7,43.7z"/>
			</g>
			<g>
				<path class="st82" d="M112.7,43.7c-6-3.7-37.9-13-62.2,0c-29.8,16-55.8,73.1-13.8,131.3c0.1,0.1,31.1-3.5,31.1-3.5L112.7,43.7z"
					/>
			</g>
			<path class="st83" d="M78.7,162.7c-11.5,0-21.8-4.9-29.5-12.9c0,4.8-0.2,11.6-1.4,16.6c0.8,0.5,1.5,1.3,1.6,2.4
				c1.6,13.3,14.3,23.4,29.4,23.4c15.1,0,27.7-10,29.4-23.4c0.1-1,0.8-1.9,1.6-2.4c-1.3-5-1.4-11.9-1.4-16.6
				C100.5,157.8,90.1,162.7,78.7,162.7z"/>
			<path class="st84" d="M107.6,150.5c-7.6,7.6-17.7,12.3-28.9,12.3c-11.5,0-21.8-4.9-29.5-12.9c0,4.8-0.2,11.6-1.4,16.6
				c0.8,0.5,1.5,1.3,1.6,2.4c0.7,5.9,3.6,11.1,7.9,15.1C76.9,181.2,99.4,161.7,107.6,150.5z"/>
			<path class="st7" d="M138.5,170c-0.1,0-0.3-0.1-0.4-0.1L112,166c-0.2,0-0.5,0-0.7,0c-1.7,0-3.1,1.2-3.3,2.9
				c-1.6,13.3-14.3,23.4-29.4,23.4c-15.1,0-27.7-10-29.4-23.4c-0.2-1.7-1.7-3-3.3-2.9c-0.2,0-0.4,0-0.6,0L19.2,170
				c-0.1,0-0.3,0-0.4,0.1C6.5,173.5,0,185.7,0,195.9v12.7c0,5.4,4.8,9.8,10.7,9.8h135.9c5.9,0,10.7-4.4,10.7-9.8v-12.7
				C157.4,185.7,150.9,173.5,138.5,170z"/>
			<path class="st58" d="M108.2,69.3H52.5c-9,0-16.4,8.8-16.4,19.5v23.4c0,30.2,19.1,54.7,42.6,54.7s42.6-24.5,42.6-54.7V84.9
				C121.3,76.3,115.4,69.3,108.2,69.3z"/>
			<g>
				<path class="st82" d="M88.5,50.6c-1.9,0-8.2,2.2-13.4,4.1L74.7,54c0,0-0.7,0.6-1.9,1.5c-2.9,1.1-5,1.9-5,1.9l0.8,1.3
					c-13.1,10.3-43,34-45.7,36.6c-3.5,3.5,20.7,91.6,20.7,41.5c0-41.9,23.3-50.2,44.9-55.3c9.8-2.3,12.7-8.1,13.8-13.8
					C103.5,62.1,92,50.6,88.5,50.6z"/>
			</g>
			<g>
				<path class="st82" d="M98.9,71.3c6.3,22.7,19,33,30.9,36.1c6.5,1.7,3.7-18.8,3.7-18.8s-9.2-23.6-10.4-24.2
					c-1.2-0.6-10.4-20.7-10.4-20.7L92,60.9L98.9,71.3z"/>
			</g>
			<rect x="31.1" y="64.1" class="st82" width="28.7" height="22.7"/>
		</g>
		<path class="st85" d="M239.1,162.7c-11.5,0-21.8-4.9-29.5-12.9c0,4.8-0.2,11.6-1.4,16.6c0.8,0.5,1.5,1.3,1.6,2.4
			c1.6,13.3,14.3,23.4,29.4,23.4c15.1,0,27.7-10,29.4-23.4c0.1-1,0.8-1.9,1.6-2.4c-1.3-5-1.4-11.9-1.4-16.6
			C260.9,157.8,250.5,162.7,239.1,162.7z"/>
		<path class="st86" d="M267.9,150.5c-7.6,7.6-17.7,12.3-28.9,12.3c-11.5,0-21.8-4.9-29.5-12.9c0,4.8-0.2,11.6-1.4,16.6
			c0.8,0.5,1.5,1.3,1.6,2.4c0.7,5.9,3.6,11.1,7.9,15.1C237.3,181.2,259.7,161.7,267.9,150.5z"/>
		<path class="st87" d="M298.9,170c-0.1,0-0.3-0.1-0.4-0.1l-26.2-3.9c-0.2,0-0.5,0-0.7,0c-1.7,0-3.1,1.2-3.3,2.9
			c-1.6,13.3-14.3,23.4-29.4,23.4c-15.1,0-27.7-10-29.4-23.4c-0.2-1.7-1.7-3-3.3-2.9c-0.2,0-0.4,0-0.6,0l-26.2,3.9
			c-0.1,0-0.3,0-0.4,0.1c-12.4,3.5-18.8,15.6-18.8,25.9v12.7c0,5.4,4.8,9.8,10.7,9.8H307c5.9,0,10.7-4.4,10.7-9.8v-12.7
			C317.8,185.7,311.3,173.5,298.9,170z"/>
		<path class="st85" d="M268.6,80.7h-55.7c-9,0-16.4,7.4-16.4,16.4v19.7c0,25.3,19.1,45.9,42.6,45.9s42.6-20.6,42.6-45.9V93.9
			C281.7,86.6,275.8,80.7,268.6,80.7z"/>
		<path class="st88" d="M262,44.7h-42.6c-6.2,0-11.4,4.3-12.7,10c-11.3,1.4-20,11.1-20,22.8v16.4c0,8.4,3.6,16.3,9.8,21.9V97.1
			c0-9,7.4-16.4,16.4-16.4h55.7c7.2,0,13.1,5.9,13.1,13.1v21.9c6.3-5.6,9.8-13.5,9.8-21.9V74.2C291.5,57.9,278.3,44.7,262,44.7z"/>
		<path class="st58" d="M158.9,178.7c-17.3,0-33.1-7.4-44.7-19.5c0,7.2-0.3,17.6-2.2,25.2c1.3,0.8,2.2,2,2.4,3.6
			c2.5,20.2,21.6,35.4,44.5,35.4c22.9,0,42-15.2,44.5-35.4c0.2-1.6,1.1-2.8,2.4-3.6c-1.9-7.6-2.2-18-2.2-25.2
			C192,171.3,176.2,178.7,158.9,178.7z"/>
		<path class="st83" d="M202.6,160.2c-11.5,11.5-26.8,18.6-43.7,18.6c-17.3,0-33.1-7.4-44.7-19.5c0,7.2-0.3,17.6-2.2,25.2
			c1.3,0.8,2.2,2,2.4,3.6c1.1,8.9,5.4,16.8,11.9,22.9C156.3,206.8,190.2,177.3,202.6,160.2z"/>
		<path class="st89" d="M251,189.7c-0.2-0.1-0.4-0.1-0.6-0.1l-39.6-5.9c-0.2,0-0.8-0.1-1-0.1c-2.5,0-4.6,1.9-4.9,4.4
			c-2.5,20.2-21.6,35.4-44.5,35.4c-22.9,0-42-15.2-44.5-35.4c-0.3-2.6-2.6-4.5-5.1-4.4c-0.3,0-0.6,0-0.9,0.1l-39.6,5.9
			c-0.2,0-0.4,0.1-0.6,0.1c-18.7,5.2-28.5,23.7-28.5,39.2v19.2c0,8.2,7.3,14.9,16.3,14.9h205.8c9,0,16.3-6.7,16.3-14.9v-19.2
			C279.6,213.3,269.8,194.9,251,189.7z"/>
		<path class="st59" d="M203.6,54.6h-84.4c-13.7,0-24.8,11.1-24.8,24.8v29.8c0,38.3,29,69.5,64.5,69.5s64.5-31.2,64.5-69.5V74.5
			C223.4,63.5,214.5,54.6,203.6,54.6z"/>
		<path class="st90" d="M193.6,0h-64.5c-9.3,0-17.2,6.5-19.3,15.2C92.7,17.3,79.4,32,79.4,49.7v24.8c0,12.8,5.4,24.7,14.9,33.2V79.4
			c0-13.7,11.1-24.8,24.8-24.8h84.4c11,0,19.9,8.9,19.9,19.9v33.2c9.5-8.5,14.9-20.4,14.9-33.2V44.7C238.3,20,218.3,0,193.6,0z"/>
		<g>
			<path class="st5" d="M201.5,285v48.9l22.9-11.5l22.9,11.5v-50.2c-6.7,4.9-14.9,7.8-23.8,7.8C215.3,291.5,207.8,289.1,201.5,285z"
				/>
			<path class="st1" d="M208,286.3v35l16.4-8.2l16.4,8.2v-36c-4.8,3.5-10.7,5.6-17.1,5.6C217.9,291,212.5,289.3,208,286.3z"/>
			<path class="st91" d="M223.4,211c-22.2,0-40.3,18.1-40.3,40.3c0,14.1,7.3,26.6,18.3,33.8c6.3,4.1,13.9,6.5,21.9,6.5L223.4,211
				L223.4,211z"/>
			<path class="st92" d="M263.7,251.3c0-22.2-18.1-40.3-40.3-40.3v80.5c8.9,0,17.1-2.9,23.8-7.8
				C257.2,276.4,263.7,264.6,263.7,251.3z"/>
			<circle class="st15" cx="223.4" cy="251.5" r="28.1"/>
		</g>
	</g>
</g>
</svg>
