<svg id="Layer_1" xmlns="http://www.w3.org/2000/svg" viewBox="0 0 234 173"><style>.st0{fill:#80362d}.st1{fill:#ffb980}.st2{fill:#f8ab6b}.st3{fill:#3f4d55}.st4{fill:#fdc88e}.st5{fill:#bf9b5f}.st6{fill:#83603f}.st7{fill:#b0e070}.st8{fill:#7e5c62}.st9{fill:#a27082}.st10{fill:#ffe1b2}.st11{fill:#7e5449}.st12{fill:#20ad8a}.st13{fill:#fff}.st14{fill:#ffda44}.st15{fill:#ffcd00}.st16{fill:#efce4a}</style><g id="Capa_3"><path class="st0" d="M95 22.6L82.4 90.5l9 1.8c18.9-13.8 27-69.7 3.6-69.7zm0 0c-3.1-1.9-19.6-6.7-32.2 0-15.4 8.3-28.9 37.8-7.1 67.9.1.1 16.1-1.8 16.1-1.8L95 22.6z"/><path class="st1" d="M77.4 84.2c-6 0-11.3-2.5-15.3-6.7 0 2.5-.1 6-.7 8.6.4.3.8.7.8 1.2.8 6.9 7.4 12.1 15.2 12.1 7.8 0 14.3-5.2 15.2-12.1.1-.5.4-1 .8-1.2-.7-2.6-.7-6.2-.7-8.6-4 4.2-9.4 6.7-15.3 6.7z"/><path class="st2" d="M92.3 77.9c-3.9 3.9-9.2 6.4-15 6.4-6 0-11.3-2.5-15.3-6.7 0 2.5-.1 6-.7 8.6.4.3.8.7.8 1.2.4 3.1 1.9 5.7 4.1 7.8 10.2-1.4 21.9-11.5 26.1-17.3z"/><path class="st3" d="M108.3 88c-.1 0-.2-.1-.2-.1l-13.5-2h-.4c-.9 0-1.6.6-1.7 1.5-.8 6.9-7.4 12.1-15.2 12.1S63 94.3 62.1 87.4c-.1-.9-.9-1.6-1.7-1.5h-.3L46.6 88c-.1 0-.2 0-.2.1-6.4 1.8-9.7 8.1-9.7 13.4v6.6c0 2.8 2.5 5.1 5.5 5.1h70.3c3.1 0 5.5-2.3 5.5-5.1v-6.6c.1-5.4-3.3-11.7-9.7-13.5z"/><path class="st4" d="M92.6 35.9H63.8c-4.7 0-8.5 4.6-8.5 10.1v12.1c0 15.6 9.9 28.3 22 28.3s22-12.7 22-28.3V43.9c.1-4.4-2.9-8-6.7-8z"/><path class="st0" d="M82.4 26.2c-1 0-4.2 1.1-6.9 2.1l-.2-.4s-.4.3-1 .8c-1.5.6-2.6 1-2.6 1l.4.7C65.4 35.7 49.9 48 48.5 49.3c-1.8 1.8 10.7 47.4 10.7 21.5 0-21.7 12.1-26 23.2-28.6C87.5 41 89 38 89.6 35c.6-2.9-5.3-8.8-7.2-8.8z"/><path class="st0" d="M87.8 36.9c3.3 11.7 9.8 17.1 16 18.7 3.4.9 1.9-9.7 1.9-9.7s-4.8-12.2-5.4-12.5C99.7 33 95 22.6 95 22.6l-10.7 8.9 3.5 5.4zm-35.1-3.7h14.9v11.7H52.7V33.2z"/><path class="st5" d="M160.4 84.2c-6 0-11.3-2.5-15.3-6.7 0 2.5-.1 6-.7 8.6.4.3.8.7.8 1.2.8 6.9 7.4 12.1 15.2 12.1s14.3-5.2 15.2-12.1c.1-.5.4-1 .8-1.2-.7-2.6-.7-6.2-.7-8.6-4 4.2-9.4 6.7-15.3 6.7z"/><path class="st6" d="M175.3 77.9c-3.9 3.9-9.2 6.4-15 6.4-6 0-11.3-2.5-15.3-6.7 0 2.5-.1 6-.7 8.6.4.3.8.7.8 1.2.4 3.1 1.9 5.7 4.1 7.8 10.2-1.4 21.8-11.5 26.1-17.3z"/><path class="st7" d="M191.3 88c-.1 0-.2-.1-.2-.1l-13.6-2h-.4c-.9 0-1.6.6-1.7 1.5-.8 6.9-7.4 12.1-15.2 12.1-7.8 0-14.3-5.2-15.2-12.1-.1-.9-.9-1.6-1.7-1.5h-.3l-13.6 2c-.1 0-.2 0-.2.1-6.4 1.8-9.7 8.1-9.7 13.4v6.6c0 2.8 2.5 5.1 5.5 5.1h70.4c3.1 0 5.5-2.3 5.5-5.1v-6.6c.2-5.3-3.2-11.6-9.6-13.4z"/><path class="st5" d="M175.6 41.8h-28.8c-4.7 0-8.5 3.8-8.5 8.5v10.2c0 13.1 9.9 23.8 22 23.8 12.2 0 22-10.7 22-23.8V48.6c.1-3.8-2.9-6.8-6.7-6.8z"/><path class="st8" d="M172.2 23.1h-22c-3.2 0-5.9 2.2-6.6 5.2-5.8.7-10.4 5.7-10.4 11.8v8.5c0 4.3 1.9 8.4 5.1 11.3v-9.7c0-4.7 3.8-8.5 8.5-8.5h28.8c3.7 0 6.8 3.1 6.8 6.8v11.3c3.3-2.9 5.1-7 5.1-11.3V38.4c0-8.4-6.8-15.3-15.3-15.3z"/><path class="st4" d="M118.9 92.5c-9 0-17.1-3.8-23.1-10.1 0 3.7-.2 9.1-1.1 13 .7.4 1.1 1 1.2 1.9 1.3 10.5 11.2 18.3 23 18.3s21.7-7.9 23-18.3c.1-.8.6-1.4 1.2-1.9-1-3.9-1.1-9.3-1.1-13-6 6.2-14.2 10.1-23.1 10.1z"/><path class="st1" d="M141.5 82.9c-6 6-13.9 9.6-22.6 9.6-9 0-17.1-3.8-23.1-10.1 0 3.7-.2 9.1-1.1 13 .7.4 1.1 1 1.2 1.9.6 4.6 2.8 8.7 6.2 11.9 15.4-2.2 33-17.4 39.4-26.3z"/><path class="st9" d="M166.5 98.2c-.1-.1-.2-.1-.3-.1L145.7 95c-.1 0-.4-.1-.5-.1-1.3 0-2.4 1-2.5 2.3-1.3 10.5-11.2 18.3-23 18.3s-21.7-7.9-23-18.3c-.2-1.3-1.4-2.2-2.7-2.2-.2 0-.3 0-.5.1l-20.5 3c-.1 0-.2.1-.3.1C63 100.9 58 110.4 58 118.5v9.9c0 4.2 3.8 7.7 8.4 7.7h106.5c4.7 0 8.4-3.5 8.4-7.7v-9.9c0-8.1-5-17.6-14.8-20.3z"/><path class="st10" d="M142 28.3H98.3c-7.1 0-12.8 5.7-12.8 12.8v15.4c0 19.8 15 36 33.4 36s33.4-16.1 33.4-36v-18c0-5.6-4.7-10.2-10.3-10.2z"/><path class="st11" d="M136.8 0h-33.4c-4.8 0-8.9 3.4-10 7.9-8.8 1.1-15.7 8.7-15.7 17.8v12.8c0 6.6 2.8 12.8 7.7 17.2V41.1c0-7.1 5.7-12.8 12.8-12.8H142c5.7 0 10.3 4.6 10.3 10.3v17.2c4.9-4.4 7.7-10.6 7.7-17.2V23.1C160 10.4 149.6 0 136.8 0z"/><path class="st12" d="M140.9 147.5v25.3l11.9-6 11.9 6v-26c-3.5 2.5-7.7 4-12.3 4-4.3.1-8.2-1.2-11.5-3.3z"/><path class="st13" d="M144.3 148.2v18.1l8.5-4.2 8.5 4.2v-18.6c-2.5 1.8-5.5 2.9-8.8 2.9-3.1 0-5.9-.9-8.2-2.4z"/><path class="st14" d="M152.3 109.2c-11.5 0-20.9 9.4-20.9 20.9 0 7.3 3.8 13.8 9.5 17.5 3.3 2.1 7.2 3.4 11.3 3.4l.1-41.8z"/><path class="st15" d="M173.1 130.1c0-11.5-9.4-20.9-20.9-20.9v41.7c4.6 0 8.8-1.5 12.3-4 5.2-3.9 8.6-10 8.6-16.8z"/><circle class="st16" cx="152.3" cy="130.2" r="14.5"/></g></svg>