<svg xmlns="http://www.w3.org/2000/svg" viewBox="0 0 317.8 333.9"><style>.st0{opacity:.49;fill:url(#SVGID_3_)}.st1{fill:#fff}.st2{fill:#262626}.st3{fill:#eaedf4}.st4{fill:#ade9e9}.st5{fill:#20ad8a}.st6{fill:#ffc06c}.st7{fill:#3f4d55}.st8{fill:#5d5d5d}.st9{fill:#b7b7b7}.st10{fill:#adadad}.st11{fill:#b2b2b2}.st12{fill:gray}.st13{fill:#4d4d4d}.st14{fill:#333}.st15{fill:#efce4a}.st16{fill:#ed8a19}.st17{fill:#ebba16}.st18{fill:#c7cac7}.st19{fill:#e7eced}.st20{opacity:.7;clip-path:url(#SVGID_5_)}.st21{opacity:.12;fill:#ffc06c}.st22,.st23,.st24{opacity:.16;fill:#ffc06c}.st23,.st24{opacity:.22}.st24{opacity:.3}.st25{clip-path:url(#SVGID_7_)}.st26,.st27,.st28{opacity:.15;fill:#20ad8a}.st27,.st28{opacity:.23}.st28{opacity:.3}.st29{fill:#aaa}.st30,.st31{fill:none;stroke:#3f4d55;stroke-miterlimit:10}.st31{stroke-linecap:round}.st32{fill:#f00101}.st33{fill:#030303}.st34{fill:#70cadb}.st35{fill:#e01765}.st36{fill:#e8a723}.st37{fill:#3eb890}.st38{fill:#cc2027}.st39{fill:#361238}.st40{fill:#65863a}.st41{fill:#1a937d}.st42{fill:#666}.st43{fill:#d5e1e8}.st44{fill:#e6eef2}.st45{fill:#573d82}.st46{fill:#453068}.st47{fill:#3fba91}.st48{fill:#6fcbdc}.st49{fill:#dcdcdc}.st50{fill:#ffc585}.st51{fill:#ff3e88}.st52{fill:#675470}.st53{fill:#4a4687}.st54{fill:#f3f3f3}.st55{opacity:.5;fill:#8977a7}.st56{fill:#e1e9ef}.st57{fill:#ffd7a3}.st58{fill:#fdc88e}.st59{fill:#ffe1b2}.st60{fill:#a2cde2}.st61{fill:#545465}.st62{fill:#29394a}.st63{fill:#b5e0f0}.st64{fill:#4a698e}.st65{fill:#416185}.st66{fill:#395a7f}.st67{fill:#ffd5ab}.st68{fill:#e4ebf0}.st69{fill:#d0d7dc}.st70{fill:#527992}.st71{fill:#475f7f}.st72{fill:#d3e5bd}.st73{fill:#827873}.st74{fill:#e0dddc}.st75{fill:#a19996}.st76{fill:#3cf}.st77{fill:#d8dce1}.st78{fill:#db4026}.st79{fill:#5c546a}.st80{fill:#e8d21d}.st81{fill:#4aecaf}.st82{fill:#80362d}.st83{fill:#ffb980}.st84{fill:#f8ab6b}.st85{fill:#bf9b5f}.st86{fill:#83603f}.st87{fill:#b0e070}.st88{fill:#7e5c62}.st89{fill:#a27082}.st90{fill:#7e5449}.st91{fill:#ffda44}.st92{fill:#ffcd00}.st93{fill:#b1664f}.st94{fill:#ffdaa9}.st95{fill:#5fbea0}.st96{fill:none;stroke:#fff;stroke-width:2;stroke-linecap:round;stroke-miterlimit:10}.st97{fill:#188268}.st98{fill:#d2efe8}.st99{fill:#79ceb9}.st100{fill:#ebebed}.st101{fill:#474f49}.st102{fill:#daaba9}.st103{fill:#757eaf}.st104{fill:#edcc70}.st105{fill:#b9bbc1}.st106{fill:#53dcff}.st107{fill:#fcee21}.st108{fill:#8b8996}.st109{fill:#686777}.st110{fill:#67a2a9}.st111,.st112{fill:#ff93b5}.st112{stroke:#fff;stroke-width:2;stroke-linecap:round;stroke-miterlimit:10}.st113,.st114{fill:#f3d960}.st114{stroke:#fff;stroke-width:2;stroke-linecap:round;stroke-miterlimit:10}.st115{fill:#7bd766}.st116{fill:#8166a4}.st117{fill:#f67d69}.st118{fill:#ccc}.st119{fill:#e6e6e6}.st120{fill:#b3b3b3}.st121{fill:none;stroke:#da6f67;stroke-linecap:round;stroke-miterlimit:10}.st122{fill:#bc679b}.st123{fill:#09614b}.st124{fill:#50748a}.st125{fill:#e2e4ff}.st126{fill:#a7795e}.st127{fill:#adb4ba}.st128{fill:#4ea0ca}.st129{fill:#394959}.st130{fill:#e05040}.st131{fill:#b4a87d}.st132{fill:#7b7256}.st133{fill:#fcc261}.st134{fill:#111820}.st135{fill:#dfded6}.st136{fill:#ff6953}.st137{fill:#b06e53}.st138{fill:#728ea0}.st139{fill:#e5e4e3}.st140{fill:#f7f3a8}.st141{fill:#82827f}.st142{fill:#353535}.st143{fill:#a0b7d1}.st144{fill:#ecec66}.st145{fill:#90ba72}.st146{fill:#e7f2fc}.st147{fill:none;stroke:#c6c6c6;stroke-width:2;stroke-linecap:round;stroke-linejoin:round;stroke-miterlimit:10;stroke-dasharray:5,10,5,10,5,10}.st148{fill:#73a950}.st149{fill:#ffa168}.st150{fill:#2d688d}</style><g id="Capa_3"><path class="st82" d="M112.7 43.7L88.5 174.9l17.3 3.5c36.6-26.8 52.2-134.7 6.9-134.7z"/><path class="st82" d="M112.7 43.7c-6-3.7-37.9-13-62.2 0-29.8 16-55.8 73.1-13.8 131.3.1.1 31.1-3.5 31.1-3.5l44.9-127.8z"/><path class="st83" d="M78.7 162.7c-11.5 0-21.8-4.9-29.5-12.9 0 4.8-.2 11.6-1.4 16.6.8.5 1.5 1.3 1.6 2.4 1.6 13.3 14.3 23.4 29.4 23.4 15.1 0 27.7-10 29.4-23.4.1-1 .8-1.9 1.6-2.4-1.3-5-1.4-11.9-1.4-16.6-7.9 8-18.3 12.9-29.7 12.9z"/><path class="st84" d="M107.6 150.5c-7.6 7.6-17.7 12.3-28.9 12.3-11.5 0-21.8-4.9-29.5-12.9 0 4.8-.2 11.6-1.4 16.6.8.5 1.5 1.3 1.6 2.4.7 5.9 3.6 11.1 7.9 15.1 19.6-2.8 42.1-22.3 50.3-33.5z"/><path class="st7" d="M138.5 170c-.1 0-.3-.1-.4-.1L112 166h-.7c-1.7 0-3.1 1.2-3.3 2.9-1.6 13.3-14.3 23.4-29.4 23.4-15.1 0-27.7-10-29.4-23.4-.2-1.7-1.7-3-3.3-2.9h-.6l-26.1 4c-.1 0-.3 0-.4.1C6.5 173.5 0 185.7 0 195.9v12.7c0 5.4 4.8 9.8 10.7 9.8h135.9c5.9 0 10.7-4.4 10.7-9.8v-12.7c.1-10.2-6.4-22.4-18.8-25.9z"/><path class="st58" d="M108.2 69.3H52.5c-9 0-16.4 8.8-16.4 19.5v23.4c0 30.2 19.1 54.7 42.6 54.7s42.6-24.5 42.6-54.7V84.9c0-8.6-5.9-15.6-13.1-15.6z"/><path class="st82" d="M88.5 50.6c-1.9 0-8.2 2.2-13.4 4.1l-.4-.7s-.7.6-1.9 1.5c-2.9 1.1-5 1.9-5 1.9l.8 1.3c-13.1 10.3-43 34-45.7 36.6-3.5 3.5 20.7 91.6 20.7 41.5 0-41.9 23.3-50.2 44.9-55.3 9.8-2.3 12.7-8.1 13.8-13.8 1.2-5.6-10.3-17.1-13.8-17.1z"/><path class="st82" d="M98.9 71.3c6.3 22.7 19 33 30.9 36.1 6.5 1.7 3.7-18.8 3.7-18.8s-9.2-23.6-10.4-24.2c-1.2-.6-10.4-20.7-10.4-20.7L92 60.9l6.9 10.4zM31.1 64.1h28.7v22.7H31.1z"/><path class="st85" d="M239.1 162.7c-11.5 0-21.8-4.9-29.5-12.9 0 4.8-.2 11.6-1.4 16.6.8.5 1.5 1.3 1.6 2.4 1.6 13.3 14.3 23.4 29.4 23.4 15.1 0 27.7-10 29.4-23.4.1-1 .8-1.9 1.6-2.4-1.3-5-1.4-11.9-1.4-16.6-7.9 8-18.3 12.9-29.7 12.9z"/><path class="st86" d="M267.9 150.5c-7.6 7.6-17.7 12.3-28.9 12.3-11.5 0-21.8-4.9-29.5-12.9 0 4.8-.2 11.6-1.4 16.6.8.5 1.5 1.3 1.6 2.4.7 5.9 3.6 11.1 7.9 15.1 19.7-2.8 42.1-22.3 50.3-33.5z"/><path class="st87" d="M298.9 170c-.1 0-.3-.1-.4-.1l-26.2-3.9h-.7c-1.7 0-3.1 1.2-3.3 2.9-1.6 13.3-14.3 23.4-29.4 23.4-15.1 0-27.7-10-29.4-23.4-.2-1.7-1.7-3-3.3-2.9h-.6l-26.2 3.9c-.1 0-.3 0-.4.1-12.4 3.5-18.8 15.6-18.8 25.9v12.7c0 5.4 4.8 9.8 10.7 9.8H307c5.9 0 10.7-4.4 10.7-9.8v-12.7c.1-10.2-6.4-22.4-18.8-25.9z"/><path class="st85" d="M268.6 80.7h-55.7c-9 0-16.4 7.4-16.4 16.4v19.7c0 25.3 19.1 45.9 42.6 45.9s42.6-20.6 42.6-45.9V93.9c0-7.3-5.9-13.2-13.1-13.2z"/><path class="st88" d="M262 44.7h-42.6c-6.2 0-11.4 4.3-12.7 10-11.3 1.4-20 11.1-20 22.8v16.4c0 8.4 3.6 16.3 9.8 21.9V97.1c0-9 7.4-16.4 16.4-16.4h55.7c7.2 0 13.1 5.9 13.1 13.1v21.9c6.3-5.6 9.8-13.5 9.8-21.9V74.2c0-16.3-13.2-29.5-29.5-29.5z"/><path class="st58" d="M158.9 178.7c-17.3 0-33.1-7.4-44.7-19.5 0 7.2-.3 17.6-2.2 25.2 1.3.8 2.2 2 2.4 3.6 2.5 20.2 21.6 35.4 44.5 35.4s42-15.2 44.5-35.4c.2-1.6 1.1-2.8 2.4-3.6-1.9-7.6-2.2-18-2.2-25.2-11.6 12.1-27.4 19.5-44.7 19.5z"/><path class="st83" d="M202.6 160.2c-11.5 11.5-26.8 18.6-43.7 18.6-17.3 0-33.1-7.4-44.7-19.5 0 7.2-.3 17.6-2.2 25.2 1.3.8 2.2 2 2.4 3.6 1.1 8.9 5.4 16.8 11.9 22.9 30-4.2 63.9-33.7 76.3-50.8z"/><path class="st89" d="M251 189.7c-.2-.1-.4-.1-.6-.1l-39.6-5.9c-.2 0-.8-.1-1-.1-2.5 0-4.6 1.9-4.9 4.4-2.5 20.2-21.6 35.4-44.5 35.4s-42-15.2-44.5-35.4c-.3-2.6-2.6-4.5-5.1-4.4-.3 0-.6 0-.9.1l-39.6 5.9c-.2 0-.4.1-.6.1-18.7 5.2-28.5 23.7-28.5 39.2v19.2c0 8.2 7.3 14.9 16.3 14.9h205.8c9 0 16.3-6.7 16.3-14.9v-19.2c0-15.6-9.8-34-28.6-39.2z"/><path class="st59" d="M203.6 54.6h-84.4c-13.7 0-24.8 11.1-24.8 24.8v29.8c0 38.3 29 69.5 64.5 69.5s64.5-31.2 64.5-69.5V74.5c0-11-8.9-19.9-19.8-19.9z"/><path class="st90" d="M193.6 0h-64.5c-9.3 0-17.2 6.5-19.3 15.2C92.7 17.3 79.4 32 79.4 49.7v24.8c0 12.8 5.4 24.7 14.9 33.2V79.4c0-13.7 11.1-24.8 24.8-24.8h84.4c11 0 19.9 8.9 19.9 19.9v33.2c9.5-8.5 14.9-20.4 14.9-33.2V44.7c0-24.7-20-44.7-44.7-44.7z"/><g><path class="st5" d="M201.5 285v48.9l22.9-11.5 22.9 11.5v-50.2c-6.7 4.9-14.9 7.8-23.8 7.8-8.2 0-15.7-2.4-22-6.5z"/><path class="st1" d="M208 286.3v35l16.4-8.2 16.4 8.2v-36c-4.8 3.5-10.7 5.6-17.1 5.6-5.8.1-11.2-1.6-15.7-4.6z"/><path class="st91" d="M223.4 211c-22.2 0-40.3 18.1-40.3 40.3 0 14.1 7.3 26.6 18.3 33.8 6.3 4.1 13.9 6.5 21.9 6.5l.1-80.6z"/><path class="st92" d="M263.7 251.3c0-22.2-18.1-40.3-40.3-40.3v80.5c8.9 0 17.1-2.9 23.8-7.8 10-7.3 16.5-19.1 16.5-32.4z"/><circle class="st15" cx="223.4" cy="251.5" r="28.1"/></g></g></svg>