<?xml version="1.0" encoding="utf-8"?>
<!-- Generator: Adobe Illustrator 19.2.1, SVG Export Plug-In . SVG Version: 6.00 Build 0)  -->
<svg version="1.1" xmlns="http://www.w3.org/2000/svg" xmlns:xlink="http://www.w3.org/1999/xlink" x="0px" y="0px"
	 viewBox="0 0 363.5 385.1" style="enable-background:new 0 0 363.5 385.1;" xml:space="preserve">
<style type="text/css">
	.st0{opacity:0.49;fill:url(#SVGID_3_);}
	.st1{fill:#FFFFFF;}
	.st2{fill:#262626;}
	.st3{fill:#EAEDF4;}
	.st4{fill:#ADE9E9;}
	.st5{fill:#20AD8A;}
	.st6{fill:#FFC06C;}
	.st7{fill:#3F4D55;}
	.st8{fill:#5D5D5D;}
	.st9{fill:#B7B7B7;}
	.st10{fill:#ADADAD;}
	.st11{fill:#B2B2B2;}
	.st12{fill:#808080;}
	.st13{fill:#4D4D4D;}
	.st14{fill:#333333;}
	.st15{fill:#EFCE4A;}
	.st16{fill:#ED8A19;}
	.st17{fill:#EBBA16;}
	.st18{fill:#C7CAC7;}
	.st19{fill:#E7ECED;}
	.st20{opacity:0.7;clip-path:url(#SVGID_5_);}
	.st21{opacity:0.12;fill:#FFC06C;}
	.st22{opacity:0.16;fill:#FFC06C;}
	.st23{opacity:0.22;fill:#FFC06C;}
	.st24{opacity:0.3;fill:#FFC06C;}
	.st25{clip-path:url(#SVGID_7_);}
	.st26{opacity:0.15;fill:#20AD8A;}
	.st27{opacity:0.23;fill:#20AD8A;}
	.st28{opacity:0.3;fill:#20AD8A;}
	.st29{fill:#AAAAAA;}
	.st30{fill:none;stroke:#3F4D55;stroke-miterlimit:10;}
	.st31{fill:none;stroke:#3F4D55;stroke-linecap:round;stroke-miterlimit:10;}
	.st32{fill:#F00101;}
	.st33{fill:#030303;}
	.st34{fill:#70CADB;}
	.st35{fill:#E01765;}
	.st36{fill:#E8A723;}
	.st37{fill:#3EB890;}
	.st38{fill:#CC2027;}
	.st39{fill:#361238;}
	.st40{fill:#65863A;}
	.st41{fill:#1A937D;}
	.st42{fill:#666666;}
	.st43{fill:#D5E1E8;}
	.st44{fill:#E6EEF2;}
	.st45{fill:#573D82;}
	.st46{fill:#453068;}
	.st47{fill:#3FBA91;}
	.st48{fill:#6FCBDC;}
	.st49{fill:#DCDCDC;}
	.st50{fill:#FFC585;}
	.st51{fill:#FF3E88;}
	.st52{fill:#675470;}
	.st53{fill:#4A4687;}
	.st54{fill:#F3F3F3;}
	.st55{opacity:0.5;fill:#8977A7;}
	.st56{fill:#E1E9EF;}
	.st57{fill:#FFD7A3;}
	.st58{fill:#FDC88E;}
	.st59{fill:#FFE1B2;}
	.st60{fill:#A2CDE2;}
	.st61{fill:#545465;}
	.st62{fill:#29394A;}
	.st63{fill:#B5E0F0;}
	.st64{fill:#4A698E;}
	.st65{fill:#416185;}
	.st66{fill:#395A7F;}
	.st67{fill:#FFD5AB;}
	.st68{fill:#E4EBF0;}
	.st69{fill:#D0D7DC;}
	.st70{fill:#527992;}
	.st71{fill:#475F7F;}
	.st72{fill:#D3E5BD;}
	.st73{fill:#827873;}
	.st74{fill:#E0DDDC;}
	.st75{fill:#A19996;}
	.st76{fill:#33CCFF;}
	.st77{fill:#D8DCE1;}
	.st78{fill:#DB4026;}
	.st79{fill:#5C546A;}
	.st80{fill:#E8D21D;}
	.st81{fill:#4AECAF;}
	.st82{fill:#80362D;}
	.st83{fill:#FFB980;}
	.st84{fill:#F8AB6B;}
	.st85{fill:#BF9B5F;}
	.st86{fill:#83603F;}
	.st87{fill:#B0E070;}
	.st88{fill:#7E5C62;}
	.st89{fill:#A27082;}
	.st90{fill:#7E5449;}
	.st91{fill:#FFDA44;}
	.st92{fill:#FFCD00;}
	.st93{fill:#B1664F;}
	.st94{fill:#FFDAA9;}
	.st95{fill:#5FBEA0;}
	.st96{fill:none;stroke:#FFFFFF;stroke-width:2;stroke-linecap:round;stroke-miterlimit:10;}
	.st97{fill:#188268;}
	.st98{fill:#D2EFE8;}
	.st99{fill:#79CEB9;}
	.st100{fill:#EBEBED;}
	.st101{fill:#474F49;}
	.st102{fill:#DAABA9;}
	.st103{fill:#757EAF;}
	.st104{fill:#EDCC70;}
	.st105{fill:#B9BBC1;}
	.st106{fill:#53DCFF;}
	.st107{fill:#FCEE21;}
	.st108{fill:#8B8996;}
	.st109{fill:#686777;}
	.st110{fill:#67A2A9;}
	.st111{fill:#FF93B5;}
	.st112{fill:#FF93B5;stroke:#FFFFFF;stroke-width:2;stroke-linecap:round;stroke-miterlimit:10;}
	.st113{fill:#F3D960;}
	.st114{fill:#F3D960;stroke:#FFFFFF;stroke-width:2;stroke-linecap:round;stroke-miterlimit:10;}
	.st115{fill:#7BD766;}
	.st116{fill:#8166A4;}
	.st117{fill:#F67D69;}
	.st118{fill:#CCCCCC;}
	.st119{fill:#E6E6E6;}
	.st120{fill:#B3B3B3;}
	.st121{fill:none;stroke:#DA6F67;stroke-linecap:round;stroke-miterlimit:10;}
	.st122{fill:#BC679B;}
	.st123{fill:#09614B;}
	.st124{fill:#50748A;}
	.st125{fill:#E2E4FF;}
	.st126{fill:#A7795E;}
	.st127{fill:#ADB4BA;}
	.st128{fill:#4EA0CA;}
	.st129{fill:#394959;}
	.st130{fill:#E05040;}
	.st131{fill:#B4A87D;}
	.st132{fill:#7B7256;}
	.st133{fill:#FCC261;}
	.st134{fill:#111820;}
	.st135{fill:#DFDED6;}
	.st136{fill:#FF6953;}
	.st137{fill:#B06E53;}
	.st138{fill:#728EA0;}
	.st139{fill:#E5E4E3;}
	.st140{fill:#F7F3A8;}
	.st141{fill:#82827F;}
	.st142{fill:#353535;}
	.st143{fill:#A0B7D1;}
	.st144{fill:#ECEC66;}
	.st145{fill:#90BA72;}
	.st146{fill:#E7F2FC;}
	
		.st147{fill:none;stroke:#C6C6C6;stroke-width:2;stroke-linecap:round;stroke-linejoin:round;stroke-miterlimit:10;stroke-dasharray:5,10,5,10,5,10;}
	.st148{fill:#73A950;}
	.st149{fill:#FFA168;}
	.st150{fill:#2D688D;}
</style>
<g id="Capa_2">
</g>
<g id="Capa_3">
	<g>
		<g>
			<circle class="st56" cx="237.2" cy="125.9" r="74.2"/>
			<g>
				<g>
					<path class="st57" d="M218.5,137c3.8-2.4,3.4-9.7,3.4-11.4h30.5c0,1.7-0.5,8.9,3.3,11.4l-18.6,20.8L218.5,137z"/>
				</g>
				<g>
					<path class="st58" d="M249,144.2l6.7-7.2c-3.8-2.4-3.3-9.7-3.3-11.4h-30.5C224.1,131.9,238.5,142.7,249,144.2z"/>
				</g>
				<g>
					<path class="st59" d="M260.8,103.6c0,13.6-7.8,30.5-23.7,30.5s-23.7-16.9-23.7-30.5S224,85,237.1,85S260.8,90,260.8,103.6z"/>
				</g>
				<g>
					<path class="st60" d="M276.1,178.1c2.8,0,5.1-2.3,5.1-5.1v-16.3c0-7.4-5.8-15.4-12.9-17.7l-10.6-3.4
						c-5.7,4.4-13.8,10.3-20.5,10.3s-14.8-5.9-20.5-10.3L206,139c-7.1,2.3-12.9,10.2-12.9,17.7V173c0,2.8,2.3,5.1,5.1,5.1H276.1z"/>
				</g>
				<g>
					<path class="st61" d="M227,74.8c-1.6,0-1.8,0-3.4,0c-6.5,0-11.9,5.4-11.9,11.9c0,6.1,1.7,16.9,1.7,16.9s1.9-8.6,10.2-11.9
						C228.6,89.7,227,74.8,227,74.8z"/>
				</g>
				<g>
					<path class="st61" d="M225.3,74.9c6.8-10.5,24.3-1.8,35.6-1.8c1.7,2.4,2.9,20.8,0,30.5l-5.1-8.5c0,0-15.5,5.7-32.2-3.3"/>
				</g>
				<g>
					<path class="st59" d="M214.2,107c-2.5-0.6-4.2,0.7-4.2,3.4c0,3.5,3.4,12.2,7,6.8C220.6,111.7,214.2,107,214.2,107z"/>
				</g>
				<g>
					<path class="st59" d="M259.6,107c2.8-0.6,4.6,0.7,4.6,3.4c0,3.5-3.7,12.2-7.6,6.8C252.7,111.7,259.6,107,259.6,107z"/>
				</g>
				<g>
					<path class="st62" d="M240.5,151.1c0,0.9-0.8,1.7-1.7,1.7h-3.4c-0.9,0-1.7-0.8-1.7-1.7v-3.4c0-0.9,0.8-1.7,1.7-1.7h3.4
						c0.9,0,1.7,0.8,1.7,1.7V151.1z"/>
				</g>
				<g>
					<polygon class="st62" points="239.5,151.8 237.1,152.8 234.8,151.8 233.7,178 240.5,178 					"/>
				</g>
				<g>
					<path class="st63" d="M237.1,145.9l-7.1,7.1c-0.7,0.7-2,0.6-2.6-0.2l-12.4-17l3.9-3.9c0.6-0.6,1.7-0.7,2.3-0.1L237.1,145.9z"/>
				</g>
				<g>
					<path class="st63" d="M237.1,145.9l7.1,7.1c0.7,0.7,2,0.6,2.6-0.2l12.4-17l-3.9-3.9c-0.6-0.6-1.7-0.7-2.3-0.1L237.1,145.9z"/>
				</g>
				<g>
					<path class="st64" d="M268.3,139l-9.2-3h0l-21.9,27l-21.9-27h0l-9.2,3c-7.1,2.3-12.9,10.2-12.9,17.7V173c0,2.6,2,4.7,4.5,5
						h39.5h0.1h39.5c2.5-0.3,4.5-2.4,4.5-5v-16.3C281.2,149.2,275.4,141.3,268.3,139z"/>
				</g>
				<g>
					<g>
						<polygon class="st65" points="249.5,178 251.2,178 251.2,145.7 249.5,147.8 						"/>
					</g>
					<g>
						<polygon class="st65" points="239,178 240.6,178 240.6,158.8 239,160.9 						"/>
					</g>
					<g>
						<polygon class="st65" points="244.2,178 245.9,178 245.9,152.3 244.2,154.3 						"/>
					</g>
					<g>
						<polygon class="st65" points="260.1,178 261.8,178 261.8,136.9 260.1,136.4 						"/>
					</g>
					<g>
						<polygon class="st65" points="233.7,178 235.4,178 235.4,160.9 233.7,158.8 						"/>
					</g>
					<g>
						<path class="st65" d="M270.7,140v38h1.7v-37C271.8,140.7,271.3,140.3,270.7,140z"/>
					</g>
					<g>
						<polygon class="st65" points="265.4,138.1 265.4,178 267.1,178 267.1,138.6 						"/>
					</g>
					<g>
						<polygon class="st65" points="254.8,141.3 254.8,178 256.5,178 256.5,139.2 						"/>
					</g>
					<g>
						<polygon class="st65" points="207.2,178 208.9,178 208.9,138.1 207.2,138.6 						"/>
					</g>
					<g>
						<polygon class="st65" points="228.4,178 230.1,178 230.1,154.3 228.4,152.3 						"/>
					</g>
					<g>
						<path class="st65" d="M196.6,146.3v31.5c0.3,0.1,0.6,0.2,1,0.2h0.7v-33.9C197.7,144.9,197.2,145.6,196.6,146.3z"/>
					</g>
					<g>
						<path class="st65" d="M276,178h0.7c0.3,0,0.7-0.1,1-0.2v-31.5c-0.5-0.7-1.1-1.5-1.7-2.1L276,178L276,178z"/>
					</g>
					<g>
						<path class="st65" d="M201.9,141v37h1.7v-38C203,140.3,202.5,140.7,201.9,141z"/>
					</g>
					<g>
						<polygon class="st65" points="223.1,178 224.8,178 224.8,147.8 223.1,145.7 						"/>
					</g>
					<g>
						<polygon class="st65" points="217.8,178 219.5,178 219.5,141.3 217.8,139.2 						"/>
					</g>
					<g>
						<polygon class="st65" points="212.5,136.9 212.5,178 214.2,178 214.2,136.4 						"/>
					</g>
				</g>
				<g>
					<path class="st66" d="M208.1,146.2l6,0.7v4.4c0,0.5,0.3,1.1,0.7,1.4l22.3,15.9l0-5.6l-22-27.3l-8.5,3.1v5.7
						C206.7,145.4,207.3,146.1,208.1,146.2z"/>
				</g>
				<g>
					<path class="st66" d="M266.1,146.2l-6,0.7v4.4c0,0.5-0.3,1.1-0.7,1.4l-22.3,15.9l0-5.6l22-27.3l8.5,3.1v5.7
						C267.6,145.4,267,146.1,266.1,146.2z"/>
				</g>
				<g>
					<polygon class="st66" points="237.1,165.1 234.8,164.9 236.4,178 237.1,178 237.9,178 239.4,164.9 					"/>
				</g>
			</g>
		</g>
		<g>
			<circle class="st67" cx="107.3" cy="239.5" r="77"/>
			<g>
				<g>
					<path class="st61" d="M93.2,186.5l8.2,55l-10.8,18.1C73.8,235,69.3,186.5,93.2,186.5z"/>
				</g>
				<g>
					<path class="st61" d="M92.3,186.5c5.5-4.7,19.6-7.4,31.6-1.8c16.4,7.8,16.3,42.7,1.7,71.5c0,0-11.6-8.3-11.6-8.3L92.3,186.5z"
						/>
				</g>
				<g>
					<path class="st57" d="M119,240.2L119,240.2l-0.1-3.9H95.6v3.9c0,3.8,0,7.9-3.3,10.4v37.2h15c0,0,7.8,0,15,0v-37.3
						C119,248,119,243.9,119,240.2z"/>
				</g>
				<g>
					<path class="st68" d="M132.2,252.9h-0.6c-6.3,0-9.5-1.7-11.1-4.1l-11.6,7.9l0,0l-1.7,12.1l-1.7-12.1L94,248.8
						c-1.6,2.4-4.8,4.1-11.1,4.1h-0.6c-10.1,0-18.3,8.2-18.3,18.3v11.6c0,2.8,2.2,5,5,5h28.2h5.8h8.2h9.2h24.9c2.8,0,5-2.2,5-5
						v-11.6C150.5,261.1,142.3,252.9,132.2,252.9z"/>
				</g>
				<g>
					<path class="st58" d="M118.9,256.3c0.6,0.2-0.5-1.7,0-1.7l3.3-4.1c-3.2-2.5-3.2-6.6-3.2-10.4h-0.1v-3.9h-18.3l-5,1.7
						C99,241.7,107.5,253.2,118.9,256.3z"/>
				</g>
				<g>
					<path class="st59" d="M130.5,214.7c0,13.3-13.2,29.9-23.3,29.9S84,228,84,214.7c0-13.3,10.4-18.3,23.3-18.3
						S130.5,201.4,130.5,214.7z"/>
				</g>
				<g>
					<path class="st61" d="M104,188.1c0.9,0,4,1,6.4,2l0.2-0.3c0,0,0.3,0.3,0.9,0.7c1.4,0.5,2.4,0.9,2.4,0.9l-0.4,0.6
						c6.3,5,20.7,16.3,22,17.6c1.7,1.7-8.2,43.2-8.2,19.1c0-20.1-11.2-24.1-21.6-26.6c-4.7-1.1-7.8-3-8.4-5.8
						C96.8,193.6,102.4,188.1,104,188.1z"/>
				</g>
				<g>
					<path class="st61" d="M99,199.3c0,0-12.6,3.9-14.9,17.6c-0.5,3.2-4.9-10.9-4.9-10.9s2.5-11.1,3-11.4c0.6-0.3,11.8-4.8,11.8-4.8
						l3.4,2.9L99,199.3z"/>
				</g>
				<g>
					<path class="st69" d="M105.6,256.7l-11.5-8.1l-4.1,3.2l7.7,10.7c0.6,0.9,1.9,0.9,2.6,0.1L105.6,256.7z"/>
				</g>
				<g>
					<path class="st69" d="M108.9,256.7l11.5-8.1l4.1,3.2l-7.7,10.7c-0.6,0.9-1.9,0.9-2.6,0.1L108.9,256.7z"/>
				</g>
				<g>
					<path class="st70" d="M90,251.8c-1.8,0.7-4.1,1.1-7.1,1.1h-0.6c-10.1,0-18.3,8.2-18.3,18.3v11.6c0,2.8,2.2,5,5,5h28.2L90,251.8
						C90.1,251.8,90,251.8,90,251.8z"/>
				</g>
				<g>
					<path class="st70" d="M124.5,251.8c1.8,0.7,4.1,1.1,7.1,1.1h0.6c10.1,0,18.3,8.2,18.3,18.3v11.6c0,2.8-2.2,5-5,5h-28.2
						L124.5,251.8C124.5,251.8,124.5,251.8,124.5,251.8z"/>
				</g>
				<g>
					<path class="st59" d="M85.7,217.1c-2.5-0.6-4.1,0.7-4.1,3.3c0,3.5,3.3,11.9,6.9,6.6C92,221.8,85.7,217.1,85.7,217.1z"/>
				</g>
				<g>
					<circle class="st61" cx="87.3" cy="269.6" r="1.7"/>
				</g>
				<g>
					<circle class="st69" cx="107.3" cy="274.6" r="1.7"/>
				</g>
				<g>
					<circle class="st69" cx="107.3" cy="283" r="1.7"/>
				</g>
				<g>
					<circle class="st61" cx="89" cy="279.6" r="1.7"/>
				</g>
				<g>
					<g>
						<g>
							<path class="st61" d="M103.6,216.5v1.2c0,3.7-3,6.6-6.6,6.6h-1.7c-1.8,0-3.3-1.5-3.3-3.3v-4.6L103.6,216.5 M103.6,214.9H91.9
								c-0.9,0-1.7,0.7-1.7,1.7v4.6c0,2.8,2.2,5,5,5h1.7c4.6,0,8.3-3.7,8.3-8.3v-1.2C105.2,215.6,104.5,214.9,103.6,214.9
								L103.6,214.9z"/>
						</g>
					</g>
					<g>
						<g>
							<path class="st61" d="M122.6,216.5v4.6c0,1.8-1.5,3.3-3.3,3.3h-1.7c-3.7,0-6.6-3-6.6-6.6v-1.2L122.6,216.5 M122.6,214.9H111
								c-0.9,0-1.7,0.7-1.7,1.7v1.2c0,4.6,3.7,8.3,8.3,8.3h1.7c2.8,0,5-2.2,5-5v-4.6C124.3,215.6,123.6,214.9,122.6,214.9
								L122.6,214.9z"/>
						</g>
					</g>
					<g>
						<g>
							<polygon class="st61" points="84,214.9 91.9,214.9 91.9,218.8 84,216.9 							"/>
						</g>
					</g>
					<g>
						<g>
							<polygon class="st61" points="130.6,214.9 122.6,214.9 122.6,218.8 130.6,216.9 							"/>
						</g>
					</g>
					<g>
						<g>
							<path class="st61" d="M111.1,218.8h-1.7c0-0.7-1-1.3-2.1-1.3s-2.1,0.6-2.1,1.3h-1.7c0-1.7,1.7-3,3.8-3
								S111.1,217.1,111.1,218.8z"/>
						</g>
					</g>
				</g>
				<g>
					<g>
						<path class="st71" d="M135.1,281.3h-9.6c-1.4,0-2.5,1.1-2.5,2.5v4h14.6v-4C137.6,282.4,136.5,281.3,135.1,281.3z"/>
					</g>
				</g>
			</g>
		</g>
		<g>
			<circle class="st72" cx="266.5" cy="310.9" r="74.2"/>
			<g>
				<g>
					<path class="st61" d="M245,295.2l3,13.5c0.2,0.8,0.8,1.3,1.6,1.3h3.6v-13.2L245,295.2z"/>
				</g>
				<g>
					<path class="st61" d="M287.9,295.2l-3,13.5c-0.2,0.8-0.8,1.3-1.6,1.3h-3.6v-13.2L287.9,295.2z"/>
				</g>
				<g>
					<path class="st57" d="M248.3,316.2c3.7-2.4,3.3-9.4,3.3-11.1h29.7c0,1.6-0.5,8.7,3.2,11.1l-18.1,20.2L248.3,316.2z"/>
				</g>
				<g>
					<path class="st58" d="M278,323.2l6.5-7c-3.7-2.4-3.2-9.4-3.2-11.1h-29.7C253.7,311.2,267.8,321.7,278,323.2z"/>
				</g>
				<g>
					<path class="st59" d="M289.5,283.7c0,13.2-7.6,29.7-23.1,29.7s-23.1-16.5-23.1-29.7c0-13.2,10.3-18.1,23.1-18.1
						S289.5,270.5,289.5,283.7z"/>
				</g>
				<g>
					<path class="st73" d="M304.4,357.3c2.7,0,4.9-2.2,4.9-4.9v-17c0-7.3-5.7-15-12.6-17.2l-10.3-3.3c-5.5,4.2-13.5,10-20,10
						c-6.5,0-14.4-5.8-20-10l-10.3,3.3c-6.9,2.2-12.6,10-12.6,17.2v17c0,2.7,2.2,4.9,4.9,4.9H304.4z"/>
				</g>
				<g>
					<path class="st74" d="M261.5,328.2l2.6,2.6c1.3,1.3,3.4,1.3,4.7,0l4.3-4.3l-6.6-1.6L261.5,328.2z"/>
				</g>
				<g>
					<path class="st61" d="M254.9,255.6c14.4-9.9,43.8-1.2,34.6,31.3l-4.9-4.9c0,0-18.4-4.4-34.6-13.2"/>
				</g>
				<g>
					<path class="st75" d="M266.5,324.9l-6.9,6.9c-0.7,0.7-1.9,0.6-2.5-0.2L245,315l3.8-3.8c0.6-0.6,1.6-0.6,2.3-0.1L266.5,324.9z"
						/>
				</g>
				<g>
					<path class="st75" d="M266.5,324.9l6.9,6.9c0.7,0.7,1.9,0.6,2.5-0.2l12.1-16.6l-3.8-3.8c-0.6-0.6-1.6-0.6-2.3-0.1L266.5,324.9z
						"/>
				</g>
				<g>
					<path class="st59" d="M244.2,287c-2.5-0.6-4.1,0.7-4.1,3.3c0,3.4,3.3,11.8,6.8,6.6C250.4,291.6,244.2,287,244.2,287z"/>
				</g>
				<g>
					<path class="st59" d="M288.4,287c2.7-0.6,4.5,0.7,4.5,3.3c0,3.4-3.6,11.8-7.4,6.6C281.6,291.6,288.4,287,288.4,287z"/>
				</g>
				<g>
					<path class="st61" d="M243.4,287c0.5,1.6,1.6,3.3,1.6,3.3s9.6-12.4,9.9-21.4c0.3-9.1-1.6-8.2-1.6-8.2l3.3-1.6
						c0,0,5.8-2.6-1.6-3.3C244.6,254.6,235.1,262.1,243.4,287z"/>
				</g>
			</g>
		</g>
		<g>
			<path class="st5" d="M55.6,177c4.4-5.4,7-12.3,7-19.8c0-17.3-14-31.3-31.3-31.3C14,125.9,0,139.9,0,157.2s14,31.3,31.3,31.3
				c4.8,0,9.3-1.1,13.4-3l16.1,13.5L55.6,177z"/>
			<circle class="st1" cx="31.3" cy="157.1" r="4.7"/>
			<circle class="st1" cx="16.5" cy="157.1" r="4.7"/>
			<circle class="st1" cx="46.1" cy="157.1" r="4.7"/>
		</g>
		<g>
			<path class="st76" d="M283.3,51.1c-4.4-5.4-7-12.3-7-19.8c0-17.3,14-31.3,31.3-31.3c17.3,0,31.3,14,31.3,31.3s-14,31.3-31.3,31.3
				c-4.8,0-9.3-1.1-13.4-3l-16.1,13.5L283.3,51.1z"/>
			<circle class="st1" cx="307.6" cy="31.2" r="4.7"/>
			<circle class="st1" cx="322.4" cy="31.2" r="4.7"/>
			<circle class="st1" cx="292.8" cy="31.2" r="4.7"/>
		</g>
		<g>
			<path class="st6" d="M305.8,236.3c-4.6-5.6-7.3-12.7-7.3-20.5c0-17.9,14.5-32.5,32.5-32.5c17.9,0,32.5,14.5,32.5,32.5
				s-14.5,32.5-32.5,32.5c-5,0-9.7-1.1-13.9-3.1l-16.7,14L305.8,236.3z"/>
			<rect x="315.5" y="208.6" class="st1" width="8.7" height="17.3"/>
			<path class="st1" d="M326.5,208.6v17.3h15.6c0,0,3.7,0.7,3.9-3.9v-9.6c0,0,0.9-2,0-3.8h-12.2c0,0,0.5-2.9,1.5-4.3
				c1-1.4,2.9-9-1.4-9c-4.3,0-2.1,4.5-4,8C327.9,206.7,326.5,208.6,326.5,208.6"/>
		</g>
	</g>
</g>
</svg>
