<svg xmlns="http://www.w3.org/2000/svg" viewBox="0 0 363.5 385.1"><style>.st0{opacity:.49;fill:url(#SVGID_3_)}.st1{fill:#fff}.st2{fill:#262626}.st3{fill:#eaedf4}.st4{fill:#ade9e9}.st5{fill:#20ad8a}.st6{fill:#ffc06c}.st7{fill:#3f4d55}.st8{fill:#5d5d5d}.st9{fill:#b7b7b7}.st10{fill:#adadad}.st11{fill:#b2b2b2}.st12{fill:gray}.st13{fill:#4d4d4d}.st14{fill:#333}.st15{fill:#efce4a}.st16{fill:#ed8a19}.st17{fill:#ebba16}.st18{fill:#c7cac7}.st19{fill:#e7eced}.st20{opacity:.7;clip-path:url(#SVGID_5_)}.st21{opacity:.12;fill:#ffc06c}.st22{opacity:.16}.st22,.st23,.st24{fill:#ffc06c}.st23{opacity:.22}.st24{opacity:.3}.st25{clip-path:url(#SVGID_7_)}.st26{opacity:.15}.st26,.st27,.st28{fill:#20ad8a}.st27{opacity:.23}.st28{opacity:.3}.st29{fill:#aaa}.st30,.st31{fill:none;stroke:#3f4d55;stroke-miterlimit:10}.st31{stroke-linecap:round}.st32{fill:#f00101}.st33{fill:#030303}.st34{fill:#70cadb}.st35{fill:#e01765}.st36{fill:#e8a723}.st37{fill:#3eb890}.st38{fill:#cc2027}.st39{fill:#361238}.st40{fill:#65863a}.st41{fill:#1a937d}.st42{fill:#666}.st43{fill:#d5e1e8}.st44{fill:#e6eef2}.st45{fill:#573d82}.st46{fill:#453068}.st47{fill:#3fba91}.st48{fill:#6fcbdc}.st49{fill:#dcdcdc}.st50{fill:#ffc585}.st51{fill:#ff3e88}.st52{fill:#675470}.st53{fill:#4a4687}.st54{fill:#f3f3f3}.st55{opacity:.5;fill:#8977a7}.st56{fill:#e1e9ef}.st57{fill:#ffd7a3}.st58{fill:#fdc88e}.st59{fill:#ffe1b2}.st60{fill:#a2cde2}.st61{fill:#545465}.st62{fill:#29394a}.st63{fill:#b5e0f0}.st64{fill:#4a698e}.st65{fill:#416185}.st66{fill:#395a7f}.st67{fill:#ffd5ab}.st68{fill:#e4ebf0}.st69{fill:#d0d7dc}.st70{fill:#527992}.st71{fill:#475f7f}.st72{fill:#d3e5bd}.st73{fill:#827873}.st74{fill:#e0dddc}.st75{fill:#a19996}.st76{fill:#3cf}.st77{fill:#d8dce1}.st78{fill:#db4026}.st79{fill:#5c546a}.st80{fill:#e8d21d}.st81{fill:#4aecaf}.st82{fill:#80362d}.st83{fill:#ffb980}.st84{fill:#f8ab6b}.st85{fill:#bf9b5f}.st86{fill:#83603f}.st87{fill:#b0e070}.st88{fill:#7e5c62}.st89{fill:#a27082}.st90{fill:#7e5449}.st91{fill:#ffda44}.st92{fill:#ffcd00}.st93{fill:#b1664f}.st94{fill:#ffdaa9}.st95{fill:#5fbea0}.st96{fill:none;stroke:#fff;stroke-width:2;stroke-linecap:round;stroke-miterlimit:10}.st97{fill:#188268}.st98{fill:#d2efe8}.st99{fill:#79ceb9}.st100{fill:#ebebed}.st101{fill:#474f49}.st102{fill:#daaba9}.st103{fill:#757eaf}.st104{fill:#edcc70}.st105{fill:#b9bbc1}.st106{fill:#53dcff}.st107{fill:#fcee21}.st108{fill:#8b8996}.st109{fill:#686777}.st110{fill:#67a2a9}.st111,.st112{fill:#ff93b5}.st112{stroke:#fff;stroke-width:2;stroke-linecap:round;stroke-miterlimit:10}.st113,.st114{fill:#f3d960}.st114{stroke:#fff;stroke-width:2;stroke-linecap:round;stroke-miterlimit:10}.st115{fill:#7bd766}.st116{fill:#8166a4}.st117{fill:#f67d69}.st118{fill:#ccc}.st119{fill:#e6e6e6}.st120{fill:#b3b3b3}.st121{fill:none;stroke:#da6f67;stroke-linecap:round;stroke-miterlimit:10}.st122{fill:#bc679b}.st123{fill:#09614b}.st124{fill:#50748a}.st125{fill:#e2e4ff}.st126{fill:#a7795e}.st127{fill:#adb4ba}.st128{fill:#4ea0ca}.st129{fill:#394959}.st130{fill:#e05040}.st131{fill:#b4a87d}.st132{fill:#7b7256}.st133{fill:#fcc261}.st134{fill:#111820}.st135{fill:#dfded6}.st136{fill:#ff6953}.st137{fill:#b06e53}.st138{fill:#728ea0}.st139{fill:#e5e4e3}.st140{fill:#f7f3a8}.st141{fill:#82827f}.st142{fill:#353535}.st143{fill:#a0b7d1}.st144{fill:#ecec66}.st145{fill:#90ba72}.st146{fill:#e7f2fc}.st147{fill:none;stroke:#c6c6c6;stroke-width:2;stroke-linecap:round;stroke-linejoin:round;stroke-miterlimit:10;stroke-dasharray:5,10,5,10,5,10}.st148{fill:#73a950}.st149{fill:#ffa168}.st150{fill:#2d688d}</style><g id="Capa_3"><circle class="st56" cx="237.2" cy="125.9" r="74.2"/><path class="st57" d="M218.5 137c3.8-2.4 3.4-9.7 3.4-11.4h30.5c0 1.7-.5 8.9 3.3 11.4l-18.6 20.8-18.6-20.8z"/><path class="st58" d="M249 144.2l6.7-7.2c-3.8-2.4-3.3-9.7-3.3-11.4h-30.5c2.2 6.3 16.6 17.1 27.1 18.6z"/><path class="st59" d="M260.8 103.6c0 13.6-7.8 30.5-23.7 30.5s-23.7-16.9-23.7-30.5S224 85 237.1 85s23.7 5 23.7 18.6z"/><path class="st60" d="M276.1 178.1c2.8 0 5.1-2.3 5.1-5.1v-16.3c0-7.4-5.8-15.4-12.9-17.7l-10.6-3.4c-5.7 4.4-13.8 10.3-20.5 10.3s-14.8-5.9-20.5-10.3L206 139c-7.1 2.3-12.9 10.2-12.9 17.7V173c0 2.8 2.3 5.1 5.1 5.1h77.9z"/><path class="st61" d="M227 74.8h-3.4c-6.5 0-11.9 5.4-11.9 11.9 0 6.1 1.7 16.9 1.7 16.9s1.9-8.6 10.2-11.9c5-2 3.4-16.9 3.4-16.9z"/><path class="st61" d="M225.3 74.9c6.8-10.5 24.3-1.8 35.6-1.8 1.7 2.4 2.9 20.8 0 30.5l-5.1-8.5s-15.5 5.7-32.2-3.3"/><path class="st59" d="M214.2 107c-2.5-.6-4.2.7-4.2 3.4 0 3.5 3.4 12.2 7 6.8 3.6-5.5-2.8-10.2-2.8-10.2zm45.4 0c2.8-.6 4.6.7 4.6 3.4 0 3.5-3.7 12.2-7.6 6.8-3.9-5.5 3-10.2 3-10.2z"/><path class="st62" d="M240.5 151.1c0 .9-.8 1.7-1.7 1.7h-3.4c-.9 0-1.7-.8-1.7-1.7v-3.4c0-.9.8-1.7 1.7-1.7h3.4c.9 0 1.7.8 1.7 1.7v3.4z"/><path class="st62" d="M239.5 151.8l-2.4 1-2.3-1-1.1 26.2h6.8z"/><path class="st63" d="M237.1 145.9L230 153c-.7.7-2 .6-2.6-.2l-12.4-17 3.9-3.9c.6-.6 1.7-.7 2.3-.1l15.9 14.1z"/><path class="st63" d="M237.1 145.9l7.1 7.1c.7.7 2 .6 2.6-.2l12.4-17-3.9-3.9c-.6-.6-1.7-.7-2.3-.1l-15.9 14.1z"/><path class="st64" d="M268.3 139l-9.2-3-21.9 27-21.9-27-9.2 3c-7.1 2.3-12.9 10.2-12.9 17.7V173c0 2.6 2 4.7 4.5 5h79.1c2.5-.3 4.5-2.4 4.5-5v-16.3c-.1-7.5-5.9-15.4-13-17.7z"/><path class="st65" d="M249.5 178h1.7v-32.3l-1.7 2.1zm-10.5 0h1.6v-19.2l-1.6 2.1zm5.2 0h1.7v-25.7l-1.7 2zm15.9 0h1.7v-41.1l-1.7-.5zm-26.4 0h1.7v-17.1l-1.7-2.1zm37-38v38h1.7v-37c-.6-.3-1.1-.7-1.7-1zm-5.3-1.9V178h1.7v-39.4zm-10.6 3.2V178h1.7v-38.8zM207.2 178h1.7v-39.9l-1.7.5zm21.2 0h1.7v-23.7l-1.7-2zm-31.8-31.7v31.5c.3.1.6.2 1 .2h.7v-33.9c-.6.8-1.1 1.5-1.7 2.2zM276 178h.7c.3 0 .7-.1 1-.2v-31.5c-.5-.7-1.1-1.5-1.7-2.1V178zm-74.1-37v37h1.7v-38c-.6.3-1.1.7-1.7 1zm21.2 37h1.7v-30.2l-1.7-2.1zm-5.3 0h1.7v-36.7l-1.7-2.1zm-5.3-41.1V178h1.7v-41.6z"/><path class="st66" d="M208.1 146.2l6 .7v4.4c0 .5.3 1.1.7 1.4l22.3 15.9V163l-22-27.3-8.5 3.1v5.7c.1.9.7 1.6 1.5 1.7zM266.1 146.2l-6 .7v4.4c0 .5-.3 1.1-.7 1.4l-22.3 15.9V163l22-27.3 8.5 3.1v5.7c0 .9-.6 1.6-1.5 1.7z"/><path class="st66" d="M237.1 165.1l-2.3-.2 1.6 13.1h1.5l1.5-13.1z"/><circle class="st67" cx="107.3" cy="239.5" r="77"/><path class="st61" d="M93.2 186.5l8.2 55-10.8 18.1c-16.8-24.6-21.3-73.1 2.6-73.1z"/><path class="st61" d="M92.3 186.5c5.5-4.7 19.6-7.4 31.6-1.8 16.4 7.8 16.3 42.7 1.7 71.5l-11.6-8.3-21.7-61.4z"/><path class="st57" d="M119 240.2l-.1-3.9H95.6v3.9c0 3.8 0 7.9-3.3 10.4v37.2h30v-37.3c-3.3-2.5-3.3-6.6-3.3-10.3z"/><path class="st68" d="M132.2 252.9h-.6c-6.3 0-9.5-1.7-11.1-4.1l-11.6 7.9-1.7 12.1-1.7-12.1-11.5-7.9c-1.6 2.4-4.8 4.1-11.1 4.1h-.6c-10.1 0-18.3 8.2-18.3 18.3v11.6c0 2.8 2.2 5 5 5h76.3c2.8 0 5-2.2 5-5v-11.6c.2-10.1-8-18.3-18.1-18.3z"/><path class="st58" d="M118.9 256.3c.6.2-.5-1.7 0-1.7l3.3-4.1c-3.2-2.5-3.2-6.6-3.2-10.4h-.1v-3.9h-18.3l-5 1.7c3.4 3.8 11.9 15.3 23.3 18.4z"/><path class="st59" d="M130.5 214.7c0 13.3-13.2 29.9-23.3 29.9S84 228 84 214.7c0-13.3 10.4-18.3 23.3-18.3s23.2 5 23.2 18.3z"/><path class="st61" d="M104 188.1c.9 0 4 1 6.4 2l.2-.3s.3.3.9.7c1.4.5 2.4.9 2.4.9l-.4.6c6.3 5 20.7 16.3 22 17.6 1.7 1.7-8.2 43.2-8.2 19.1 0-20.1-11.2-24.1-21.6-26.6-4.7-1.1-7.8-3-8.4-5.8-.5-2.7 5.1-8.2 6.7-8.2z"/><path class="st61" d="M99 199.3s-12.6 3.9-14.9 17.6c-.5 3.2-4.9-10.9-4.9-10.9s2.5-11.1 3-11.4c.6-.3 11.8-4.8 11.8-4.8l3.4 2.9 1.6 6.6z"/><path class="st69" d="M105.6 256.7l-11.5-8.1-4.1 3.2 7.7 10.7c.6.9 1.9.9 2.6.1l5.3-5.9zm3.3 0l11.5-8.1 4.1 3.2-7.7 10.7c-.6.9-1.9.9-2.6.1l-5.3-5.9z"/><path class="st70" d="M90 251.8c-1.8.7-4.1 1.1-7.1 1.1h-.6c-10.1 0-18.3 8.2-18.3 18.3v11.6c0 2.8 2.2 5 5 5h28.2l-7.2-36c.1 0 0 0 0 0zm34.5 0c1.8.7 4.1 1.1 7.1 1.1h.6c10.1 0 18.3 8.2 18.3 18.3v11.6c0 2.8-2.2 5-5 5h-28.2l7.2-36z"/><path class="st59" d="M85.7 217.1c-2.5-.6-4.1.7-4.1 3.3 0 3.5 3.3 11.9 6.9 6.6 3.5-5.2-2.8-9.9-2.8-9.9z"/><circle class="st61" cx="87.3" cy="269.6" r="1.7"/><circle class="st69" cx="107.3" cy="274.6" r="1.7"/><circle class="st69" cx="107.3" cy="283" r="1.7"/><circle class="st61" cx="89" cy="279.6" r="1.7"/><path class="st61" d="M103.6 216.5v1.2c0 3.7-3 6.6-6.6 6.6h-1.7c-1.8 0-3.3-1.5-3.3-3.3v-4.6l11.6.1m0-1.6H91.9c-.9 0-1.7.7-1.7 1.7v4.6c0 2.8 2.2 5 5 5h1.7c4.6 0 8.3-3.7 8.3-8.3v-1.2c0-1.1-.7-1.8-1.6-1.8zm19 1.6v4.6c0 1.8-1.5 3.3-3.3 3.3h-1.7c-3.7 0-6.6-3-6.6-6.6v-1.2l11.6-.1m0-1.6H111c-.9 0-1.7.7-1.7 1.7v1.2c0 4.6 3.7 8.3 8.3 8.3h1.7c2.8 0 5-2.2 5-5v-4.6c0-.9-.7-1.6-1.7-1.6z"/><path class="st61" d="M84 214.9h7.9v3.9l-7.9-1.9zm46.6 0h-8v3.9l8-1.9zm-19.5 3.9h-1.7c0-.7-1-1.3-2.1-1.3s-2.1.6-2.1 1.3h-1.7c0-1.7 1.7-3 3.8-3s3.8 1.3 3.8 3z"/><path class="st71" d="M135.1 281.3h-9.6c-1.4 0-2.5 1.1-2.5 2.5v4h14.6v-4c0-1.4-1.1-2.5-2.5-2.5z"/><g><circle class="st72" cx="266.5" cy="310.9" r="74.2"/><path class="st61" d="M245 295.2l3 13.5c.2.8.8 1.3 1.6 1.3h3.6v-13.2l-8.2-1.6zm42.9 0l-3 13.5c-.2.8-.8 1.3-1.6 1.3h-3.6v-13.2l8.2-1.6z"/><path class="st57" d="M248.3 316.2c3.7-2.4 3.3-9.4 3.3-11.1h29.7c0 1.6-.5 8.7 3.2 11.1l-18.1 20.2-18.1-20.2z"/><path class="st58" d="M278 323.2l6.5-7c-3.7-2.4-3.2-9.4-3.2-11.1h-29.7c2.1 6.1 16.2 16.6 26.4 18.1z"/><path class="st59" d="M289.5 283.7c0 13.2-7.6 29.7-23.1 29.7s-23.1-16.5-23.1-29.7 10.3-18.1 23.1-18.1 23.1 4.9 23.1 18.1z"/><path class="st73" d="M304.4 357.3c2.7 0 4.9-2.2 4.9-4.9v-17c0-7.3-5.7-15-12.6-17.2l-10.3-3.3c-5.5 4.2-13.5 10-20 10s-14.4-5.8-20-10l-10.3 3.3c-6.9 2.2-12.6 10-12.6 17.2v17c0 2.7 2.2 4.9 4.9 4.9h76z"/><path class="st74" d="M261.5 328.2l2.6 2.6c1.3 1.3 3.4 1.3 4.7 0l4.3-4.3-6.6-1.6-5 3.3z"/><path class="st61" d="M254.9 255.6c14.4-9.9 43.8-1.2 34.6 31.3l-4.9-4.9s-18.4-4.4-34.6-13.2"/><path class="st75" d="M266.5 324.9l-6.9 6.9c-.7.7-1.9.6-2.5-.2L245 315l3.8-3.8c.6-.6 1.6-.6 2.3-.1l15.4 13.8zm0 0l6.9 6.9c.7.7 1.9.6 2.5-.2L288 315l-3.8-3.8c-.6-.6-1.6-.6-2.3-.1l-15.4 13.8z"/><path class="st59" d="M244.2 287c-2.5-.6-4.1.7-4.1 3.3 0 3.4 3.3 11.8 6.8 6.6 3.5-5.3-2.7-9.9-2.7-9.9zm44.2 0c2.7-.6 4.5.7 4.5 3.3 0 3.4-3.6 11.8-7.4 6.6-3.9-5.3 2.9-9.9 2.9-9.9z"/><path class="st61" d="M243.4 287c.5 1.6 1.6 3.3 1.6 3.3s9.6-12.4 9.9-21.4c.3-9.1-1.6-8.2-1.6-8.2l3.3-1.6s5.8-2.6-1.6-3.3c-10.4-1.2-19.9 6.3-11.6 31.2z"/></g><g><path class="st5" d="M55.6 177c4.4-5.4 7-12.3 7-19.8 0-17.3-14-31.3-31.3-31.3S0 139.9 0 157.2s14 31.3 31.3 31.3c4.8 0 9.3-1.1 13.4-3L60.8 199l-5.2-22z"/><circle class="st1" cx="31.3" cy="157.1" r="4.7"/><circle class="st1" cx="16.5" cy="157.1" r="4.7"/><circle class="st1" cx="46.1" cy="157.1" r="4.7"/></g><g><path class="st76" d="M283.3 51.1c-4.4-5.4-7-12.3-7-19.8 0-17.3 14-31.3 31.3-31.3s31.3 14 31.3 31.3-14 31.3-31.3 31.3c-4.8 0-9.3-1.1-13.4-3l-16.1 13.5 5.2-22z"/><circle class="st1" cx="307.6" cy="31.2" r="4.7"/><circle class="st1" cx="322.4" cy="31.2" r="4.7"/><circle class="st1" cx="292.8" cy="31.2" r="4.7"/></g><g><path class="st6" d="M305.8 236.3c-4.6-5.6-7.3-12.7-7.3-20.5 0-17.9 14.5-32.5 32.5-32.5 17.9 0 32.5 14.5 32.5 32.5S349 248.3 331 248.3c-5 0-9.7-1.1-13.9-3.1l-16.7 14 5.4-22.9z"/><path class="st1" d="M315.5 208.6h8.7v17.3h-8.7zm11 0v17.3h15.6s3.7.7 3.9-3.9v-9.6s.9-2 0-3.8h-12.2s.5-2.9 1.5-4.3 2.9-9-1.4-9-2.1 4.5-4 8c-2 3.4-3.4 5.3-3.4 5.3"/></g></g></svg>