<svg id="Layer_1" xmlns="http://www.w3.org/2000/svg" viewBox="590 -158.4 1280.2 417.4"><style>.st0{fill:#475459}.st1{fill:#545b5d}.st2{fill:#636461}.st3{fill:#736d65}</style><g id="CallAction_section_city"><path id="Buildings_4_2_" class="st0" d="M2261.8 345V172.7h-42V26h-104.7v319h-46.9V172.7h-82.6V99.4h-52.4v20.9H1911v9.1h-26.3v15.8h-14.8V345h-16.7V99.4h-77.3V345h-11.3V213.3h-99.7V345h-5.2V-.2h-99.6V345h-27.5V88.2L1433.1 28v168.3h-27.4v-36.7h-65.1V345h-131.9V58.1H1105V345H993V-44.7H889.3v209.6h-33.2v-49.8H752.4v98.2h-33.3V345h-29.5V99.4H590v449.8h1821.8V345z"/><path id="Buildings_3_2_" class="st1" d="M604.2 185.2H590v364.2h1821.8V177.8h-52.7v239.5h-9.8V255.2h-53.8v161.9h-86.8V160.9h-64.6v256.3h-13.7V108.4c0-17.2-13.4-31.4-30.3-32.4l-2-82.1-2 82.1c-16.9 1-30.3 15.1-30.3 32.4v308.8h-84.1V186.5h-64.6v230.7h-52.8V235.9h-73.7v181.3h-41.7V101.7H1721l-2.4-98.6-2.4 98.6H1679v63.5h-46l-22.8-39.7-22.8 39.7h-4.6v-37.4h-65v289.4h-12.7V287.3h-29.9v-39.4h-49.7v-27.3h-53.1V266h-23.9V40.4h-17.2c-5.4-13.7-18.1-23.6-33.3-24.8l-2.6-106.3-2.6 106.3c-15.7.9-28.9 10.8-34.3 24.9H1245v376.8h-12.7V185.2H1171v232.1h-19.9V185.2h-43.5l-42.7-74.4-42.7 74.4H980v232.1h-10V298.6h-67.6v118.7h-14.7v-93.9H854v93.9h-30.5V257.9h-51.1v159.4h-3.3V312.4h-33.9v-13.9h-33.4v118.7h-10V238.6h-47.7v-53.4h-34.4"/><path id="Buildings_2_2_" class="st2" d="M2310.3 225.5v88.1h-32.6v157.9h-62.8v-96.9h-60.7V415h-19.5v97.1H2059v-152h-104.8v-35.8h-115.8v45.8h-93.8v142H1644V354h-69.3v158.1h-37V290h-29.4v-63.4H1439v285.5h-27.9V303.6h-108.6v208.5h-23.3V332.6h-108.6v179.5h-62.8V322.7H988.3v34.4H876.7v155h-90V370.8H667.3v141.3h-14V317.4H590v231.8h1821.8V225.5z"/><path id="Buildings_1_2_" class="st3" d="M2343.2 407.1v93.5h-41.7V452h-94.9v34.5h-95.1v31.3h-75.4v-104h-66.9v64.4h-33.3v39.6h-19.2v-71h-119.4v72.3h-61.2v-72.3h-49v71h-22.7v-25.9h-49v25.9H1587v-71h-90.5v71h-14.6v-71h-48.8v71h-10.9V353.1h-49v166h-58.3v-112h-69.7v27.3h-69.9v39.7h-44v-60.3h-74.8V399H938.1v14.8h-86V452h-33.4v-22.4h-54.2v-22.5H590v142.1h1821.8V407.1z"/></g></svg>