<?xml version="1.0" encoding="utf-8"?>
<!-- Generator: Adobe Illustrator 19.1.0, SVG Export Plug-In . SVG Version: 6.00 Build 0)  -->
<svg version="1.1" id="Layer_1" xmlns="http://www.w3.org/2000/svg" xmlns:xlink="http://www.w3.org/1999/xlink" x="0px" y="0px"
	 viewBox="590 -158.4 1280.2 417.4" style="enable-background:new 590 -158.4 1280.2 417.4;" xml:space="preserve">
<style type="text/css">
	.st0{fill:#475459;}
	.st1{fill:#545B5D;}
	.st2{fill:#636461;}
	.st3{fill:#736D65;}
</style>
<g id="Ejemplo_1">
</g>
<g id="Landing_Page">
</g>
<g id="Elements">
</g>
<g id="CallAction_section_city">
	<polygon id="Buildings_4_2_" class="st0" points="2261.8,345 2261.8,172.7 2219.8,172.7 2219.8,26 2115.1,26 2115.1,345 
		2068.2,345 2068.2,172.7 1985.6,172.7 1985.6,99.4 1933.2,99.4 1933.2,120.3 1911,120.3 1911,129.4 1884.7,129.4 1884.7,145.2 
		1869.9,145.2 1869.9,345 1853.2,345 1853.2,99.4 1775.9,99.4 1775.9,345 1764.6,345 1764.6,213.3 1664.9,213.3 1664.9,345 
		1659.7,345 1659.7,-0.2 1560.1,-0.2 1560.1,345 1532.6,345 1532.6,88.2 1433.1,28 1433.1,196.3 1405.7,196.3 1405.7,159.6 
		1340.6,159.6 1340.6,345 1208.7,345 1208.7,58.1 1105,58.1 1105,345 993,345 993,-44.7 889.3,-44.7 889.3,164.9 856.1,164.9 
		856.1,115.1 752.4,115.1 752.4,213.3 719.1,213.3 719.1,345 689.6,345 689.6,99.4 590,99.4 590,549.2 2411.8,549.2 2411.8,345 	"/>
	<path id="Buildings_3_2_" class="st1" d="M604.2,185.2H590v364.2h1821.8V177.8h-52.7v239.5h-9.8V255.2h-53.8v161.9h-86.8V160.9
		h-64.6v256.3h-13.7V108.4c0-17.2-13.4-31.4-30.3-32.4l-2-82.1l-2,82.1c-16.9,1-30.3,15.1-30.3,32.4v308.8h-84.1V186.5h-64.6v230.7
		h-52.8V235.9h-73.7v181.3h-41.7V101.7H1721l-2.4-98.6l-2.4,98.6H1679v63.5h-46l-22.8-39.7l-22.8,39.7h-4.6v-37.4h-65v289.4h-12.7
		V287.3h-29.9v-39.4h-49.7v-27.3h-53.1v45.4h-23.9V40.4h-17.2c-5.4-13.7-18.1-23.6-33.3-24.8l-2.6-106.3l-2.6,106.3
		c-15.7,0.9-28.9,10.8-34.3,24.9h-13.5v376.8h-12.7V185.2H1171v232.1h-19.9V185.2h-43.5l-42.7-74.4l-42.7,74.4H980v232.1h-10V298.6
		h-67.6v118.7h-14.7v-93.9H854v93.9h-30.5V257.9h-51.1v159.4h-3.3V312.4h-33.9v-13.9h-33.4v118.7h-10V238.6h-47.7v-53.4h-34.4"/>
	<polygon id="Buildings_2_2_" class="st2" points="2310.3,225.5 2310.3,313.6 2277.7,313.6 2277.7,471.5 2214.9,471.5 2214.9,374.6 
		2154.2,374.6 2154.2,415 2134.7,415 2134.7,512.1 2059,512.1 2059,360.1 1954.2,360.1 1954.2,324.3 1838.4,324.3 1838.4,370.1 
		1744.6,370.1 1744.6,512.1 1644,512.1 1644,354 1574.7,354 1574.7,512.1 1537.7,512.1 1537.7,290 1508.3,290 1508.3,226.6 
		1439,226.6 1439,512.1 1411.1,512.1 1411.1,303.6 1302.5,303.6 1302.5,512.1 1279.2,512.1 1279.2,332.6 1170.6,332.6 1170.6,512.1 
		1107.8,512.1 1107.8,322.7 988.3,322.7 988.3,357.1 876.7,357.1 876.7,512.1 786.7,512.1 786.7,370.8 667.3,370.8 667.3,512.1 
		653.3,512.1 653.3,317.4 590,317.4 590,549.2 2411.8,549.2 2411.8,225.5 	"/>
	<polygon id="Buildings_1_2_" class="st3" points="2343.2,407.1 2343.2,500.6 2301.5,500.6 2301.5,452 2206.6,452 2206.6,486.5 
		2111.5,486.5 2111.5,517.8 2036.1,517.8 2036.1,413.8 1969.2,413.8 1969.2,478.2 1935.9,478.2 1935.9,517.8 1916.7,517.8 
		1916.7,446.8 1797.3,446.8 1797.3,519.1 1736.1,519.1 1736.1,446.8 1687.1,446.8 1687.1,517.8 1664.4,517.8 1664.4,491.9 
		1615.4,491.9 1615.4,517.8 1587,517.8 1587,446.8 1496.5,446.8 1496.5,517.8 1481.9,517.8 1481.9,446.8 1433.1,446.8 1433.1,517.8 
		1422.2,517.8 1422.2,353.1 1373.2,353.1 1373.2,519.1 1314.9,519.1 1314.9,407.1 1245.2,407.1 1245.2,434.4 1175.3,434.4 
		1175.3,474.1 1131.3,474.1 1131.3,413.8 1056.5,413.8 1056.5,399 938.1,399 938.1,413.8 852.1,413.8 852.1,452 818.7,452 
		818.7,429.6 764.5,429.6 764.5,407.1 590,407.1 590,549.2 2411.8,549.2 2411.8,407.1 	"/>
</g>
<g id="Slack_section_city">
</g>
<g id="City">
</g>
</svg>
