<svg xmlns="http://www.w3.org/2000/svg" viewBox="0 0 308.3 272.5"><style>.st0{opacity:.49;fill:url(#SVGID_3_)}.st1{fill:#fff}.st2{fill:#262626}.st3{fill:#eaedf4}.st4{fill:#ade9e9}.st5{fill:#20ad8a}.st6{fill:#ffc06c}.st7{fill:#3f4d55}.st8{fill:#5d5d5d}.st9{fill:#b7b7b7}.st10{fill:#adadad}.st11{fill:#b2b2b2}.st12{fill:gray}.st13{fill:#4d4d4d}.st14{fill:#333}.st15{fill:#efce4a}.st16{fill:#ed8a19}.st17{fill:#ebba16}.st18{fill:#c7cac7}.st19{fill:#e7eced}.st20{opacity:.7;clip-path:url(#SVGID_5_)}.st21{opacity:.12;fill:#ffc06c}.st22,.st23,.st24{opacity:.16;fill:#ffc06c}.st23,.st24{opacity:.22}.st24{opacity:.3}.st25{clip-path:url(#SVGID_7_)}.st26,.st27,.st28{opacity:.15;fill:#20ad8a}.st27,.st28{opacity:.23}.st28{opacity:.3}.st29{fill:#aaa}.st30,.st31{fill:none;stroke:#3f4d55;stroke-miterlimit:10}.st31{stroke-linecap:round}.st32{fill:#f00101}.st33{fill:#030303}.st34{fill:#70cadb}.st35{fill:#e01765}.st36{fill:#e8a723}.st37{fill:#3eb890}.st38{fill:#cc2027}.st39{fill:#361238}.st40{fill:#65863a}.st41{fill:#1a937d}.st42{fill:#666}.st43{fill:#d5e1e8}.st44{fill:#e6eef2}.st45{fill:#573d82}.st46{fill:#453068}.st47{fill:#3fba91}.st48{fill:#6fcbdc}.st49{fill:#dcdcdc}.st50{fill:#ffc585}.st51{fill:#ff3e88}.st52{fill:#675470}.st53{fill:#4a4687}.st54{fill:#f3f3f3}.st55{opacity:.5;fill:#8977a7}.st56{fill:#e1e9ef}.st57{fill:#ffd7a3}.st58{fill:#fdc88e}.st59{fill:#ffe1b2}.st60{fill:#a2cde2}.st61{fill:#545465}.st62{fill:#29394a}.st63{fill:#b5e0f0}.st64{fill:#4a698e}.st65{fill:#416185}.st66{fill:#395a7f}.st67{fill:#ffd5ab}.st68{fill:#e4ebf0}.st69{fill:#d0d7dc}.st70{fill:#527992}.st71{fill:#475f7f}.st72{fill:#d3e5bd}.st73{fill:#827873}.st74{fill:#e0dddc}.st75{fill:#a19996}.st76{fill:#3cf}.st77{fill:#d8dce1}.st78{fill:#db4026}.st79{fill:#5c546a}.st80{fill:#e8d21d}.st81{fill:#4aecaf}.st82{fill:#80362d}.st83{fill:#ffb980}.st84{fill:#f8ab6b}.st85{fill:#bf9b5f}.st86{fill:#83603f}.st87{fill:#b0e070}.st88{fill:#7e5c62}.st89{fill:#a27082}.st90{fill:#7e5449}.st91{fill:#ffda44}.st92{fill:#ffcd00}.st93{fill:#b1664f}.st94{fill:#ffdaa9}.st95{fill:#5fbea0}.st96{fill:none;stroke:#fff;stroke-width:2;stroke-linecap:round;stroke-miterlimit:10}.st97{fill:#188268}.st98{fill:#d2efe8}.st99{fill:#79ceb9}.st100{fill:#ebebed}.st101{fill:#474f49}.st102{fill:#daaba9}.st103{fill:#757eaf}.st104{fill:#edcc70}.st105{fill:#b9bbc1}.st106{fill:#53dcff}.st107{fill:#fcee21}.st108{fill:#8b8996}.st109{fill:#686777}.st110{fill:#67a2a9}.st111,.st112{fill:#ff93b5}.st112{stroke:#fff;stroke-width:2;stroke-linecap:round;stroke-miterlimit:10}.st113,.st114{fill:#f3d960}.st114{stroke:#fff;stroke-width:2;stroke-linecap:round;stroke-miterlimit:10}.st115{fill:#7bd766}.st116{fill:#8166a4}.st117{fill:#f67d69}.st118{fill:#ccc}.st119{fill:#e6e6e6}.st120{fill:#b3b3b3}.st121{fill:none;stroke:#da6f67;stroke-linecap:round;stroke-miterlimit:10}.st122{fill:#bc679b}.st123{fill:#09614b}.st124{fill:#50748a}.st125{fill:#e2e4ff}.st126{fill:#a7795e}.st127{fill:#adb4ba}.st128{fill:#4ea0ca}.st129{fill:#394959}.st130{fill:#e05040}.st131{fill:#b4a87d}.st132{fill:#7b7256}.st133{fill:#fcc261}.st134{fill:#111820}.st135{fill:#dfded6}.st136{fill:#ff6953}.st137{fill:#b06e53}.st138{fill:#728ea0}.st139{fill:#e5e4e3}.st140{fill:#f7f3a8}.st141{fill:#82827f}.st142{fill:#353535}.st143{fill:#a0b7d1}.st144{fill:#ecec66}.st145{fill:#90ba72}.st146{fill:#e7f2fc}.st147{fill:none;stroke:#c6c6c6;stroke-width:2;stroke-linecap:round;stroke-linejoin:round;stroke-miterlimit:10;stroke-dasharray:5,10,5,10,5,10}.st148{fill:#73a950}.st149{fill:#ffa168}.st150{fill:#2d688d}</style><g id="Capa_3"><path class="st118" d="M244.4 48H90c-3.9 0-7 3.1-7 7v196.5c0 3.9 3.1 7 7 7h154.4c3.9 0 7-3.1 7-7V55c0-3.9-3.1-7-7-7z"/><path class="st119" d="M230.4 62H76c-3.9 0-7 3.1-7 7v196.5c0 3.9 3.1 7 7 7h154.4c3.9 0 7-3.1 7-7V69c0-3.8-3.2-7-7-7z"/><path class="st95" d="M205.8 100.6H93.6c-1.9 0-3.5-1.6-3.5-3.5s1.6-3.5 3.5-3.5h112.3c1.9 0 3.5 1.6 3.5 3.5-.1 1.9-1.6 3.5-3.6 3.5zM205.8 142.7H93.6c-1.9 0-3.5-1.6-3.5-3.5s1.6-3.5 3.5-3.5h112.3c1.9 0 3.5 1.6 3.5 3.5s-1.6 3.5-3.6 3.5z"/><path class="st120" d="M205.8 240.9H93.6c-1.9 0-3.5-1.6-3.5-3.5s1.6-3.5 3.5-3.5h112.3c1.9 0 3.5 1.6 3.5 3.5s-1.6 3.5-3.6 3.5z"/><path class="st95" d="M205.8 184.8H93.6c-1.9 0-3.5-1.6-3.5-3.5s1.6-3.5 3.5-3.5h112.3c1.9 0 3.5 1.6 3.5 3.5s-1.6 3.5-3.6 3.5zM121.6 114.6h-28c-1.9 0-3.5-1.6-3.5-3.5s1.6-3.5 3.5-3.5h28.1c1.9 0 3.5 1.6 3.5 3.5-.1 2-1.6 3.5-3.6 3.5zM205.8 114.6h-70.2c-1.9 0-3.5-1.6-3.5-3.5s1.6-3.5 3.5-3.5h70.2c1.9 0 3.5 1.6 3.5 3.5 0 2-1.5 3.5-3.5 3.5z"/><path class="st120" d="M177.8 128.7H93.6c-1.9 0-3.5-1.6-3.5-3.5s1.6-3.5 3.5-3.5h84.2c1.9 0 3.5 1.6 3.5 3.5s-1.6 3.5-3.5 3.5zM205.8 128.7h-14c-1.9 0-3.5-1.6-3.5-3.5s1.6-3.5 3.5-3.5h14c1.9 0 3.5 1.6 3.5 3.5s-1.5 3.5-3.5 3.5z"/><path class="st95" d="M205.8 226.9H93.6c-1.9 0-3.5-1.6-3.5-3.5s1.6-3.5 3.5-3.5h112.3c1.9 0 3.5 1.6 3.5 3.5-.1 1.9-1.6 3.5-3.6 3.5zM121.6 198.8h-28c-1.9 0-3.5-1.6-3.5-3.5s1.6-3.5 3.5-3.5h28.1c1.9 0 3.5 1.6 3.5 3.5s-1.6 3.5-3.6 3.5zM205.8 198.8h-70.2c-1.9 0-3.5-1.6-3.5-3.5s1.6-3.5 3.5-3.5h70.2c1.9 0 3.5 1.6 3.5 3.5s-1.5 3.5-3.5 3.5zM177.8 212.9H93.6c-1.9 0-3.5-1.6-3.5-3.5s1.6-3.5 3.5-3.5h84.2c1.9 0 3.5 1.6 3.5 3.5s-1.6 3.5-3.5 3.5zM205.8 212.9h-14c-1.9 0-3.5-1.6-3.5-3.5s1.6-3.5 3.5-3.5h14c1.9 0 3.5 1.6 3.5 3.5s-1.5 3.5-3.5 3.5zM139.2 156.7H93.6c-1.9 0-3.5-1.6-3.5-3.5s1.6-3.5 3.5-3.5h45.6c1.9 0 3.5 1.6 3.5 3.5 0 2-1.6 3.5-3.5 3.5zM205.8 156.7h-52.6c-1.9 0-3.5-1.6-3.5-3.5s1.6-3.5 3.5-3.5h52.6c1.9 0 3.5 1.6 3.5 3.5 0 2-1.5 3.5-3.5 3.5z"/><path class="st120" d="M167.2 170.8H93.6c-1.9 0-3.5-1.6-3.5-3.5s1.6-3.5 3.5-3.5h73.7c1.9 0 3.5 1.6 3.5 3.5-.1 1.9-1.6 3.5-3.6 3.5zM205.8 170.8h-24.6c-1.9 0-3.5-1.6-3.5-3.5s1.6-3.5 3.5-3.5h24.6c1.9 0 3.5 1.6 3.5 3.5s-1.5 3.5-3.5 3.5z"/><path class="st121" d="M78.8 125.2H219M78.8 167.3H219M78.8 237.4H219"/><g><path class="st122" d="M68.4 54.1c3.6-7.3 4.9-15.9 3.1-24.6C67.3 9.5 48-3.4 28.5.8 9 4.9-3.4 24.5.8 44.5s23.5 32.9 43 28.7c5.4-1.1 10.3-3.5 14.4-6.7l21.5 11.7-11.3-24.1z"/><ellipse class="st1" cx="35.7" cy="36.3" rx="5.4" ry="5.6"/><ellipse class="st1" cx="18.6" cy="36.3" rx="5.4" ry="5.6"/><ellipse class="st1" cx="52.8" cy="36.3" rx="5.4" ry="5.6"/></g><g><path class="st110" d="M239.9 90.4c-3.6-7.3-4.9-15.9-3.1-24.6 4.3-20 23.5-32.9 43-28.7 19.5 4.1 31.9 23.7 27.6 43.7s-23.5 32.9-43 28.7c-5.4-1.1-10.3-3.5-14.4-6.7l-21.5 11.7 11.4-24.1z"/><ellipse class="st1" cx="272.6" cy="72.6" rx="5.4" ry="5.6"/><ellipse class="st1" cx="289.7" cy="72.6" rx="5.4" ry="5.6"/><ellipse class="st1" cx="255.5" cy="72.6" rx="5.4" ry="5.6"/></g><g><path class="st113" d="M239.9 206.7c-3.6-7.3-4.9-15.9-3.1-24.6 4.3-20 23.5-32.9 43-28.7 19.5 4.1 31.9 23.7 27.6 43.7s-23.5 32.9-43 28.7c-5.4-1.1-10.3-3.5-14.4-6.7L228.5 231l11.4-24.3z"/><ellipse class="st1" cx="272.6" cy="189" rx="5.4" ry="5.6"/><ellipse class="st1" cx="289.7" cy="189" rx="5.4" ry="5.6"/><ellipse class="st1" cx="255.5" cy="189" rx="5.4" ry="5.6"/></g></g></svg>