<?xml version="1.0" encoding="utf-8"?>
<!-- Generator: Adobe Illustrator 19.2.1, SVG Export Plug-In . SVG Version: 6.00 Build 0)  -->
<svg version="1.1" xmlns="http://www.w3.org/2000/svg" xmlns:xlink="http://www.w3.org/1999/xlink" x="0px" y="0px"
	 viewBox="0 0 308.3 272.5" style="enable-background:new 0 0 308.3 272.5;" xml:space="preserve">
<style type="text/css">
	.st0{opacity:0.49;fill:url(#SVGID_3_);}
	.st1{fill:#FFFFFF;}
	.st2{fill:#262626;}
	.st3{fill:#EAEDF4;}
	.st4{fill:#ADE9E9;}
	.st5{fill:#20AD8A;}
	.st6{fill:#FFC06C;}
	.st7{fill:#3F4D55;}
	.st8{fill:#5D5D5D;}
	.st9{fill:#B7B7B7;}
	.st10{fill:#ADADAD;}
	.st11{fill:#B2B2B2;}
	.st12{fill:#808080;}
	.st13{fill:#4D4D4D;}
	.st14{fill:#333333;}
	.st15{fill:#EFCE4A;}
	.st16{fill:#ED8A19;}
	.st17{fill:#EBBA16;}
	.st18{fill:#C7CAC7;}
	.st19{fill:#E7ECED;}
	.st20{opacity:0.7;clip-path:url(#SVGID_5_);}
	.st21{opacity:0.12;fill:#FFC06C;}
	.st22{opacity:0.16;fill:#FFC06C;}
	.st23{opacity:0.22;fill:#FFC06C;}
	.st24{opacity:0.3;fill:#FFC06C;}
	.st25{clip-path:url(#SVGID_7_);}
	.st26{opacity:0.15;fill:#20AD8A;}
	.st27{opacity:0.23;fill:#20AD8A;}
	.st28{opacity:0.3;fill:#20AD8A;}
	.st29{fill:#AAAAAA;}
	.st30{fill:none;stroke:#3F4D55;stroke-miterlimit:10;}
	.st31{fill:none;stroke:#3F4D55;stroke-linecap:round;stroke-miterlimit:10;}
	.st32{fill:#F00101;}
	.st33{fill:#030303;}
	.st34{fill:#70CADB;}
	.st35{fill:#E01765;}
	.st36{fill:#E8A723;}
	.st37{fill:#3EB890;}
	.st38{fill:#CC2027;}
	.st39{fill:#361238;}
	.st40{fill:#65863A;}
	.st41{fill:#1A937D;}
	.st42{fill:#666666;}
	.st43{fill:#D5E1E8;}
	.st44{fill:#E6EEF2;}
	.st45{fill:#573D82;}
	.st46{fill:#453068;}
	.st47{fill:#3FBA91;}
	.st48{fill:#6FCBDC;}
	.st49{fill:#DCDCDC;}
	.st50{fill:#FFC585;}
	.st51{fill:#FF3E88;}
	.st52{fill:#675470;}
	.st53{fill:#4A4687;}
	.st54{fill:#F3F3F3;}
	.st55{opacity:0.5;fill:#8977A7;}
	.st56{fill:#E1E9EF;}
	.st57{fill:#FFD7A3;}
	.st58{fill:#FDC88E;}
	.st59{fill:#FFE1B2;}
	.st60{fill:#A2CDE2;}
	.st61{fill:#545465;}
	.st62{fill:#29394A;}
	.st63{fill:#B5E0F0;}
	.st64{fill:#4A698E;}
	.st65{fill:#416185;}
	.st66{fill:#395A7F;}
	.st67{fill:#FFD5AB;}
	.st68{fill:#E4EBF0;}
	.st69{fill:#D0D7DC;}
	.st70{fill:#527992;}
	.st71{fill:#475F7F;}
	.st72{fill:#D3E5BD;}
	.st73{fill:#827873;}
	.st74{fill:#E0DDDC;}
	.st75{fill:#A19996;}
	.st76{fill:#33CCFF;}
	.st77{fill:#D8DCE1;}
	.st78{fill:#DB4026;}
	.st79{fill:#5C546A;}
	.st80{fill:#E8D21D;}
	.st81{fill:#4AECAF;}
	.st82{fill:#80362D;}
	.st83{fill:#FFB980;}
	.st84{fill:#F8AB6B;}
	.st85{fill:#BF9B5F;}
	.st86{fill:#83603F;}
	.st87{fill:#B0E070;}
	.st88{fill:#7E5C62;}
	.st89{fill:#A27082;}
	.st90{fill:#7E5449;}
	.st91{fill:#FFDA44;}
	.st92{fill:#FFCD00;}
	.st93{fill:#B1664F;}
	.st94{fill:#FFDAA9;}
	.st95{fill:#5FBEA0;}
	.st96{fill:none;stroke:#FFFFFF;stroke-width:2;stroke-linecap:round;stroke-miterlimit:10;}
	.st97{fill:#188268;}
	.st98{fill:#D2EFE8;}
	.st99{fill:#79CEB9;}
	.st100{fill:#EBEBED;}
	.st101{fill:#474F49;}
	.st102{fill:#DAABA9;}
	.st103{fill:#757EAF;}
	.st104{fill:#EDCC70;}
	.st105{fill:#B9BBC1;}
	.st106{fill:#53DCFF;}
	.st107{fill:#FCEE21;}
	.st108{fill:#8B8996;}
	.st109{fill:#686777;}
	.st110{fill:#67A2A9;}
	.st111{fill:#FF93B5;}
	.st112{fill:#FF93B5;stroke:#FFFFFF;stroke-width:2;stroke-linecap:round;stroke-miterlimit:10;}
	.st113{fill:#F3D960;}
	.st114{fill:#F3D960;stroke:#FFFFFF;stroke-width:2;stroke-linecap:round;stroke-miterlimit:10;}
	.st115{fill:#7BD766;}
	.st116{fill:#8166A4;}
	.st117{fill:#F67D69;}
	.st118{fill:#CCCCCC;}
	.st119{fill:#E6E6E6;}
	.st120{fill:#B3B3B3;}
	.st121{fill:none;stroke:#DA6F67;stroke-linecap:round;stroke-miterlimit:10;}
	.st122{fill:#BC679B;}
	.st123{fill:#09614B;}
	.st124{fill:#50748A;}
	.st125{fill:#E2E4FF;}
	.st126{fill:#A7795E;}
	.st127{fill:#ADB4BA;}
	.st128{fill:#4EA0CA;}
	.st129{fill:#394959;}
	.st130{fill:#E05040;}
	.st131{fill:#B4A87D;}
	.st132{fill:#7B7256;}
	.st133{fill:#FCC261;}
	.st134{fill:#111820;}
	.st135{fill:#DFDED6;}
	.st136{fill:#FF6953;}
	.st137{fill:#B06E53;}
	.st138{fill:#728EA0;}
	.st139{fill:#E5E4E3;}
	.st140{fill:#F7F3A8;}
	.st141{fill:#82827F;}
	.st142{fill:#353535;}
	.st143{fill:#A0B7D1;}
	.st144{fill:#ECEC66;}
	.st145{fill:#90BA72;}
	.st146{fill:#E7F2FC;}
	
		.st147{fill:none;stroke:#C6C6C6;stroke-width:2;stroke-linecap:round;stroke-linejoin:round;stroke-miterlimit:10;stroke-dasharray:5,10,5,10,5,10;}
	.st148{fill:#73A950;}
	.st149{fill:#FFA168;}
	.st150{fill:#2D688D;}
</style>
<g id="Capa_2">
</g>
<g id="Capa_3">
	<g>
		<g>
			<g>
				<path class="st118" d="M244.4,48H90c-3.9,0-7,3.1-7,7v196.5c0,3.9,3.1,7,7,7h154.4c3.9,0,7-3.1,7-7V55
					C251.4,51.1,248.3,48,244.4,48z"/>
			</g>
			<g>
				<path class="st119" d="M230.4,62H76c-3.9,0-7,3.1-7,7v196.5c0,3.9,3.1,7,7,7h154.4c3.9,0,7-3.1,7-7V69
					C237.4,65.2,234.2,62,230.4,62z"/>
			</g>
			<g>
				<g>
					<g>
						<path class="st95" d="M205.8,100.6H93.6c-1.9,0-3.5-1.6-3.5-3.5c0-1.9,1.6-3.5,3.5-3.5h112.3c1.9,0,3.5,1.6,3.5,3.5
							C209.3,99,207.8,100.6,205.8,100.6z"/>
					</g>
				</g>
				<g>
					<g>
						<path class="st95" d="M205.8,142.7H93.6c-1.9,0-3.5-1.6-3.5-3.5s1.6-3.5,3.5-3.5h112.3c1.9,0,3.5,1.6,3.5,3.5
							S207.8,142.7,205.8,142.7z"/>
					</g>
				</g>
				<g>
					<g>
						<path class="st120" d="M205.8,240.9H93.6c-1.9,0-3.5-1.6-3.5-3.5s1.6-3.5,3.5-3.5h112.3c1.9,0,3.5,1.6,3.5,3.5
							S207.8,240.9,205.8,240.9z"/>
					</g>
				</g>
				<g>
					<g>
						<path class="st95" d="M205.8,184.8H93.6c-1.9,0-3.5-1.6-3.5-3.5s1.6-3.5,3.5-3.5h112.3c1.9,0,3.5,1.6,3.5,3.5
							S207.8,184.8,205.8,184.8z"/>
					</g>
				</g>
				<g>
					<g>
						<path class="st95" d="M121.6,114.6H93.6c-1.9,0-3.5-1.6-3.5-3.5c0-1.9,1.6-3.5,3.5-3.5h28.1c1.9,0,3.5,1.6,3.5,3.5
							C125.1,113.1,123.6,114.6,121.6,114.6z"/>
					</g>
				</g>
				<g>
					<g>
						<path class="st95" d="M205.8,114.6h-70.2c-1.9,0-3.5-1.6-3.5-3.5c0-1.9,1.6-3.5,3.5-3.5h70.2c1.9,0,3.5,1.6,3.5,3.5
							C209.3,113.1,207.8,114.6,205.8,114.6z"/>
					</g>
				</g>
				<g>
					<g>
						<path class="st120" d="M177.8,128.7H93.6c-1.9,0-3.5-1.6-3.5-3.5c0-1.9,1.6-3.5,3.5-3.5h84.2c1.9,0,3.5,1.6,3.5,3.5
							C181.3,127.1,179.7,128.7,177.8,128.7z"/>
					</g>
				</g>
				<g>
					<g>
						<path class="st120" d="M205.8,128.7h-14c-1.9,0-3.5-1.6-3.5-3.5c0-1.9,1.6-3.5,3.5-3.5h14c1.9,0,3.5,1.6,3.5,3.5
							C209.3,127.1,207.8,128.7,205.8,128.7z"/>
					</g>
				</g>
				<g>
					<g>
						<path class="st95" d="M205.8,226.9H93.6c-1.9,0-3.5-1.6-3.5-3.5c0-1.9,1.6-3.5,3.5-3.5h112.3c1.9,0,3.5,1.6,3.5,3.5
							C209.3,225.3,207.8,226.9,205.8,226.9z"/>
					</g>
				</g>
				<g>
					<g>
						<path class="st95" d="M121.6,198.8H93.6c-1.9,0-3.5-1.6-3.5-3.5s1.6-3.5,3.5-3.5h28.1c1.9,0,3.5,1.6,3.5,3.5
							S123.6,198.8,121.6,198.8z"/>
					</g>
				</g>
				<g>
					<g>
						<path class="st95" d="M205.8,198.8h-70.2c-1.9,0-3.5-1.6-3.5-3.5s1.6-3.5,3.5-3.5h70.2c1.9,0,3.5,1.6,3.5,3.5
							S207.8,198.8,205.8,198.8z"/>
					</g>
				</g>
				<g>
					<g>
						<path class="st95" d="M177.8,212.9H93.6c-1.9,0-3.5-1.6-3.5-3.5c0-1.9,1.6-3.5,3.5-3.5h84.2c1.9,0,3.5,1.6,3.5,3.5
							C181.3,211.3,179.7,212.9,177.8,212.9z"/>
					</g>
				</g>
				<g>
					<g>
						<path class="st95" d="M205.8,212.9h-14c-1.9,0-3.5-1.6-3.5-3.5c0-1.9,1.6-3.5,3.5-3.5h14c1.9,0,3.5,1.6,3.5,3.5
							C209.3,211.3,207.8,212.9,205.8,212.9z"/>
					</g>
				</g>
				<g>
					<g>
						<path class="st95" d="M139.2,156.7H93.6c-1.9,0-3.5-1.6-3.5-3.5c0-1.9,1.6-3.5,3.5-3.5h45.6c1.9,0,3.5,1.6,3.5,3.5
							C142.7,155.2,141.1,156.7,139.2,156.7z"/>
					</g>
				</g>
				<g>
					<g>
						<path class="st95" d="M205.8,156.7h-52.6c-1.9,0-3.5-1.6-3.5-3.5c0-1.9,1.6-3.5,3.5-3.5h52.6c1.9,0,3.5,1.6,3.5,3.5
							C209.3,155.2,207.8,156.7,205.8,156.7z"/>
					</g>
				</g>
				<g>
					<g>
						<path class="st120" d="M167.2,170.8H93.6c-1.9,0-3.5-1.6-3.5-3.5c0-1.9,1.6-3.5,3.5-3.5h73.7c1.9,0,3.5,1.6,3.5,3.5
							C170.7,169.2,169.2,170.8,167.2,170.8z"/>
					</g>
				</g>
				<g>
					<g>
						<path class="st120" d="M205.8,170.8h-24.6c-1.9,0-3.5-1.6-3.5-3.5c0-1.9,1.6-3.5,3.5-3.5h24.6c1.9,0,3.5,1.6,3.5,3.5
							C209.3,169.2,207.8,170.8,205.8,170.8z"/>
					</g>
				</g>
				<line class="st121" x1="78.8" y1="125.2" x2="219" y2="125.2"/>
				<line class="st121" x1="78.8" y1="167.3" x2="219" y2="167.3"/>
				<line class="st121" x1="78.8" y1="237.4" x2="219" y2="237.4"/>
			</g>
		</g>
		<g>
			<path class="st122" d="M68.4,54.1c3.6-7.3,4.9-15.9,3.1-24.6C67.3,9.5,48-3.4,28.5,0.8C9,4.9-3.4,24.5,0.8,44.5
				s23.5,32.9,43,28.7c5.4-1.1,10.3-3.5,14.4-6.7l21.5,11.7L68.4,54.1z"/>
			<ellipse class="st1" cx="35.7" cy="36.3" rx="5.4" ry="5.6"/>
			<ellipse class="st1" cx="18.6" cy="36.3" rx="5.4" ry="5.6"/>
			<ellipse class="st1" cx="52.8" cy="36.3" rx="5.4" ry="5.6"/>
		</g>
		<g>
			<path class="st110" d="M239.9,90.4c-3.6-7.3-4.9-15.9-3.1-24.6c4.3-20,23.5-32.9,43-28.7c19.5,4.1,31.9,23.7,27.6,43.7
				s-23.5,32.9-43,28.7c-5.4-1.1-10.3-3.5-14.4-6.7l-21.5,11.7L239.9,90.4z"/>
			<ellipse class="st1" cx="272.6" cy="72.6" rx="5.4" ry="5.6"/>
			<ellipse class="st1" cx="289.7" cy="72.6" rx="5.4" ry="5.6"/>
			<ellipse class="st1" cx="255.5" cy="72.6" rx="5.4" ry="5.6"/>
		</g>
		<g>
			<path class="st113" d="M239.9,206.7c-3.6-7.3-4.9-15.9-3.1-24.6c4.3-20,23.5-32.9,43-28.7c19.5,4.1,31.9,23.7,27.6,43.7
				s-23.5,32.9-43,28.7c-5.4-1.1-10.3-3.5-14.4-6.7L228.5,231L239.9,206.7z"/>
			<ellipse class="st1" cx="272.6" cy="189" rx="5.4" ry="5.6"/>
			<ellipse class="st1" cx="289.7" cy="189" rx="5.4" ry="5.6"/>
			<ellipse class="st1" cx="255.5" cy="189" rx="5.4" ry="5.6"/>
		</g>
	</g>
</g>
</svg>
