<svg id="Layer_1" xmlns="http://www.w3.org/2000/svg" viewBox="0 0 234 173"><style>.st0{fill:#ccc}.st1{fill:#e6e6e6}.st2{fill:#5fbea0}.st3{fill:#b3b3b3}.st4{fill:none;stroke:#da6f67;stroke-linecap:round;stroke-miterlimit:10}.st5{fill:#bc679b}.st6{fill:#fff}.st7{fill:#67a2a9}.st8{fill:#f3d960}</style><g id="Capa_3"><path class="st0" d="M174.4 30.5h-98c-2.5 0-4.4 2-4.4 4.4v124.8c0 2.5 2 4.4 4.4 4.4h98c2.5 0 4.4-2 4.4-4.4V34.9c.1-2.5-1.9-4.4-4.4-4.4z"/><path class="st1" d="M165.5 39.4h-98c-2.5 0-4.4 2-4.4 4.4v124.8c0 2.5 2 4.4 4.4 4.4h98c2.5 0 4.4-2 4.4-4.4V43.8c.1-2.4-1.9-4.4-4.4-4.4z"/><path class="st2" d="M149.9 63.9H78.7c-1.2 0-2.2-1-2.2-2.2s1-2.2 2.2-2.2H150c1.2 0 2.2 1 2.2 2.2 0 1.1-1 2.2-2.3 2.2zm0 26.7H78.7c-1.2 0-2.2-1-2.2-2.2 0-1.2 1-2.2 2.2-2.2H150c1.2 0 2.2 1 2.2 2.2 0 1.2-1 2.2-2.3 2.2z"/><path class="st3" d="M149.9 152.9H78.7c-1.2 0-2.2-1-2.2-2.2s1-2.2 2.2-2.2H150c1.2 0 2.2 1 2.2 2.2s-1 2.2-2.3 2.2z"/><path class="st2" d="M149.9 117.3H78.7c-1.2 0-2.2-1-2.2-2.2 0-1.2 1-2.2 2.2-2.2H150c1.2 0 2.2 1 2.2 2.2 0 1.2-1 2.2-2.3 2.2zM96.5 72.8H78.7c-1.2 0-2.2-1-2.2-2.2s1-2.2 2.2-2.2h17.8c1.2 0 2.2 1 2.2 2.2 0 1.2-1 2.2-2.2 2.2zm53.4 0h-44.6c-1.2 0-2.2-1-2.2-2.2s1-2.2 2.2-2.2h44.6c1.2 0 2.2 1 2.2 2.2.1 1.2-.9 2.2-2.2 2.2z"/><path class="st3" d="M132.2 81.7H78.7c-1.2 0-2.2-1-2.2-2.2 0-1.2 1-2.2 2.2-2.2h53.5c1.2 0 2.2 1 2.2 2.2 0 1.2-1 2.2-2.2 2.2zm17.7 0H141c-1.2 0-2.2-1-2.2-2.2 0-1.2 1-2.2 2.2-2.2h8.9c1.2 0 2.2 1 2.2 2.2.1 1.2-.9 2.2-2.2 2.2z"/><path class="st2" d="M149.9 144H78.7c-1.2 0-2.2-1-2.2-2.2s1-2.2 2.2-2.2H150c1.2 0 2.2 1 2.2 2.2 0 1.2-1 2.2-2.3 2.2zm-53.4-17.8H78.7c-1.2 0-2.2-1-2.2-2.2 0-1.2 1-2.2 2.2-2.2h17.8c1.2 0 2.2 1 2.2 2.2.1 1.2-1 2.2-2.2 2.2zm53.4 0h-44.6c-1.2 0-2.2-1-2.2-2.2 0-1.2 1-2.2 2.2-2.2h44.6c1.2 0 2.2 1 2.2 2.2.1 1.2-.9 2.2-2.2 2.2zm-17.7 9H78.7c-1.2 0-2.2-1-2.2-2.2s1-2.2 2.2-2.2h53.5c1.2 0 2.2 1 2.2 2.2s-1 2.2-2.2 2.2zm17.7 0H141c-1.2 0-2.2-1-2.2-2.2s1-2.2 2.2-2.2h8.9c1.2 0 2.2 1 2.2 2.2s-.9 2.2-2.2 2.2zm-42.3-35.7h-29c-1.2 0-2.2-1-2.2-2.2 0-1.2 1-2.2 2.2-2.2h29c1.2 0 2.2 1 2.2 2.2.1 1.2-.9 2.2-2.2 2.2zm42.3 0h-33.4c-1.2 0-2.2-1-2.2-2.2 0-1.2 1-2.2 2.2-2.2h33.4c1.2 0 2.2 1 2.2 2.2.1 1.2-.9 2.2-2.2 2.2z"/><path class="st3" d="M125.4 108.4H78.7c-1.2 0-2.2-1-2.2-2.2 0-1.2 1-2.2 2.2-2.2h46.8c1.2 0 2.2 1 2.2 2.2-.1 1.2-1 2.2-2.3 2.2zm24.5 0h-15.6c-1.2 0-2.2-1-2.2-2.2 0-1.2 1-2.2 2.2-2.2h15.6c1.2 0 2.2 1 2.2 2.2.1 1.2-.9 2.2-2.2 2.2z"/><path class="st4" d="M69.3 79.5h89m-89 26.7h89m-89 44.5h89"/><path class="st5" d="M62.7 34.3c2.3-4.6 3.1-10.1 2-15.6C62 6 49.7-2.2 37.4.5 25 3.1 17.1 15.6 19.8 28.2s14.9 20.9 27.3 18.2c3.4-.7 6.5-2.2 9.1-4.3l13.6 7.4c.1.1-7.1-15.2-7.1-15.2z"/><ellipse class="st6" cx="41.9" cy="23" rx="3.4" ry="3.6"/><ellipse class="st6" cx="31.1" cy="23" rx="3.4" ry="3.6"/><ellipse class="st6" cx="52.8" cy="23" rx="3.4" ry="3.6"/><g><path class="st7" d="M171.6 57.4c-2.3-4.6-3.1-10.1-2-15.6 2.7-12.7 14.9-20.9 27.3-18.2 12.4 2.6 20.3 15 17.5 27.7-2.7 12.7-14.9 20.9-27.3 18.2-3.4-.7-6.5-2.2-9.1-4.3l-13.6 7.4 7.2-15.2z"/><ellipse class="st6" cx="192.3" cy="46.1" rx="3.4" ry="3.6"/><ellipse class="st6" cx="203.2" cy="46.1" rx="3.4" ry="3.6"/><ellipse class="st6" cx="181.5" cy="46.1" rx="3.4" ry="3.6"/></g><g><path class="st8" d="M171.6 131.2c-2.3-4.6-3.1-10.1-2-15.6 2.7-12.7 14.9-20.9 27.3-18.2 12.4 2.6 20.3 15 17.5 27.7-2.7 12.7-14.9 20.9-27.3 18.2-3.4-.7-6.5-2.2-9.1-4.3l-13.6 7.6 7.2-15.4z"/><ellipse class="st6" cx="192.3" cy="120" rx="3.4" ry="3.6"/><ellipse class="st6" cx="203.2" cy="120" rx="3.4" ry="3.6"/><ellipse class="st6" cx="181.5" cy="120" rx="3.4" ry="3.6"/></g></g></svg>