<?xml version="1.0" encoding="utf-8"?>
<!-- Generator: Adobe Illustrator 19.0.0, SVG Export Plug-In . SVG Version: 6.00 Build 0)  -->
<svg version="1.1" id="Layer_1" xmlns="http://www.w3.org/2000/svg" xmlns:xlink="http://www.w3.org/1999/xlink" x="0px" y="0px"
	 viewBox="0 0 845.5 181.3" style="enable-background:new 0 0 845.5 181.3;" xml:space="preserve">
<style type="text/css">
	.st0{fill:#333333;}
	.st1{fill:#D5E1E8;}
	.st2{fill:#E6EEF1;}
	.st3{fill:#573D82;}
	.st4{fill:#453068;}
	.st5{fill:#3EBA91;}
	.st6{fill:#DDDCDC;}
	.st7{fill:#685570;}
	.st8{fill:#4A4787;}
	.st9{fill:#FFFFFF;}
	.st10{fill:#705B96;}
	.st11{fill:#EE4387;}
	.st12{fill:#F3F3F3;}
	.st13{fill:none;}
</style>
<path id="XMLID_97_" class="st0" d="M845.5,16v165.3H0V16C0,7.2,7.1,0,16,0h813.6C838.4,0,845.5,7.2,845.5,16z"/>
<rect id="XMLID_90_" x="43.6" y="37.8" class="st1" width="758.4" height="143.5"/>
<polygon id="XMLID_80_" class="st2" points="790.4,181.3 55.1,181.3 59.1,53.3 786.4,53.3 "/>
<rect id="XMLID_57_" x="43.6" y="53.3" class="st3" width="193.1" height="128"/>
<rect id="XMLID_40_" x="43.6" y="53.3" class="st4" width="49.5" height="128"/>
<path id="XMLID_48_" class="st5" d="M300.4,121.8h-22.9c-6.5,0-11.8-5.3-11.8-11.8V87c0-6.5,5.3-11.8,11.8-11.8h22.9
	c6.5,0,11.8,5.3,11.8,11.8V110C312.2,116.5,306.9,121.8,300.4,121.8L300.4,121.8z"/>
<path id="XMLID_47_" class="st5" d="M75.1,89H60.2c-2.4,0-4.4-2-4.4-4.4V69.8c0-2.4,2-4.4,4.4-4.4h14.9c2.4,0,4.4,2,4.4,4.4v14.9
	C79.5,87.1,77.5,89,75.1,89L75.1,89z"/>
<path id="XMLID_106_" class="st6" d="M607.1,65.1c-0.6,0-1.1,0.5-1.1,1.1v7.9c0,0.6,0.5,1.1,1.1,1.1h92.8c0.6,0,1.1-0.5,1.1-1.1
	v-7.9c0-0.6-0.5-1.1-1.1-1.1H607.1L607.1,65.1z M699.9,79.6h-92.8c-3.1,0-5.5-2.5-5.5-5.5v-7.9c0-3.1,2.5-5.5,5.5-5.5h92.8
	c3.1,0,5.5,2.5,5.5,5.5v7.9C705.5,77.1,703,79.6,699.9,79.6L699.9,79.6z"/>
<path id="XMLID_41_" class="st7" d="M75,137.9H60.1c-2.4,0-4.4-2-4.4-4.4v-14.9c0-2.4,2-4.4,4.4-4.4H75c2.4,0,4.4,2,4.4,4.4v14.9
	C79.4,135.9,77.4,137.9,75,137.9L75,137.9z"/>
<path id="XMLID_27_" class="st8" d="M79.4,167.4v13.8H55.7v-13.8c0-2.4,2-4.4,4.4-4.4H75C77.4,163,79.4,165,79.4,167.4z"/>
<path id="XMLID_37_" class="st6" d="M421.6,83.3h-88.1c-1.2,0-2.2-1-2.2-2.2s1-2.2,2.2-2.2h88.1c1.2,0,2.2,1,2.2,2.2
	S422.8,83.3,421.6,83.3L421.6,83.3z"/>
<path id="XMLID_36_" class="st9" d="M193.5,82.2h-88.1c-0.6,0-1.1-0.5-1.1-1.1s0.5-1.1,1.1-1.1h88.1c0.6,0,1.1,0.5,1.1,1.1
	S194.1,82.2,193.5,82.2L193.5,82.2z"/>
<path id="XMLID_35_" class="st9" d="M182.6,138.2h-77.2c-0.6,0-1.1-0.5-1.1-1.1c0-0.6,0.5-1.1,1.1-1.1h77.2c0.6,0,1.1,0.5,1.1,1.1
	C183.7,137.7,183.2,138.2,182.6,138.2L182.6,138.2z"/>
<path id="XMLID_34_" class="st9" d="M157.8,109.1h-52.4c-0.6,0-1.1-0.5-1.1-1.1c0-0.6,0.5-1.1,1.1-1.1h52.4c0.6,0,1.1,0.5,1.1,1.1
	C158.9,108.6,158.4,109.1,157.8,109.1L157.8,109.1z"/>
<path id="XMLID_33_" class="st10" d="M182.6,169.5h-77.2c-0.6,0-1.1-0.5-1.1-1.1c0-0.6,0.5-1.1,1.1-1.1h77.2c0.6,0,1.1,0.5,1.1,1.1
	C183.7,169,183.2,169.5,182.6,169.5L182.6,169.5z"/>
<path id="XMLID_30_" class="st6" d="M561.6,100.7H333.5c-1.2,0-2.2-1-2.2-2.2c0-1.2,1-2.2,2.2-2.2h228.1c1.2,0,2.2,1,2.2,2.2
	C563.8,99.7,562.8,100.7,561.6,100.7L561.6,100.7z"/>
<path id="XMLID_29_" class="st6" d="M561.6,142.2H333.5c-1.2,0-2.2-1-2.2-2.2c0-1.2,1-2.2,2.2-2.2h228.1c1.2,0,2.2,1,2.2,2.2
	C563.8,141.2,562.8,142.2,561.6,142.2L561.6,142.2z"/>
<path id="XMLID_28_" class="st6" d="M561.6,162.6H333.5c-1.2,0-2.2-1-2.2-2.2c0-1.2,1-2.2,2.2-2.2h228.1c1.2,0,2.2,1,2.2,2.2
	C563.8,161.6,562.8,162.6,561.6,162.6L561.6,162.6z"/>
<path id="XMLID_38_" class="st6" d="M539.5,181.3H331.3c0-1.2,1-2.2,2.2-2.2h203.8C538.5,179,539.5,180,539.5,181.3z"/>
<path id="XMLID_26_" class="st6" d="M546.5,121.1h-213c-1.2,0-2.2-1-2.2-2.2c0-1.2,1-2.2,2.2-2.2h213c1.2,0,2.2,1,2.2,2.2
	C548.7,120.1,547.7,121.1,546.5,121.1L546.5,121.1z"/>
<path id="XMLID_17_" class="st11" d="M226.5,81c0,3.6-2.9,6.6-6.6,6.6c-3.6,0-6.6-2.9-6.6-6.6c0-3.6,2.9-6.6,6.6-6.6
	C223.6,74.5,226.5,77.4,226.5,81L226.5,81z"/>
<path id="XMLID_74_" class="st6" d="M719.7,65.1c-2.8,0-5.1,2.3-5.1,5.1c0,2.8,2.3,5.1,5.1,5.1c2.8,0,5.1-2.3,5.1-5.1
	C724.8,67.3,722.5,65.1,719.7,65.1L719.7,65.1z M719.7,79.6c-5.2,0-9.5-4.3-9.5-9.5c0-5.2,4.3-9.5,9.5-9.5c5.2,0,9.5,4.3,9.5,9.5
	C729.2,75.4,725,79.6,719.7,79.6L719.7,79.6z"/>
<path id="XMLID_71_" class="st6" d="M747.7,65.1c-2.8,0-5.1,2.3-5.1,5.1c0,2.8,2.3,5.1,5.1,5.1c2.8,0,5.1-2.3,5.1-5.1
	C752.7,67.3,750.5,65.1,747.7,65.1L747.7,65.1z M747.7,79.6c-5.2,0-9.5-4.3-9.5-9.5c0-5.2,4.3-9.5,9.5-9.5c5.2,0,9.5,4.3,9.5,9.5
	C757.2,75.4,752.9,79.6,747.7,79.6L747.7,79.6z"/>
<path id="XMLID_68_" class="st6" d="M772.5,65.1c-2.8,0-5.1,2.3-5.1,5.1c0,2.8,2.3,5.1,5.1,5.1c2.8,0,5.1-2.3,5.1-5.1
	C777.6,67.3,775.3,65.1,772.5,65.1L772.5,65.1z M772.5,79.6c-5.2,0-9.5-4.3-9.5-9.5c0-5.2,4.3-9.5,9.5-9.5c5.2,0,9.5,4.3,9.5,9.5
	C782,75.4,777.7,79.6,772.5,79.6L772.5,79.6z"/>
<path id="XMLID_64_" class="st12" d="M779.8,108v73.3H606.9V108c0-5.2,4.2-9.5,9.5-9.5h153.9C775.5,98.5,779.8,102.7,779.8,108z"/>
<rect id="XMLID_92_" x="0" y="0" class="st13" width="845.5" height="181.3"/>
</svg>
