<svg id="Layer_1" xmlns="http://www.w3.org/2000/svg" viewBox="0 0 845.5 181.3"><style>.st0{fill:#333}.st1{fill:#d5e1e8}.st2{fill:#e6eef1}.st3{fill:#573d82}.st4{fill:#453068}.st5{fill:#3eba91}.st6{fill:#dddcdc}.st7{fill:#685570}.st8{fill:#4a4787}.st9{fill:#fff}.st10{fill:#705b96}.st11{fill:#ee4387}.st12{fill:#f3f3f3}.st13{fill:none}</style><path id="XMLID_97_" class="st0" d="M845.5 16v165.3H0V16C0 7.2 7.1 0 16 0h813.6c8.8 0 15.9 7.2 15.9 16z"/><path id="XMLID_90_" class="st1" d="M43.6 37.8H802v143.5H43.6z"/><path id="XMLID_80_" class="st2" d="M790.4 181.3H55.1l4-128h727.3z"/><path id="XMLID_57_" class="st3" d="M43.6 53.3h193.1v128H43.6z"/><path id="XMLID_40_" class="st4" d="M43.6 53.3h49.5v128H43.6z"/><path id="XMLID_48_" class="st5" d="M300.4 121.8h-22.9c-6.5 0-11.8-5.3-11.8-11.8V87c0-6.5 5.3-11.8 11.8-11.8h22.9c6.5 0 11.8 5.3 11.8 11.8v23c0 6.5-5.3 11.8-11.8 11.8z"/><path id="XMLID_47_" class="st5" d="M75.1 89H60.2c-2.4 0-4.4-2-4.4-4.4V69.8c0-2.4 2-4.4 4.4-4.4h14.9c2.4 0 4.4 2 4.4 4.4v14.9c0 2.4-2 4.3-4.4 4.3z"/><path id="XMLID_106_" class="st6" d="M607.1 65.1c-.6 0-1.1.5-1.1 1.1v7.9c0 .6.5 1.1 1.1 1.1h92.8c.6 0 1.1-.5 1.1-1.1v-7.9c0-.6-.5-1.1-1.1-1.1h-92.8zm92.8 14.5h-92.8c-3.1 0-5.5-2.5-5.5-5.5v-7.9c0-3.1 2.5-5.5 5.5-5.5h92.8c3.1 0 5.5 2.5 5.5 5.5v7.9c.1 3-2.4 5.5-5.5 5.5z"/><path id="XMLID_41_" class="st7" d="M75 137.9H60.1c-2.4 0-4.4-2-4.4-4.4v-14.9c0-2.4 2-4.4 4.4-4.4H75c2.4 0 4.4 2 4.4 4.4v14.9c0 2.4-2 4.4-4.4 4.4z"/><path id="XMLID_27_" class="st8" d="M79.4 167.4v13.8H55.7v-13.8c0-2.4 2-4.4 4.4-4.4H75c2.4 0 4.4 2 4.4 4.4z"/><path id="XMLID_37_" class="st6" d="M421.6 83.3h-88.1c-1.2 0-2.2-1-2.2-2.2s1-2.2 2.2-2.2h88.1c1.2 0 2.2 1 2.2 2.2s-1 2.2-2.2 2.2z"/><path id="XMLID_36_" class="st9" d="M193.5 82.2h-88.1c-.6 0-1.1-.5-1.1-1.1s.5-1.1 1.1-1.1h88.1c.6 0 1.1.5 1.1 1.1s-.5 1.1-1.1 1.1z"/><path id="XMLID_35_" class="st9" d="M182.6 138.2h-77.2c-.6 0-1.1-.5-1.1-1.1 0-.6.5-1.1 1.1-1.1h77.2c.6 0 1.1.5 1.1 1.1 0 .6-.5 1.1-1.1 1.1z"/><path id="XMLID_34_" class="st9" d="M157.8 109.1h-52.4c-.6 0-1.1-.5-1.1-1.1 0-.6.5-1.1 1.1-1.1h52.4c.6 0 1.1.5 1.1 1.1 0 .6-.5 1.1-1.1 1.1z"/><path id="XMLID_33_" class="st10" d="M182.6 169.5h-77.2c-.6 0-1.1-.5-1.1-1.1 0-.6.5-1.1 1.1-1.1h77.2c.6 0 1.1.5 1.1 1.1 0 .6-.5 1.1-1.1 1.1z"/><path id="XMLID_30_" class="st6" d="M561.6 100.7H333.5c-1.2 0-2.2-1-2.2-2.2 0-1.2 1-2.2 2.2-2.2h228.1c1.2 0 2.2 1 2.2 2.2 0 1.2-1 2.2-2.2 2.2z"/><path id="XMLID_29_" class="st6" d="M561.6 142.2H333.5c-1.2 0-2.2-1-2.2-2.2 0-1.2 1-2.2 2.2-2.2h228.1c1.2 0 2.2 1 2.2 2.2 0 1.2-1 2.2-2.2 2.2z"/><path id="XMLID_28_" class="st6" d="M561.6 162.6H333.5c-1.2 0-2.2-1-2.2-2.2 0-1.2 1-2.2 2.2-2.2h228.1c1.2 0 2.2 1 2.2 2.2 0 1.2-1 2.2-2.2 2.2z"/><path id="XMLID_38_" class="st6" d="M539.5 181.3H331.3c0-1.2 1-2.2 2.2-2.2h203.8c1.2-.1 2.2.9 2.2 2.2z"/><path id="XMLID_26_" class="st6" d="M546.5 121.1h-213c-1.2 0-2.2-1-2.2-2.2 0-1.2 1-2.2 2.2-2.2h213c1.2 0 2.2 1 2.2 2.2 0 1.2-1 2.2-2.2 2.2z"/><path id="XMLID_17_" class="st11" d="M226.5 81c0 3.6-2.9 6.6-6.6 6.6-3.6 0-6.6-2.9-6.6-6.6 0-3.6 2.9-6.6 6.6-6.6 3.7.1 6.6 3 6.6 6.6z"/><path id="XMLID_74_" class="st6" d="M719.7 65.1c-2.8 0-5.1 2.3-5.1 5.1s2.3 5.1 5.1 5.1 5.1-2.3 5.1-5.1c0-2.9-2.3-5.1-5.1-5.1zm0 14.5c-5.2 0-9.5-4.3-9.5-9.5s4.3-9.5 9.5-9.5 9.5 4.3 9.5 9.5c0 5.3-4.2 9.5-9.5 9.5z"/><path id="XMLID_71_" class="st6" d="M747.7 65.1c-2.8 0-5.1 2.3-5.1 5.1s2.3 5.1 5.1 5.1 5.1-2.3 5.1-5.1c-.1-2.9-2.3-5.1-5.1-5.1zm0 14.5c-5.2 0-9.5-4.3-9.5-9.5s4.3-9.5 9.5-9.5 9.5 4.3 9.5 9.5c0 5.3-4.3 9.5-9.5 9.5z"/><path id="XMLID_68_" class="st6" d="M772.5 65.1c-2.8 0-5.1 2.3-5.1 5.1s2.3 5.1 5.1 5.1 5.1-2.3 5.1-5.1c0-2.9-2.3-5.1-5.1-5.1zm0 14.5c-5.2 0-9.5-4.3-9.5-9.5s4.3-9.5 9.5-9.5 9.5 4.3 9.5 9.5c0 5.3-4.3 9.5-9.5 9.5z"/><path id="XMLID_64_" class="st12" d="M779.8 108v73.3H606.9V108c0-5.2 4.2-9.5 9.5-9.5h153.9c5.2 0 9.5 4.2 9.5 9.5z"/><path id="XMLID_92_" class="st13" d="M0 0h845.5v181.3H0z"/></svg>