<svg id="Layer_1" xmlns="http://www.w3.org/2000/svg" viewBox="590.1 -174.4 1280 449"><style>.st0{fill:#13775e}.st1{fill:#0a5542}.st2{fill:#043125}.st3{fill:#011f17}.st4{fill:#efce4a}.st5{fill:#fff}.st6{fill:#ed8a19}.st7{fill:#ebba16}.st8{fill:#c7cac7}.st9{fill:#e7eced}</style><g id="City"><path id="Buildings_4" class="st0" d="M1768.8 131.4v-121h-29.9V-92.7h-74.4v224.1h-33.2v-121h-58.8v-51.6h-37.2v14.8h-15.8v6.4h-18.7v11.1h-10.5v140.3h-11.8V-41.2h-55v172.6h-8V38.9h-70.8v92.5h-3.8v-242.5h-70.8v242.5h-19.5V-49l-70.7-42.3V27h-19.5V1.2h-46.2v130.2h-93.7V-70.2h-73.7v201.6h-79.6v-273.8h-73.7V4.9h-23.6v-35h-73.7v69h-23.7v92.5h-20.9V-41.2h-70.8V275h1294.6V131.4z"/><path id="Buildings_3" class="st1" d="M590.9 19.1h-10.1V275h1294.6V18.9H1838v163.3h-7V68.4h-38.2v113.8h-61.7V2.1h-45.9v180.1h-9.7v-217c0-12.1-9.5-22.1-21.5-22.8l-1.4-57.7-1.4 57.7c-12 .7-21.5 10.6-21.5 22.8v217h-59.8V20.1H1524v162.1h-37.5V54.8H1434v127.4h-29.6V-39.5h-19.8l-1.6-69.3-1.7 69.3h-26.4V5.1h-32.7L1306-22.8l-16.2 27.9h-3.2v-26.3h-46.2v203.4h-9V90.9h-21.2V63.2h-35.3V44h-37.7v31.9h-17V-82.6H1108c-3.8-9.6-12.8-16.6-23.7-17.4l-1.6-74.8-1.8 74.7c-11.1.6-20.5 7.6-24.4 17.5h-9.6v264.8h-9V19.1H994v163.1h-14.2V19.1h-30.9l-30.3-52.3-30.3 52.3h-29.9v163.1h-7.1V98.8h-48v83.4h-10.4v-66h-24.1v66H747v-112h-36.3v112h-2.3v-73.6h-24.1v-9.8h-24.1v83.4h-7.1V56.7h-33.9V19.2h-24.5"/><path id="Buildings_2" class="st2" d="M1803.3 47.5v61.9h-23.2v110.9h-44.6v-68h-43.2v28.4h-13.8v68.2h-53.8V142.1h-74.4v-25.2h-82.4V149h-66.6v99.9h-71.5V137.8h-49.2v111.1h-26.3V92.8h-21V48.3h-49.2v200.6h-19.8V102.4h-77.2v146.5h-16.6V122.8h-77.1v126.1h-44.6V115.8h-85v24.1h-79.2v109h-64v-99.3h-84.9v99.3h-9.9V112.1h-45V275h1294.6V47.5z"/><path id="Buildings_1" class="st3" d="M1826.6 175.1v65.7H1797v-34.2h-67.5v24.2H1662v22.1h-53.6v-73.1h-47.5V225h-23.7v27.9h-13.6v-50h-84.9v50.9h-43.5v-50.9h-34.8v50h-16.1v-18.3h-34.8v18.3h-20.2v-50h-64.4v50h-10.3v-50h-34.7v50h-7.7V137.2h-34.8v116.6h-41.5v-78.7h-49.5v19.1h-49.7v28h-31.2v-42.4h-53.2v-10.4h-84.2v10.4h-61v26.8h-23.8v-15.8h-38.5v-15.7h-124V275h1294.6v-99.9z"/><g id="FOCOS"><path class="st4" d="M660.2 113.6c-5 .5-8.9 4.5-9.5 9.4-.4 3.5.9 6.7 3.2 8.9 1.7 1.6 2.7 3.9 2.7 6.3v.5h8.8c0-2.5 1.1-4.8 3-6.5 2.2-1.9 3.6-4.8 3.6-8 .2-6.3-5.3-11.3-11.8-10.6z"/><path class="st5" d="M661.2 131c-1.2 0-2.2-1-2.2-2.2 0-1.2 1-2.2 2.2-2.2 1.2 0 2.2 1 2.2 2.2-.1 1.2-1 2.2-2.2 2.2z"/><path class="st6" d="M661.2 131.5c-1.5 0-2.7-1.2-2.7-2.7s1.2-2.7 2.7-2.7c1.5 0 2.7 1.2 2.7 2.7 0 1.5-1.2 2.7-2.7 2.7zm0-4.3c-.9 0-1.6.7-1.6 1.6s.7 1.6 1.6 1.6 1.6-.7 1.6-1.6-.7-1.6-1.6-1.6z"/><path class="st7" d="M661.2 139.2c-.3 0-.5-.2-.5-.5v-9.8c0-.3.2-.5.5-.5s.5.2.5.5v9.8c0 .2-.2.5-.5.5z"/><path class="st8" d="M662.8 145.2h-3.3l-1.6-2.2h6.5z"/><path class="st9" d="M656.7 140.8h8.8v2.2h-8.8z"/><path class="st8" d="M656.7 138.6h8.8v2.2h-8.8z"/><path class="st4" d="M788 73.9c-3.3.4-6.1 3-6.4 6.3-.3 2.4.6 4.5 2.2 6 1.2 1.1 1.8 2.6 1.8 4.2v.3h6c0-1.7.7-3.3 2-4.4 1.5-1.3 2.4-3.2 2.4-5.4.1-4.1-3.5-7.5-8-7z"/><path class="st5" d="M788.7 85.6c-.8 0-1.5-.7-1.5-1.5s.7-1.5 1.5-1.5 1.5.7 1.5 1.5c-.1.9-.7 1.5-1.5 1.5z"/><path class="st6" d="M788.7 86c-1 0-1.8-.8-1.8-1.8s.8-1.8 1.8-1.8 1.8.8 1.8 1.8-.8 1.8-1.8 1.8zm0-3c-.6 0-1.1.5-1.1 1.1s.5 1.1 1.1 1.1c.6 0 1.1-.5 1.1-1.1s-.5-1.1-1.1-1.1z"/><path class="st7" d="M788.7 91.2c-.2 0-.4-.2-.4-.4v-6.6c0-.2.2-.4.4-.4s.4.2.4.4v6.6c-.1.2-.2.4-.4.4z"/><path class="st8" d="M789.8 95.2h-2.2l-1.1-1.5h4.4z"/><path class="st9" d="M785.7 92.3h6v1.5h-6z"/><path class="st8" d="M785.7 90.8h6v1.5h-6z"/><path class="st4" d="M1347.1 181.5c-2.7.3-4.9 2.4-5.2 5.1-.2 1.9.5 3.6 1.7 4.8.9.9 1.5 2.1 1.5 3.4v.3h4.8c0-1.4.6-2.6 1.6-3.5 1.2-1.1 1.9-2.6 1.9-4.3.3-3.5-2.8-6.2-6.3-5.8z"/><path class="st5" d="M1347.7 191c-.7 0-1.2-.5-1.2-1.2s.5-1.2 1.2-1.2 1.2.5 1.2 1.2c-.1.6-.6 1.2-1.2 1.2z"/><path class="st6" d="M1347.7 191.3c-.8 0-1.5-.7-1.5-1.5s.7-1.5 1.5-1.5 1.5.7 1.5 1.5c-.1.8-.7 1.5-1.5 1.5zm0-2.4c-.5 0-.9.4-.9.9s.4.9.9.9.9-.4.9-.9-.4-.9-.9-.9z"/><path class="st7" d="M1347.7 195.4c-.2 0-.3-.1-.3-.3v-5.3c0-.2.1-.3.3-.3s.3.1.3.3v5.3c0 .2-.2.3-.3.3z"/><path class="st8" d="M1348.6 198.7h-1.8l-.9-1.2h3.5z"/><path class="st9" d="M1345.3 196.3h4.8v1.2h-4.8z"/><path class="st8" d="M1345.3 195.1h4.8v1.2h-4.8z"/><path class="st4" d="M991.2 159.7c-4.6.5-8.2 4.1-8.6 8.6-.3 3.2.8 6.1 2.9 8.1 1.6 1.5 2.5 3.6 2.5 5.7v.5h8.1c0-2.3 1-4.4 2.7-5.9 2-1.8 3.3-4.4 3.3-7.3.1-5.8-5-10.4-10.9-9.7z"/><path class="st5" d="M992.1 175.5c-1.1 0-2-.9-2-2s.9-2 2-2 2 .9 2 2-.9 2-2 2z"/><path class="st6" d="M992.1 176c-1.4 0-2.5-1.1-2.5-2.5s1.1-2.5 2.5-2.5 2.5 1.1 2.5 2.5-1.1 2.5-2.5 2.5zm0-4c-.8 0-1.5.7-1.5 1.5s.7 1.5 1.5 1.5 1.5-.7 1.5-1.5-.7-1.5-1.5-1.5z"/><path class="st7" d="M992.1 183c-.3 0-.5-.2-.5-.5v-9c0-.3.2-.5.5-.5s.5.2.5.5v9c0 .3-.2.5-.5.5z"/><path class="st8" d="M993.6 188.5h-3.1l-1.5-2h6.1z"/><path class="st9" d="M988 184.5h8.1v2H988z"/><path class="st8" d="M988 182.5h8.1v2H988z"/><path class="st4" d="M974.8-11.3c-4.6.5-8.2 4.1-8.6 8.6-.3 3.2.8 6.1 2.9 8.1 1.6 1.5 2.5 3.6 2.5 5.7v.5h8.1c0-2.3 1-4.4 2.7-5.9 2-1.8 3.3-4.4 3.3-7.3 0-5.8-5-10.4-10.9-9.7z"/><path class="st5" d="M975.7 4.6c-1.1 0-2-.9-2-2s.9-2 2-2 2 .9 2 2-.9 2-2 2z"/><path class="st6" d="M975.7 5.1c-1.4 0-2.5-1.1-2.5-2.5s1.1-2.5 2.5-2.5 2.5 1.1 2.5 2.5-1.2 2.5-2.5 2.5zm0-4c-.8 0-1.5.7-1.5 1.5s.7 1.5 1.5 1.5 1.5-.7 1.5-1.5-.7-1.5-1.5-1.5z"/><path class="st7" d="M975.7 12c-.3 0-.5-.2-.5-.5v-9c0-.3.2-.5.5-.5s.5.2.5.5v9c0 .3-.3.5-.5.5z"/><path class="st8" d="M977.2 17.5h-3l-1.6-2h6.1z"/><path class="st9" d="M971.6 13.5h8.1v2h-8.1z"/><path class="st8" d="M971.6 11.5h8.1v2h-8.1z"/><path class="st4" d="M703.7-66.4c-5 .5-8.9 4.5-9.4 9.3-.4 3.5.9 6.6 3.2 8.8 1.7 1.6 2.7 3.9 2.7 6.2v.5h8.8c0-2.5 1.1-4.8 3-6.5 2.2-1.9 3.6-4.8 3.6-7.9 0-6.1-5.5-11.1-11.9-10.4z"/><path class="st5" d="M704.6-49.1c-1.2 0-2.2-1-2.2-2.2 0-1.2 1-2.2 2.2-2.2 1.2 0 2.2 1 2.2 2.2 0 1.2-1 2.2-2.2 2.2z"/><path class="st6" d="M704.6-48.6c-1.5 0-2.7-1.2-2.7-2.7s1.2-2.7 2.7-2.7 2.7 1.2 2.7 2.7-1.2 2.7-2.7 2.7zm0-4.3c-.9 0-1.6.7-1.6 1.6s.7 1.6 1.6 1.6 1.6-.7 1.6-1.6-.7-1.6-1.6-1.6z"/><path class="st7" d="M704.6-41c-.3 0-.5-.2-.5-.5v-9.8c0-.3.2-.5.5-.5s.5.2.5.5v9.8c.1.3-.2.5-.5.5z"/><path class="st8" d="M706.2-35H703l-1.7-2.2h6.6z"/><path class="st9" d="M700.2-39.4h8.8v2.2h-8.8z"/><path class="st8" d="M700.2-41.5h8.8v2.2h-8.8z"/><g><path class="st4" d="M1419.4-75.1c-4.8.5-8.6 4.3-9.2 9.1-.4 3.4.9 6.5 3.1 8.6 1.7 1.6 2.6 3.8 2.6 6.1v.5h8.5c0-2.4 1.1-4.7 2.9-6.3 2.1-1.9 3.5-4.6 3.5-7.7.2-6.1-5.1-11-11.4-10.3z"/><path class="st5" d="M1420.3-58.3c-1.2 0-2.1-1-2.1-2.1 0-1.2 1-2.1 2.1-2.1 1.2 0 2.1 1 2.1 2.1 0 1.2-.9 2.1-2.1 2.1z"/><path class="st6" d="M1420.3-57.7c-1.5 0-2.6-1.2-2.6-2.6 0-1.5 1.2-2.6 2.6-2.6 1.5 0 2.6 1.2 2.6 2.6.1 1.4-1.1 2.6-2.6 2.6zm0-4.3c-.9 0-1.6.7-1.6 1.6s.7 1.6 1.6 1.6c.9 0 1.6-.7 1.6-1.6 0-.8-.7-1.6-1.6-1.6z"/><path class="st7" d="M1420.3-50.3c-.3 0-.5-.2-.5-.5v-9.5c0-.3.2-.5.5-.5s.5.2.5.5v9.5c0 .2-.2.5-.5.5z"/><path class="st8" d="M1421.9-44.5h-3.2l-1.5-2.1h6.3z"/><path class="st9" d="M1416.1-48.8h8.5v2.1h-8.5z"/><path class="st8" d="M1416.1-50.9h8.5v2.1h-8.5z"/></g><g><path class="st4" d="M1683.2 127.3c-3 .3-5.5 2.8-5.9 5.8-.2 2.1.6 4.1 2 5.5 1.1 1 1.7 2.4 1.7 3.9v.3h5.5c0-1.5.7-3 1.8-4 1.4-1.2 2.2-3 2.2-4.9.1-4-3.2-7.1-7.3-6.6z"/><path class="st5" d="M1683.8 138c-.7 0-1.3-.6-1.3-1.3 0-.7.6-1.3 1.3-1.3.7 0 1.3.6 1.3 1.3.1.7-.5 1.3-1.3 1.3z"/><path class="st6" d="M1683.8 138.3c-.9 0-1.7-.8-1.7-1.7s.8-1.7 1.7-1.7 1.7.8 1.7 1.7-.7 1.7-1.7 1.7zm0-2.7c-.6 0-1 .5-1 1s.5 1 1 1 1-.5 1-1-.4-1-1-1z"/><path class="st7" d="M1683.8 143c-.2 0-.3-.2-.3-.3v-6.1c0-.2.2-.3.3-.3s.3.2.3.3v6.1c.1.2-.1.3-.3.3z"/><path class="st8" d="M1684.8 146.7h-2l-1-1.3h4.1z"/><path class="st9" d="M1681.1 144h5.5v1.3h-5.5z"/><path class="st8" d="M1681.1 142.7h5.5v1.3h-5.5z"/></g><g><path class="st4" d="M1721.7-15.9c-3.6.4-6.6 3.3-7 6.9-.3 2.6.7 4.9 2.4 6.5 1.3 1.2 2 2.9 2 4.6v.4h6.5c0-1.8.8-3.6 2.2-4.8 1.6-1.4 2.6-3.5 2.6-5.8.2-4.6-3.9-8.3-8.7-7.8z"/><path class="st5" d="M1722.4-3.1c-.9 0-1.6-.7-1.6-1.6 0-.9.7-1.6 1.6-1.6.9 0 1.6.7 1.6 1.6 0 .9-.7 1.6-1.6 1.6z"/><path class="st6" d="M1722.4-2.7c-1.1 0-2-.9-2-2s.9-2 2-2 2 .9 2 2-.9 2-2 2zm0-3.2c-.7 0-1.2.5-1.2 1.2s.5 1.2 1.2 1.2 1.2-.5 1.2-1.2-.5-1.2-1.2-1.2z"/><path class="st7" d="M1722.4 2.9c-.2 0-.4-.2-.4-.4v-7.2c0-.2.2-.4.4-.4s.4.2.4.4v7.2c0 .2-.1.4-.4.4z"/><path class="st8" d="M1723.6 7.3h-2.5l-1.2-1.6h4.9z"/><path class="st9" d="M1719.1 4.1h6.5v1.6h-6.5z"/><path class="st8" d="M1719.1 2.5h6.5v1.6h-6.5z"/></g><g><path class="st4" d="M1733.1 157.8c-6.6.7-11.9 6-12.6 12.5-.5 4.7 1.2 8.9 4.3 11.8 2.3 2.2 3.6 5.2 3.6 8.4v.7h11.8c0-3.3 1.5-6.5 4-8.7 2.9-2.6 4.9-6.4 4.9-10.6.1-8.3-7.3-15-16-14.1z"/><path class="st5" d="M1734.4 181.1c-1.6 0-2.9-1.3-2.9-2.9 0-1.6 1.3-2.9 2.9-2.9 1.6 0 2.9 1.3 2.9 2.9 0 1.6-1.3 2.9-2.9 2.9z"/><path class="st6" d="M1734.4 181.8c-2 0-3.6-1.6-3.6-3.6s1.6-3.6 3.6-3.6 3.6 1.6 3.6 3.6-1.6 3.6-3.6 3.6zm0-5.8c-1.2 0-2.2 1-2.2 2.2s1 2.2 2.2 2.2 2.2-1 2.2-2.2-1-2.2-2.2-2.2z"/><path class="st7" d="M1734.4 192c-.4 0-.7-.3-.7-.7v-13.1c0-.4.3-.7.7-.7.4 0 .7.3.7.7v13.1c0 .4-.3.7-.7.7z"/><path class="st8" d="M1736.6 200h-4.4l-2.3-2.9h8.9z"/><path class="st9" d="M1728.5 194.2h11.8v2.9h-11.8z"/><path class="st8" d="M1728.5 191.3h11.8v2.9h-11.8z"/></g><g><path class="st4" d="M1475 79.6c-5.2.6-9.3 4.7-9.9 9.8-.4 3.6 1 7 3.3 9.2 1.8 1.7 2.8 4.1 2.8 6.6v.5h9.2c0-2.6 1.2-5.1 3.1-6.8 2.3-2 3.7-5 3.7-8.3.3-6.5-5.4-11.8-12.2-11z"/><path class="st5" d="M1476 97.7c-1.3 0-2.3-1-2.3-2.3 0-1.3 1-2.3 2.3-2.3 1.3 0 2.3 1 2.3 2.3 0 1.3-1.1 2.3-2.3 2.3z"/><path class="st6" d="M1476 98.3c-1.6 0-2.8-1.3-2.8-2.8s1.3-2.8 2.8-2.8c1.6 0 2.8 1.3 2.8 2.8s-1.3 2.8-2.8 2.8zm0-4.6c-.9 0-1.7.8-1.7 1.7s.8 1.7 1.7 1.7c.9 0 1.7-.8 1.7-1.7s-.8-1.7-1.7-1.7z"/><path class="st7" d="M1476 106.3c-.3 0-.6-.3-.6-.6V95.5c0-.3.3-.6.6-.6s.6.3.6.6v10.2c-.1.3-.3.6-.6.6z"/><path class="st8" d="M1477.7 112.5h-3.4l-1.7-2.3h6.9z"/><path class="st9" d="M1471.4 108h9.2v2.3h-9.2z"/><path class="st8" d="M1471.4 105.7h9.2v2.3h-9.2z"/></g></g></g></svg>