<?xml version="1.0" encoding="utf-8"?>
<!-- Generator: Adobe Illustrator 19.2.1, SVG Export Plug-In . SVG Version: 6.00 Build 0)  -->
<svg version="1.1" xmlns="http://www.w3.org/2000/svg" xmlns:xlink="http://www.w3.org/1999/xlink" x="0px" y="0px"
	 viewBox="0 0 1280.2 449.8" style="enable-background:new 0 0 1280.2 449.8;" xml:space="preserve">
<style type="text/css">
	.st0{opacity:0.49;fill:url(#SVGID_3_);}
	.st1{fill:#FFFFFF;}
	.st2{fill:#262626;}
	.st3{fill:#EAEDF4;}
	.st4{fill:#ADE9E9;}
	.st5{fill:#20AD8A;}
	.st6{fill:#FFC06C;}
	.st7{fill:#3F4D55;}
	.st8{fill:#5D5D5D;}
	.st9{fill:#B7B7B7;}
	.st10{fill:#ADADAD;}
	.st11{fill:#B2B2B2;}
	.st12{fill:#808080;}
	.st13{fill:#4D4D4D;}
	.st14{fill:#333333;}
	.st15{fill:#EFCE4A;}
	.st16{fill:#ED8A19;}
	.st17{fill:#EBBA16;}
	.st18{fill:#C7CAC7;}
	.st19{fill:#E7ECED;}
	.st20{opacity:0.7;clip-path:url(#SVGID_5_);}
	.st21{opacity:0.12;fill:#FFC06C;}
	.st22{opacity:0.16;fill:#FFC06C;}
	.st23{opacity:0.22;fill:#FFC06C;}
	.st24{opacity:0.3;fill:#FFC06C;}
	.st25{clip-path:url(#SVGID_7_);}
	.st26{opacity:0.15;fill:#20AD8A;}
	.st27{opacity:0.23;fill:#20AD8A;}
	.st28{opacity:0.3;fill:#20AD8A;}
	.st29{fill:#AAAAAA;}
	.st30{fill:none;stroke:#3F4D55;stroke-miterlimit:10;}
	.st31{fill:none;stroke:#3F4D55;stroke-linecap:round;stroke-miterlimit:10;}
	.st32{fill:#F00101;}
	.st33{fill:#030303;}
	.st34{fill:#70CADB;}
	.st35{fill:#E01765;}
	.st36{fill:#E8A723;}
	.st37{fill:#3EB890;}
	.st38{fill:#CC2027;}
	.st39{fill:#361238;}
	.st40{fill:#65863A;}
	.st41{fill:#1A937D;}
	.st42{fill:#666666;}
	.st43{fill:#D5E1E8;}
	.st44{fill:#E6EEF2;}
	.st45{fill:#573D82;}
	.st46{fill:#453068;}
	.st47{fill:#3FBA91;}
	.st48{fill:#6FCBDC;}
	.st49{fill:#DCDCDC;}
	.st50{fill:#FFC585;}
	.st51{fill:#FF3E88;}
	.st52{fill:#675470;}
	.st53{fill:#4A4687;}
	.st54{fill:#F3F3F3;}
	.st55{opacity:0.5;fill:#8977A7;}
	.st56{fill:#E1E9EF;}
	.st57{fill:#FFD7A3;}
	.st58{fill:#FDC88E;}
	.st59{fill:#FFE1B2;}
	.st60{fill:#A2CDE2;}
	.st61{fill:#545465;}
	.st62{fill:#29394A;}
	.st63{fill:#B5E0F0;}
	.st64{fill:#4A698E;}
	.st65{fill:#416185;}
	.st66{fill:#395A7F;}
	.st67{fill:#FFD5AB;}
	.st68{fill:#E4EBF0;}
	.st69{fill:#D0D7DC;}
	.st70{fill:#527992;}
	.st71{fill:#475F7F;}
	.st72{fill:#D3E5BD;}
	.st73{fill:#827873;}
	.st74{fill:#E0DDDC;}
	.st75{fill:#A19996;}
	.st76{fill:#33CCFF;}
	.st77{fill:#D8DCE1;}
	.st78{fill:#DB4026;}
	.st79{fill:#5C546A;}
	.st80{fill:#E8D21D;}
	.st81{fill:#4AECAF;}
	.st82{fill:#80362D;}
	.st83{fill:#FFB980;}
	.st84{fill:#F8AB6B;}
	.st85{fill:#BF9B5F;}
	.st86{fill:#83603F;}
	.st87{fill:#B0E070;}
	.st88{fill:#7E5C62;}
	.st89{fill:#A27082;}
	.st90{fill:#7E5449;}
	.st91{fill:#FFDA44;}
	.st92{fill:#FFCD00;}
	.st93{fill:#B1664F;}
	.st94{fill:#FFDAA9;}
	.st95{fill:#5FBEA0;}
	.st96{fill:none;stroke:#FFFFFF;stroke-width:2;stroke-linecap:round;stroke-miterlimit:10;}
	.st97{fill:#188268;}
	.st98{fill:#D2EFE8;}
	.st99{fill:#79CEB9;}
	.st100{fill:#EBEBED;}
	.st101{fill:#474F49;}
	.st102{fill:#DAABA9;}
	.st103{fill:#757EAF;}
	.st104{fill:#EDCC70;}
	.st105{fill:#B9BBC1;}
	.st106{fill:#53DCFF;}
	.st107{fill:#FCEE21;}
	.st108{fill:#8B8996;}
	.st109{fill:#686777;}
	.st110{fill:#67A2A9;}
	.st111{fill:#FF93B5;}
	.st112{fill:#FF93B5;stroke:#FFFFFF;stroke-width:2;stroke-linecap:round;stroke-miterlimit:10;}
	.st113{fill:#F3D960;}
	.st114{fill:#F3D960;stroke:#FFFFFF;stroke-width:2;stroke-linecap:round;stroke-miterlimit:10;}
	.st115{fill:#7BD766;}
	.st116{fill:#8166A4;}
	.st117{fill:#F67D69;}
	.st118{fill:#CCCCCC;}
	.st119{fill:#E6E6E6;}
	.st120{fill:#B3B3B3;}
	.st121{fill:none;stroke:#DA6F67;stroke-linecap:round;stroke-miterlimit:10;}
	.st122{fill:#BC679B;}
	.st123{fill:#09614B;}
	.st124{fill:#50748A;}
	.st125{fill:#E2E4FF;}
	.st126{fill:#A7795E;}
	.st127{fill:#ADB4BA;}
	.st128{fill:#4EA0CA;}
	.st129{fill:#394959;}
	.st130{fill:#E05040;}
	.st131{fill:#B4A87D;}
	.st132{fill:#7B7256;}
	.st133{fill:#FCC261;}
	.st134{fill:#111820;}
	.st135{fill:#DFDED6;}
	.st136{fill:#FF6953;}
	.st137{fill:#B06E53;}
	.st138{fill:#728EA0;}
	.st139{fill:#E5E4E3;}
	.st140{fill:#F7F3A8;}
	.st141{fill:#82827F;}
	.st142{fill:#353535;}
	.st143{fill:#A0B7D1;}
	.st144{fill:#ECEC66;}
	.st145{fill:#90BA72;}
	.st146{fill:#E7F2FC;}
	
		.st147{fill:none;stroke:#C6C6C6;stroke-width:2;stroke-linecap:round;stroke-linejoin:round;stroke-miterlimit:10;stroke-dasharray:5,10,5,10,5,10;}
	.st148{fill:#73A950;}
	.st149{fill:#FFA168;}
	.st150{fill:#2D688D;}
	.st151{fill:#13775E;}
	.st152{fill:#0A5542;}
	.st153{fill:#043125;}
	.st154{fill:#011F17;}
</style>
<g id="Capa_2">
</g>
<g id="Capa_3">
</g>
<g id="City">
	<polygon id="Buildings_4" class="st151" points="1174.8,306.2 1174.8,185.2 1145.3,185.2 1145.3,82.1 1071.7,82.1 1071.7,306.2 
		1038.8,306.2 1038.8,185.2 980.7,185.2 980.7,133.6 943.9,133.6 943.9,148.4 928.3,148.4 928.3,154.8 909.8,154.8 909.8,165.9 
		899.4,165.9 899.4,306.2 887.7,306.2 887.7,133.6 833.4,133.6 833.4,306.2 825.4,306.2 825.4,213.7 755.4,213.7 755.4,306.2 
		751.7,306.2 751.7,63.7 681.7,63.7 681.7,306.2 662.4,306.2 662.4,125.8 592.5,83.5 592.5,201.8 573.2,201.8 573.2,176 527.5,176 
		527.5,306.2 434.8,306.2 434.8,104.6 361.9,104.6 361.9,306.2 283.2,306.2 283.2,32.4 210.3,32.4 210.3,179.7 187,179.7 187,144.7 
		114.1,144.7 114.1,213.7 90.7,213.7 90.7,306.2 70,306.2 70,133.6 0,133.6 0,449.8 1280.2,449.8 1280.2,306.2 	"/>
	<path id="Buildings_3" class="st152" d="M10,193.9H0v255.9h1280.2V188.7h-37V357h-6.9V243.2h-37.8V357h-61V176.9h-45.4V357h-9.6
		V140c0-12.1-9.4-22.1-21.3-22.8l-1.4-57.7l-1.4,57.7c-11.9,0.7-21.3,10.6-21.3,22.8v217h-59.1V194.9h-45.4V357h-37.1V229.6h-51.8
		V357h-29.3V135.3h-19.6L793.2,66l-1.7,69.3h-26.1v44.6h-32.3l-16-27.9l-16,27.9h-3.2v-26.3h-45.7V357h-8.9v-91.3h-21V238h-34.9
		v-19.2h-37.3v31.9h-16.8V92.2h-12.1c-3.8-9.6-12.7-16.6-23.4-17.4L496.2,0l-1.8,74.7c-11,0.6-20.3,7.6-24.1,17.5h-9.5V357h-8.9
		V193.9h-43.3V357h-14V193.9h-30.6l-30-52.3l-30,52.3h-29.6V357h-7v-83.4h-47.5V357h-10.3v-66h-23.8v66h-21.4V245h-35.9v112h-2.3
		v-73.6h-23.8v-9.8H78.6V357h-7V231.5H38.1v-37.5H13.9"/>
	<polygon id="Buildings_2" class="st153" points="1208.9,222.3 1208.9,284.2 1186,284.2 1186,395.1 1141.9,395.1 1141.9,327.1 
		1099.2,327.1 1099.2,355.5 1085.5,355.5 1085.5,423.7 1032.3,423.7 1032.3,316.9 958.7,316.9 958.7,291.7 877.3,291.7 877.3,323.8 
		811.4,323.8 811.4,423.7 740.7,423.7 740.7,312.6 692,312.6 692,423.7 666,423.7 666,267.6 645.3,267.6 645.3,223.1 596.6,223.1 
		596.6,423.7 577,423.7 577,277.2 500.7,277.2 500.7,423.7 484.3,423.7 484.3,297.6 408,297.6 408,423.7 363.9,423.7 363.9,290.6 
		279.9,290.6 279.9,314.7 201.5,314.7 201.5,423.7 138.2,423.7 138.2,324.4 54.3,324.4 54.3,423.7 44.5,423.7 44.5,286.9 0,286.9 
		0,449.8 1280.2,449.8 1280.2,222.3 	"/>
	<polygon id="Buildings_1" class="st154" points="1232,349.9 1232,415.6 1202.7,415.6 1202.7,381.4 1136,381.4 1136,405.6 
		1069.2,405.6 1069.2,427.7 1016.2,427.7 1016.2,354.6 969.2,354.6 969.2,399.8 945.8,399.8 945.8,427.7 932.3,427.7 932.3,377.7 
		848.4,377.7 848.4,428.6 805.4,428.6 805.4,377.7 771,377.7 771,427.7 755,427.7 755,409.4 720.6,409.4 720.6,427.7 700.6,427.7 
		700.6,377.7 637,377.7 637,427.7 626.8,427.7 626.8,377.7 592.5,377.7 592.5,427.7 584.8,427.7 584.8,312 550.4,312 550.4,428.6 
		509.4,428.6 509.4,349.9 460.4,349.9 460.4,369 411.3,369 411.3,397 380.4,397 380.4,354.6 327.8,354.6 327.8,344.2 244.6,344.2 
		244.6,354.6 184.2,354.6 184.2,381.4 160.7,381.4 160.7,365.6 122.6,365.6 122.6,349.9 0,349.9 0,449.8 1280.2,449.8 1280.2,349.9 
			"/>
	<g id="FOCOS">
		<g>
			<g>
				<path class="st15" d="M78.5,288.4c-4.9,0.5-8.8,4.5-9.4,9.4c-0.4,3.5,0.9,6.7,3.2,8.9c1.7,1.6,2.7,3.9,2.7,6.3v0.5h8.7l0,0
					c0-2.5,1.1-4.8,3-6.5c2.2-1.9,3.6-4.8,3.6-8C90.4,292.7,84.9,287.7,78.5,288.4z"/>
			</g>
			<g>
				<path class="st1" d="M79.5,305.8L79.5,305.8c-1.2,0-2.2-1-2.2-2.2l0,0c0-1.2,1-2.2,2.2-2.2l0,0c1.2,0,2.2,1,2.2,2.2l0,0
					C81.6,304.8,80.7,305.8,79.5,305.8z"/>
				<path class="st16" d="M79.5,306.3c-1.5,0-2.7-1.2-2.7-2.7c0-1.5,1.2-2.7,2.7-2.7c1.5,0,2.7,1.2,2.7,2.7
					C82.2,305.1,81,306.3,79.5,306.3z M79.5,302c-0.9,0-1.6,0.7-1.6,1.6c0,0.9,0.7,1.6,1.6,1.6c0.9,0,1.6-0.7,1.6-1.6
					C81.1,302.7,80.4,302,79.5,302z"/>
			</g>
			<path class="st17" d="M79.5,314c-0.3,0-0.5-0.2-0.5-0.5v-9.8c0-0.3,0.2-0.5,0.5-0.5s0.5,0.2,0.5,0.5v9.8
				C80,313.7,79.8,314,79.5,314z"/>
			<polygon class="st18" points="81.1,320 77.8,320 76.2,317.8 82.7,317.8 			"/>
			<rect x="75.1" y="315.6" class="st19" width="8.7" height="2.2"/>
			<rect x="75.1" y="313.4" class="st18" width="8.7" height="2.2"/>
		</g>
		<g>
			<g>
				<path class="st15" d="M204.9,248.7c-3.3,0.4-6,3-6.3,6.3c-0.3,2.4,0.6,4.5,2.2,6c1.2,1.1,1.8,2.6,1.8,4.2v0.3h5.9l0,0
					c0-1.7,0.7-3.3,2-4.4c1.5-1.3,2.4-3.2,2.4-5.4C212.9,251.6,209.3,248.2,204.9,248.7z"/>
			</g>
			<g>
				<path class="st1" d="M205.6,260.4L205.6,260.4c-0.8,0-1.5-0.7-1.5-1.5l0,0c0-0.8,0.7-1.5,1.5-1.5l0,0c0.8,0,1.5,0.7,1.5,1.5l0,0
					C207,259.8,206.4,260.4,205.6,260.4z"/>
				<path class="st16" d="M205.6,260.8c-1,0-1.8-0.8-1.8-1.8s0.8-1.8,1.8-1.8c1,0,1.8,0.8,1.8,1.8S206.6,260.8,205.6,260.8z
					 M205.6,257.8c-0.6,0-1.1,0.5-1.1,1.1s0.5,1.1,1.1,1.1c0.6,0,1.1-0.5,1.1-1.1S206.2,257.8,205.6,257.8z"/>
			</g>
			<path class="st17" d="M205.6,266c-0.2,0-0.4-0.2-0.4-0.4V259c0-0.2,0.2-0.4,0.4-0.4c0.2,0,0.4,0.2,0.4,0.4v6.6
				C205.9,265.8,205.8,266,205.6,266z"/>
			<polygon class="st18" points="206.7,270 204.5,270 203.4,268.5 207.8,268.5 			"/>
			<rect x="202.6" y="267.1" class="st19" width="5.9" height="1.5"/>
			<rect x="202.6" y="265.6" class="st18" width="5.9" height="1.5"/>
		</g>
		<g>
			<g>
				<path class="st15" d="M757.8,356.3c-2.7,0.3-4.8,2.4-5.1,5.1c-0.2,1.9,0.5,3.6,1.7,4.8c0.9,0.9,1.5,2.1,1.5,3.4v0.3h4.7l0,0
					c0-1.4,0.6-2.6,1.6-3.5c1.2-1.1,1.9-2.6,1.9-4.3C764.3,358.6,761.3,355.9,757.8,356.3z"/>
			</g>
			<g>
				<path class="st1" d="M758.4,365.8L758.4,365.8c-0.7,0-1.2-0.5-1.2-1.2l0,0c0-0.7,0.5-1.2,1.2-1.2l0,0c0.7,0,1.2,0.5,1.2,1.2l0,0
					C759.5,365.2,759,365.8,758.4,365.8z"/>
				<path class="st16" d="M758.4,366.1c-0.8,0-1.5-0.7-1.5-1.5c0-0.8,0.7-1.5,1.5-1.5s1.5,0.7,1.5,1.5
					C759.8,365.4,759.2,366.1,758.4,366.1z M758.4,363.7c-0.5,0-0.9,0.4-0.9,0.9s0.4,0.9,0.9,0.9s0.9-0.4,0.9-0.9
					S758.9,363.7,758.4,363.7z"/>
			</g>
			<path class="st17" d="M758.4,370.2c-0.2,0-0.3-0.1-0.3-0.3v-5.3c0-0.2,0.1-0.3,0.3-0.3s0.3,0.1,0.3,0.3v5.3
				C758.7,370.1,758.5,370.2,758.4,370.2z"/>
			<polygon class="st18" points="759.3,373.5 757.5,373.5 756.6,372.3 760.1,372.3 			"/>
			<rect x="756" y="371.1" class="st19" width="4.7" height="1.2"/>
			<rect x="756" y="369.9" class="st18" width="4.7" height="1.2"/>
		</g>
		<g>
			<g>
				<path class="st15" d="M405.8,334.5c-4.5,0.5-8.1,4.1-8.5,8.6c-0.3,3.2,0.8,6.1,2.9,8.1c1.6,1.5,2.5,3.6,2.5,5.7v0.5h8l0,0
					c0-2.3,1-4.4,2.7-5.9c2-1.8,3.3-4.4,3.3-7.3C416.7,338.4,411.7,333.8,405.8,334.5z"/>
			</g>
			<g>
				<path class="st1" d="M406.7,350.3L406.7,350.3c-1.1,0-2-0.9-2-2l0,0c0-1.1,0.9-2,2-2l0,0c1.1,0,2,0.9,2,2l0,0
					C408.7,349.4,407.8,350.3,406.7,350.3z"/>
				<path class="st16" d="M406.7,350.8c-1.4,0-2.5-1.1-2.5-2.5s1.1-2.5,2.5-2.5c1.4,0,2.5,1.1,2.5,2.5S408.1,350.8,406.7,350.8z
					 M406.7,346.8c-0.8,0-1.5,0.7-1.5,1.5s0.7,1.5,1.5,1.5c0.8,0,1.5-0.7,1.5-1.5S407.5,346.8,406.7,346.8z"/>
			</g>
			<path class="st17" d="M406.7,357.8c-0.3,0-0.5-0.2-0.5-0.5v-9c0-0.3,0.2-0.5,0.5-0.5c0.3,0,0.5,0.2,0.5,0.5v9
				C407.2,357.6,407,357.8,406.7,357.8z"/>
			<polygon class="st18" points="408.2,363.3 405.2,363.3 403.7,361.3 409.7,361.3 			"/>
			<rect x="402.7" y="359.3" class="st19" width="8" height="2"/>
			<rect x="402.7" y="357.3" class="st18" width="8" height="2"/>
		</g>
		<g>
			<g>
				<path class="st15" d="M389.6,163.5c-4.5,0.5-8.1,4.1-8.5,8.6c-0.3,3.2,0.8,6.1,2.9,8.1c1.6,1.5,2.5,3.6,2.5,5.7v0.5h8l0,0
					c0-2.3,1-4.4,2.7-5.9c2-1.8,3.3-4.4,3.3-7.3C400.4,167.4,395.5,162.8,389.6,163.5z"/>
			</g>
			<g>
				<path class="st1" d="M390.5,179.4L390.5,179.4c-1.1,0-2-0.9-2-2l0,0c0-1.1,0.9-2,2-2l0,0c1.1,0,2,0.9,2,2l0,0
					C392.5,178.5,391.6,179.4,390.5,179.4z"/>
				<path class="st16" d="M390.5,179.9c-1.4,0-2.5-1.1-2.5-2.5s1.1-2.5,2.5-2.5c1.4,0,2.5,1.1,2.5,2.5S391.8,179.9,390.5,179.9z
					 M390.5,175.9c-0.8,0-1.5,0.7-1.5,1.5s0.7,1.5,1.5,1.5c0.8,0,1.5-0.7,1.5-1.5S391.3,175.9,390.5,175.9z"/>
			</g>
			<path class="st17" d="M390.5,186.8c-0.3,0-0.5-0.2-0.5-0.5v-9c0-0.3,0.2-0.5,0.5-0.5c0.3,0,0.5,0.2,0.5,0.5v9
				C391,186.6,390.7,186.8,390.5,186.8z"/>
			<polygon class="st18" points="392,192.3 389,192.3 387.5,190.3 393.5,190.3 			"/>
			<rect x="386.5" y="188.3" class="st19" width="8" height="2"/>
			<rect x="386.5" y="186.3" class="st18" width="8" height="2"/>
		</g>
		<g>
			<g>
				<path class="st15" d="M121.5,108.4c-4.9,0.5-8.8,4.5-9.3,9.3c-0.4,3.5,0.9,6.6,3.2,8.8c1.7,1.6,2.7,3.9,2.7,6.2v0.5h8.7l0,0
					c0-2.5,1.1-4.8,3-6.5c2.2-1.9,3.6-4.8,3.6-7.9C133.3,112.7,127.9,107.7,121.5,108.4z"/>
			</g>
			<g>
				<path class="st1" d="M122.4,125.7L122.4,125.7c-1.2,0-2.2-1-2.2-2.2l0,0c0-1.2,1-2.2,2.2-2.2l0,0c1.2,0,2.2,1,2.2,2.2l0,0
					C124.6,124.7,123.6,125.7,122.4,125.7z"/>
				<path class="st16" d="M122.4,126.2c-1.5,0-2.7-1.2-2.7-2.7c0-1.5,1.2-2.7,2.7-2.7c1.5,0,2.7,1.2,2.7,2.7
					C125.1,125,123.9,126.2,122.4,126.2z M122.4,121.9c-0.9,0-1.6,0.7-1.6,1.6s0.7,1.6,1.6,1.6s1.6-0.7,1.6-1.6
					S123.3,121.9,122.4,121.9z"/>
			</g>
			<path class="st17" d="M122.4,133.8c-0.3,0-0.5-0.2-0.5-0.5v-9.8c0-0.3,0.2-0.5,0.5-0.5c0.3,0,0.5,0.2,0.5,0.5v9.8
				C123,133.6,122.7,133.8,122.4,133.8z"/>
			<polygon class="st18" points="124,139.8 120.8,139.8 119.2,137.6 125.7,137.6 			"/>
			<rect x="118.1" y="135.4" class="st19" width="8.7" height="2.2"/>
			<rect x="118.1" y="133.3" class="st18" width="8.7" height="2.2"/>
		</g>
		<g>
			<g>
				<path class="st15" d="M829.3,99.7c-4.7,0.5-8.5,4.3-9.1,9.1c-0.4,3.4,0.9,6.5,3.1,8.6c1.7,1.6,2.6,3.8,2.6,6.1v0.5h8.4l0,0
					c0-2.4,1.1-4.7,2.9-6.3c2.1-1.9,3.5-4.6,3.5-7.7C840.8,103.9,835.5,99,829.3,99.7z"/>
			</g>
			<g>
				<path class="st1" d="M830.2,116.5L830.2,116.5c-1.2,0-2.1-1-2.1-2.1l0,0c0-1.2,1-2.1,2.1-2.1l0,0c1.2,0,2.1,1,2.1,2.1l0,0
					C832.3,115.6,831.4,116.5,830.2,116.5z"/>
				<path class="st16" d="M830.2,117.1c-1.5,0-2.6-1.2-2.6-2.6c0-1.5,1.2-2.6,2.6-2.6c1.5,0,2.6,1.2,2.6,2.6
					C832.9,115.9,831.7,117.1,830.2,117.1z M830.2,112.8c-0.9,0-1.6,0.7-1.6,1.6c0,0.9,0.7,1.6,1.6,1.6c0.9,0,1.6-0.7,1.6-1.6
					C831.8,113.6,831.1,112.8,830.2,112.8z"/>
			</g>
			<path class="st17" d="M830.2,124.5c-0.3,0-0.5-0.2-0.5-0.5v-9.5c0-0.3,0.2-0.5,0.5-0.5s0.5,0.2,0.5,0.5v9.5
				C830.7,124.2,830.5,124.5,830.2,124.5z"/>
			<polygon class="st18" points="831.8,130.3 828.6,130.3 827.1,128.2 833.4,128.2 			"/>
			<rect x="826" y="126" class="st19" width="8.4" height="2.1"/>
			<rect x="826" y="123.9" class="st18" width="8.4" height="2.1"/>
		</g>
		<g>
			<g>
				<path class="st15" d="M1090.2,302.1c-3,0.3-5.4,2.8-5.8,5.8c-0.2,2.1,0.6,4.1,2,5.5c1.1,1,1.7,2.4,1.7,3.9v0.3h5.4l0,0
					c0-1.5,0.7-3,1.8-4c1.4-1.2,2.2-3,2.2-4.9C1097.5,304.7,1094.2,301.6,1090.2,302.1z"/>
			</g>
			<g>
				<path class="st1" d="M1090.8,312.8L1090.8,312.8c-0.7,0-1.3-0.6-1.3-1.3l0,0c0-0.7,0.6-1.3,1.3-1.3l0,0c0.7,0,1.3,0.6,1.3,1.3
					l0,0C1092.2,312.2,1091.6,312.8,1090.8,312.8z"/>
				<path class="st16" d="M1090.8,313.1c-0.9,0-1.7-0.8-1.7-1.7s0.8-1.7,1.7-1.7c0.9,0,1.7,0.8,1.7,1.7S1091.8,313.1,1090.8,313.1z
					 M1090.8,310.4c-0.6,0-1,0.5-1,1s0.5,1,1,1s1-0.5,1-1S1091.4,310.4,1090.8,310.4z"/>
			</g>
			<path class="st17" d="M1090.8,317.8c-0.2,0-0.3-0.2-0.3-0.3v-6.1c0-0.2,0.2-0.3,0.3-0.3s0.3,0.2,0.3,0.3v6.1
				C1091.2,317.7,1091,317.8,1090.8,317.8z"/>
			<polygon class="st18" points="1091.8,321.5 1089.8,321.5 1088.8,320.2 1092.8,320.2 			"/>
			<rect x="1088.1" y="318.8" class="st19" width="5.4" height="1.3"/>
			<rect x="1088.1" y="317.5" class="st18" width="5.4" height="1.3"/>
		</g>
		<g>
			<g>
				<path class="st15" d="M1128.2,158.9c-3.6,0.4-6.5,3.3-6.9,6.9c-0.3,2.6,0.7,4.9,2.4,6.5c1.3,1.2,2,2.9,2,4.6v0.4h6.4l0,0
					c0-1.8,0.8-3.6,2.2-4.8c1.6-1.4,2.6-3.5,2.6-5.8C1137,162.1,1133,158.4,1128.2,158.9z"/>
			</g>
			<g>
				<path class="st1" d="M1128.9,171.7L1128.9,171.7c-0.9,0-1.6-0.7-1.6-1.6l0,0c0-0.9,0.7-1.6,1.6-1.6l0,0c0.9,0,1.6,0.7,1.6,1.6
					l0,0C1130.5,171,1129.8,171.7,1128.9,171.7z"/>
				<path class="st16" d="M1128.9,172.1c-1.1,0-2-0.9-2-2s0.9-2,2-2c1.1,0,2,0.9,2,2S1130,172.1,1128.9,172.1z M1128.9,168.9
					c-0.7,0-1.2,0.5-1.2,1.2c0,0.7,0.5,1.2,1.2,1.2c0.7,0,1.2-0.5,1.2-1.2C1130.1,169.4,1129.6,168.9,1128.9,168.9z"/>
			</g>
			<path class="st17" d="M1128.9,177.7c-0.2,0-0.4-0.2-0.4-0.4v-7.2c0-0.2,0.2-0.4,0.4-0.4s0.4,0.2,0.4,0.4v7.2
				C1129.3,177.5,1129.2,177.7,1128.9,177.7z"/>
			<polygon class="st18" points="1130.1,182.1 1127.7,182.1 1126.5,180.5 1131.3,180.5 			"/>
			<rect x="1125.7" y="178.9" class="st19" width="6.4" height="1.6"/>
			<rect x="1125.7" y="177.3" class="st18" width="6.4" height="1.6"/>
		</g>
		<g>
			<g>
				<path class="st15" d="M1139.5,332.6c-6.5,0.7-11.8,6-12.5,12.5c-0.5,4.7,1.2,8.9,4.3,11.8c2.3,2.2,3.6,5.2,3.6,8.4v0.7h11.7l0,0
					c0-3.3,1.5-6.5,4-8.7c2.9-2.6,4.8-6.4,4.8-10.6C1155.4,338.4,1148.1,331.7,1139.5,332.6z"/>
			</g>
			<g>
				<path class="st1" d="M1140.8,355.9L1140.8,355.9c-1.6,0-2.9-1.3-2.9-2.9l0,0c0-1.6,1.3-2.9,2.9-2.9l0,0c1.6,0,2.9,1.3,2.9,2.9
					l0,0C1143.7,354.6,1142.4,355.9,1140.8,355.9z"/>
				<path class="st16" d="M1140.8,356.6c-2,0-3.6-1.6-3.6-3.6s1.6-3.6,3.6-3.6c2,0,3.6,1.6,3.6,3.6S1142.8,356.6,1140.8,356.6z
					 M1140.8,350.8c-1.2,0-2.2,1-2.2,2.2s1,2.2,2.2,2.2c1.2,0,2.2-1,2.2-2.2S1142,350.8,1140.8,350.8z"/>
			</g>
			<path class="st17" d="M1140.8,366.8c-0.4,0-0.7-0.3-0.7-0.7V353c0-0.4,0.3-0.7,0.7-0.7c0.4,0,0.7,0.3,0.7,0.7v13.1
				C1141.5,366.5,1141.2,366.8,1140.8,366.8z"/>
			<polygon class="st18" points="1143,374.8 1138.6,374.8 1136.4,371.9 1145.2,371.9 			"/>
			<rect x="1135" y="369" class="st19" width="11.7" height="2.9"/>
			<rect x="1135" y="366.1" class="st18" width="11.7" height="2.9"/>
		</g>
		<g>
			<g>
				<path class="st15" d="M884.3,254.4c-5.1,0.6-9.2,4.7-9.8,9.8c-0.4,3.6,1,7,3.3,9.2c1.8,1.7,2.8,4.1,2.8,6.6v0.5h9.1l0,0
					c0-2.6,1.2-5.1,3.1-6.8c2.3-2,3.7-5,3.7-8.3C896.6,258.9,891,253.6,884.3,254.4z"/>
			</g>
			<g>
				<path class="st1" d="M885.3,272.5L885.3,272.5c-1.3,0-2.3-1-2.3-2.3l0,0c0-1.3,1-2.3,2.3-2.3l0,0c1.3,0,2.3,1,2.3,2.3l0,0
					C887.5,271.5,886.5,272.5,885.3,272.5z"/>
				<path class="st16" d="M885.3,273.1c-1.6,0-2.8-1.3-2.8-2.8s1.3-2.8,2.8-2.8c1.6,0,2.8,1.3,2.8,2.8S886.8,273.1,885.3,273.1z
					 M885.3,268.5c-0.9,0-1.7,0.8-1.7,1.7s0.8,1.7,1.7,1.7c0.9,0,1.7-0.8,1.7-1.7S886.2,268.5,885.3,268.5z"/>
			</g>
			<path class="st17" d="M885.3,281.1c-0.3,0-0.6-0.3-0.6-0.6v-10.2c0-0.3,0.3-0.6,0.6-0.6c0.3,0,0.6,0.3,0.6,0.6v10.2
				C885.8,280.8,885.6,281.1,885.3,281.1z"/>
			<polygon class="st18" points="887,287.3 883.6,287.3 881.9,285 888.7,285 			"/>
			<rect x="880.7" y="282.8" class="st19" width="9.1" height="2.3"/>
			<rect x="880.7" y="280.5" class="st18" width="9.1" height="2.3"/>
		</g>
	</g>
</g>
</svg>
