<?xml version="1.0" encoding="utf-8"?>
<!-- Generator: Adobe Illustrator 17.0.0, SVG Export Plug-In . SVG Version: 6.00 Build 0)  -->
<!DOCTYPE svg PUBLIC "-//W3C//DTD SVG 1.1//EN" "http://www.w3.org/Graphics/SVG/1.1/DTD/svg11.dtd">
<svg version="1.1" xmlns="http://www.w3.org/2000/svg" xmlns:xlink="http://www.w3.org/1999/xlink" x="0px" y="0px"
	 width="112.449px" height="80.253px" viewBox="0 0 112.449 80.253" enable-background="new 0 0 112.449 80.253"
	 xml:space="preserve">
<g id="Layer_1">
	<g>
		<defs>
			<rect id="SVGID_3_" x="-103.775" y="723.793" width="918" height="768"/>
		</defs>
		<clipPath id="SVGID_2_">
			<use xlink:href="#SVGID_3_"  overflow="visible"/>
		</clipPath>
	</g>
	<g>
		<g>
			<g>
				<path fill="#EAEDF4" d="M40.186,24.211c0.313-1.344,3.752-12.929,21.018-8.691c-8.816-0.635-13.013,4.538-14.179,6.34
					c-2.692,4.212-2.717,9.813,0.37,14.13c3.233,4.519,9.519,5.563,14.038,2.33c2.987-2.136,4.071-5.944,2.889-9.239
					c0.353,0.948,0.543,1.956,0.543,2.999c0,5.637-5.513,10.207-12.313,10.207c-5.817,0-10.46-3.279-12.205-7.743
					c-0.295-0.753-0.506-1.541-0.627-2.352c0-0.002,0-0.006-0.002-0.008c-0.203-0.832-0.358-2.593-0.238-4.26
					C39.552,26.235,40.069,24.714,40.186,24.211z"/>
				<path fill="#ADE9E9" d="M41.771,20.689c3.066-5.348,11.663-11.356,23.648-7.681c11.917,3.447,22.275,24.648,2.641,36.484
					c12.068-8.773,10.951-30.102-6.69-33.937C47.298,12.56,41.771,20.689,41.771,20.689z"/>
				<path fill="#20AD8A" d="M68.059,49.492c-19.226,11.773-42.638-5.185-45.882-8.151c8.95,30.214,49.537,25.612,56.525,2.289
					c4.965-16.243-6.093-26.085-6.093-26.085S89.707,34.995,68.059,49.492z"/>
				<path fill="#FFC06C" d="M63.621,27.606c0,0,5.792,9.435-4.434,15.251c-11.177,5.063-17.705-4.362-18.839-8.313
					c0,0,5.783,11.429,18.187,6.458C68.55,35.571,63.621,27.606,63.621,27.606z"/>
				<path fill="#3F4D55" d="M49.6,62.51C39.361,62.791,12.272,54.49,0,30.685L1.502,16.14c0,0,7.862,15.5,20.675,25.202
					C22.812,43.149,27.484,61.648,49.6,62.51"/>
				<path fill="#5D5D5D" d="M49.195,34.22c0.101,0.186,0.211,0.368,0.33,0.548c-0.05-0.072-0.098-0.145-0.144-0.219
					C49.316,34.44,49.254,34.33,49.195,34.22z"/>
			</g>
			<g>
				<path fill="#EAEDF4" d="M72.264,38.361c-0.313,1.344-3.752,12.928-21.018,8.691c8.816,0.635,13.013-4.538,14.179-6.34
					c2.692-4.212,2.717-9.813-0.37-14.13c-3.233-4.519-9.519-5.563-14.038-2.33c-2.987,2.136-4.071,5.944-2.889,9.239
					c-0.353-0.948-0.543-1.956-0.543-2.999c0-5.637,5.513-10.207,12.313-10.207c5.817,0,10.46,3.279,12.205,7.743
					c0.295,0.753,0.506,1.541,0.627,2.352c0,0.002,0,0.006,0.002,0.008c0.203,0.832,0.358,2.593,0.238,4.26
					C72.897,36.337,72.381,37.858,72.264,38.361z"/>
				<path fill="#ADE9E9" d="M70.679,41.883c-3.066,5.348-11.663,11.356-23.648,7.681c-11.917-3.447-22.275-24.648-2.641-36.484
					c-12.068,8.773-10.951,30.102,6.69,33.937C65.151,50.011,70.679,41.883,70.679,41.883z"/>
				<path fill="#20AD8A" d="M44.39,13.079c19.226-11.773,42.638,5.185,45.882,8.151c-8.95-30.214-49.537-25.612-56.525-2.289
					c-4.965,16.243,6.093,26.085,6.093,26.085S22.743,27.577,44.39,13.079z"/>
				<path fill="#FFC06C" d="M48.828,34.965c0,0-5.792-9.435,4.434-15.251c11.177-5.063,17.705,4.362,18.839,8.313
					c0,0-5.783-11.429-18.187-6.458C43.899,27.001,48.828,34.965,48.828,34.965z"/>
				<path fill="#3F4D55" d="M62.85,0.062c10.239-0.281,37.328,8.02,49.6,31.825l-1.502,14.545c0,0-7.862-15.5-20.675-25.202
					C89.638,19.423,84.965,0.923,62.85,0.062"/>
				<path fill="#5D5D5D" d="M63.255,28.352c-0.101-0.186-0.211-0.368-0.33-0.548c0.05,0.072,0.098,0.145,0.144,0.219
					C63.134,28.132,63.195,28.241,63.255,28.352z"/>
			</g>
		</g>
		<g>
			<path fill="#20AD8A" d="M22.493,80.253c-0.138,0-0.256-0.04-0.356-0.121c-0.099-0.081-0.149-0.177-0.149-0.289v-5.831h0.005
				c-0.003-0.198-0.095-0.371-0.274-0.519c-0.179-0.146-0.391-0.22-0.635-0.222h-0.029c-0.247,0-0.458,0.073-0.634,0.218
				c-0.176,0.143-0.266,0.317-0.269,0.523v5.831c0,0.112-0.05,0.208-0.149,0.289c-0.099,0.081-0.218,0.121-0.356,0.121
				c-0.138,0-0.255-0.04-0.351-0.121c-0.099-0.081-0.149-0.177-0.149-0.289v-5.827l0.005-0.047c0.016-0.413,0.203-0.766,0.562-1.057
				c0.372-0.302,0.817-0.455,1.336-0.46h0.024l0.067,0.004c0.503,0.013,0.933,0.168,1.288,0.464c0.029,0.023,0.056,0.047,0.082,0.07
				c0.029-0.029,0.059-0.056,0.091-0.082c0.368-0.299,0.814-0.451,1.336-0.456h0.024l0.062,0.004
				c0.503,0.013,0.934,0.168,1.293,0.464c0.369,0.302,0.554,0.664,0.558,1.088v5.834c0,0.112-0.048,0.208-0.144,0.289
				c-0.099,0.081-0.218,0.121-0.356,0.121c-0.138,0-0.257-0.04-0.356-0.121c-0.096-0.081-0.144-0.177-0.144-0.289v-5.834
				c-0.003-0.195-0.093-0.367-0.269-0.515c-0.179-0.146-0.393-0.22-0.639-0.222l-0.029-0.004c-0.244,0.003-0.455,0.077-0.635,0.222
				c-0.176,0.143-0.266,0.317-0.269,0.523v5.831c0,0.112-0.05,0.208-0.149,0.289c-0.096,0.081-0.213,0.121-0.351,0.121H22.493z"/>
			<path fill="#20AD8A" d="M32.262,78.693c0.003,0.205,0.093,0.38,0.269,0.523c0.176,0.143,0.388,0.216,0.634,0.218h0.029
				c0.243-0.003,0.455-0.078,0.635-0.226c0.179-0.146,0.271-0.317,0.274-0.515h-0.005v-5.831c0-0.114,0.05-0.211,0.149-0.289
				c0.099-0.081,0.218-0.121,0.356-0.121c0.138,0,0.255,0.04,0.351,0.121c0.099,0.078,0.149,0.174,0.149,0.289v5.831v0.004
				c-0.006,0.421-0.194,0.784-0.562,1.088c-0.356,0.296-0.785,0.451-1.288,0.464l-0.067,0.004h-0.019v-0.004H33.16
				c-0.519-0.003-0.965-0.155-1.336-0.456c-0.359-0.291-0.546-0.643-0.562-1.057l-0.005-0.047v-5.827
				c0-0.114,0.05-0.211,0.149-0.289c0.096-0.081,0.213-0.121,0.351-0.121c0.138,0,0.256,0.04,0.356,0.121
				c0.099,0.078,0.149,0.174,0.149,0.289V78.693z"/>
			<path fill="#20AD8A" d="M44.357,74.028c0,0.112-0.05,0.208-0.149,0.289c-0.096,0.081-0.215,0.121-0.356,0.121
				c-0.138,0-0.256-0.04-0.356-0.121c-0.099-0.081-0.149-0.177-0.149-0.289V74.02v-0.008v-0.012
				c-0.007-0.198-0.098-0.367-0.274-0.507c-0.18-0.146-0.393-0.22-0.639-0.222H42.41c-0.253,0.005-0.468,0.081-0.644,0.226
				c-0.18,0.146-0.271,0.318-0.274,0.519v0.012c0,0.309,0.12,0.604,0.361,0.885c0.144,0.166,0.413,0.4,0.808,0.702
				c0.615,0.473,1.035,0.868,1.259,1.186c0.372,0.536,0.518,1.165,0.438,1.888v0.004v0.012c-0.01,0.419-0.199,0.779-0.567,1.08
				c-0.362,0.296-0.793,0.452-1.293,0.468h-0.072h-0.019h-0.005c-0.522-0.005-0.971-0.159-1.346-0.46
				c-0.359-0.291-0.548-0.643-0.567-1.057l-0.005-0.051v-0.004c0-0.114,0.05-0.212,0.149-0.292c0.099-0.081,0.218-0.121,0.356-0.121
				c0.141,0,0.26,0.04,0.356,0.121c0.099,0.081,0.149,0.178,0.149,0.292v0.012c0.003,0.203,0.094,0.376,0.274,0.519
				c0.179,0.146,0.392,0.22,0.639,0.222h0.019h0.014h0.014c0.24-0.008,0.449-0.083,0.625-0.226c0.179-0.146,0.269-0.317,0.269-0.515
				v-0.012l0.005-0.055c0.064-0.551-0.056-1.039-0.361-1.462c-0.183-0.25-0.524-0.567-1.024-0.952
				c-0.5-0.385-0.843-0.69-1.029-0.917c-0.305-0.38-0.457-0.802-0.457-1.267v-0.012h0.005l-0.005-0.004
				c0.006-0.424,0.194-0.788,0.562-1.092h0.005c0.359-0.296,0.795-0.451,1.308-0.464l0.058-0.004h0.019v0.004l0.005-0.004
				c0.522,0.005,0.971,0.159,1.346,0.46c0.362,0.294,0.553,0.645,0.572,1.053v0.055V74.028z"/>
			<path fill="#20AD8A" d="M49.857,74.016l0.005-0.047c0.016-0.413,0.205-0.766,0.567-1.057c0.372-0.302,0.82-0.455,1.346-0.46
				h0.005h0.024l0.077,0.004c0.26,0.011,0.506,0.06,0.74,0.148l0.024,0.012l0.019,0.008l0.005,0.004l0.106,0.047l0.024,0.012
				l0.019,0.008l0.005,0.004c0.285,0.146,0.508,0.338,0.668,0.577c0.067,0.099,0.08,0.203,0.038,0.312
				c-0.038,0.107-0.119,0.187-0.24,0.242c-0.122,0.055-0.248,0.065-0.38,0.031c-0.135-0.031-0.236-0.096-0.303-0.195
				c-0.077-0.117-0.186-0.211-0.327-0.281l-0.091-0.039v-0.004c-0.119-0.044-0.245-0.068-0.38-0.07H51.78
				c-0.25,0-0.463,0.073-0.639,0.218c-0.18,0.143-0.271,0.317-0.274,0.523v4.68c0.003,0.203,0.094,0.377,0.274,0.523
				c0.179,0.146,0.392,0.218,0.639,0.218h0.024h0.014h0.014c0.119-0.003,0.237-0.027,0.356-0.074l0.106-0.047h0.005
				c0.128-0.067,0.231-0.159,0.308-0.273c0.067-0.099,0.168-0.165,0.303-0.199c0.131-0.031,0.258-0.019,0.38,0.035
				c0.122,0.055,0.202,0.135,0.24,0.242c0.042,0.109,0.029,0.213-0.038,0.312c-0.16,0.237-0.378,0.428-0.654,0.573l-0.062,0.027
				l-0.072,0.031c-0.013,0.008-0.04,0.021-0.082,0.039c-0.24,0.091-0.489,0.14-0.745,0.148l-0.072,0.004H51.78v-0.004h-0.005
				c-0.526-0.003-0.974-0.155-1.346-0.456c-0.359-0.291-0.548-0.642-0.567-1.053l-0.005-0.051V74.016z M50.843,76.782
				c-0.138,0-0.256-0.04-0.356-0.121c-0.099-0.078-0.149-0.174-0.149-0.289c0-0.114,0.05-0.211,0.149-0.289
				c0.099-0.081,0.218-0.121,0.356-0.121h1.908c0.138,0,0.256,0.04,0.356,0.121c0.099,0.078,0.149,0.174,0.149,0.289
				c0,0.114-0.05,0.211-0.149,0.289c-0.099,0.081-0.218,0.121-0.356,0.121H50.843z"/>
			<path fill="#20AD8A" d="M62.318,80.253c-0.138,0-0.256-0.04-0.356-0.121c-0.099-0.081-0.149-0.177-0.149-0.289v-5.831h0.005
				c-0.003-0.198-0.095-0.371-0.274-0.519c-0.179-0.146-0.391-0.22-0.635-0.222h-0.029c-0.247,0-0.458,0.073-0.634,0.218
				c-0.176,0.143-0.266,0.317-0.269,0.523v5.831c0,0.112-0.05,0.208-0.149,0.289c-0.099,0.081-0.218,0.121-0.356,0.121
				s-0.255-0.04-0.351-0.121c-0.099-0.081-0.149-0.177-0.149-0.289v-5.827l0.005-0.047c0.016-0.413,0.203-0.766,0.562-1.057
				c0.372-0.302,0.817-0.455,1.336-0.46H60.9l0.067,0.004c0.503,0.013,0.933,0.168,1.288,0.464c0.029,0.023,0.056,0.047,0.082,0.07
				c0.029-0.029,0.059-0.056,0.091-0.082c0.368-0.299,0.814-0.451,1.336-0.456h0.024l0.062,0.004
				c0.503,0.013,0.934,0.168,1.293,0.464c0.369,0.302,0.554,0.664,0.558,1.088v5.834c0,0.112-0.048,0.208-0.144,0.289
				c-0.099,0.081-0.218,0.121-0.356,0.121c-0.138,0-0.256-0.04-0.356-0.121c-0.096-0.081-0.144-0.177-0.144-0.289v-5.834
				c-0.003-0.195-0.093-0.367-0.269-0.515c-0.179-0.146-0.393-0.22-0.639-0.222l-0.029-0.004c-0.244,0.003-0.455,0.077-0.635,0.222
				c-0.176,0.143-0.266,0.317-0.269,0.523v5.831c0,0.112-0.05,0.208-0.149,0.289c-0.096,0.081-0.213,0.121-0.351,0.121H62.318z"/>
			<path fill="#20AD8A" d="M71.082,74.016l0.005-0.047c0.016-0.413,0.205-0.766,0.567-1.057c0.372-0.302,0.82-0.455,1.346-0.46
				h0.005h0.024l0.077,0.004c0.26,0.011,0.506,0.06,0.74,0.148l0.024,0.012l0.019,0.008l0.005,0.004L74,72.675l0.024,0.012
				l0.019,0.008l0.005,0.004c0.285,0.146,0.508,0.338,0.668,0.577c0.067,0.099,0.08,0.203,0.038,0.312
				c-0.038,0.107-0.119,0.187-0.24,0.242c-0.122,0.055-0.248,0.065-0.38,0.031c-0.135-0.031-0.236-0.096-0.303-0.195
				c-0.077-0.117-0.186-0.211-0.327-0.281l-0.091-0.039v-0.004c-0.119-0.044-0.245-0.068-0.38-0.07h-0.029
				c-0.25,0-0.463,0.073-0.639,0.218c-0.18,0.143-0.271,0.317-0.274,0.523v4.68c0.003,0.203,0.094,0.377,0.274,0.523
				c0.179,0.146,0.392,0.218,0.639,0.218h0.024h0.014h0.014c0.119-0.003,0.237-0.027,0.356-0.074l0.106-0.047h0.005
				c0.128-0.067,0.231-0.159,0.308-0.273c0.067-0.099,0.168-0.165,0.303-0.199c0.131-0.031,0.258-0.019,0.38,0.035
				c0.122,0.055,0.202,0.135,0.24,0.242c0.042,0.109,0.029,0.213-0.038,0.312c-0.16,0.237-0.378,0.428-0.654,0.573L74,80.03
				l-0.072,0.031c-0.013,0.008-0.04,0.021-0.082,0.039c-0.24,0.091-0.489,0.14-0.745,0.148l-0.072,0.004h-0.024v-0.004h-0.005
				c-0.526-0.003-0.974-0.155-1.346-0.456c-0.359-0.291-0.548-0.642-0.567-1.053l-0.005-0.051V74.016z M72.068,76.782
				c-0.138,0-0.256-0.04-0.356-0.121c-0.099-0.078-0.149-0.174-0.149-0.289c0-0.114,0.05-0.211,0.149-0.289
				c0.099-0.081,0.218-0.121,0.356-0.121h1.908c0.138,0,0.256,0.04,0.356,0.121c0.099,0.078,0.149,0.174,0.149,0.289
				c0,0.114-0.05,0.211-0.149,0.289c-0.099,0.081-0.218,0.121-0.356,0.121H72.068z"/>
			<path fill="#20AD8A" d="M81.202,79.843c0,0.112-0.05,0.208-0.149,0.289c-0.099,0.081-0.218,0.121-0.356,0.121
				c-0.138,0-0.255-0.04-0.351-0.121c-0.099-0.081-0.149-0.177-0.149-0.289v-5.827l0.005-0.047c0.016-0.413,0.203-0.766,0.562-1.057
				c0.372-0.302,0.817-0.455,1.336-0.46h0.005h0.019l0.067,0.004c0.503,0.013,0.933,0.168,1.288,0.464
				c0.368,0.304,0.556,0.667,0.562,1.088v0.004v5.831c0,0.112-0.05,0.208-0.149,0.289c-0.096,0.081-0.213,0.121-0.351,0.121
				c-0.138,0-0.256-0.04-0.356-0.121c-0.099-0.081-0.149-0.177-0.149-0.289v-5.831h0.005c-0.003-0.198-0.095-0.371-0.274-0.519
				c-0.179-0.146-0.391-0.22-0.635-0.222h-0.029c-0.247,0-0.458,0.073-0.634,0.218c-0.176,0.143-0.266,0.317-0.269,0.523V79.843z"/>
			<path fill="#20AD8A" d="M92.798,72.452c0.138,0,0.256,0.04,0.356,0.121c0.099,0.081,0.149,0.177,0.149,0.289
				c0,0.114-0.05,0.212-0.149,0.293c-0.099,0.078-0.218,0.117-0.356,0.117h-0.933v6.572c0,0.112-0.05,0.208-0.149,0.289
				c-0.096,0.081-0.215,0.121-0.356,0.121c-0.138,0-0.256-0.04-0.356-0.121c-0.099-0.081-0.149-0.177-0.149-0.289v-6.572h-0.928
				c-0.138,0-0.256-0.039-0.356-0.117c-0.099-0.081-0.149-0.178-0.149-0.293c0-0.112,0.05-0.208,0.149-0.289
				c0.099-0.081,0.218-0.121,0.356-0.121H92.798z"/>
		</g>
	</g>
</g>
<g id="Layer_2">
</g>
</svg>
