<?xml version="1.0" encoding="utf-8"?>
<!-- Generator: Adobe Illustrator 17.0.0, SVG Export Plug-In . SVG Version: 6.00 Build 0)  -->
<!DOCTYPE svg PUBLIC "-//W3C//DTD SVG 1.1//EN" "http://www.w3.org/Graphics/SVG/1.1/DTD/svg11.dtd">
<svg version="1.1" xmlns="http://www.w3.org/2000/svg" xmlns:xlink="http://www.w3.org/1999/xlink" x="0px" y="0px"
	 width="113.049px" height="104.867px" viewBox="0 0 113.049 104.867" enable-background="new 0 0 113.049 104.867"
	 xml:space="preserve">
<g id="Layer_1">
	<g>
		<defs>
			<rect id="SVGID_1_" x="285.21" y="-135.207" width="918" height="768"/>
		</defs>
		<clipPath id="SVGID_2_">
			<use xlink:href="#SVGID_1_"  overflow="visible"/>
		</clipPath>
	</g>
	<rect x="-162.79" y="-136.207" fill="#FFFFFF" width="448" height="770"/>
	<g>
		<g>
			<g>
				<path fill="#EAEDF4" d="M40.186,24.211c0.313-1.344,3.752-12.929,21.018-8.691c-8.816-0.635-13.013,4.538-14.179,6.34
					c-2.692,4.212-2.717,9.813,0.37,14.13c3.233,4.519,9.519,5.563,14.038,2.33c2.987-2.136,4.071-5.944,2.889-9.239
					c0.353,0.948,0.543,1.956,0.543,2.999c0,5.637-5.513,10.207-12.313,10.207c-5.817,0-10.46-3.279-12.205-7.743
					c-0.295-0.753-0.506-1.541-0.627-2.352c0-0.002,0-0.006-0.002-0.008c-0.203-0.832-0.358-2.593-0.238-4.26
					C39.552,26.235,40.069,24.714,40.186,24.211z"/>
				<path fill="#ADE9E9" d="M41.771,20.689c3.066-5.348,11.663-11.356,23.648-7.681c11.917,3.447,22.275,24.648,2.641,36.484
					c12.068-8.773,10.951-30.102-6.69-33.937C47.298,12.56,41.771,20.689,41.771,20.689z"/>
				<path fill="#20AD8A" d="M68.059,49.492c-19.226,11.773-42.638-5.185-45.882-8.151c8.95,30.214,49.537,25.612,56.525,2.289
					c4.965-16.243-6.093-26.085-6.093-26.085S89.707,34.995,68.059,49.492z"/>
				<path fill="#FFC06C" d="M63.621,27.606c0,0,5.792,9.435-4.434,15.251c-11.177,5.063-17.705-4.362-18.839-8.313
					c0,0,5.783,11.429,18.187,6.458C68.55,35.571,63.621,27.606,63.621,27.606z"/>
				<path fill="#3F4D55" d="M49.6,62.51C39.361,62.791,12.272,54.49,0,30.685L1.502,16.14c0,0,7.862,15.5,20.675,25.202
					C22.812,43.149,27.484,61.648,49.6,62.51"/>
				<path fill="#5D5D5D" d="M49.195,34.22c0.101,0.186,0.211,0.368,0.33,0.548c-0.05-0.072-0.098-0.145-0.144-0.219
					C49.316,34.44,49.254,34.33,49.195,34.22z"/>
			</g>
			<g>
				<path fill="#EAEDF4" d="M72.264,38.361c-0.313,1.344-3.752,12.928-21.018,8.691c8.816,0.635,13.013-4.538,14.179-6.34
					c2.692-4.212,2.717-9.813-0.37-14.13c-3.233-4.519-9.519-5.563-14.038-2.33c-2.987,2.136-4.071,5.944-2.889,9.239
					c-0.353-0.948-0.543-1.956-0.543-2.999c0-5.637,5.513-10.207,12.313-10.207c5.817,0,10.46,3.279,12.205,7.743
					c0.295,0.753,0.506,1.541,0.627,2.352c0,0.002,0,0.006,0.002,0.008c0.203,0.832,0.358,2.593,0.238,4.26
					C72.897,36.337,72.381,37.858,72.264,38.361z"/>
				<path fill="#ADE9E9" d="M70.679,41.883c-3.066,5.348-11.663,11.356-23.648,7.681c-11.917-3.447-22.275-24.648-2.641-36.484
					c-12.068,8.773-10.951,30.102,6.69,33.937C65.151,50.011,70.679,41.883,70.679,41.883z"/>
				<path fill="#20AD8A" d="M44.39,13.079c19.226-11.773,42.638,5.185,45.882,8.151c-8.95-30.214-49.537-25.612-56.525-2.289
					c-4.965,16.243,6.093,26.085,6.093,26.085S22.743,27.577,44.39,13.079z"/>
				<path fill="#FFC06C" d="M48.828,34.965c0,0-5.792-9.435,4.434-15.251c11.177-5.063,17.705,4.362,18.839,8.313
					c0,0-5.783-11.429-18.187-6.458C43.899,27.001,48.828,34.965,48.828,34.965z"/>
				<path fill="#3F4D55" d="M62.85,0.062c10.239-0.281,37.328,8.02,49.6,31.825l-1.502,14.545c0,0-7.862-15.5-20.675-25.202
					C89.638,19.423,84.965,0.923,62.85,0.062"/>
				<path fill="#5D5D5D" d="M63.255,28.352c-0.101-0.186-0.211-0.368-0.33-0.548c0.05,0.072,0.098,0.145,0.144,0.219
					C63.134,28.132,63.195,28.241,63.255,28.352z"/>
			</g>
		</g>
		<g>
			<path fill="#20AD8A" d="M5.926,86.256c-0.208,0-0.388-0.061-0.538-0.183c-0.15-0.122-0.225-0.267-0.225-0.437v-8.821H5.17
				c-0.005-0.299-0.143-0.561-0.414-0.785c-0.272-0.22-0.592-0.332-0.96-0.336H3.752c-0.373,0-0.693,0.11-0.96,0.33
				c-0.267,0.216-0.403,0.48-0.407,0.791v8.821c0,0.169-0.075,0.315-0.226,0.437c-0.15,0.122-0.33,0.183-0.538,0.183
				s-0.385-0.061-0.531-0.183c-0.15-0.122-0.225-0.267-0.225-0.437v-8.815l0.007-0.071c0.024-0.625,0.308-1.158,0.851-1.599
				c0.562-0.456,1.236-0.688,2.022-0.696h0.036l0.102,0.006c0.761,0.02,1.411,0.254,1.949,0.702
				c0.044,0.035,0.085,0.071,0.124,0.106c0.044-0.043,0.09-0.085,0.138-0.124c0.557-0.452,1.231-0.682,2.022-0.69h0.036l0.095,0.006
				c0.761,0.02,1.413,0.254,1.956,0.702c0.557,0.456,0.839,1.005,0.844,1.646v8.826c0,0.169-0.073,0.315-0.218,0.437
				c-0.15,0.122-0.33,0.183-0.538,0.183c-0.209,0-0.388-0.061-0.538-0.183c-0.145-0.122-0.218-0.267-0.218-0.437V76.81
				c-0.005-0.295-0.141-0.555-0.407-0.779c-0.272-0.22-0.594-0.332-0.967-0.336l-0.044-0.006c-0.368,0.004-0.688,0.116-0.96,0.336
				c-0.267,0.216-0.402,0.48-0.407,0.791v8.821c0,0.169-0.075,0.315-0.225,0.437c-0.145,0.122-0.322,0.183-0.531,0.183H5.926z"/>
			<path fill="#20AD8A" d="M20.705,83.896c0.005,0.311,0.141,0.574,0.407,0.791c0.266,0.216,0.587,0.326,0.96,0.33h0.044
				c0.368-0.004,0.688-0.118,0.96-0.342c0.271-0.22,0.41-0.48,0.414-0.779h-0.007v-8.821c0-0.173,0.075-0.319,0.225-0.437
				c0.15-0.122,0.33-0.183,0.538-0.183c0.208,0,0.385,0.061,0.531,0.183c0.15,0.118,0.225,0.264,0.225,0.437v8.821v0.006
				c-0.01,0.637-0.293,1.186-0.851,1.646c-0.538,0.448-1.188,0.682-1.949,0.702l-0.102,0.006h-0.029V86.25h-0.007
				c-0.785-0.004-1.459-0.234-2.022-0.69c-0.543-0.44-0.827-0.973-0.851-1.599l-0.007-0.071v-8.815c0-0.173,0.075-0.319,0.225-0.437
				c0.145-0.122,0.322-0.183,0.531-0.183c0.208,0,0.388,0.061,0.538,0.183c0.15,0.118,0.226,0.264,0.226,0.437V83.896z"/>
			<path fill="#20AD8A" d="M39.003,76.839c0,0.169-0.075,0.315-0.226,0.437c-0.145,0.122-0.325,0.183-0.538,0.183
				c-0.209,0-0.388-0.061-0.538-0.183c-0.15-0.122-0.225-0.267-0.225-0.437v-0.012v-0.012v-0.018
				c-0.01-0.299-0.148-0.555-0.415-0.767c-0.272-0.22-0.594-0.332-0.967-0.336h-0.036c-0.383,0.008-0.708,0.122-0.974,0.342
				c-0.272,0.22-0.41,0.482-0.415,0.785v0.018c0,0.468,0.182,0.914,0.545,1.339c0.218,0.252,0.625,0.606,1.222,1.062
				c0.931,0.716,1.566,1.314,1.905,1.794c0.562,0.81,0.783,1.762,0.662,2.856v0.006v0.018c-0.015,0.633-0.301,1.178-0.858,1.634
				c-0.548,0.448-1.2,0.684-1.956,0.708h-0.109H36.05h-0.007c-0.79-0.008-1.469-0.24-2.036-0.696
				c-0.543-0.44-0.829-0.973-0.858-1.599l-0.007-0.077v-0.006c0-0.173,0.075-0.32,0.225-0.442c0.15-0.122,0.33-0.183,0.538-0.183
				c0.213,0,0.393,0.061,0.538,0.183c0.15,0.122,0.225,0.269,0.225,0.442v0.018c0.005,0.307,0.143,0.568,0.415,0.785
				c0.271,0.22,0.594,0.332,0.967,0.336h0.029h0.022h0.022c0.364-0.012,0.679-0.126,0.945-0.342c0.271-0.22,0.407-0.48,0.407-0.779
				v-0.018l0.007-0.083c0.097-0.834-0.085-1.571-0.545-2.212c-0.276-0.378-0.793-0.858-1.549-1.44
				c-0.756-0.582-1.275-1.044-1.556-1.387c-0.461-0.574-0.691-1.213-0.691-1.917v-0.018h0.007l-0.007-0.006
				c0.01-0.641,0.293-1.192,0.851-1.652H34c0.543-0.448,1.202-0.682,1.978-0.702l0.087-0.006h0.029v0.006l0.007-0.006
				c0.79,0.008,1.469,0.24,2.036,0.696c0.548,0.444,0.836,0.976,0.865,1.593v0.083V76.839z"/>
			<path fill="#20AD8A" d="M47.324,76.822l0.007-0.071c0.024-0.625,0.31-1.158,0.858-1.599c0.562-0.456,1.241-0.688,2.036-0.696
				h0.007h0.036l0.116,0.006c0.393,0.016,0.766,0.091,1.12,0.224l0.036,0.018l0.029,0.012l0.007,0.006l0.16,0.071l0.036,0.018
				l0.029,0.012l0.007,0.006c0.432,0.22,0.768,0.511,1.011,0.873c0.102,0.15,0.121,0.307,0.058,0.472
				c-0.058,0.161-0.179,0.283-0.364,0.366c-0.184,0.083-0.376,0.098-0.575,0.047c-0.204-0.047-0.356-0.146-0.458-0.295
				c-0.116-0.177-0.281-0.319-0.494-0.425l-0.138-0.059v-0.006c-0.179-0.067-0.371-0.102-0.575-0.106h-0.044
				c-0.378,0-0.701,0.11-0.967,0.33c-0.272,0.216-0.41,0.48-0.415,0.791v7.08c0.005,0.307,0.143,0.57,0.415,0.791
				c0.271,0.22,0.594,0.33,0.967,0.33h0.036h0.022h0.022c0.179-0.004,0.359-0.041,0.538-0.112l0.16-0.071h0.007
				c0.194-0.102,0.349-0.24,0.465-0.413c0.102-0.149,0.255-0.25,0.458-0.301c0.199-0.047,0.39-0.029,0.575,0.053
				c0.184,0.083,0.305,0.205,0.364,0.366c0.063,0.165,0.044,0.323-0.058,0.472c-0.242,0.358-0.572,0.647-0.989,0.867l-0.095,0.041
				l-0.109,0.047c-0.019,0.012-0.061,0.032-0.124,0.059c-0.364,0.138-0.739,0.212-1.127,0.224l-0.109,0.006h-0.036V86.25h-0.007
				c-0.795-0.004-1.474-0.234-2.036-0.69c-0.543-0.44-0.829-0.971-0.858-1.593l-0.007-0.077V76.822z M48.815,81.005
				c-0.208,0-0.388-0.061-0.538-0.183c-0.15-0.118-0.225-0.263-0.225-0.437c0-0.173,0.075-0.319,0.225-0.437
				c0.15-0.122,0.33-0.183,0.538-0.183h2.887c0.208,0,0.388,0.061,0.538,0.183c0.15,0.118,0.225,0.264,0.225,0.437
				c0,0.173-0.075,0.319-0.225,0.437c-0.15,0.122-0.33,0.183-0.538,0.183H48.815z"/>
			<path fill="#20AD8A" d="M66.175,86.256c-0.209,0-0.388-0.061-0.538-0.183c-0.15-0.122-0.225-0.267-0.225-0.437v-8.821h0.007
				c-0.005-0.299-0.143-0.561-0.414-0.785c-0.272-0.22-0.592-0.332-0.96-0.336H64c-0.373,0-0.693,0.11-0.96,0.33
				c-0.267,0.216-0.403,0.48-0.407,0.791v8.821c0,0.169-0.075,0.315-0.226,0.437c-0.15,0.122-0.33,0.183-0.538,0.183
				c-0.208,0-0.385-0.061-0.531-0.183c-0.15-0.122-0.225-0.267-0.225-0.437v-8.815l0.007-0.071c0.024-0.625,0.308-1.158,0.851-1.599
				c0.562-0.456,1.236-0.688,2.022-0.696h0.036l0.102,0.006c0.761,0.02,1.411,0.254,1.949,0.702
				c0.044,0.035,0.085,0.071,0.124,0.106c0.044-0.043,0.09-0.085,0.138-0.124c0.557-0.452,1.231-0.682,2.022-0.69H68.4l0.095,0.006
				c0.761,0.02,1.413,0.254,1.956,0.702c0.557,0.456,0.839,1.005,0.844,1.646v8.826c0,0.169-0.073,0.315-0.218,0.437
				c-0.15,0.122-0.33,0.183-0.538,0.183c-0.209,0-0.388-0.061-0.538-0.183c-0.145-0.122-0.218-0.267-0.218-0.437V76.81
				c-0.005-0.295-0.141-0.555-0.407-0.779c-0.272-0.22-0.594-0.332-0.967-0.336l-0.044-0.006c-0.368,0.004-0.688,0.116-0.96,0.336
				c-0.267,0.216-0.402,0.48-0.407,0.791v8.821c0,0.169-0.075,0.315-0.225,0.437c-0.145,0.122-0.322,0.183-0.531,0.183H66.175z"/>
			<path fill="#20AD8A" d="M79.434,76.822l0.007-0.071c0.024-0.625,0.31-1.158,0.858-1.599c0.562-0.456,1.241-0.688,2.036-0.696
				h0.007h0.036l0.116,0.006c0.393,0.016,0.766,0.091,1.12,0.224l0.036,0.018l0.029,0.012l0.007,0.006l0.16,0.071l0.036,0.018
				l0.029,0.012l0.007,0.006c0.432,0.22,0.768,0.511,1.011,0.873c0.102,0.15,0.121,0.307,0.058,0.472
				c-0.058,0.161-0.179,0.283-0.364,0.366c-0.184,0.083-0.376,0.098-0.575,0.047c-0.204-0.047-0.356-0.146-0.458-0.295
				c-0.116-0.177-0.281-0.319-0.494-0.425l-0.138-0.059v-0.006c-0.179-0.067-0.371-0.102-0.575-0.106h-0.044
				c-0.378,0-0.701,0.11-0.967,0.33c-0.272,0.216-0.41,0.48-0.415,0.791v7.08c0.005,0.307,0.143,0.57,0.415,0.791
				c0.271,0.22,0.594,0.33,0.967,0.33h0.036h0.022h0.022c0.179-0.004,0.359-0.041,0.538-0.112l0.16-0.071h0.007
				c0.194-0.102,0.349-0.24,0.465-0.413c0.102-0.149,0.255-0.25,0.458-0.301c0.199-0.047,0.39-0.029,0.575,0.053
				c0.184,0.083,0.305,0.205,0.364,0.366c0.063,0.165,0.044,0.323-0.058,0.472c-0.242,0.358-0.572,0.647-0.989,0.867l-0.095,0.041
				l-0.109,0.047c-0.019,0.012-0.061,0.032-0.124,0.059c-0.364,0.138-0.739,0.212-1.127,0.224l-0.109,0.006h-0.036V86.25h-0.007
				c-0.795-0.004-1.474-0.234-2.036-0.69c-0.543-0.44-0.829-0.971-0.858-1.593l-0.007-0.077V76.822z M80.924,81.005
				c-0.209,0-0.388-0.061-0.538-0.183c-0.15-0.118-0.225-0.263-0.225-0.437c0-0.173,0.075-0.319,0.225-0.437
				c0.15-0.122,0.33-0.183,0.538-0.183h2.887c0.208,0,0.388,0.061,0.538,0.183c0.15,0.118,0.225,0.264,0.225,0.437
				c0,0.173-0.075,0.319-0.225,0.437c-0.15,0.122-0.33,0.183-0.538,0.183H80.924z"/>
			<path fill="#20AD8A" d="M94.743,85.636c0,0.169-0.075,0.315-0.226,0.437c-0.15,0.122-0.33,0.183-0.538,0.183
				c-0.208,0-0.385-0.061-0.531-0.183c-0.15-0.122-0.225-0.267-0.225-0.437v-8.815l0.007-0.071c0.024-0.625,0.308-1.158,0.851-1.599
				c0.562-0.456,1.236-0.688,2.022-0.696h0.007h0.029l0.102,0.006c0.761,0.02,1.411,0.254,1.949,0.702
				c0.557,0.46,0.841,1.009,0.851,1.646v0.006v8.821c0,0.169-0.075,0.315-0.225,0.437c-0.145,0.122-0.322,0.183-0.531,0.183
				c-0.208,0-0.388-0.061-0.538-0.183c-0.15-0.122-0.225-0.267-0.225-0.437v-8.821h0.007c-0.005-0.299-0.143-0.561-0.414-0.785
				c-0.272-0.22-0.592-0.332-0.96-0.336H96.11c-0.373,0-0.693,0.11-0.96,0.33c-0.267,0.216-0.403,0.48-0.407,0.791V85.636z"/>
			<path fill="#20AD8A" d="M112.285,74.456c0.208,0,0.388,0.061,0.538,0.183c0.15,0.122,0.225,0.268,0.225,0.437
				c0,0.173-0.075,0.321-0.225,0.443c-0.15,0.118-0.33,0.177-0.538,0.177h-1.411v9.942c0,0.169-0.075,0.315-0.225,0.437
				c-0.145,0.122-0.325,0.183-0.538,0.183c-0.208,0-0.388-0.061-0.538-0.183c-0.15-0.122-0.225-0.267-0.225-0.437v-9.942h-1.404
				c-0.208,0-0.388-0.059-0.538-0.177c-0.15-0.122-0.225-0.269-0.225-0.443c0-0.169,0.075-0.315,0.225-0.437
				c0.15-0.122,0.33-0.183,0.538-0.183H112.285z"/>
		</g>
		<g>
			<path fill="#FFC06C" d="M7.085,95.43l0.007-0.071c0.024-0.625,0.31-1.158,0.858-1.599c0.562-0.456,1.241-0.688,2.036-0.696h0.007
				h0.036l0.116,0.006c0.393,0.016,0.766,0.091,1.12,0.224l0.036,0.018l0.029,0.012l0.007,0.006l0.16,0.071l0.036,0.018l0.029,0.012
				l0.007,0.006c0.432,0.22,0.768,0.511,1.011,0.873c0.102,0.15,0.121,0.307,0.058,0.472c-0.058,0.161-0.179,0.283-0.364,0.366
				c-0.184,0.083-0.376,0.098-0.575,0.047c-0.204-0.047-0.356-0.146-0.458-0.295c-0.116-0.177-0.281-0.319-0.494-0.425l-0.138-0.059
				v-0.006c-0.179-0.067-0.371-0.102-0.575-0.106H9.994c-0.378,0-0.701,0.11-0.967,0.33c-0.272,0.216-0.41,0.48-0.415,0.791v7.08
				c0.005,0.307,0.143,0.57,0.415,0.791c0.271,0.22,0.594,0.33,0.967,0.33h0.036h0.022h0.022c0.179-0.004,0.359-0.041,0.538-0.112
				l0.16-0.071h0.007c0.194-0.102,0.349-0.24,0.465-0.413c0.102-0.149,0.255-0.25,0.458-0.301c0.199-0.047,0.39-0.029,0.575,0.053
				c0.184,0.083,0.305,0.205,0.364,0.366c0.063,0.165,0.044,0.323-0.058,0.472c-0.242,0.358-0.572,0.647-0.989,0.867l-0.095,0.041
				l-0.109,0.047c-0.019,0.012-0.061,0.032-0.124,0.059c-0.364,0.138-0.739,0.212-1.127,0.224l-0.109,0.006H9.994v-0.006H9.987
				c-0.795-0.004-1.474-0.234-2.036-0.69c-0.543-0.44-0.829-0.971-0.858-1.593l-0.007-0.077V95.43z"/>
			<path fill="#FFC06C" d="M20.812,93.064l0.102,0.006c0.761,0.02,1.411,0.252,1.949,0.696c0.557,0.46,0.841,1.011,0.851,1.652
				v0.006v7.062v0.089c-0.034,0.618-0.32,1.147-0.858,1.587l-0.065,0.053c-0.558,0.425-1.21,0.639-1.956,0.643h-0.007v0.006h-0.029
				l-0.102-0.006c-0.756-0.024-1.406-0.258-1.949-0.702c-0.558-0.46-0.841-1.011-0.851-1.652l0.007-0.006h-0.007v-7.062l0.007-0.077
				c0.024-0.625,0.308-1.16,0.851-1.605c0.562-0.456,1.236-0.686,2.022-0.69h0.007H20.812z M20.783,94.303
				c-0.373,0.004-0.693,0.114-0.96,0.33c-0.267,0.22-0.403,0.484-0.407,0.791v7.074h-0.007c0.005,0.303,0.14,0.564,0.407,0.785
				c0.262,0.216,0.577,0.33,0.945,0.342h0.015l0.022-0.006h0.029v0.006c0.354-0.004,0.662-0.106,0.924-0.307l0.036-0.035
				c0.262-0.216,0.4-0.47,0.414-0.761v-0.018l-0.007-0.018v-7.062h0.007c-0.005-0.303-0.141-0.564-0.407-0.785
				c-0.272-0.22-0.594-0.332-0.967-0.336H20.783z"/>
			<path fill="#FFC06C" d="M28.874,93.689c0-0.173,0.075-0.321,0.225-0.443c0.15-0.122,0.33-0.183,0.538-0.183
				c0.213,0,0.395,0.061,0.545,0.183c0.15,0.122,0.225,0.27,0.225,0.443v9.936h2.858c0.208,0,0.388,0.061,0.538,0.183
				c0.15,0.122,0.225,0.267,0.225,0.437c0,0.173-0.075,0.321-0.225,0.442c-0.15,0.118-0.33,0.177-0.538,0.177h-3.629
				c-0.208,0-0.388-0.059-0.538-0.177c-0.15-0.122-0.225-0.269-0.225-0.442V93.689z"/>
			<path fill="#FFC06C" d="M39.19,93.689c0-0.173,0.075-0.321,0.225-0.443c0.15-0.122,0.33-0.183,0.538-0.183
				c0.213,0,0.395,0.061,0.545,0.183c0.15,0.122,0.225,0.27,0.225,0.443v9.936h2.858c0.208,0,0.388,0.061,0.538,0.183
				c0.15,0.122,0.225,0.267,0.225,0.437c0,0.173-0.075,0.321-0.225,0.442c-0.15,0.118-0.33,0.177-0.538,0.177h-3.629
				c-0.208,0-0.388-0.059-0.538-0.177c-0.15-0.122-0.225-0.269-0.225-0.442V93.689z"/>
			<path fill="#FFC06C" d="M49.507,95.43l0.007-0.071c0.024-0.625,0.31-1.158,0.858-1.599c0.562-0.456,1.241-0.688,2.036-0.696
				h0.007h0.036l0.116,0.006c0.393,0.016,0.766,0.091,1.12,0.224l0.036,0.018l0.029,0.012l0.007,0.006l0.16,0.071l0.036,0.018
				l0.029,0.012l0.007,0.006c0.432,0.22,0.768,0.511,1.011,0.873c0.102,0.15,0.121,0.307,0.058,0.472
				c-0.058,0.161-0.179,0.283-0.364,0.366c-0.184,0.083-0.376,0.098-0.575,0.047c-0.204-0.047-0.356-0.146-0.458-0.295
				c-0.116-0.177-0.281-0.319-0.494-0.425l-0.138-0.059v-0.006c-0.179-0.067-0.371-0.102-0.575-0.106h-0.044
				c-0.378,0-0.701,0.11-0.967,0.33c-0.272,0.216-0.41,0.48-0.415,0.791v7.08c0.005,0.307,0.143,0.57,0.415,0.791
				c0.271,0.22,0.594,0.33,0.967,0.33h0.036h0.022h0.022c0.179-0.004,0.359-0.041,0.538-0.112l0.16-0.071h0.007
				c0.194-0.102,0.349-0.24,0.465-0.413c0.102-0.149,0.255-0.25,0.458-0.301c0.199-0.047,0.39-0.029,0.575,0.053
				c0.184,0.083,0.305,0.205,0.364,0.366c0.063,0.165,0.044,0.323-0.058,0.472c-0.242,0.358-0.572,0.647-0.989,0.867l-0.095,0.041
				l-0.109,0.047c-0.019,0.012-0.061,0.032-0.124,0.059c-0.364,0.138-0.739,0.212-1.127,0.224l-0.109,0.006h-0.036v-0.006h-0.007
				c-0.795-0.004-1.474-0.234-2.036-0.69c-0.543-0.44-0.829-0.971-0.858-1.593l-0.007-0.077V95.43z M50.998,99.613
				c-0.208,0-0.388-0.061-0.538-0.183c-0.15-0.118-0.225-0.263-0.225-0.437c0-0.173,0.075-0.319,0.225-0.437
				c0.15-0.122,0.33-0.183,0.538-0.183h2.887c0.208,0,0.388,0.061,0.538,0.183c0.15,0.118,0.225,0.264,0.225,0.437
				c0,0.173-0.075,0.319-0.225,0.437c-0.15,0.122-0.33,0.183-0.538,0.183H50.998z"/>
			<path fill="#FFC06C" d="M60.318,95.43l0.007-0.071c0.024-0.625,0.31-1.158,0.858-1.599c0.562-0.456,1.241-0.688,2.036-0.696
				h0.007h0.036l0.116,0.006c0.393,0.016,0.766,0.091,1.12,0.224l0.036,0.018l0.029,0.012l0.007,0.006l0.16,0.071l0.036,0.018
				l0.029,0.012l0.007,0.006c0.431,0.22,0.768,0.511,1.011,0.873c0.102,0.15,0.121,0.307,0.058,0.472
				c-0.058,0.161-0.179,0.283-0.364,0.366c-0.184,0.083-0.376,0.098-0.575,0.047c-0.204-0.047-0.356-0.146-0.458-0.295
				c-0.116-0.177-0.281-0.319-0.494-0.425l-0.138-0.059v-0.006c-0.179-0.067-0.371-0.102-0.575-0.106h-0.044
				c-0.378,0-0.701,0.11-0.967,0.33c-0.272,0.216-0.41,0.48-0.415,0.791v7.08c0.005,0.307,0.143,0.57,0.415,0.791
				c0.271,0.22,0.594,0.33,0.967,0.33h0.036h0.022h0.022c0.179-0.004,0.359-0.041,0.538-0.112l0.16-0.071h0.007
				c0.194-0.102,0.349-0.24,0.465-0.413c0.102-0.149,0.255-0.25,0.458-0.301c0.199-0.047,0.39-0.029,0.575,0.053
				c0.184,0.083,0.305,0.205,0.364,0.366c0.063,0.165,0.044,0.323-0.058,0.472c-0.242,0.358-0.572,0.647-0.989,0.867l-0.095,0.041
				l-0.109,0.047c-0.019,0.012-0.061,0.032-0.124,0.059c-0.364,0.138-0.739,0.212-1.127,0.224l-0.109,0.006h-0.036v-0.006h-0.007
				c-0.795-0.004-1.474-0.234-2.036-0.69c-0.543-0.44-0.829-0.971-0.858-1.593l-0.007-0.077V95.43z"/>
			<path fill="#FFC06C" d="M76.234,93.064c0.208,0,0.388,0.061,0.538,0.183c0.15,0.122,0.225,0.268,0.225,0.437
				c0,0.173-0.075,0.321-0.225,0.443c-0.15,0.118-0.33,0.177-0.538,0.177h-1.411v9.942c0,0.169-0.075,0.315-0.225,0.437
				c-0.145,0.122-0.325,0.183-0.538,0.183c-0.208,0-0.388-0.061-0.538-0.183c-0.15-0.122-0.225-0.267-0.225-0.437v-9.942h-1.404
				c-0.208,0-0.388-0.059-0.538-0.177c-0.15-0.122-0.225-0.269-0.225-0.443c0-0.169,0.075-0.315,0.225-0.437
				c0.15-0.122,0.33-0.183,0.538-0.183H76.234z"/>
			<path fill="#FFC06C" d="M82.158,93.689c0-0.173,0.073-0.321,0.218-0.443c0.145-0.122,0.322-0.183,0.531-0.183
				c0.204,0,0.378,0.061,0.524,0.183c0.145,0.122,0.218,0.27,0.218,0.443v10.543c0,0.173-0.073,0.323-0.218,0.448
				c-0.145,0.122-0.32,0.183-0.524,0.183c-0.208,0-0.385-0.061-0.531-0.183c-0.145-0.126-0.218-0.275-0.218-0.448V93.689z"/>
			<path fill="#FFC06C" d="M88.976,93.353c0.116-0.145,0.276-0.236,0.48-0.271c0.204-0.035,0.395-0.008,0.575,0.083
				c0.179,0.091,0.291,0.22,0.334,0.389l2.153,7.841l2.145-7.841c0.044-0.169,0.155-0.299,0.334-0.389
				c0.179-0.09,0.371-0.118,0.575-0.083c0.208,0.035,0.368,0.126,0.48,0.271c0.111,0.146,0.145,0.301,0.102,0.466l-2.872,10.49
				c-0.039,0.295-0.24,0.476-0.604,0.543c-0.204,0.035-0.395,0.008-0.575-0.083c-0.179-0.094-0.291-0.224-0.334-0.389l-2.894-10.561
				C88.831,93.654,88.864,93.499,88.976,93.353z"/>
			<path fill="#FFC06C" d="M101.38,95.43l0.007-0.071c0.024-0.625,0.31-1.158,0.858-1.599c0.562-0.456,1.241-0.688,2.036-0.696
				h0.007h0.036l0.116,0.006c0.393,0.016,0.766,0.091,1.12,0.224l0.036,0.018l0.029,0.012l0.007,0.006l0.16,0.071l0.036,0.018
				l0.029,0.012l0.007,0.006c0.431,0.22,0.768,0.511,1.011,0.873c0.102,0.15,0.121,0.307,0.058,0.472
				c-0.058,0.161-0.179,0.283-0.364,0.366c-0.184,0.083-0.376,0.098-0.575,0.047c-0.204-0.047-0.356-0.146-0.458-0.295
				c-0.116-0.177-0.281-0.319-0.494-0.425l-0.138-0.059v-0.006c-0.179-0.067-0.371-0.102-0.575-0.106h-0.044
				c-0.378,0-0.701,0.11-0.967,0.33c-0.272,0.216-0.41,0.48-0.415,0.791v7.08c0.005,0.307,0.143,0.57,0.415,0.791
				c0.271,0.22,0.594,0.33,0.967,0.33h0.036h0.022h0.022c0.179-0.004,0.359-0.041,0.538-0.112l0.16-0.071h0.007
				c0.194-0.102,0.349-0.24,0.465-0.413c0.102-0.149,0.255-0.25,0.458-0.301c0.199-0.047,0.39-0.029,0.575,0.053
				c0.184,0.083,0.305,0.205,0.364,0.366c0.063,0.165,0.044,0.323-0.058,0.472c-0.242,0.358-0.572,0.647-0.989,0.867l-0.095,0.041
				l-0.109,0.047c-0.019,0.012-0.061,0.032-0.124,0.059c-0.364,0.138-0.739,0.212-1.127,0.224l-0.109,0.006h-0.036v-0.006h-0.007
				c-0.795-0.004-1.474-0.234-2.036-0.69c-0.543-0.44-0.829-0.971-0.858-1.593l-0.007-0.077V95.43z M102.87,99.613
				c-0.208,0-0.388-0.061-0.538-0.183c-0.15-0.118-0.225-0.263-0.225-0.437c0-0.173,0.075-0.319,0.225-0.437
				c0.15-0.122,0.33-0.183,0.538-0.183h2.887c0.208,0,0.388,0.061,0.538,0.183c0.15,0.118,0.225,0.264,0.225,0.437
				c0,0.173-0.075,0.319-0.225,0.437c-0.15,0.122-0.33,0.183-0.538,0.183H102.87z"/>
		</g>
	</g>
	<g>
		<defs>
			<rect id="SVGID_3_" x="1671.21" y="-135.207" width="918" height="768"/>
		</defs>
		<clipPath id="SVGID_4_">
			<use xlink:href="#SVGID_3_"  overflow="visible"/>
		</clipPath>
	</g>
	<g>
		<defs>
			<rect id="SVGID_135_" x="285.21" y="-136.207" width="918" height="768"/>
		</defs>
		<clipPath id="SVGID_6_">
			<use xlink:href="#SVGID_135_"  overflow="visible"/>
		</clipPath>
		<g transform="matrix(1 0 0 1 8.688462e-007 1.438557e-006)" clip-path="url(#SVGID_6_)">
			
				<image overflow="visible" width="3997" height="2665" xlink:href="E2BF4849.jpg"  transform="matrix(0.3082 0 0 0.3082 49.433 -163.9018)">
			</image>
		</g>
	</g>
</g>
<g id="Layer_2">
</g>
</svg>
