<?xml version="1.0" encoding="UTF-8" standalone="no"?>
<!DOCTYPE svg PUBLIC "-//W3C//DTD SVG 1.1//EN" "http://www.w3.org/Graphics/SVG/1.1/DTD/svg11.dtd">
<svg width="100%" height="100%" viewBox="0 0 77 77" version="1.1" xmlns="http://www.w3.org/2000/svg" xmlns:xlink="http://www.w3.org/1999/xlink" xml:space="preserve" style="fill-rule:evenodd;clip-rule:evenodd;stroke-linejoin:round;stroke-miterlimit:1.41421;">
    <path d="M73.011,24.667C72.838,26.587 72.572,28.519 73.632,30.262C74.357,31.455 75.031,32.679 75.769,33.863C77.58,36.769 77.526,39.614 75.765,42.556C74.664,44.395 73.459,46.293 72.944,48.326C72.46,50.239 72.848,52.366 72.799,54.397C72.756,56.15 72.145,57.749 70.861,58.923C69.84,59.857 68.599,60.555 67.432,61.321C66.557,61.895 65.656,62.432 64.746,62.948C63.226,63.809 62.733,65.42 61.885,66.775C61.07,68.074 60.336,69.443 59.378,70.629C58.104,72.206 56.251,72.694 54.289,72.766C52.447,72.833 50.507,72.528 48.787,73.013C46.782,73.578 44.893,74.7 43.092,75.807C41.12,77.018 39.085,77.379 37.002,76.555C35.006,75.765 33.161,74.603 31.205,73.702C30.275,73.274 29.257,72.9 28.25,72.806C26.207,72.613 24.139,72.689 22.09,72.539C19.896,72.377 18.324,71.135 17.179,69.327C15.982,67.436 15.066,65.293 13.569,63.688C12.248,62.272 10.352,61.343 8.606,60.388C6.665,59.325 5.116,57.947 4.614,55.779C4.292,54.388 4.175,52.877 4.338,51.462C4.68,48.475 3.765,45.939 2.148,43.522C0.996,41.8 -0.048,40.016 0.002,37.814C0.047,35.78 1.007,34.099 2.086,32.512C3.77,30.034 4.717,27.437 4.323,24.381C4.136,22.926 4.289,21.458 4.853,20.025C5.603,18.121 7.031,16.972 8.729,16.043C9.771,15.473 10.806,14.885 11.871,14.36C13.996,13.314 14.856,11.232 15.952,9.369C16.99,7.606 17.921,5.757 19.978,4.994C20.979,4.622 22.061,4.421 23.124,4.277C23.965,4.163 24.845,4.165 25.688,4.27C28.902,4.667 31.601,3.47 34.151,1.701C36.047,0.386 38.049,-0.312 40.462,0.134C42.242,0.464 43.619,1.439 45.046,2.336C47.062,3.603 49.118,4.44 51.566,4.285C53.074,4.189 54.64,4.207 56.111,4.511C58.178,4.937 59.937,6.011 60.98,7.978C61.603,9.152 62.25,10.315 62.828,11.511C63.83,13.58 65.805,14.42 67.669,15.374C69.73,16.428 71.588,17.727 72.294,20.009C72.754,21.494 72.787,23.11 73.011,24.667Z" style="fill:black;"/>
</svg>
