<svg xmlns="http://www.w3.org/2000/svg" viewBox="0 0 336 237.7"><style>.st0{opacity:.49;fill:url(#SVGID_3_)}.st1{fill:#fff}.st2{fill:#262626}.st3{fill:#eaedf4}.st4{fill:#ade9e9}.st5{fill:#20ad8a}.st6{fill:#ffc06c}.st7{fill:#3f4d55}.st8{fill:#5d5d5d}.st9{fill:#b7b7b7}.st10{fill:#adadad}.st11{fill:#b2b2b2}.st12{fill:gray}.st13{fill:#4d4d4d}.st14{fill:#333}.st15{fill:#efce4a}.st16{fill:#ed8a19}.st17{fill:#ebba16}.st18{fill:#c7cac7}.st19{fill:#e7eced}.st20{opacity:.7;clip-path:url(#SVGID_5_)}.st21{opacity:.12;fill:#ffc06c}.st22{opacity:.16}.st22,.st23,.st24{fill:#ffc06c}.st23{opacity:.22}.st24{opacity:.3}.st25{clip-path:url(#SVGID_7_)}.st26{opacity:.15}.st26,.st27,.st28{fill:#20ad8a}.st27{opacity:.23}.st28{opacity:.3}.st29{fill:#aaa}.st30,.st31{fill:none;stroke:#3f4d55;stroke-miterlimit:10}.st31{stroke-linecap:round}.st32{fill:#f00101}.st33{fill:#030303}.st34{fill:#70cadb}.st35{fill:#e01765}.st36{fill:#e8a723}.st37{fill:#3eb890}.st38{fill:#cc2027}.st39{fill:#361238}.st40{fill:#65863a}.st41{fill:#1a937d}.st42{fill:#666}.st43{fill:#d5e1e8}.st44{fill:#e6eef2}.st45{fill:#573d82}.st46{fill:#453068}.st47{fill:#3fba91}.st48{fill:#6fcbdc}.st49{fill:#dcdcdc}.st50{fill:#ffc585}.st51{fill:#ff3e88}.st52{fill:#675470}.st53{fill:#4a4687}.st54{fill:#f3f3f3}.st55{opacity:.5;fill:#8977a7}.st56{fill:#e1e9ef}.st57{fill:#ffd7a3}.st58{fill:#fdc88e}.st59{fill:#ffe1b2}.st60{fill:#a2cde2}.st61{fill:#545465}.st62{fill:#29394a}.st63{fill:#b5e0f0}.st64{fill:#4a698e}.st65{fill:#416185}.st66{fill:#395a7f}.st67{fill:#ffd5ab}.st68{fill:#e4ebf0}.st69{fill:#d0d7dc}.st70{fill:#527992}.st71{fill:#475f7f}.st72{fill:#d3e5bd}.st73{fill:#827873}.st74{fill:#e0dddc}.st75{fill:#a19996}.st76{fill:#3cf}.st77{fill:#d8dce1}.st78{fill:#db4026}.st79{fill:#5c546a}.st80{fill:#e8d21d}.st81{fill:#4aecaf}.st82{fill:#80362d}.st83{fill:#ffb980}.st84{fill:#f8ab6b}.st85{fill:#bf9b5f}.st86{fill:#83603f}.st87{fill:#b0e070}.st88{fill:#7e5c62}.st89{fill:#a27082}.st90{fill:#7e5449}.st91{fill:#ffda44}.st92{fill:#ffcd00}.st93{fill:#b1664f}.st94{fill:#ffdaa9}.st95{fill:#5fbea0}.st96{fill:none;stroke:#fff;stroke-width:2;stroke-linecap:round;stroke-miterlimit:10}.st97{fill:#188268}.st98{fill:#d2efe8}.st99{fill:#79ceb9}.st100{fill:#ebebed}.st101{fill:#474f49}.st102{fill:#daaba9}.st103{fill:#757eaf}.st104{fill:#edcc70}.st105{fill:#b9bbc1}.st106{fill:#53dcff}.st107{fill:#fcee21}.st108{fill:#8b8996}.st109{fill:#686777}.st110{fill:#67a2a9}.st111,.st112{fill:#ff93b5}.st112{stroke:#fff;stroke-width:2;stroke-linecap:round;stroke-miterlimit:10}.st113,.st114{fill:#f3d960}.st114{stroke:#fff;stroke-width:2;stroke-linecap:round;stroke-miterlimit:10}.st115{fill:#7bd766}.st116{fill:#8166a4}.st117{fill:#f67d69}.st118{fill:#ccc}.st119{fill:#e6e6e6}.st120{fill:#b3b3b3}.st121{fill:none;stroke:#da6f67;stroke-linecap:round;stroke-miterlimit:10}.st122{fill:#bc679b}.st123{font-family:&apos;Ruler-Bold&apos;}.st124{font-size:10px}.st125{fill:#09614b}.st126{fill:#50748a}.st127{fill:#e2e4ff}.st128{fill:#a7795e}.st129{fill:#adb4ba}.st130{fill:#4ea0ca}.st131{fill:#394959}.st132{fill:#e05040}.st133{fill:#b4a87d}.st134{fill:#7b7256}.st135{fill:#fcc261}.st136{fill:#111820}.st137{fill:#dfded6}.st138{fill:#ff6953}.st139{fill:#b06e53}.st140{fill:#728ea0}.st141{fill:#e5e4e3}.st142{fill:#f7f3a8}.st143{fill:#82827f}.st144{fill:#353535}.st145{fill:#a0b7d1}.st146{fill:#ecec66}.st147{fill:#90ba72}.st148{fill:#e7f2fc}.st149{fill:none;stroke:#c6c6c6;stroke-width:2;stroke-linecap:round;stroke-linejoin:round;stroke-miterlimit:10;stroke-dasharray:5,10,5,10,5,10}.st150{fill:#73a950}.st151{fill:#ffa168}.st152{fill:#2d688d}</style><g id="Capa_3"><path class="st79" d="M171.4 111.5H29c-7.1 0-12.9 5.8-12.9 12.9v102.1c0 1.6 1.3 2.8 2.8 2.8h162.7c1.6 0 2.8-1.3 2.8-2.8V124.4c0-7.2-5.8-12.9-13-12.9zM27.3 209.7v-84.2c0-1.5 1.3-2.8 2.8-2.8h140.3c1.5 0 2.8 1.3 2.8 2.8v84.2c0 1.5-1.3 2.8-2.8 2.8H30.1c-1.6 0-2.8-1.3-2.8-2.8z"/><path class="st105" d="M187.2 223.7h-174c-1.6 0-2.8 1.3-2.8 2.8 0 6.2 5 11.2 11.2 11.2h157.1c6.2 0 11.2-5 11.2-11.2.1-1.6-1.2-2.8-2.7-2.8z"/><path class="st106" d="M158.7 194H111c-1.5 0-2.8-1.3-2.8-2.8v-44.9c0-1.5 1.3-2.8 2.8-2.8h47.7c1.5 0 2.8 1.3 2.8 2.8v44.9c0 1.6-1.3 2.8-2.8 2.8z"/><path class="st105" d="M64.2 171.6H41.7c-1.6 0-2.8-1.3-2.8-2.8s1.3-2.8 2.8-2.8h22.4c1.6 0 2.8 1.3 2.8 2.8s-1.2 2.8-2.7 2.8zm0 11.2H41.7c-1.6 0-2.8-1.3-2.8-2.8s1.3-2.8 2.8-2.8h22.4c1.6 0 2.8 1.3 2.8 2.8s-1.2 2.8-2.7 2.8zm0 11.2H41.7c-1.6 0-2.8-1.3-2.8-2.8s1.3-2.8 2.8-2.8h22.4c1.6 0 2.8 1.3 2.8 2.8s-1.2 2.8-2.7 2.8zm33.6-22.4H75.4c-1.6 0-2.8-1.3-2.8-2.8s1.3-2.8 2.8-2.8h22.4c1.6 0 2.8 1.3 2.8 2.8s-1.2 2.8-2.8 2.8zm0 11.2H75.4c-1.6 0-2.8-1.3-2.8-2.8s1.3-2.8 2.8-2.8h22.4c1.6 0 2.8 1.3 2.8 2.8s-1.2 2.8-2.8 2.8zm0 11.2H75.4c-1.6 0-2.8-1.3-2.8-2.8s1.3-2.8 2.8-2.8h22.4c1.6 0 2.8 1.3 2.8 2.8s-1.2 2.8-2.8 2.8z"/><path class="st107" d="M78.2 160.4H41.7c-1.6 0-2.8-1.3-2.8-2.8s1.3-2.8 2.8-2.8h36.5c1.6 0 2.8 1.3 2.8 2.8s-1.3 2.8-2.8 2.8z"/><path class="st108" d="M89 229.3h22.4c3.1 0 5.6-2.5 5.6-5.6H83.4c0 3.1 2.5 5.6 5.6 5.6z"/><text transform="translate(38.913 148)" class="st108 st123 st124">NEW MOMENT</text><path class="st1" d="M216.8 131.2h62.8v86.4h-62.8z"/><path class="st79" d="M234.4 117.4H256v7.9h-21.6zm5.9 102.1H256v15.7h-15.7z"/><path class="st109" d="M273.7 111.5h-51c-5.4 0-9.8 4.4-9.8 9.8v106c0 5.4 4.4 9.8 9.8 9.8h51c5.4 0 9.8-4.4 9.8-9.8v-106c0-5.4-4.4-9.8-9.8-9.8zm-29.4 7.9h7.9c1.1 0 2 .9 2 2s-.9 2-2 2h-7.9c-1.1 0-2-.9-2-2s.9-2 2-2zm-7.3.5c.7-.7 2.1-.7 2.8 0 .4.4.6.9.6 1.4 0 .5-.2 1-.6 1.4-.4.4-.9.6-1.4.6-.5 0-1-.2-1.4-.6-.4-.4-.6-.9-.6-1.4 0-.5.2-1 .6-1.4zm11.2 113.3c-3.2 0-5.9-2.6-5.9-5.9s2.6-5.9 5.9-5.9c3.2 0 5.9 2.6 5.9 5.9s-2.7 5.9-5.9 5.9zm31.4-15.7h-62.8v-86.4h62.8v86.4z"/><path class="st105" d="M271.7 157.1h-35.3c-1.1 0-2-.9-2-2s.9-2 2-2h35.3c1.1 0 2 .9 2 2s-.9 2-2 2z"/><circle class="st107" cx="226.6" cy="155.2" r="3.9"/><path class="st106" d="M266.5 212.6h-36.7c-4 0-7.2-3.2-7.2-7.2v-33.5c0-4 3.2-7.2 7.2-7.2h36.7c4 0 7.2 3.2 7.2 7.2v33.5c0 3.9-3.2 7.2-7.2 7.2z"/><path class="st108" d="M223.9 144.6c0 .1-.1.3-.2.4-.1.1-.2.2-.4.2-.1 0-.3-.1-.4-.2-.1-.1-.2-.2-.2-.4v-6.1c0-.5.2-.8.5-1.2.3-.3.7-.5 1.2-.5h.1c.5 0 .8.2 1.2.5.3.3.5.7.5 1.2v6.1c0 .1-.1.3-.2.4-.1.1-.2.2-.4.2-.1 0-.3-.1-.4-.2-.1-.1-.2-.2-.2-.4v-6.2c0-.1-.1-.2-.2-.4-.1-.1-.3-.2-.5-.2s-.3.1-.5.2c-.1.1-.2.3-.2.5v6.1zm4.7-3.1v1.9c0 .2.1.3.2.5.1.1.3.2.4.2h.3l.2-.1.2-.2.3-.3h.2c.1 0 .2 0 .2.1l.3.3v.2c0 .1 0 .2-.1.2-.1.3-.3.5-.6.6h-.3c-.2.1-.4.2-.7.2h-.2.1c-.5 0-.9-.2-1.2-.5-.3-.3-.5-.7-.5-1.2v-5c0-.5.2-.8.5-1.2.3-.3.7-.5 1.2-.5h.1c.2 0 .5.1.7.2l.2.1.6.6c0 .1.1.2.1.2v.2c0 .1-.1.2-.3.3-.1 0-.2.1-.2.1h-.2c-.1 0-.2-.1-.3-.3-.1-.1-.1-.2-.2-.3l-.1-.1h-.2c-.2 0-.3.1-.5.2-.1.1-.2.3-.2.5v1.9h1.5c.1 0 .3.1.4.2.1.1.2.2.2.4 0 .1-.1.3-.2.4-.1.1-.2.2-.4.2h-1.5zm1.5-4.5zm0 0zm5-.2c.1 0 .3.1.4.2.1.1.2.2.2.4v6.1c0 .2.1.3.2.5.1.1.3.2.5.2s.3-.1.5-.2c.1-.1.2-.3.2-.5v-6.1c0-.1.1-.3.2-.4.1-.1.2-.2.4-.2s.3.1.4.2c.1.1.2.2.2.4v6.1c0 .5-.2.9-.5 1.2-.3.3-.7.5-1.2.5h-.1c-.5 0-.9-.2-1.2-.5-.3.3-.7.5-1.2.5h-.1c-.5 0-.9-.2-1.2-.5-.3-.3-.5-.7-.5-1.2v-6.1c0-.1.1-.3.2-.4.1-.1.2-.2.4-.2.1 0 .3.1.4.2.1.1.2.2.2.4v6.1c0 .2.1.3.2.5.1.1.3.2.5.2s.3-.1.5-.2c.1-.1.2-.3.2-.4v-6.2c0-.1.1-.3.2-.4-.3-.2-.2-.2 0-.2zm9.5 8.3c-.1 0-.3-.1-.4-.2-.1-.1-.2-.2-.2-.4v-6.2c0-.1-.1-.2-.2-.4-.1-.1-.3-.2-.5-.2s-.3.1-.5.2c-.1.1-.2.3-.2.5v6.1c0 .1-.1.3-.2.4-.1.1-.2.2-.4.2-.1 0-.3-.1-.4-.2-.1-.1-.2-.2-.2-.4v-6.1c0-.5.2-.8.5-1.2.3-.3.7-.5 1.2-.5h.1c.5 0 .8.2 1.2.5.3-.3.7-.5 1.2-.5h.1c.5 0 .8.2 1.2.5.3.3.5.7.5 1.2v6.1c0 .1-.1.3-.2.4-.1.1-.2.2-.4.2s-.3-.1-.4-.2c-.1-.1-.2-.2-.2-.4v-6.1c0-.2-.1-.3-.2-.5-.1-.1-.3-.2-.5-.2s-.3.1-.5.2c-.1.1-.2.3-.2.5v6.1c0 .1-.1.3-.2.4.3.2.2.2 0 .2zm6-8.3c.5 0 .9.2 1.2.5.3.3.5.7.5 1.2v4.9c0 .5-.2.8-.5 1.2-.3.3-.7.5-1.2.5h.1-.2c-.4 0-.8-.2-1.2-.5-.3-.3-.5-.8-.5-1.3v-4.9c0-.5.2-.8.5-1.2.4-.3.8-.4 1.3-.4zm-.1 1c-.2 0-.3.1-.5.2s-.2.3-.2.5v5c0 .1.1.2.2.4.1.1.3.2.5.2h.1c.1 0 .2-.1.3-.2.1-.1.2-.3.2-.5v-5c0-.1-.1-.2-.2-.4 0-.1-.1-.2-.4-.2zm6.1 7.3c-.1 0-.3-.1-.4-.2-.1-.1-.2-.2-.2-.4v-6.2c0-.1-.1-.2-.2-.4-.1-.1-.3-.2-.5-.2s-.3.1-.5.2c-.1.1-.2.3-.2.5v6.1c0 .1-.1.3-.2.4-.1.1-.2.2-.4.2-.1 0-.3-.1-.4-.2-.1-.1-.2-.2-.2-.4v-6.1c0-.5.2-.8.5-1.2.3-.3.7-.5 1.2-.5h.1c.5 0 .8.2 1.2.5.3-.3.7-.5 1.2-.5h.1c.5 0 .8.2 1.2.5.3.3.5.7.5 1.2v6.1c0 .1-.1.3-.2.4-.1.1-.2.2-.4.2s-.3-.1-.4-.2c-.1-.1-.2-.2-.2-.4v-6.1c0-.2-.1-.3-.2-.5-.1-.1-.3-.2-.5-.2s-.3.1-.5.2c-.1.1-.2.3-.2.5v6.1c0 .1-.1.3-.2.4.3.2.1.2 0 .2zm5.2-3.6v1.9c0 .2.1.3.2.5.1.1.3.2.4.2h.3l.2-.1.2-.2.3-.3h.2c.1 0 .2 0 .2.1l.3.3v.2c0 .1 0 .2-.1.2-.1.3-.3.5-.6.6h-.3c-.2.1-.4.2-.7.2h-.2.1c-.5 0-.9-.2-1.2-.5-.3-.3-.5-.7-.5-1.2v-5c0-.5.2-.8.5-1.2.3-.3.7-.5 1.2-.5h.1c.2 0 .5.1.7.2l.2.1.6.6c0 .1.1.2.1.2v.2c0 .1-.1.2-.3.3-.1 0-.2.1-.2.1h-.2c-.1 0-.2-.1-.3-.3-.1-.1-.1-.2-.2-.3l-.1-.1h-.2c-.2 0-.3.1-.5.2-.1.1-.2.3-.2.5v1.9h1.5c.1 0 .3.1.4.2.1.1.2.2.2.4 0 .1-.1.3-.2.4-.1.1-.2.2-.4.2h-1.5zm1.5-4.5zm0 0zm3.1 7.6c0 .1-.1.3-.2.4-.1.1-.2.2-.4.2-.1 0-.3-.1-.4-.2-.1-.1-.2-.2-.2-.4v-6.1c0-.5.2-.8.5-1.2.3-.3.7-.5 1.2-.5h.1c.5 0 .8.2 1.2.5.3.3.5.7.5 1.2v6.1c0 .1-.1.3-.2.4-.1.1-.2.2-.4.2-.1 0-.3-.1-.4-.2-.1-.1-.2-.2-.2-.4v-6.2c0-.1-.1-.2-.2-.4-.1-.1-.3-.2-.5-.2s-.3.1-.5.2c-.1.1-.2.3-.2.5v6.1zm6.6-7.8c.1 0 .3.1.4.2.1.1.2.2.2.4 0 .1-.1.3-.2.4-.1.1-.2.2-.4.2h-.7v6.7c0 .1-.1.3-.2.4-.1.1-.2.2-.4.2-.1 0-.3-.1-.4-.2-.1-.1-.2-.2-.2-.4V138h-.7c-.1 0-.3-.1-.4-.2-.1-.1-.2-.2-.2-.4 0-.1.1-.3.2-.4.1-.1.2-.2.4-.2h2.6z"/><path class="st110" d="M315 65.7v29.2c0 2.2-1.6 4.1-3.8 4.1h-47.6l-9.6 6.4-2.3-6.4h-2.6c-2.2 0-4.2-1.9-4.2-4.1V65.7c0-2.2 2-4.7 4.2-4.7h62c2.3 0 3.9 2.5 3.9 4.7z"/><path class="st96" d="M259.2 76.2h20.4m-20.4 4.2h41.6m-41.6 4.9h41.6"/><circle class="st1" cx="251" cy="66.3" r="2.6"/><path class="st111" d="M95 65.7v29.2c0 2.2-1.6 4.1-3.8 4.1H43.6l-9.6 6.4-2.2-6.4h-2.6C27 99 25 97.1 25 94.9V65.7c0-2.2 2-4.7 4.2-4.7h62c2.2 0 3.8 2.5 3.8 4.7z"/><path class="st112" d="M39.2 76.2h20.4m-20.4 4.2h41.6m-41.6 4.9h41.6"/><circle class="st1" cx="31" cy="66.3" r="2.6"/><path class="st113" d="M190 52.7v29.2c0 2.2-1.6 4.1-3.8 4.1h-47.6l-9.6 6.4-2.3-6.4h-2.6c-2.2 0-4.2-1.9-4.2-4.1V52.7c0-2.2 2-4.7 4.2-4.7h62c2.3 0 3.9 2.5 3.9 4.7z"/><path class="st114" d="M134.2 63.2h20.4m-20.4 4.2h41.6m-41.6 4.9h41.6"/><circle class="st1" cx="126" cy="53.3" r="2.6"/><path class="st115" d="M336 14.7v29.2c0 2.2-1.6 4.1-3.8 4.1h-47.6l-9.6 6.4-2.3-6.4h-2.6c-2.2 0-4.2-1.9-4.2-4.1V14.7c0-2.2 2-4.7 4.2-4.7h62c2.3 0 3.9 2.5 3.9 4.7z"/><path class="st96" d="M280.2 25.2h20.4m-20.4 4.2h41.6m-41.6 4.9h41.6"/><circle class="st1" cx="272" cy="15.3" r="2.6"/><g><path class="st116" d="M209 4.7v29.2c0 2.2-1.6 4.1-3.8 4.1h-47.6l-9.6 6.4-2.3-6.4h-2.6c-2.2 0-4.2-1.9-4.2-4.1V4.7c0-2.2 2-4.7 4.2-4.7h62c2.3 0 3.9 2.5 3.9 4.7z"/><path class="st96" d="M153.2 15.2h20.4m-20.4 4.2h41.6m-41.6 4.9h41.6"/><circle class="st1" cx="145" cy="5.3" r="2.6"/></g><g><path class="st117" d="M0 16.7v29.2C0 48.1 1.6 50 3.8 50h47.6l9.6 6.4 2.3-6.4h2.6c2.2 0 4.2-1.9 4.2-4.1V16.7c0-2.2-2-4.7-4.2-4.7h-62C1.6 12 0 14.5 0 16.7z"/><path class="st96" d="M35 27.1H14.5m41.3 4.3H14.2m41.6 4.9H14.2"/><circle class="st1" cx="5.1" cy="17.3" r="2.6"/></g><g><path class="st5" d="M200.4 42.6v10.6l5-2.5 5 2.5V42.3c-1.5 1.1-3.2 1.7-5.2 1.7-1.8 0-3.4-.5-4.8-1.4z"/><path class="st1" d="M201.8 42.9v7.6l3.6-1.8 3.6 1.8v-7.8c-1 .8-2.3 1.2-3.7 1.2-1.4 0-2.5-.4-3.5-1z"/><path class="st91" d="M205.2 26.5c-4.8 0-8.8 3.9-8.8 8.8 0 3.1 1.6 5.8 4 7.3 1.4.9 3 1.4 4.8 1.4V26.5z"/><path class="st92" d="M213.9 35.3c0-4.8-3.9-8.8-8.8-8.8V44c1.9 0 3.7-.6 5.2-1.7 2.2-1.6 3.6-4.1 3.6-7z"/><circle class="st15" cx="205.2" cy="35.3" r="6.1"/></g><g><path class="st5" d="M307.2 104.4v10.9l5.1-2.6 5.1 2.6v-11.2c-1.5 1.1-3.3 1.7-5.3 1.7-1.8 0-3.5-.5-4.9-1.4z"/><path class="st1" d="M308.7 104.7v7.8l3.6-1.8 3.6 1.8v-8c-1.1.8-2.4 1.2-3.8 1.2-1.2 0-2.4-.4-3.4-1z"/><path class="st91" d="M312.1 87.9c-4.9 0-9 4-9 9 0 3.1 1.6 5.9 4.1 7.5 1.4.9 3.1 1.5 4.9 1.5v-18z"/><path class="st92" d="M321.1 96.9c0-4.9-4-9-9-9v17.9c2 0 3.8-.6 5.3-1.7 2.2-1.6 3.7-4.3 3.7-7.2z"/><circle class="st15" cx="312.1" cy="96.9" r="6.3"/></g></g></svg>