<svg xmlns="http://www.w3.org/2000/svg" viewBox="0 0 251.73 176.205"><switch><g><path fill="#FFFDF9" d="M10.273 106.539h63.184c5.674 0 10.273-4.599 10.273-10.273V73.273C83.73 67.599 79.131 63 73.457 63H10.273C4.599 63 0 67.599 0 73.273v22.994c0 5.673 4.599 10.272 10.273 10.272z"/><path fill="#FFDFB5" d="M14.723 87.428c.851-.635.755-2.525.755-2.966h6.846c0 .441-.105 2.331.745 2.966l-4.168 5.414-4.178-5.414z"/><path fill="#FDC98E" d="M21.565 88.646l1.506-1.626c-.851-.548-.745-2.178-.745-2.558H15.48c.49 1.412 3.739 3.835 6.085 4.184z"/><path fill="#FFCE04" d="M16.62 73.052h-.761a2.674 2.674 0 0 0-2.662 2.676c0 1.365.38 3.79.38 3.79s.428-1.926 2.282-2.662c1.133-.451.761-3.804.761-3.804z"/><path fill="#FFCE04" d="M16.24 73.065c1.529-2.351 5.467-.394 7.987-.394.38.547.642 4.683 0 6.846l-1.141-1.902s-3.487 1.281-7.227-.747"/><path fill="#FFE7C1" d="M24.989 81.04c0 .71-.666 2.337-1.439 1.81-.804 1.935-2.35 3.512-4.649 3.512-2.331 0-3.883-1.621-4.681-3.594-.735.742-1.401-.993-1.401-1.728 0-.547.308-.848.798-.792a7.21 7.21 0 0 1-.038-.729c0-3.047 2.381-4.184 5.322-4.184 2.94 0 5.328 1.137 5.328 4.184a9.8 9.8 0 0 1-.031.722c.483-.017.791.284.791.799z"/><path fill="#F47854" d="M26.13 87.32c-.016-.004-.032-.008-.048-.01l-3.163-.475a.714.714 0 0 0-.08-.004c-.2 0-.369.149-.393.348-.198 1.609-1.723 2.823-3.548 2.823s-3.35-1.213-3.548-2.823a.397.397 0 0 0-.403-.348.417.417 0 0 0-.07.004l-3.163.475c-.016.002-.032.006-.048.01-1.495.419-2.278 1.89-2.278 3.127v1.535c0 .654.582 4.168 1.298 4.168H27.11c.716 0 1.298-3.515 1.298-4.168v-1.535c0-1.237-.782-2.708-2.278-3.127z"/><path fill="none" stroke="#F47854" stroke-width="2" stroke-linecap="round" stroke-miterlimit="10" d="M36.357 85h34M36.357 90h32M36.357 95h26"/><text transform="translate(36.57 79.518)" fill="#F47854" font-family="'Ruler'" font-size="6">MARKETING</text><path fill="#FFF" d="M70.815 105.539l4.787 8.299-22.657-8.299"/><g><path fill="#FFFDF9" d="M94.273 43.539h63.184c5.674 0 10.273-4.599 10.273-10.273V10.273C167.73 4.599 163.131 0 157.457 0H94.273C88.599 0 84 4.599 84 10.273v22.994c0 5.673 4.599 10.272 10.273 10.272z"/><path fill="#FFDFB5" d="M98.723 24.428c.851-.635.755-2.525.755-2.966h6.846c0 .441-.105 2.331.745 2.966l-4.168 5.414-4.178-5.414z"/><path fill="#FDC98E" d="M105.564 25.646l1.506-1.626c-.851-.548-.745-2.178-.745-2.558h-6.846c.491 1.412 3.74 3.835 6.085 4.184z"/><path fill="#FFE7C1" d="M108.989 18.04c0 .71-.666 2.337-1.439 1.81-.804 1.935-2.35 3.512-4.649 3.512-2.331 0-3.883-1.621-4.681-3.594-.735.741-1.401-.993-1.401-1.728 0-.547.308-.848.798-.792a7.21 7.21 0 0 1-.038-.729c0-3.047 2.381-4.184 5.322-4.184 2.94 0 5.328 1.137 5.328 4.184a9.8 9.8 0 0 1-.031.722c.483-.017.791.284.791.799z"/><path fill="#7CC57B" d="M110.13 24.32c-.016-.004-.032-.008-.048-.01l-3.163-.475a.714.714 0 0 0-.08-.004c-.2 0-.369.149-.393.348-.198 1.609-1.723 2.823-3.548 2.823s-3.35-1.213-3.548-2.823a.397.397 0 0 0-.403-.348.417.417 0 0 0-.07.004l-3.163.475c-.016.002-.032.006-.048.01-1.495.419-2.278 1.89-2.278 3.127v1.535c0 .654.582 4.168 1.298 4.168h16.427c.716 0 1.298-3.515 1.298-4.168v-1.535c-.003-1.237-.785-2.708-2.281-3.127z"/><path fill="#556" d="M100.62 10.052h-.761a2.674 2.674 0 0 0-2.662 2.676c0 1.365.38 3.79.38 3.79s.428-1.926 2.282-2.662c1.133-.451.761-3.804.761-3.804z"/><path fill="#556" d="M100.24 10.065c1.529-2.351 5.467-.394 7.987-.394.38.547.642 4.683 0 6.846l-1.141-1.902s-3.487 1.281-7.227-.747"/><path fill="none" stroke="#7CC57B" stroke-width="2" stroke-linecap="round" stroke-miterlimit="10" d="M120.357 23h34M120.357 28h32M120.357 33h26"/><text transform="translate(120.57 16.518)" fill="#7CC57B" font-family="'Ruler'" font-size="6">BUSINESS</text><path fill="#5FBEA0" d="M157.409 46.971v10.076l4.715-2.366 4.715 2.366V46.704a8.255 8.255 0 0 1-4.907 1.61 8.247 8.247 0 0 1-4.523-1.343z"/><path fill="#FFF" d="M158.744 47.239v7.223l3.38-1.696 3.38 1.696v-7.414a5.92 5.92 0 0 1-3.518 1.154 5.913 5.913 0 0 1-3.242-.963z"/><path fill="#FEDA46" d="M161.932 31.713c-4.577 0-8.301 3.724-8.301 8.301a8.302 8.302 0 0 0 3.777 6.957 8.256 8.256 0 0 0 4.523 1.344l.001-16.602z"/><path fill="#FFCE04" d="M170.233 40.014c0-4.577-3.724-8.301-8.301-8.301v16.601a8.257 8.257 0 0 0 4.907-1.61 8.295 8.295 0 0 0 3.394-6.69z"/><circle fill="#EFCF4A" cx="161.932" cy="40.055" r="5.794"/><path fill="#FFF" d="M110.237 41.539l.052 12.923-15.344-12.923"/></g><g><path fill="#FFFDF9" d="M178.273 106.539h63.184c5.674 0 10.273-4.599 10.273-10.273V73.273c0-5.674-4.599-10.273-10.273-10.273h-63.184C172.599 63 168 67.599 168 73.273v22.994c0 5.673 4.599 10.272 10.273 10.272z"/><path fill="none" stroke="#626E74" stroke-width="2" stroke-linecap="round" stroke-miterlimit="10" d="M204.357 85h34M204.357 90h32M204.357 95h26"/><text transform="translate(204.57 79.518)" fill="#626E74" font-family="'Ruler'" font-size="6">DESIGN</text><path fill="#81372E" d="M191.382 72.781l-3.188 17.307 2.277.455c4.821-3.529 6.889-17.762.911-17.762zM191.382 72.781c-.797-.484-5.004-1.713-8.198 0-3.928 2.106-7.363 9.64-1.822 17.307.008.011 4.099-.455 4.099-.455l5.921-16.852z"/><path fill="#FCD3A5" d="M186.897 88.477c-1.51 0-2.88-.648-3.891-1.695-.001.628-.024 1.534-.19 2.194a.43.43 0 0 1 .21.313c.216 1.755 1.879 3.079 3.87 3.079s3.654-1.324 3.87-3.079a.427.427 0 0 1 .21-.312c-.166-.661-.189-1.567-.19-2.195-1.009 1.047-2.379 1.695-3.889 1.695z"/><path fill="#F7AB6C" d="M190.703 86.862c-1.002.998-2.337 1.615-3.806 1.615-1.51 0-2.88-.648-3.891-1.695-.001.628-.024 1.534-.19 2.194a.43.43 0 0 1 .21.313c.095.776.474 1.467 1.039 1.997 2.603-.366 5.557-2.937 6.638-4.424z"/><path fill="#626E74" d="M194.787 89.444a.321.321 0 0 0-.052-.011l-3.451-.518a.85.85 0 0 0-.088-.005.433.433 0 0 0-.429.38c-.216 1.755-1.88 3.079-3.87 3.079-1.991 0-3.655-1.323-3.87-3.079a.432.432 0 0 0-.44-.379.41.41 0 0 0-.077.005l-3.451.518a.436.436 0 0 0-.052.011c-1.631.457-2.485 2.062-2.485 3.411v1.675c0 .713.635 1.293 1.415 1.293h17.919c.781 0 1.415-.58 1.415-1.293v-1.675c.001-1.351-.853-2.956-2.484-3.412z"/><path fill="#FCD3A5" d="M190.787 76.156h-7.349c-1.192 0-2.161 1.156-2.161 2.576v3.091c0 3.977 2.521 7.212 5.62 7.212s5.62-3.235 5.62-7.212v-3.606c0-1.137-.776-2.061-1.73-2.061z"/><path fill="#81372E" d="M188.194 73.692c-.256 0-1.087.288-1.766.539l-.056-.084-.256.201c-.378.143-.655.254-.655.254l.107.178c-1.729 1.362-5.673 4.478-6.027 4.832-.455.455 2.733 12.075 2.733 5.465 0-5.522 3.068-6.616 5.921-7.287 1.29-.304 1.67-1.063 1.822-1.822.151-.758-1.367-2.276-1.823-2.276z"/><path fill="#81372E" d="M189.56 76.425c.835 2.998 2.505 4.355 4.071 4.754.858.218.484-2.476.484-2.476s-1.215-3.112-1.366-3.188c-.152-.076-1.366-2.733-1.366-2.733l-2.733 2.277.91 1.366zM180.625 75.474h3.78v2.989h-3.78z"/><path fill="#FFF" d="M180.625 105.539l-4.103 8.299 19.423-8.299"/></g><g><path fill="#FFF" d="M98.563 85.748h53.604v73.705H98.563z"/><path fill="#5D556B" d="M113.639 74.023h18.426v6.7h-18.426zM118.664 161.129h13.401v13.401h-13.401z"/><path fill="#DEDEDD" d="M145.466 115.084h-30.152a1.674 1.674 0 0 1-1.675-1.675c0-.926.749-1.675 1.675-1.675h30.152c.926 0 1.675.749 1.675 1.675s-.749 1.675-1.675 1.675z"/><circle fill="#FFE577" cx="106.939" cy="113.409" r="3.35"/><path fill="#BABBC1" d="M145.466 124.81h-30.152a1.674 1.674 0 0 1-1.675-1.675c0-.926.749-1.675 1.675-1.675h30.152c.926 0 1.675.749 1.675 1.675s-.749 1.675-1.675 1.675z"/><circle fill="#FED208" cx="106.939" cy="123.135" r="3.35"/><path fill="#EDEDED" d="M145.466 104.269h-30.152a1.674 1.674 0 0 1-1.675-1.675c0-.926.749-1.675 1.675-1.675h30.152c.926 0 1.675.749 1.675 1.675s-.749 1.675-1.675 1.675z"/><circle fill="#FBECB0" cx="106.939" cy="102.594" r="3.35"/><path fill="#F7F8F8" d="M145.466 94.551h-30.152a1.674 1.674 0 0 1-1.675-1.675c0-.926.749-1.675 1.675-1.675h30.152c.926 0 1.675.749 1.675 1.675s-.749 1.675-1.675 1.675z"/><circle fill="#FFF7D5" cx="106.939" cy="92.876" r="3.35"/><path fill="#BABBC1" d="M145.466 135.536h-30.152c-.926 0-1.675-.749-1.675-1.675s.749-1.675 1.675-1.675h30.152c.926 0 1.675.749 1.675 1.675s-.749 1.675-1.675 1.675z"/><circle fill="#FED208" cx="106.939" cy="133.861" r="3.35"/><path fill="#5DBE81" d="M145.466 153.891h-40.203c-.925 0-1.675-.75-1.675-1.675v-6.7c0-.925.75-1.675 1.675-1.675h40.203c.925 0 1.675.75 1.675 1.675v6.7c0 .925-.75 1.675-1.675 1.675z"/><g fill="#FFFDF9"><path d="M113.092 148.636h1.218c.088 0 .166.031.229.096a.307.307 0 0 1 .097.229.309.309 0 0 1-.097.231.314.314 0 0 1-.229.096h-1.218v2.438c0 .09-.032.166-.096.231a.308.308 0 0 1-.23.096.304.304 0 0 1-.23-.096.315.315 0 0 1-.096-.231v-4.641l.003-.037a1.2 1.2 0 0 1 .367-.843c.241-.24.53-.361.87-.366h.019l.05.003c.167.009.327.048.478.118l.016.009.012.006.003.003.068.037.016.009.013.006.003.005c.184.115.328.268.432.459a.299.299 0 0 1 .024.249.312.312 0 0 1-.155.192.298.298 0 0 1-.246.025.313.313 0 0 1-.196-.156.579.579 0 0 0-.211-.223l-.059-.031v-.003a.655.655 0 0 0-.246-.055h-.018c-.162 0-.3.058-.414.174a.577.577 0 0 0-.177.417v1.553zM115.786 147.086l.003-.037a1.2 1.2 0 0 1 .367-.843c.241-.24.53-.361.87-.366h.019l.05.003c.167.009.327.048.478.118l.016.009.012.006.003.003.068.037.016.009.013.006.003.005c.184.115.328.268.432.459a.299.299 0 0 1 .024.249.312.312 0 0 1-.155.192.298.298 0 0 1-.246.025.313.313 0 0 1-.196-.156.579.579 0 0 0-.211-.223l-.059-.031v-.003a.655.655 0 0 0-.246-.055h-.018c-.162 0-.3.058-.414.174a.577.577 0 0 0-.177.417v3.728a.58.58 0 0 0 .177.417.57.57 0 0 0 .414.174h.034a.575.575 0 0 0 .23-.058l.068-.037h.003a.603.603 0 0 0 .199-.217.325.325 0 0 1 .597.061.301.301 0 0 1-.024.249c-.103.189-.244.34-.423.456l-.04.022-.046.024a.253.253 0 0 1-.052.031 1.225 1.225 0 0 1-.482.118l-.046.003h-.015v-.003h-.004a1.194 1.194 0 0 1-.87-.363 1.218 1.218 0 0 1-.367-.84l-.003-.04v-3.723zm.637 2.202a.31.31 0 0 1-.23-.096.311.311 0 0 1-.097-.231c0-.09.032-.168.097-.229a.314.314 0 0 1 .23-.096h1.233c.088 0 .166.031.229.096a.307.307 0 0 1 .097.229.309.309 0 0 1-.097.231.314.314 0 0 1-.229.096h-1.233zM119.131 147.086l.003-.037a1.2 1.2 0 0 1 .367-.843c.241-.24.53-.361.87-.366h.019l.05.003c.167.009.327.048.478.118l.016.009.012.006.003.003.068.037.016.009.013.006.003.005c.184.115.328.268.432.459a.299.299 0 0 1 .024.249.312.312 0 0 1-.155.192.298.298 0 0 1-.246.025.313.313 0 0 1-.196-.156.579.579 0 0 0-.211-.223l-.059-.031v-.003a.655.655 0 0 0-.246-.055h-.018c-.162 0-.3.058-.414.174a.577.577 0 0 0-.177.417v3.728a.58.58 0 0 0 .177.417.57.57 0 0 0 .414.174h.034a.575.575 0 0 0 .23-.058l.068-.037h.003a.603.603 0 0 0 .199-.217.325.325 0 0 1 .597.061.301.301 0 0 1-.024.249c-.103.189-.244.34-.423.456l-.04.022-.046.024a.253.253 0 0 1-.052.031 1.225 1.225 0 0 1-.482.118l-.046.003h-.015v-.003h-.004a1.194 1.194 0 0 1-.87-.363 1.218 1.218 0 0 1-.367-.84l-.003-.04v-3.723zm.638 2.202a.31.31 0 0 1-.23-.096.311.311 0 0 1-.097-.231c0-.09.032-.168.097-.229a.314.314 0 0 1 .23-.096h1.233c.088 0 .166.031.229.096a.307.307 0 0 1 .097.229.309.309 0 0 1-.097.231.314.314 0 0 1-.229.096h-1.233zM123.425 145.84l.037.003c.416.01.771.163 1.065.457a1.5 1.5 0 0 1 .454 1.059l.003.035v3.107l-.003.031c-.01.414-.161.768-.454 1.062a1.502 1.502 0 0 1-1.065.457h-.037v.003h-.622a.31.31 0 0 1-.23-.096.318.318 0 0 1-.096-.234v-5.557a.322.322 0 0 1 .326-.327h.622zm-.295.652v4.906h.304a.874.874 0 0 0 .631-.264.878.878 0 0 0 .267-.625v-.009h-.003v-3.107h.003v-.012a.88.88 0 0 0-.267-.622.874.874 0 0 0-.631-.267h-.304zM125.917 147.089l.003-.037c.01-.33.133-.61.367-.846.242-.24.533-.361.873-.363h.003v-.003h.012l.043.003c.328.012.608.136.842.37.241.241.363.532.367.87v.681c-.014.322-.137.6-.37.832v.003l-.043.04.046.046c.241.243.363.531.367.867v1.298a1.22 1.22 0 0 1-.37.837l-.031.027a1.222 1.222 0 0 1-.842.339h-.059a1.21 1.21 0 0 1-.842-.37 1.213 1.213 0 0 1-.367-.87l.003-.003h-.003v-3.721zm.655 3.721h-.003c.002.16.061.297.177.414.114.114.25.172.407.177h.028a.582.582 0 0 0 .397-.159l.016-.018a.582.582 0 0 0 .18-.402v-.009l-.003-.009v-1.249h.003a.568.568 0 0 0-.177-.409.579.579 0 0 0-.416-.181h-.61v1.845zm.631-2.498a.575.575 0 0 0 .391-.177.57.57 0 0 0 .18-.4v-.009l-.003-.01v-.63h.003a.58.58 0 0 0-.177-.414.587.587 0 0 0-.416-.177h-.019a.562.562 0 0 0-.413.174.578.578 0 0 0-.178.417v1.227h.632zM130.008 148.947v2.78c0 .09-.032.166-.096.231a.314.314 0 0 1-.23.096.3.3 0 0 1-.227-.096.315.315 0 0 1-.096-.231v-4.641l.003-.037c.01-.33.132-.61.364-.843.24-.24.528-.361.864-.366h.016l.043.003c.325.01.603.133.832.37.238.241.36.531.364.867v4.647c0 .09-.032.166-.096.231a.305.305 0 0 1-.227.096.307.307 0 0 1-.229-.096.316.316 0 0 1-.097-.231v-2.78h-1.188zm0-.621h1.187v-1.243h.003a.587.587 0 0 0-.177-.414.58.58 0 0 0-.41-.177h-.019a.553.553 0 0 0-.41.174.578.578 0 0 0-.174.417v1.243zM132.776 147.086l.003-.037a1.2 1.2 0 0 1 .367-.843c.241-.24.53-.361.87-.366h.019l.05.003c.167.009.327.048.478.118l.016.009.012.006.003.003.068.037.016.009.013.006.003.005c.184.115.328.268.432.459a.299.299 0 0 1 .024.249.312.312 0 0 1-.155.192.298.298 0 0 1-.246.025.313.313 0 0 1-.196-.156.579.579 0 0 0-.211-.223l-.059-.031v-.003a.655.655 0 0 0-.246-.055h-.018c-.162 0-.3.058-.414.174a.577.577 0 0 0-.177.417v3.728a.58.58 0 0 0 .177.417.57.57 0 0 0 .414.174h.034a.575.575 0 0 0 .23-.058l.068-.037h.003a.603.603 0 0 0 .199-.217.325.325 0 0 1 .597.061.312.312 0 0 1-.024.249c-.103.189-.244.34-.423.456l-.04.022-.046.024a.253.253 0 0 1-.052.031 1.225 1.225 0 0 1-.482.118l-.046.003h-.015v-.003h-.004a1.194 1.194 0 0 1-.87-.363 1.218 1.218 0 0 1-.367-.84l-.003-.04v-3.723zM138.903 151.581a.322.322 0 0 1 .016.248.312.312 0 0 1-.162.189.343.343 0 0 1-.248.019.329.329 0 0 1-.19-.165l-1.376-2.756-.168.24v2.369a.327.327 0 0 1-.093.234.327.327 0 0 1-.233.093.32.32 0 0 1-.23-.093.318.318 0 0 1-.096-.234v-5.557c0-.091.032-.169.096-.234a.314.314 0 0 1 .23-.096.324.324 0 0 1 .326.33v2.05l1.569-2.24a.322.322 0 0 1 .211-.133.21.21 0 0 1 .055-.006c.067 0 .129.021.187.061.073.051.117.12.133.208a.313.313 0 0 1-.052.246l-1.51 2.156 1.535 3.071z"/></g><g><path fill="#8C8996" d="M147.141 68.997h-43.553c-4.618 0-8.376 3.757-8.376 8.376v90.456c0 4.618 3.757 8.376 8.376 8.376h43.553c4.618 0 8.376-3.758 8.376-8.376V77.373c0-4.618-3.757-8.376-8.376-8.376zm-25.126 6.701h6.7c.926 0 1.675.749 1.675 1.675s-.749 1.675-1.675 1.675h-6.7a1.674 1.674 0 0 1-1.675-1.675c0-.926.749-1.675 1.675-1.675zm-6.215.485c.602-.604 1.758-.62 2.378 0 .301.317.486.736.486 1.189 0 .451-.185.87-.486 1.189a1.735 1.735 0 0 1-1.189.486c-.453 0-.872-.185-1.189-.486a1.726 1.726 0 0 1-.486-1.189c0-.452.183-.871.486-1.189zm9.565 96.672c-2.77 0-5.025-2.255-5.025-5.025s2.255-5.025 5.025-5.025c2.77 0 5.025 2.255 5.025 5.025s-2.255 5.025-5.025 5.025zm26.802-13.401H98.563V85.748h53.604v73.706z"/></g></g></g></switch></svg>