<?xml version="1.0" encoding="utf-8"?>
<!-- Generator: Adobe Illustrator 19.2.1, SVG Export Plug-In . SVG Version: 6.00 Build 0)  -->
<svg version="1.1" xmlns="http://www.w3.org/2000/svg" xmlns:xlink="http://www.w3.org/1999/xlink" x="0px" y="0px"
	 viewBox="0 0 336 237.7" style="enable-background:new 0 0 336 237.7;" xml:space="preserve">
<style type="text/css">
	.st0{opacity:0.49;fill:url(#SVGID_3_);}
	.st1{fill:#FFFFFF;}
	.st2{fill:#262626;}
	.st3{fill:#EAEDF4;}
	.st4{fill:#ADE9E9;}
	.st5{fill:#20AD8A;}
	.st6{fill:#FFC06C;}
	.st7{fill:#3F4D55;}
	.st8{fill:#5D5D5D;}
	.st9{fill:#B7B7B7;}
	.st10{fill:#ADADAD;}
	.st11{fill:#B2B2B2;}
	.st12{fill:#808080;}
	.st13{fill:#4D4D4D;}
	.st14{fill:#333333;}
	.st15{fill:#EFCE4A;}
	.st16{fill:#ED8A19;}
	.st17{fill:#EBBA16;}
	.st18{fill:#C7CAC7;}
	.st19{fill:#E7ECED;}
	.st20{opacity:0.7;clip-path:url(#SVGID_5_);}
	.st21{opacity:0.12;fill:#FFC06C;}
	.st22{opacity:0.16;fill:#FFC06C;}
	.st23{opacity:0.22;fill:#FFC06C;}
	.st24{opacity:0.3;fill:#FFC06C;}
	.st25{clip-path:url(#SVGID_7_);}
	.st26{opacity:0.15;fill:#20AD8A;}
	.st27{opacity:0.23;fill:#20AD8A;}
	.st28{opacity:0.3;fill:#20AD8A;}
	.st29{fill:#AAAAAA;}
	.st30{fill:none;stroke:#3F4D55;stroke-miterlimit:10;}
	.st31{fill:none;stroke:#3F4D55;stroke-linecap:round;stroke-miterlimit:10;}
	.st32{fill:#F00101;}
	.st33{fill:#030303;}
	.st34{fill:#70CADB;}
	.st35{fill:#E01765;}
	.st36{fill:#E8A723;}
	.st37{fill:#3EB890;}
	.st38{fill:#CC2027;}
	.st39{fill:#361238;}
	.st40{fill:#65863A;}
	.st41{fill:#1A937D;}
	.st42{fill:#666666;}
	.st43{fill:#D5E1E8;}
	.st44{fill:#E6EEF2;}
	.st45{fill:#573D82;}
	.st46{fill:#453068;}
	.st47{fill:#3FBA91;}
	.st48{fill:#6FCBDC;}
	.st49{fill:#DCDCDC;}
	.st50{fill:#FFC585;}
	.st51{fill:#FF3E88;}
	.st52{fill:#675470;}
	.st53{fill:#4A4687;}
	.st54{fill:#F3F3F3;}
	.st55{opacity:0.5;fill:#8977A7;}
	.st56{fill:#E1E9EF;}
	.st57{fill:#FFD7A3;}
	.st58{fill:#FDC88E;}
	.st59{fill:#FFE1B2;}
	.st60{fill:#A2CDE2;}
	.st61{fill:#545465;}
	.st62{fill:#29394A;}
	.st63{fill:#B5E0F0;}
	.st64{fill:#4A698E;}
	.st65{fill:#416185;}
	.st66{fill:#395A7F;}
	.st67{fill:#FFD5AB;}
	.st68{fill:#E4EBF0;}
	.st69{fill:#D0D7DC;}
	.st70{fill:#527992;}
	.st71{fill:#475F7F;}
	.st72{fill:#D3E5BD;}
	.st73{fill:#827873;}
	.st74{fill:#E0DDDC;}
	.st75{fill:#A19996;}
	.st76{fill:#33CCFF;}
	.st77{fill:#D8DCE1;}
	.st78{fill:#DB4026;}
	.st79{fill:#5C546A;}
	.st80{fill:#E8D21D;}
	.st81{fill:#4AECAF;}
	.st82{fill:#80362D;}
	.st83{fill:#FFB980;}
	.st84{fill:#F8AB6B;}
	.st85{fill:#BF9B5F;}
	.st86{fill:#83603F;}
	.st87{fill:#B0E070;}
	.st88{fill:#7E5C62;}
	.st89{fill:#A27082;}
	.st90{fill:#7E5449;}
	.st91{fill:#FFDA44;}
	.st92{fill:#FFCD00;}
	.st93{fill:#B1664F;}
	.st94{fill:#FFDAA9;}
	.st95{fill:#5FBEA0;}
	.st96{fill:none;stroke:#FFFFFF;stroke-width:2;stroke-linecap:round;stroke-miterlimit:10;}
	.st97{fill:#188268;}
	.st98{fill:#D2EFE8;}
	.st99{fill:#79CEB9;}
	.st100{fill:#EBEBED;}
	.st101{fill:#474F49;}
	.st102{fill:#DAABA9;}
	.st103{fill:#757EAF;}
	.st104{fill:#EDCC70;}
	.st105{fill:#B9BBC1;}
	.st106{fill:#53DCFF;}
	.st107{fill:#FCEE21;}
	.st108{fill:#8B8996;}
	.st109{fill:#686777;}
	.st110{fill:#67A2A9;}
	.st111{fill:#FF93B5;}
	.st112{fill:#FF93B5;stroke:#FFFFFF;stroke-width:2;stroke-linecap:round;stroke-miterlimit:10;}
	.st113{fill:#F3D960;}
	.st114{fill:#F3D960;stroke:#FFFFFF;stroke-width:2;stroke-linecap:round;stroke-miterlimit:10;}
	.st115{fill:#7BD766;}
	.st116{fill:#8166A4;}
	.st117{fill:#F67D69;}
	.st118{fill:#CCCCCC;}
	.st119{fill:#E6E6E6;}
	.st120{fill:#B3B3B3;}
	.st121{fill:none;stroke:#DA6F67;stroke-linecap:round;stroke-miterlimit:10;}
	.st122{fill:#BC679B;}
	.st123{font-family:'Ruler-Bold';}
	.st124{font-size:10px;}
	.st125{fill:#09614B;}
	.st126{fill:#50748A;}
	.st127{fill:#E2E4FF;}
	.st128{fill:#A7795E;}
	.st129{fill:#ADB4BA;}
	.st130{fill:#4EA0CA;}
	.st131{fill:#394959;}
	.st132{fill:#E05040;}
	.st133{fill:#B4A87D;}
	.st134{fill:#7B7256;}
	.st135{fill:#FCC261;}
	.st136{fill:#111820;}
	.st137{fill:#DFDED6;}
	.st138{fill:#FF6953;}
	.st139{fill:#B06E53;}
	.st140{fill:#728EA0;}
	.st141{fill:#E5E4E3;}
	.st142{fill:#F7F3A8;}
	.st143{fill:#82827F;}
	.st144{fill:#353535;}
	.st145{fill:#A0B7D1;}
	.st146{fill:#ECEC66;}
	.st147{fill:#90BA72;}
	.st148{fill:#E7F2FC;}
	
		.st149{fill:none;stroke:#C6C6C6;stroke-width:2;stroke-linecap:round;stroke-linejoin:round;stroke-miterlimit:10;stroke-dasharray:5,10,5,10,5,10;}
	.st150{fill:#73A950;}
	.st151{fill:#FFA168;}
	.st152{fill:#2D688D;}
</style>
<g id="Capa_2">
</g>
<g id="Capa_3">
	<g>
		<g>
			<g>
				<path class="st79" d="M171.4,111.5H29c-7.1,0-12.9,5.8-12.9,12.9v102.1c0,1.6,1.3,2.8,2.8,2.8h162.7c1.6,0,2.8-1.3,2.8-2.8
					V124.4C184.4,117.2,178.6,111.5,171.4,111.5z M27.3,209.7v-84.2c0-1.5,1.3-2.8,2.8-2.8h140.3c1.5,0,2.8,1.3,2.8,2.8v84.2
					c0,1.5-1.3,2.8-2.8,2.8H30.1C28.5,212.5,27.3,211.2,27.3,209.7z"/>
			</g>
			<g>
				<path class="st105" d="M187.2,223.7h-174c-1.6,0-2.8,1.3-2.8,2.8l0,0c0,6.2,5,11.2,11.2,11.2h157.1c6.2,0,11.2-5,11.2-11.2l0,0
					C190,224.9,188.7,223.7,187.2,223.7z"/>
			</g>
			<g>
				<path class="st106" d="M158.7,194H111c-1.5,0-2.8-1.3-2.8-2.8v-44.9c0-1.5,1.3-2.8,2.8-2.8h47.7c1.5,0,2.8,1.3,2.8,2.8v44.9
					C161.5,192.8,160.2,194,158.7,194z"/>
			</g>
			<g>
				<g>
					<path class="st105" d="M64.2,171.6H41.7c-1.6,0-2.8-1.3-2.8-2.8s1.3-2.8,2.8-2.8h22.4c1.6,0,2.8,1.3,2.8,2.8
						S65.7,171.6,64.2,171.6z"/>
				</g>
			</g>
			<g>
				<g>
					<path class="st105" d="M64.2,182.8H41.7c-1.6,0-2.8-1.3-2.8-2.8s1.3-2.8,2.8-2.8h22.4c1.6,0,2.8,1.3,2.8,2.8
						S65.7,182.8,64.2,182.8z"/>
				</g>
			</g>
			<g>
				<g>
					<path class="st105" d="M64.2,194H41.7c-1.6,0-2.8-1.3-2.8-2.8s1.3-2.8,2.8-2.8h22.4c1.6,0,2.8,1.3,2.8,2.8S65.7,194,64.2,194z"
						/>
				</g>
			</g>
			<g>
				<g>
					<path class="st105" d="M97.8,171.6H75.4c-1.6,0-2.8-1.3-2.8-2.8s1.3-2.8,2.8-2.8h22.4c1.6,0,2.8,1.3,2.8,2.8
						S99.4,171.6,97.8,171.6z"/>
				</g>
			</g>
			<g>
				<g>
					<path class="st105" d="M97.8,182.8H75.4c-1.6,0-2.8-1.3-2.8-2.8s1.3-2.8,2.8-2.8h22.4c1.6,0,2.8,1.3,2.8,2.8
						S99.4,182.8,97.8,182.8z"/>
				</g>
			</g>
			<g>
				<g>
					<path class="st105" d="M97.8,194H75.4c-1.6,0-2.8-1.3-2.8-2.8s1.3-2.8,2.8-2.8h22.4c1.6,0,2.8,1.3,2.8,2.8S99.4,194,97.8,194z"
						/>
				</g>
			</g>
			<g>
				<g>
					<path class="st107" d="M78.2,160.4H41.7c-1.6,0-2.8-1.3-2.8-2.8s1.3-2.8,2.8-2.8h36.5c1.6,0,2.8,1.3,2.8,2.8
						S79.7,160.4,78.2,160.4z"/>
				</g>
			</g>
			<g>
				<path class="st108" d="M89,229.3h22.4c3.1,0,5.6-2.5,5.6-5.6H83.4C83.4,226.8,85.9,229.3,89,229.3z"/>
			</g>
			<text transform="matrix(1 0 0 1 38.9132 148)" class="st108 st123 st124">NEW MOMENT</text>
		</g>
		<g>
			<g>
				<rect x="216.8" y="131.2" class="st1" width="62.8" height="86.4"/>
			</g>
			<g>
				<rect x="234.4" y="117.4" class="st79" width="21.6" height="7.9"/>
			</g>
			<g>
				<rect x="240.3" y="219.5" class="st79" width="15.7" height="15.7"/>
			</g>
			<g>
				<path class="st109" d="M273.7,111.5h-51c-5.4,0-9.8,4.4-9.8,9.8v106c0,5.4,4.4,9.8,9.8,9.8h51c5.4,0,9.8-4.4,9.8-9.8v-106
					C283.5,115.9,279.1,111.5,273.7,111.5z M244.3,119.4h7.9c1.1,0,2,0.9,2,2s-0.9,2-2,2h-7.9c-1.1,0-2-0.9-2-2
					S243.2,119.4,244.3,119.4z M237,119.9c0.7-0.7,2.1-0.7,2.8,0c0.4,0.4,0.6,0.9,0.6,1.4c0,0.5-0.2,1-0.6,1.4
					c-0.4,0.4-0.9,0.6-1.4,0.6c-0.5,0-1-0.2-1.4-0.6c-0.4-0.4-0.6-0.9-0.6-1.4C236.4,120.8,236.6,120.3,237,119.9z M248.2,233.2
					c-3.2,0-5.9-2.6-5.9-5.9s2.6-5.9,5.9-5.9c3.2,0,5.9,2.6,5.9,5.9S251.4,233.2,248.2,233.2z M279.6,217.5h-62.8v-86.4h62.8V217.5z
					"/>
			</g>
			<g>
				<g>
					<path class="st105" d="M271.7,157.1h-35.3c-1.1,0-2-0.9-2-2s0.9-2,2-2h35.3c1.1,0,2,0.9,2,2S272.8,157.1,271.7,157.1z"/>
				</g>
			</g>
			<g>
				<circle class="st107" cx="226.6" cy="155.2" r="3.9"/>
			</g>
			<path class="st106" d="M266.5,212.6h-36.7c-4,0-7.2-3.2-7.2-7.2v-33.5c0-4,3.2-7.2,7.2-7.2h36.7c4,0,7.2,3.2,7.2,7.2v33.5
				C273.7,209.3,270.5,212.6,266.5,212.6z"/>
			<g>
				<path class="st108" d="M223.9,144.6c0,0.1-0.1,0.3-0.2,0.4c-0.1,0.1-0.2,0.2-0.4,0.2c-0.1,0-0.3-0.1-0.4-0.2
					c-0.1-0.1-0.2-0.2-0.2-0.4v-6.1l0,0c0-0.5,0.2-0.8,0.5-1.2c0.3-0.3,0.7-0.5,1.2-0.5h0l0.1,0c0.5,0,0.8,0.2,1.2,0.5
					c0.3,0.3,0.5,0.7,0.5,1.2v6.1c0,0.1-0.1,0.3-0.2,0.4c-0.1,0.1-0.2,0.2-0.4,0.2c-0.1,0-0.3-0.1-0.4-0.2c-0.1-0.1-0.2-0.2-0.2-0.4
					v-6.2h0c0-0.1-0.1-0.2-0.2-0.4c-0.1-0.1-0.3-0.2-0.5-0.2h0c-0.2,0-0.3,0.1-0.5,0.2c-0.1,0.1-0.2,0.3-0.2,0.5V144.6z"/>
				<path class="st108" d="M228.6,141.5v1.9c0,0.2,0.1,0.3,0.2,0.5c0.1,0.1,0.3,0.2,0.4,0.2h0.1c0.1,0,0.2,0,0.2,0v0l0.2-0.1
					c0.1-0.1,0.1-0.1,0.2-0.2c0.1-0.1,0.2-0.2,0.3-0.3c0.1,0,0.1,0,0.2,0c0.1,0,0.2,0,0.2,0.1c0.1,0.1,0.2,0.2,0.3,0.3
					c0,0.1,0,0.1,0,0.2c0,0.1,0,0.2-0.1,0.2c-0.1,0.3-0.3,0.5-0.6,0.6l-0.1,0l-0.1,0c0,0,0,0-0.1,0c-0.2,0.1-0.4,0.2-0.7,0.2l-0.1,0
					h-0.1v0h0.1c-0.5,0-0.9-0.2-1.2-0.5c-0.3-0.3-0.5-0.7-0.5-1.2l0-0.1v-4.9l0,0c0-0.5,0.2-0.8,0.5-1.2c0.3-0.3,0.7-0.5,1.2-0.5h0
					l0.1,0c0.2,0,0.5,0.1,0.7,0.2v0l0.2,0.1l0,0c0.2,0.2,0.4,0.4,0.6,0.6c0,0.1,0.1,0.2,0.1,0.2c0,0.1,0,0.1,0,0.2
					c0,0.1-0.1,0.2-0.3,0.3c-0.1,0-0.2,0.1-0.2,0.1c-0.1,0-0.1,0-0.2,0c-0.1,0-0.2-0.1-0.3-0.3c-0.1-0.1-0.1-0.2-0.2-0.3l-0.1-0.1
					c0,0-0.1,0-0.2,0h0c-0.2,0-0.3,0.1-0.5,0.2c-0.1,0.1-0.2,0.3-0.2,0.5v1.9h1.5c0.1,0,0.3,0.1,0.4,0.2c0.1,0.1,0.2,0.2,0.2,0.4
					c0,0.1-0.1,0.3-0.2,0.4c-0.1,0.1-0.2,0.2-0.4,0.2H228.6z M230.1,137L230.1,137L230.1,137L230.1,137L230.1,137z M230.1,137
					L230.1,137L230.1,137L230.1,137z"/>
				<path class="st108" d="M235.1,136.8c0.1,0,0.3,0.1,0.4,0.2c0.1,0.1,0.2,0.2,0.2,0.4v6.1c0,0.2,0.1,0.3,0.2,0.5
					c0.1,0.1,0.3,0.2,0.5,0.2l0,0c0.2,0,0.3-0.1,0.5-0.2c0.1-0.1,0.2-0.3,0.2-0.5v-6.1c0-0.1,0.1-0.3,0.2-0.4
					c0.1-0.1,0.2-0.2,0.4-0.2s0.3,0.1,0.4,0.2c0.1,0.1,0.2,0.2,0.2,0.4v6.1c0,0.5-0.2,0.9-0.5,1.2c-0.3,0.3-0.7,0.5-1.2,0.5l-0.1,0
					h0c-0.5,0-0.9-0.2-1.2-0.5c0,0,0,0,0,0v0l0,0l0,0l0,0c-0.3,0.3-0.7,0.5-1.2,0.5l-0.1,0h0c-0.5,0-0.9-0.2-1.2-0.5
					c-0.3-0.3-0.5-0.7-0.5-1.2l0,0v-6.1c0-0.1,0.1-0.3,0.2-0.4c0.1-0.1,0.2-0.2,0.4-0.2c0.1,0,0.3,0.1,0.4,0.2
					c0.1,0.1,0.2,0.2,0.2,0.4v6.1c0,0.2,0.1,0.3,0.2,0.5c0.1,0.1,0.3,0.2,0.5,0.2h0c0.2,0,0.3-0.1,0.5-0.2c0.1-0.1,0.2-0.3,0.2-0.4
					h0v-6.2c0-0.1,0.1-0.3,0.2-0.4C234.8,136.8,234.9,136.8,235.1,136.8L235.1,136.8z"/>
				<path class="st108" d="M244.6,145.1c-0.1,0-0.3-0.1-0.4-0.2c-0.1-0.1-0.2-0.2-0.2-0.4v-6.2h0c0-0.1-0.1-0.2-0.2-0.4
					c-0.1-0.1-0.3-0.2-0.5-0.2h0c-0.2,0-0.3,0.1-0.5,0.2c-0.1,0.1-0.2,0.3-0.2,0.5v6.1c0,0.1-0.1,0.3-0.2,0.4
					c-0.1,0.1-0.2,0.2-0.4,0.2c-0.1,0-0.3-0.1-0.4-0.2c-0.1-0.1-0.2-0.2-0.2-0.4v-6.1l0,0c0-0.5,0.2-0.8,0.5-1.2
					c0.3-0.3,0.7-0.5,1.2-0.5h0l0.1,0c0.5,0,0.8,0.2,1.2,0.5l0,0l0,0l0,0c0,0,0,0,0,0c0.3-0.3,0.7-0.5,1.2-0.5h0l0.1,0
					c0.5,0,0.8,0.2,1.2,0.5c0.3,0.3,0.5,0.7,0.5,1.2v6.1c0,0.1-0.1,0.3-0.2,0.4c-0.1,0.1-0.2,0.2-0.4,0.2s-0.3-0.1-0.4-0.2
					c-0.1-0.1-0.2-0.2-0.2-0.4v-6.1c0-0.2-0.1-0.3-0.2-0.5c-0.1-0.1-0.3-0.2-0.5-0.2l0,0c-0.2,0-0.3,0.1-0.5,0.2
					c-0.1,0.1-0.2,0.3-0.2,0.5v6.1c0,0.1-0.1,0.3-0.2,0.4C244.9,145.1,244.8,145.1,244.6,145.1L244.6,145.1z"/>
				<path class="st108" d="M250.6,136.8L250.6,136.8c0.5,0,0.9,0.2,1.2,0.5c0.3,0.3,0.5,0.7,0.5,1.2v4.9c0,0.5-0.2,0.8-0.5,1.2l0,0
					c-0.3,0.3-0.7,0.5-1.2,0.5h0.1v0h-0.1l-0.1,0c-0.4,0-0.8-0.2-1.2-0.5c-0.3-0.3-0.5-0.8-0.5-1.3v-4.8l0-0.1
					c0-0.5,0.2-0.8,0.5-1.2C249.7,136.9,250.1,136.8,250.6,136.8L250.6,136.8z M250.5,137.8c-0.2,0-0.3,0.1-0.5,0.2
					s-0.2,0.3-0.2,0.5v5h0c0,0.1,0.1,0.2,0.2,0.4c0.1,0.1,0.3,0.2,0.5,0.2h0l0,0h0.1v0c0.1,0,0.2-0.1,0.3-0.2l0,0
					c0.1-0.1,0.2-0.3,0.2-0.5v0l0,0v-5h0c0-0.1-0.1-0.2-0.2-0.4C250.9,137.9,250.8,137.8,250.5,137.8L250.5,137.8z"/>
				<path class="st108" d="M256.6,145.1c-0.1,0-0.3-0.1-0.4-0.2c-0.1-0.1-0.2-0.2-0.2-0.4v-6.2h0c0-0.1-0.1-0.2-0.2-0.4
					c-0.1-0.1-0.3-0.2-0.5-0.2h0c-0.2,0-0.3,0.1-0.5,0.2c-0.1,0.1-0.2,0.3-0.2,0.5v6.1c0,0.1-0.1,0.3-0.2,0.4
					c-0.1,0.1-0.2,0.2-0.4,0.2c-0.1,0-0.3-0.1-0.4-0.2c-0.1-0.1-0.2-0.2-0.2-0.4v-6.1l0,0c0-0.5,0.2-0.8,0.5-1.2
					c0.3-0.3,0.7-0.5,1.2-0.5h0l0.1,0c0.5,0,0.8,0.2,1.2,0.5l0,0l0,0l0,0c0,0,0,0,0,0c0.3-0.3,0.7-0.5,1.2-0.5h0l0.1,0
					c0.5,0,0.8,0.2,1.2,0.5c0.3,0.3,0.5,0.7,0.5,1.2v6.1c0,0.1-0.1,0.3-0.2,0.4c-0.1,0.1-0.2,0.2-0.4,0.2s-0.3-0.1-0.4-0.2
					c-0.1-0.1-0.2-0.2-0.2-0.4v-6.1c0-0.2-0.1-0.3-0.2-0.5c-0.1-0.1-0.3-0.2-0.5-0.2l0,0c-0.2,0-0.3,0.1-0.5,0.2
					c-0.1,0.1-0.2,0.3-0.2,0.5v6.1c0,0.1-0.1,0.3-0.2,0.4C256.9,145.1,256.7,145.1,256.6,145.1L256.6,145.1z"/>
				<path class="st108" d="M261.8,141.5v1.9c0,0.2,0.1,0.3,0.2,0.5c0.1,0.1,0.3,0.2,0.4,0.2h0.1c0.1,0,0.2,0,0.2,0v0l0.2-0.1
					c0.1-0.1,0.1-0.1,0.2-0.2c0.1-0.1,0.2-0.2,0.3-0.3c0.1,0,0.1,0,0.2,0c0.1,0,0.2,0,0.2,0.1c0.1,0.1,0.2,0.2,0.3,0.3
					c0,0.1,0,0.1,0,0.2c0,0.1,0,0.2-0.1,0.2c-0.1,0.3-0.3,0.5-0.6,0.6l-0.1,0l-0.1,0c0,0,0,0-0.1,0c-0.2,0.1-0.4,0.2-0.7,0.2l-0.1,0
					h-0.1v0h0.1c-0.5,0-0.9-0.2-1.2-0.5c-0.3-0.3-0.5-0.7-0.5-1.2l0-0.1v-4.9l0,0c0-0.5,0.2-0.8,0.5-1.2c0.3-0.3,0.7-0.5,1.2-0.5h0
					l0.1,0c0.2,0,0.5,0.1,0.7,0.2v0l0.2,0.1l0,0c0.2,0.2,0.4,0.4,0.6,0.6c0,0.1,0.1,0.2,0.1,0.2c0,0.1,0,0.1,0,0.2
					c0,0.1-0.1,0.2-0.3,0.3c-0.1,0-0.2,0.1-0.2,0.1c-0.1,0-0.1,0-0.2,0c-0.1,0-0.2-0.1-0.3-0.3c-0.1-0.1-0.1-0.2-0.2-0.3l-0.1-0.1
					c0,0-0.1,0-0.2,0h0c-0.2,0-0.3,0.1-0.5,0.2c-0.1,0.1-0.2,0.3-0.2,0.5v1.9h1.5c0.1,0,0.3,0.1,0.4,0.2c0.1,0.1,0.2,0.2,0.2,0.4
					c0,0.1-0.1,0.3-0.2,0.4c-0.1,0.1-0.2,0.2-0.4,0.2H261.8z M263.3,137L263.3,137L263.3,137L263.3,137L263.3,137z M263.3,137
					L263.3,137L263.3,137L263.3,137z"/>
				<path class="st108" d="M266.4,144.6c0,0.1-0.1,0.3-0.2,0.4c-0.1,0.1-0.2,0.2-0.4,0.2c-0.1,0-0.3-0.1-0.4-0.2
					c-0.1-0.1-0.2-0.2-0.2-0.4v-6.1l0,0c0-0.5,0.2-0.8,0.5-1.2c0.3-0.3,0.7-0.5,1.2-0.5h0l0.1,0c0.5,0,0.8,0.2,1.2,0.5
					c0.3,0.3,0.5,0.7,0.5,1.2v6.1c0,0.1-0.1,0.3-0.2,0.4c-0.1,0.1-0.2,0.2-0.4,0.2c-0.1,0-0.3-0.1-0.4-0.2c-0.1-0.1-0.2-0.2-0.2-0.4
					v-6.2h0c0-0.1-0.1-0.2-0.2-0.4c-0.1-0.1-0.3-0.2-0.5-0.2h0c-0.2,0-0.3,0.1-0.5,0.2c-0.1,0.1-0.2,0.3-0.2,0.5V144.6z"/>
				<path class="st108" d="M273,136.8c0.1,0,0.3,0.1,0.4,0.2c0.1,0.1,0.2,0.2,0.2,0.4c0,0.1-0.1,0.3-0.2,0.4
					c-0.1,0.1-0.2,0.2-0.4,0.2h-0.7v6.7c0,0.1-0.1,0.3-0.2,0.4c-0.1,0.1-0.2,0.2-0.4,0.2c-0.1,0-0.3-0.1-0.4-0.2
					c-0.1-0.1-0.2-0.2-0.2-0.4v-6.7h-0.7c-0.1,0-0.3-0.1-0.4-0.2c-0.1-0.1-0.2-0.2-0.2-0.4c0-0.1,0.1-0.3,0.2-0.4
					c0.1-0.1,0.2-0.2,0.4-0.2H273z"/>
			</g>
		</g>
		<g>
			<path class="st110" d="M315,65.7v29.2c0,2.2-1.6,4.1-3.8,4.1h-47.6l-9.6,6.4l-2.3-6.4h-2.6c-2.2,0-4.2-1.9-4.2-4.1V65.7
				c0-2.2,2-4.7,4.2-4.7h62C313.4,61,315,63.5,315,65.7z"/>
			<line class="st96" x1="259.2" y1="76.2" x2="279.6" y2="76.2"/>
			<line class="st96" x1="259.2" y1="80.4" x2="300.8" y2="80.4"/>
			<line class="st96" x1="259.2" y1="85.3" x2="300.8" y2="85.3"/>
			<circle class="st1" cx="251" cy="66.3" r="2.6"/>
		</g>
		<g>
			<path class="st111" d="M95,65.7v29.2c0,2.2-1.6,4.1-3.8,4.1H43.6l-9.6,6.4L31.8,99h-2.6C27,99,25,97.1,25,94.9V65.7
				c0-2.2,2-4.7,4.2-4.7h62C93.4,61,95,63.5,95,65.7z"/>
			<line class="st112" x1="39.2" y1="76.2" x2="59.6" y2="76.2"/>
			<line class="st112" x1="39.2" y1="80.4" x2="80.8" y2="80.4"/>
			<line class="st112" x1="39.2" y1="85.3" x2="80.8" y2="85.3"/>
			<circle class="st1" cx="31" cy="66.3" r="2.6"/>
		</g>
		<g>
			<path class="st113" d="M190,52.7v29.2c0,2.2-1.6,4.1-3.8,4.1h-47.6l-9.6,6.4l-2.3-6.4h-2.6c-2.2,0-4.2-1.9-4.2-4.1V52.7
				c0-2.2,2-4.7,4.2-4.7h62C188.4,48,190,50.5,190,52.7z"/>
			<line class="st114" x1="134.2" y1="63.2" x2="154.6" y2="63.2"/>
			<line class="st114" x1="134.2" y1="67.4" x2="175.8" y2="67.4"/>
			<line class="st114" x1="134.2" y1="72.3" x2="175.8" y2="72.3"/>
			<circle class="st1" cx="126" cy="53.3" r="2.6"/>
		</g>
		<g>
			<path class="st115" d="M336,14.7v29.2c0,2.2-1.6,4.1-3.8,4.1h-47.6l-9.6,6.4l-2.3-6.4h-2.6c-2.2,0-4.2-1.9-4.2-4.1V14.7
				c0-2.2,2-4.7,4.2-4.7h62C334.4,10,336,12.5,336,14.7z"/>
			<line class="st96" x1="280.2" y1="25.2" x2="300.6" y2="25.2"/>
			<line class="st96" x1="280.2" y1="29.4" x2="321.8" y2="29.4"/>
			<line class="st96" x1="280.2" y1="34.3" x2="321.8" y2="34.3"/>
			<circle class="st1" cx="272" cy="15.3" r="2.6"/>
		</g>
		<g>
			<path class="st116" d="M209,4.7v29.2c0,2.2-1.6,4.1-3.8,4.1h-47.6l-9.6,6.4l-2.3-6.4h-2.6c-2.2,0-4.2-1.9-4.2-4.1V4.7
				c0-2.2,2-4.7,4.2-4.7h62C207.4,0,209,2.5,209,4.7z"/>
			<line class="st96" x1="153.2" y1="15.2" x2="173.6" y2="15.2"/>
			<line class="st96" x1="153.2" y1="19.4" x2="194.8" y2="19.4"/>
			<line class="st96" x1="153.2" y1="24.3" x2="194.8" y2="24.3"/>
			<circle class="st1" cx="145" cy="5.3" r="2.6"/>
		</g>
		<g>
			<path class="st117" d="M0,16.7v29.2C0,48.1,1.6,50,3.8,50h47.6l9.6,6.4l2.3-6.4h2.6c2.2,0,4.2-1.9,4.2-4.1V16.7
				c0-2.2-2-4.7-4.2-4.7h-62C1.6,12,0,14.5,0,16.7z"/>
			<line class="st96" x1="35" y1="27.1" x2="14.5" y2="27.1"/>
			<line class="st96" x1="55.8" y1="31.4" x2="14.2" y2="31.4"/>
			<line class="st96" x1="55.8" y1="36.3" x2="14.2" y2="36.3"/>
			<circle class="st1" cx="5.1" cy="17.3" r="2.6"/>
		</g>
		<g>
			<path class="st5" d="M200.4,42.6v10.6l5-2.5l5,2.5V42.3c-1.5,1.1-3.2,1.7-5.2,1.7C203.4,44,201.8,43.5,200.4,42.6z"/>
			<path class="st1" d="M201.8,42.9v7.6l3.6-1.8l3.6,1.8v-7.8c-1,0.8-2.3,1.2-3.7,1.2C203.9,43.9,202.8,43.5,201.8,42.9z"/>
			<path class="st91" d="M205.2,26.5c-4.8,0-8.8,3.9-8.8,8.8c0,3.1,1.6,5.8,4,7.3c1.4,0.9,3,1.4,4.8,1.4L205.2,26.5L205.2,26.5z"/>
			<path class="st92" d="M213.9,35.3c0-4.8-3.9-8.8-8.8-8.8V44c1.9,0,3.7-0.6,5.2-1.7C212.5,40.7,213.9,38.2,213.9,35.3z"/>
			<circle class="st15" cx="205.2" cy="35.3" r="6.1"/>
		</g>
		<g>
			<path class="st5" d="M307.2,104.4v10.9l5.1-2.6l5.1,2.6v-11.2c-1.5,1.1-3.3,1.7-5.3,1.7C310.3,105.8,308.6,105.3,307.2,104.4z"/>
			<path class="st1" d="M308.7,104.7v7.8l3.6-1.8l3.6,1.8v-8c-1.1,0.8-2.4,1.2-3.8,1.2C310.9,105.7,309.7,105.3,308.7,104.7z"/>
			<path class="st91" d="M312.1,87.9c-4.9,0-9,4-9,9c0,3.1,1.6,5.9,4.1,7.5c1.4,0.9,3.1,1.5,4.9,1.5L312.1,87.9L312.1,87.9z"/>
			<path class="st92" d="M321.1,96.9c0-4.9-4-9-9-9v17.9c2,0,3.8-0.6,5.3-1.7C319.6,102.5,321.1,99.8,321.1,96.9z"/>
			<circle class="st15" cx="312.1" cy="96.9" r="6.3"/>
		</g>
	</g>
</g>
</svg>
