<svg xmlns="http://www.w3.org/2000/svg" viewBox="0 0 103.4 18.3"><style>.st0{opacity:.49;fill:url(#SVGID_3_)}.st1{fill:#fff}.st2{fill:#262626}.st3{fill:#eaedf4}.st4{fill:#ade9e9}.st5{fill:#20ad8a}.st6{fill:#ffc06c}.st7{fill:#3f4d55}.st8{fill:#5d5d5d}.st9{fill:#b7b7b7}.st10{fill:#adadad}.st11{fill:#b2b2b2}.st12{fill:gray}.st13{fill:#4d4d4d}.st14{fill:#333}.st15{fill:#efce4a}.st16{fill:#ed8a19}.st17{fill:#ebba16}.st18{fill:#c7cac7}.st19{fill:#e7eced}.st20{opacity:.7;clip-path:url(#SVGID_5_)}.st21{opacity:.12;fill:#ffc06c}.st22{opacity:.16}.st22,.st23,.st24{fill:#ffc06c}.st23{opacity:.22}.st24{opacity:.3}.st25{clip-path:url(#SVGID_7_)}.st26{opacity:.15}.st26,.st27,.st28{fill:#20ad8a}.st27{opacity:.23}.st28{opacity:.3}.st29{fill:#aaa}.st30,.st31{fill:none;stroke:#3f4d55;stroke-miterlimit:10}.st31{stroke-linecap:round}.st32{fill:#f00101}.st33{fill:#030303}.st34{fill:#70cadb}.st35{fill:#e01765}.st36{fill:#e8a723}.st37{fill:#3eb890}.st38{fill:#cc2027}.st39{fill:#361238}.st40{fill:#65863a}.st41{fill:#1a937d}.st42{fill:#666}.st43{fill:#d5e1e8}.st44{fill:#e6eef2}.st45{fill:#573d82}.st46{fill:#453068}.st47{fill:#3fba91}.st48{fill:#6fcbdc}.st49{fill:#dcdcdc}.st50{fill:#ffc585}.st51{fill:#ff3e88}.st52{fill:#675470}.st53{fill:#4a4687}.st54{fill:#f3f3f3}.st55{opacity:.5;fill:#8977a7}.st56{fill:#e1e9ef}.st57{fill:#ffd7a3}.st58{fill:#fdc88e}.st59{fill:#ffe1b2}.st60{fill:#a2cde2}.st61{fill:#545465}.st62{fill:#29394a}.st63{fill:#b5e0f0}.st64{fill:#4a698e}.st65{fill:#416185}.st66{fill:#395a7f}.st67{fill:#ffd5ab}.st68{fill:#e4ebf0}.st69{fill:#d0d7dc}.st70{fill:#527992}.st71{fill:#475f7f}.st72{fill:#d3e5bd}.st73{fill:#827873}.st74{fill:#e0dddc}.st75{fill:#a19996}.st76{fill:#3cf}.st77{fill:#d8dce1}.st78{fill:#db4026}.st79{fill:#5c546a}.st80{fill:#e8d21d}.st81{fill:#4aecaf}.st82{fill:#80362d}.st83{fill:#ffb980}.st84{fill:#f8ab6b}.st85{fill:#bf9b5f}.st86{fill:#83603f}.st87{fill:#b0e070}.st88{fill:#7e5c62}.st89{fill:#a27082}.st90{fill:#7e5449}.st91{fill:#ffda44}.st92{fill:#ffcd00}.st93{fill:#b1664f}.st94{fill:#ffdaa9}.st95{fill:#5fbea0}.st96{fill:none;stroke:#fff;stroke-width:2;stroke-linecap:round;stroke-miterlimit:10}.st97{fill:#188268}.st98{fill:#d2efe8}.st99{fill:#79ceb9}.st100{fill:#ebebed}.st101{fill:#474f49}.st102{fill:#daaba9}.st103{fill:#757eaf}.st104{fill:#edcc70}.st105{fill:#b9bbc1}.st106{fill:#53dcff}.st107{fill:#fcee21}.st108{fill:#8b8996}.st109{fill:#686777}.st110{fill:#67a2a9}.st111,.st112{fill:#ff93b5}.st112{stroke:#fff;stroke-width:2;stroke-linecap:round;stroke-miterlimit:10}.st113,.st114{fill:#f3d960}.st114{stroke:#fff;stroke-width:2;stroke-linecap:round;stroke-miterlimit:10}.st115{fill:#7bd766}.st116{fill:#8166a4}.st117{fill:#f67d69}.st118{fill:#ccc}.st119{fill:#e6e6e6}.st120{fill:#b3b3b3}.st121{fill:none;stroke:#da6f67;stroke-linecap:round;stroke-miterlimit:10}.st122{fill:#bc679b}.st123{fill:#09614b}.st124{fill:#50748a}.st125{fill:#e2e4ff}.st126{fill:#a7795e}.st127{fill:#adb4ba}.st128{fill:#4ea0ca}.st129{fill:#394959}.st130{fill:#e05040}.st131{fill:#b4a87d}.st132{fill:#7b7256}.st133{fill:#fcc261}.st134{fill:#111820}.st135{fill:#dfded6}.st136{fill:#ff6953}.st137{fill:#b06e53}.st138{fill:#728ea0}.st139{fill:#e5e4e3}.st140{fill:#f7f3a8}.st141{fill:#82827f}.st142{fill:#353535}.st143{fill:#a0b7d1}.st144{fill:#ecec66}.st145{fill:#90ba72}.st146{fill:#e7f2fc}.st147{fill:none;stroke:#c6c6c6;stroke-width:2;stroke-linecap:round;stroke-linejoin:round;stroke-miterlimit:10;stroke-dasharray:5,10,5,10,5,10}.st148{fill:#73a950}.st149{fill:#ffa168}.st150{fill:#2d688d}</style><path class="st7" d="M6.5 18.3c-.3 0-.6-.1-.8-.3-.2-.2-.3-.5-.3-.8V3.6c0-.2-.2-.5-.4-.8-.3-.3-.6-.4-1-.4h-.2c-.4 0-.7.1-1 .4-.3.2-.5.6-.5 1v13.4c0 .3-.1.6-.3.8-.2.2-.5.3-.8.3-.3 0-.6-.1-.8-.3-.3-.2-.4-.5-.4-.8V3.7c0-1 .4-1.9 1.1-2.6C1.9.4 2.7 0 3.8 0H4c1 0 1.8.4 2.5 1.1h.1C7.2.4 8.1 0 9.1 0h.2c1 0 1.8.4 2.6 1.1.7.8 1.1 1.7 1.1 2.7v13.4c0 .3-.1.6-.3.8-.2.2-.5.3-.8.3-.3 0-.6-.1-.8-.3-.2-.2-.3-.5-.3-.8V3.8c0-.4-.2-.7-.4-1-.3-.3-.6-.4-1-.4h-.1c-.4 0-.7.2-1 .4-.5.2-.6.6-.6 1v13.4c0 .3-.1.6-.3.8-.3.2-.5.3-.9.3zm13.3-3.8c0 .4.2.8.4 1 .3.3.6.4 1 .4h.1c.4 0 .7-.2 1-.5.3-.3.4-.6.4-.8V1.2c0-.3.1-.6.3-.8.3-.3.6-.4.9-.4.3 0 .6.1.8.3.2.2.3.5.3.8v13.4c0 1-.4 1.9-1.1 2.6-.7.7-1.6 1.1-2.5 1.1H21h.2c-1 0-1.9-.4-2.6-1.1-.7-.7-1.1-1.6-1.1-2.6V1.2c0-.3.1-.6.3-.8.2-.3.5-.4.8-.4.3 0 .6.1.8.3.2.2.3.5.3.8v13.4zM37.2 3.8c0 .3-.1.6-.3.8-.2.3-.5.4-.8.4-.3 0-.6-.1-.8-.3-.2-.2-.3-.5-.3-.8v-.1c0-.4-.2-.7-.4-1-.3-.3-.7-.4-1.3-.4h.2c-.4 0-.8.2-1 .5-.3.3-.4.6-.4 1 0 .7.2 1.3.6 1.9.3.4.7.9 1.5 1.6 1.2 1.1 2 2 2.4 2.8.6 1 .9 2.2.9 3.6v.9c0 1-.4 1.9-1.1 2.6-.7.7-1.6 1.1-2.6 1.1h-.2c-1 0-1.9-.4-2.7-1.1-.7-.7-1.1-1.6-1.1-2.6v-.1c0-.3.1-.6.3-.8.2-.2.5-.3.8-.3.3 0 .6.1.8.3.2.2.3.5.3.8 0 .4.2.7.4 1 .3.3.6.4.8.4h.3c.4 0 .7-.2 1-.5.3-.3.4-.6.4-1v-.7c0-1-.2-1.9-.7-2.7-.3-.6-1-1.3-1.9-2.1-.9-.9-1.6-1.6-2-2.1-.6-.9-.9-1.9-.9-3V4c0-1.1.4-2 1.2-2.8.7-.7 1.5-1 2.5-1.1h.1c1.1 0 2 .4 2.8 1.1.7.7 1.1 1.6 1.1 2.6zm7.4 6.6v4.2c0 .4.2.8.4 1 .3.3.6.4.8.4h.3c.2 0 .3 0 .4-.1l.4-.2c.2-.1.3-.3.4-.5.2-.3.4-.5.7-.6h.3c.2 0 .4 0 .5.1.3.2.5.4.6.7 0 .1.1.2.1.3 0 .2 0 .4-.1.5-.3.6-.7 1-1.3 1.4l-.1.1-.1.1s-.1.1-.2.1c-.5.2-1 .3-1.5.4h-.4.2c-1 0-1.9-.4-2.7-1.1-.7-.7-1.1-1.6-1.1-2.6V3.7c0-1 .4-1.9 1.1-2.6.9-.7 1.8-1.1 2.8-1.1h.2c.5 0 1 .1 1.5.4l.4.2c.5.3 1 .8 1.3 1.4.1.2.1.4.1.5 0 .1 0 .2-.1.3-.1.3-.3.5-.6.7-.2.1-.4.1-.5.1-.1 0-.2 0-.3-.1-.3-.1-.5-.3-.7-.6-.1-.2-.3-.4-.5-.6l-.3-.2c-.1 0-.3-.1-.5-.1H46c-.4 0-.7.1-1 .4-.3.3-.4.6-.4 1v4.2h3.3c.3 0 .6.1.8.3.2.2.3.5.3.8 0 .3-.1.6-.3.8-.2.2-.5.3-.8.3h-3.3zm3.3-10zm0 0l.2.1-.2-.1zm12.8 17.9c-.3 0-.6-.1-.8-.3-.2-.2-.3-.5-.3-.8V3.6c0-.2-.2-.5-.4-.8-.3-.3-.6-.4-1-.4H58c-.4 0-.7.1-1 .4-.3.3-.4.6-.4 1v13.4c0 .3-.1.6-.3.8-.2.2-.5.3-.8.3-.3 0-.6-.1-.8-.3-.2-.2-.3-.5-.3-.8V3.7c0-1 .4-1.9 1.1-2.6C56.1.4 57 0 58 0h.1c1 0 1.8.4 2.5 1.1l-.1-.1h.1c.9-.6 1.7-1 2.8-1h.2c1 0 1.8.4 2.6 1.1.7.7 1.1 1.6 1.1 2.7v13.4c0 .3-.1.6-.3.8-.2.2-.5.3-.8.3-.3 0-.6-.1-.8-.3-.2-.2-.3-.5-.3-.8V3.8c0-.4-.2-.7-.4-1s-.6-.4-1-.4h-.1c-.4 0-.7.2-1 .4-.3.3-.4.6-.4 1v13.4c0 .3-.1.6-.3.8-.6.2-.8.3-1.2.3zM74 10.4v4.2c0 .4.2.8.4 1 .3.3.6.4.8.4h.3c.2 0 .3 0 .4-.1l.4-.2c.2-.1.3-.3.4-.5.2-.3.4-.5.7-.6h.3c.2 0 .4 0 .5.1.3.2.5.4.6.7 0 .1.1.2.1.3 0 .2 0 .4-.1.5-.3.6-.7 1-1.3 1.4l-.1.1-.1.1s-.1.1-.2.1c-.5.2-1 .3-1.5.4h-.4.2c-1 0-1.9-.4-2.7-1.1-.7-.7-1.1-1.6-1.1-2.6V3.7c0-1 .4-1.9 1.1-2.6.9-.7 1.8-1.1 2.8-1.1h.2c.5 0 1 .1 1.5.4l.4.2c.5.3 1 .8 1.3 1.4.1.2.1.4.1.5 0 .1 0 .2-.1.3-.1.3-.3.5-.6.7-.2.1-.4.1-.5.1-.1 0-.2 0-.3-.1-.3-.1-.5-.3-.7-.6-.1-.2-.3-.4-.5-.6l-.3.1c-.1 0-.3-.1-.5-.1h-.1c-.4 0-.7.1-1 .4-.3.3-.4.6-.4 1v4.2h3.3c.3 0 .6.1.8.3.2.2.3.5.3.8 0 .3-.1.6-.3.8-.2.2-.5.3-.8.3H74zm3.3-10zm0 0l.2.1-.2-.1zm8.6 16.8c0 .3-.1.6-.3.8-.2.2-.5.3-.8.3-.3 0-.6-.1-.8-.3-.2-.2-.3-.5-.3-.8V3.7c0-1 .4-1.9 1.1-2.6.7-.7 1.6-1.1 2.6-1.1h.2c1 0 1.8.4 2.5 1.1.7.7 1.1 1.6 1.1 2.6v13.4c0 .3-.1.6-.3.8-.2.2-.5.3-.8.3-.3 0-.6-.1-.8-.3-.2-.2-.3-.5-.3-.8V3.6c0-.2-.2-.5-.4-.8-.3-.3-.6-.4-1-.4h-.1c-.4 0-.7.1-1 .4-.3.3-.4.6-.4 1v13.4zM102.2 0c.3 0 .6.1.8.3.2.2.3.5.3.8 0 .3-.1.6-.3.8-.2.2-.5.3-.8.3h-1.5v14.9c0 .3-.1.6-.3.8-.2.2-.5.3-.8.3-.3 0-.6-.1-.8-.3-.2-.2-.3-.5-.3-.8V2.3H97c-.3 0-.6-.1-.8-.3-.2-.2-.3-.5-.3-.8 0-.3.1-.6.3-.8.1-.3.4-.4.7-.4h5.3z" id="Capa_3"/></svg>