<?xml version="1.0" encoding="utf-8"?>
<!-- Generator: Adobe Illustrator 19.0.0, SVG Export Plug-In . SVG Version: 6.00 Build 0)  -->
<svg version="1.1" id="Layer_1" xmlns="http://www.w3.org/2000/svg" xmlns:xlink="http://www.w3.org/1999/xlink" x="0px" y="0px"
	 viewBox="0 0 165.6 22.3" style="enable-background:new 0 0 165.6 22.3;" xml:space="preserve">
<style type="text/css">
	.st0{fill:#3F4D55;}
</style>
<g id="XMLID_699_">
	<path id="XMLID_716_" class="st0" d="M7.7,22.3c-0.3,0-0.6-0.1-0.8-0.3c-0.2-0.2-0.3-0.5-0.3-0.8V4.5h0C6.6,3.9,6.4,3.4,6,3
		C5.5,2.6,5,2.3,4.5,2.3H4.4C3.8,2.3,3.4,2.5,2.9,3C2.5,3.4,2.3,3.9,2.3,4.5v16.6c0,0.3-0.1,0.6-0.3,0.8c-0.2,0.2-0.5,0.3-0.8,0.3
		c-0.3,0-0.6-0.1-0.8-0.3C0.1,21.7,0,21.4,0,21.1V4.5l0-0.1c0-1.2,0.5-2.2,1.3-3C2.2,0.5,3.2,0,4.4,0h0.1l0.2,0c1.2,0,2.2,0.5,3,1.3
		c0.1,0.1,0.1,0.1,0.2,0.2C7.9,1.5,7.9,1.4,8,1.3C8.9,0.4,9.9,0,11.1,0h0.1l0.1,0c1.2,0,2.2,0.5,3,1.3c0.9,0.9,1.3,1.9,1.3,3.1v16.7
		c0,0.3-0.1,0.6-0.3,0.8c-0.2,0.2-0.5,0.3-0.8,0.3c-0.3,0-0.6-0.1-0.8-0.3c-0.2-0.2-0.3-0.5-0.3-0.8V4.4c0-0.6-0.2-1-0.6-1.5
		c-0.4-0.4-0.9-0.6-1.5-0.6l-0.1,0C10.5,2.3,10,2.5,9.6,3C9.2,3.4,9,3.9,9,4.5v16.6c0,0.3-0.1,0.6-0.3,0.8c-0.2,0.2-0.5,0.3-0.8,0.3
		H7.7z"/>
	<path id="XMLID_714_" class="st0" d="M23.5,17.8c0,0.6,0.2,1.1,0.6,1.5c0.4,0.4,0.9,0.6,1.5,0.6h0.1c0.6,0,1.1-0.2,1.5-0.6
		c0.4-0.4,0.6-0.9,0.6-1.5h0V1.2c0-0.3,0.1-0.6,0.3-0.8C28.4,0.1,28.6,0,28.9,0c0.3,0,0.6,0.1,0.8,0.3c0.2,0.2,0.3,0.5,0.3,0.8v16.7
		c0,1.2-0.4,2.2-1.3,3.1c-0.8,0.8-1.8,1.3-3,1.3l-0.2,0h0v0h0c-1.2,0-2.2-0.4-3.1-1.3c-0.8-0.8-1.3-1.8-1.3-3l0-0.1V1.2
		c0-0.3,0.1-0.6,0.3-0.8C21.8,0.1,22,0,22.4,0c0.3,0,0.6,0.1,0.8,0.3c0.2,0.2,0.3,0.5,0.3,0.8V17.8z"/>
	<path id="XMLID_712_" class="st0" d="M44.7,4.5c0,0.3-0.1,0.6-0.3,0.8c-0.2,0.2-0.5,0.3-0.8,0.3c-0.3,0-0.6-0.1-0.8-0.3
		c-0.2-0.2-0.3-0.5-0.3-0.8V4.4c0-0.6-0.2-1-0.6-1.4c-0.4-0.4-0.9-0.6-1.5-0.6h-0.1c-0.6,0-1.1,0.2-1.5,0.6
		c-0.4,0.4-0.6,0.9-0.6,1.5v0c0,0.9,0.3,1.7,0.8,2.5c0.3,0.5,1,1.1,1.9,2c1.4,1.4,2.4,2.5,2.9,3.4c0.7,1.3,1.1,2.7,1.1,4.3
		c0,0.3,0,0.7,0,1.1v0c0,1.2-0.5,2.2-1.3,3.1c-0.8,0.8-1.8,1.3-3,1.3h-0.2c-1.2,0-2.2-0.5-3.1-1.3c-0.8-0.8-1.3-1.8-1.3-3l0-0.1v0
		c0-0.3,0.1-0.6,0.3-0.8c0.2-0.2,0.5-0.3,0.8-0.3c0.3,0,0.6,0.1,0.8,0.3c0.2,0.2,0.3,0.5,0.3,0.8v0c0,0.6,0.2,1.1,0.6,1.5
		c0.4,0.4,0.9,0.6,1.5,0.6h0.1c0.6,0,1-0.2,1.4-0.6c0.4-0.4,0.6-0.9,0.6-1.5v0l0-0.2c0-0.3,0-0.5,0-0.8c0-1.2-0.3-2.4-0.9-3.4
		c-0.4-0.7-1.2-1.6-2.4-2.7c-1.2-1.1-2-2-2.4-2.6c-0.7-1.1-1.1-2.3-1.1-3.6v0h0l0,0c0-1.2,0.4-2.2,1.3-3.1h0c0.8-0.8,1.8-1.3,3-1.3
		l0.1,0h0v0l0,0c1.2,0,2.2,0.5,3.1,1.3c0.8,0.8,1.3,1.8,1.3,3V4.5z"/>
	<path id="XMLID_709_" class="st0" d="M50.6,4.5l0-0.1c0-1.2,0.5-2.2,1.3-3C52.8,0.5,53.8,0,55,0h0.1l0.2,0c0.6,0,1.2,0.2,1.7,0.4
		l0.1,0l0,0l0,0l0.2,0.1l0.1,0l0,0l0,0c0.7,0.4,1.2,1,1.5,1.6c0.1,0.2,0.1,0.3,0.1,0.5c0,0.1,0,0.2-0.1,0.4
		c-0.1,0.3-0.3,0.5-0.6,0.7C58.4,4,58.2,4.1,58,4.1c-0.1,0-0.2,0-0.3-0.1c-0.3-0.1-0.5-0.3-0.7-0.6c-0.2-0.3-0.4-0.6-0.8-0.8L56,2.5
		v0c-0.3-0.1-0.6-0.2-0.9-0.2H55c-0.6,0-1.1,0.2-1.5,0.6c-0.4,0.4-0.6,0.9-0.6,1.5v13.4c0,0.6,0.2,1.1,0.6,1.5
		c0.4,0.4,0.9,0.6,1.5,0.6h0.1c0.3,0,0.5-0.1,0.8-0.2l0.2-0.1h0c0.3-0.2,0.5-0.5,0.7-0.8c0.2-0.3,0.4-0.5,0.7-0.6c0.1,0,0.2,0,0.3,0
		c0.2,0,0.4,0,0.6,0.1c0.3,0.2,0.5,0.4,0.6,0.7c0,0.1,0.1,0.2,0.1,0.4c0,0.2,0,0.4-0.1,0.5c-0.4,0.7-0.9,1.2-1.5,1.6l-0.1,0.1
		l-0.2,0.1c0,0-0.1,0.1-0.2,0.1c-0.6,0.3-1.1,0.4-1.7,0.4l-0.2,0H55v0h0c-1.2,0-2.3-0.4-3.1-1.3c-0.8-0.8-1.3-1.8-1.3-3l0-0.1V4.5z
		 M52.9,12.4c-0.3,0-0.6-0.1-0.8-0.3c-0.2-0.2-0.3-0.5-0.3-0.8c0-0.3,0.1-0.6,0.3-0.8c0.2-0.2,0.5-0.3,0.8-0.3h4.4
		c0.3,0,0.6,0.1,0.8,0.3c0.2,0.2,0.3,0.5,0.3,0.8c0,0.3-0.1,0.6-0.3,0.8c-0.2,0.2-0.5,0.3-0.8,0.3H52.9z"/>
	<path id="XMLID_707_" class="st0" d="M72.6,22.3c-0.3,0-0.6-0.1-0.8-0.3c-0.2-0.2-0.3-0.5-0.3-0.8V4.5h0c0-0.6-0.2-1.1-0.6-1.5
		c-0.4-0.4-0.9-0.6-1.5-0.6h-0.1c-0.6,0-1.1,0.2-1.5,0.6c-0.4,0.4-0.6,0.9-0.6,1.5v16.6c0,0.3-0.1,0.6-0.3,0.8
		c-0.2,0.2-0.5,0.3-0.8,0.3c-0.3,0-0.6-0.1-0.8-0.3c-0.2-0.2-0.3-0.5-0.3-0.8V4.5l0-0.1c0-1.2,0.5-2.2,1.3-3C67,0.5,68.1,0,69.3,0
		h0.1l0.2,0c1.2,0,2.2,0.5,3,1.3c0.1,0.1,0.1,0.1,0.2,0.2c0.1-0.1,0.1-0.2,0.2-0.2C73.7,0.4,74.7,0,76,0H76l0.1,0
		c1.2,0,2.2,0.5,3,1.3c0.9,0.9,1.3,1.9,1.3,3.1v16.7c0,0.3-0.1,0.6-0.3,0.8c-0.2,0.2-0.5,0.3-0.8,0.3c-0.3,0-0.6-0.1-0.8-0.3
		c-0.2-0.2-0.3-0.5-0.3-0.8V4.4c0-0.6-0.2-1-0.6-1.5c-0.4-0.4-0.9-0.6-1.5-0.6l-0.1,0c-0.6,0-1.1,0.2-1.5,0.6
		c-0.4,0.4-0.6,0.9-0.6,1.5v16.6c0,0.3-0.1,0.6-0.3,0.8c-0.2,0.2-0.5,0.3-0.8,0.3H72.6z"/>
	<path id="XMLID_704_" class="st0" d="M86.1,4.5l0-0.1c0-1.2,0.5-2.2,1.3-3C88.2,0.5,89.3,0,90.5,0h0.1l0.2,0c0.6,0,1.2,0.2,1.7,0.4
		l0.1,0l0,0l0,0l0.2,0.1l0.1,0l0,0l0,0c0.7,0.4,1.2,1,1.5,1.6c0.1,0.2,0.1,0.3,0.1,0.5c0,0.1,0,0.2-0.1,0.4
		c-0.1,0.3-0.3,0.5-0.6,0.7c-0.2,0.1-0.3,0.1-0.5,0.1c-0.1,0-0.2,0-0.3-0.1c-0.3-0.1-0.5-0.3-0.7-0.6c-0.2-0.3-0.4-0.6-0.8-0.8
		l-0.2-0.1v0c-0.3-0.1-0.6-0.2-0.9-0.2h-0.1c-0.6,0-1.1,0.2-1.5,0.6c-0.4,0.4-0.6,0.9-0.6,1.5v13.4c0,0.6,0.2,1.1,0.6,1.5
		c0.4,0.4,0.9,0.6,1.5,0.6h0.1c0.3,0,0.5-0.1,0.8-0.2l0.2-0.1h0c0.3-0.2,0.5-0.5,0.7-0.8c0.2-0.3,0.4-0.5,0.7-0.6c0.1,0,0.2,0,0.3,0
		c0.2,0,0.4,0,0.6,0.1c0.3,0.2,0.5,0.4,0.6,0.7c0,0.1,0.1,0.2,0.1,0.4c0,0.2,0,0.4-0.1,0.5c-0.4,0.7-0.9,1.2-1.5,1.6l-0.1,0.1
		l-0.2,0.1c0,0-0.1,0.1-0.2,0.1c-0.6,0.3-1.1,0.4-1.7,0.4l-0.2,0h-0.1v0h0c-1.2,0-2.3-0.4-3.1-1.3c-0.8-0.8-1.3-1.8-1.3-3l0-0.1V4.5
		z M88.3,12.4c-0.3,0-0.6-0.1-0.8-0.3c-0.2-0.2-0.3-0.5-0.3-0.8c0-0.3,0.1-0.6,0.3-0.8c0.2-0.2,0.5-0.3,0.8-0.3h4.4
		c0.3,0,0.6,0.1,0.8,0.3c0.2,0.2,0.3,0.5,0.3,0.8c0,0.3-0.1,0.6-0.3,0.8c-0.2,0.2-0.5,0.3-0.8,0.3H88.3z"/>
	<path id="XMLID_702_" class="st0" d="M102.7,21.1c0,0.3-0.1,0.6-0.3,0.8c-0.2,0.2-0.5,0.3-0.8,0.3c-0.3,0-0.6-0.1-0.8-0.3
		c-0.2-0.2-0.3-0.5-0.3-0.8V4.5l0-0.1c0-1.2,0.5-2.2,1.3-3c0.9-0.9,1.9-1.3,3.1-1.3h0.1l0.2,0c1.2,0,2.2,0.5,3,1.3
		c0.9,0.9,1.3,1.9,1.3,3.1v16.7c0,0.3-0.1,0.6-0.3,0.8c-0.2,0.2-0.5,0.3-0.8,0.3c-0.3,0-0.6-0.1-0.8-0.3c-0.2-0.2-0.3-0.5-0.3-0.8
		V4.5h0c0-0.6-0.2-1.1-0.6-1.5c-0.4-0.4-0.9-0.6-1.5-0.6h-0.1c-0.6,0-1.1,0.2-1.5,0.6c-0.4,0.4-0.6,0.9-0.6,1.5V21.1z"/>
	<path id="XMLID_700_" class="st0" d="M122.7,0c0.3,0,0.6,0.1,0.8,0.3c0.2,0.2,0.3,0.5,0.3,0.8c0,0.3-0.1,0.6-0.3,0.8
		c-0.2,0.2-0.5,0.3-0.8,0.3h-2.2v18.8c0,0.3-0.1,0.6-0.3,0.8c-0.2,0.2-0.5,0.3-0.8,0.3c-0.3,0-0.6-0.1-0.8-0.3
		c-0.2-0.2-0.3-0.5-0.3-0.8V2.3H116c-0.3,0-0.6-0.1-0.8-0.3c-0.2-0.2-0.3-0.5-0.3-0.8c0-0.3,0.1-0.6,0.3-0.8
		c0.2-0.2,0.5-0.3,0.8-0.3H122.7z"/>
</g>
<g id="XMLID_54_">
	<path id="XMLID_55_" class="st0" d="M129.6,11.8h3.6c2.2,0,3.9,0.6,3.9,2.6c0,0.9-0.5,1.9-1.8,2.3v0.1c1.5,0.3,2.3,1.1,2.3,2.4
		c0,2.1-1.8,3.1-4.1,3.1h-3.9V11.8z M133,16c1.2,0,1.7-0.5,1.7-1.3s-0.5-1.1-1.6-1.1h-1.1V16H133z M133.2,20.4c1.3,0,2-0.5,2-1.4
		c0-0.9-0.7-1.3-2-1.3h-1.3v2.7H133.2z"/>
	<path id="XMLID_59_" class="st0" d="M139.2,11.8h6.5v2h-4.2v2.1h3.6v2h-3.6v2.4h4.3v2h-6.7V11.8z"/>
	<path id="XMLID_61_" class="st0" d="M150,13.8h-2.9v-2h8.1v2h-2.9v8.5H150V13.8z"/>
	<path id="XMLID_63_" class="st0" d="M161.1,19.8h-3.2l-0.6,2.5h-2.4l3.3-10.4h2.8l3.3,10.4h-2.5L161.1,19.8z M160.6,17.9l-0.3-1
		c-0.3-1-0.6-2.3-0.8-3.4h-0.1c-0.2,1.1-0.5,2.3-0.8,3.4l-0.3,1H160.6z"/>
</g>
</svg>
