<?xml version="1.0" encoding="utf-8"?>
<!-- Generator: Adobe Illustrator 19.2.1, SVG Export Plug-In . SVG Version: 6.00 Build 0)  -->
<svg version="1.1" xmlns="http://www.w3.org/2000/svg" xmlns:xlink="http://www.w3.org/1999/xlink" x="0px" y="0px"
	 viewBox="0 0 103.4 18.3" style="enable-background:new 0 0 103.4 18.3;" xml:space="preserve">
<style type="text/css">
	.st0{opacity:0.49;fill:url(#SVGID_3_);}
	.st1{fill:#FFFFFF;}
	.st2{fill:#262626;}
	.st3{fill:#EAEDF4;}
	.st4{fill:#ADE9E9;}
	.st5{fill:#20AD8A;}
	.st6{fill:#FFC06C;}
	.st7{fill:#3F4D55;}
	.st8{fill:#5D5D5D;}
	.st9{fill:#B7B7B7;}
	.st10{fill:#ADADAD;}
	.st11{fill:#B2B2B2;}
	.st12{fill:#808080;}
	.st13{fill:#4D4D4D;}
	.st14{fill:#333333;}
	.st15{fill:#EFCE4A;}
	.st16{fill:#ED8A19;}
	.st17{fill:#EBBA16;}
	.st18{fill:#C7CAC7;}
	.st19{fill:#E7ECED;}
	.st20{opacity:0.7;clip-path:url(#SVGID_5_);}
	.st21{opacity:0.12;fill:#FFC06C;}
	.st22{opacity:0.16;fill:#FFC06C;}
	.st23{opacity:0.22;fill:#FFC06C;}
	.st24{opacity:0.3;fill:#FFC06C;}
	.st25{clip-path:url(#SVGID_7_);}
	.st26{opacity:0.15;fill:#20AD8A;}
	.st27{opacity:0.23;fill:#20AD8A;}
	.st28{opacity:0.3;fill:#20AD8A;}
	.st29{fill:#AAAAAA;}
	.st30{fill:none;stroke:#3F4D55;stroke-miterlimit:10;}
	.st31{fill:none;stroke:#3F4D55;stroke-linecap:round;stroke-miterlimit:10;}
	.st32{fill:#F00101;}
	.st33{fill:#030303;}
	.st34{fill:#70CADB;}
	.st35{fill:#E01765;}
	.st36{fill:#E8A723;}
	.st37{fill:#3EB890;}
	.st38{fill:#CC2027;}
	.st39{fill:#361238;}
	.st40{fill:#65863A;}
	.st41{fill:#1A937D;}
	.st42{fill:#666666;}
	.st43{fill:#D5E1E8;}
	.st44{fill:#E6EEF2;}
	.st45{fill:#573D82;}
	.st46{fill:#453068;}
	.st47{fill:#3FBA91;}
	.st48{fill:#6FCBDC;}
	.st49{fill:#DCDCDC;}
	.st50{fill:#FFC585;}
	.st51{fill:#FF3E88;}
	.st52{fill:#675470;}
	.st53{fill:#4A4687;}
	.st54{fill:#F3F3F3;}
	.st55{opacity:0.5;fill:#8977A7;}
	.st56{fill:#E1E9EF;}
	.st57{fill:#FFD7A3;}
	.st58{fill:#FDC88E;}
	.st59{fill:#FFE1B2;}
	.st60{fill:#A2CDE2;}
	.st61{fill:#545465;}
	.st62{fill:#29394A;}
	.st63{fill:#B5E0F0;}
	.st64{fill:#4A698E;}
	.st65{fill:#416185;}
	.st66{fill:#395A7F;}
	.st67{fill:#FFD5AB;}
	.st68{fill:#E4EBF0;}
	.st69{fill:#D0D7DC;}
	.st70{fill:#527992;}
	.st71{fill:#475F7F;}
	.st72{fill:#D3E5BD;}
	.st73{fill:#827873;}
	.st74{fill:#E0DDDC;}
	.st75{fill:#A19996;}
	.st76{fill:#33CCFF;}
	.st77{fill:#D8DCE1;}
	.st78{fill:#DB4026;}
	.st79{fill:#5C546A;}
	.st80{fill:#E8D21D;}
	.st81{fill:#4AECAF;}
	.st82{fill:#80362D;}
	.st83{fill:#FFB980;}
	.st84{fill:#F8AB6B;}
	.st85{fill:#BF9B5F;}
	.st86{fill:#83603F;}
	.st87{fill:#B0E070;}
	.st88{fill:#7E5C62;}
	.st89{fill:#A27082;}
	.st90{fill:#7E5449;}
	.st91{fill:#FFDA44;}
	.st92{fill:#FFCD00;}
	.st93{fill:#B1664F;}
	.st94{fill:#FFDAA9;}
	.st95{fill:#5FBEA0;}
	.st96{fill:none;stroke:#FFFFFF;stroke-width:2;stroke-linecap:round;stroke-miterlimit:10;}
	.st97{fill:#188268;}
	.st98{fill:#D2EFE8;}
	.st99{fill:#79CEB9;}
	.st100{fill:#EBEBED;}
	.st101{fill:#474F49;}
	.st102{fill:#DAABA9;}
	.st103{fill:#757EAF;}
	.st104{fill:#EDCC70;}
	.st105{fill:#B9BBC1;}
	.st106{fill:#53DCFF;}
	.st107{fill:#FCEE21;}
	.st108{fill:#8B8996;}
	.st109{fill:#686777;}
	.st110{fill:#67A2A9;}
	.st111{fill:#FF93B5;}
	.st112{fill:#FF93B5;stroke:#FFFFFF;stroke-width:2;stroke-linecap:round;stroke-miterlimit:10;}
	.st113{fill:#F3D960;}
	.st114{fill:#F3D960;stroke:#FFFFFF;stroke-width:2;stroke-linecap:round;stroke-miterlimit:10;}
	.st115{fill:#7BD766;}
	.st116{fill:#8166A4;}
	.st117{fill:#F67D69;}
	.st118{fill:#CCCCCC;}
	.st119{fill:#E6E6E6;}
	.st120{fill:#B3B3B3;}
	.st121{fill:none;stroke:#DA6F67;stroke-linecap:round;stroke-miterlimit:10;}
	.st122{fill:#BC679B;}
	.st123{fill:#09614B;}
	.st124{fill:#50748A;}
	.st125{fill:#E2E4FF;}
	.st126{fill:#A7795E;}
	.st127{fill:#ADB4BA;}
	.st128{fill:#4EA0CA;}
	.st129{fill:#394959;}
	.st130{fill:#E05040;}
	.st131{fill:#B4A87D;}
	.st132{fill:#7B7256;}
	.st133{fill:#FCC261;}
	.st134{fill:#111820;}
	.st135{fill:#DFDED6;}
	.st136{fill:#FF6953;}
	.st137{fill:#B06E53;}
	.st138{fill:#728EA0;}
	.st139{fill:#E5E4E3;}
	.st140{fill:#F7F3A8;}
	.st141{fill:#82827F;}
	.st142{fill:#353535;}
	.st143{fill:#A0B7D1;}
	.st144{fill:#ECEC66;}
	.st145{fill:#90BA72;}
	.st146{fill:#E7F2FC;}
	
		.st147{fill:none;stroke:#C6C6C6;stroke-width:2;stroke-linecap:round;stroke-linejoin:round;stroke-miterlimit:10;stroke-dasharray:5,10,5,10,5,10;}
	.st148{fill:#73A950;}
	.st149{fill:#FFA168;}
	.st150{fill:#2D688D;}
</style>
<g id="Capa_2">
</g>
<g id="Capa_3">
	<g>
		<path class="st7" d="M6.5,18.3c-0.3,0-0.6-0.1-0.8-0.3c-0.2-0.2-0.3-0.5-0.3-0.8V3.6h0c0-0.2-0.2-0.5-0.4-0.8
			c-0.3-0.3-0.6-0.4-1-0.4H3.8c-0.4,0-0.7,0.1-1,0.4C2.5,3,2.3,3.4,2.3,3.8v13.4c0,0.3-0.1,0.6-0.3,0.8c-0.2,0.2-0.5,0.3-0.8,0.3
			c-0.3,0-0.6-0.1-0.8-0.3C0.1,17.8,0,17.5,0,17.2V3.8l0-0.1c0-1,0.4-1.9,1.1-2.6C1.9,0.4,2.7,0,3.8,0h0.1l0.1,0
			c1,0,1.8,0.4,2.5,1.1l0,0L6.5,1.1l0,0c0,0,0,0,0.1,0C7.2,0.4,8.1,0,9.1,0h0.1l0.1,0c1,0,1.8,0.4,2.6,1.1C12.6,1.9,13,2.8,13,3.8
			v13.4c0,0.3-0.1,0.6-0.3,0.8c-0.2,0.2-0.5,0.3-0.8,0.3c-0.3,0-0.6-0.1-0.8-0.3c-0.2-0.2-0.3-0.5-0.3-0.8V3.8c0-0.4-0.2-0.7-0.4-1
			c-0.3-0.3-0.6-0.4-1-0.4l-0.1,0c-0.4,0-0.7,0.2-1,0.4C7.8,3,7.7,3.4,7.7,3.8v13.4c0,0.3-0.1,0.6-0.3,0.8
			C7.1,18.2,6.9,18.3,6.5,18.3L6.5,18.3z"/>
		<path class="st7" d="M19.8,14.5c0,0.4,0.2,0.8,0.4,1c0.3,0.3,0.6,0.4,1,0.4h0.1c0.4,0,0.7-0.2,1-0.5c0.3-0.3,0.4-0.6,0.4-0.8h0
			V1.2c0-0.3,0.1-0.6,0.3-0.8C23.3,0.1,23.6,0,23.9,0c0.3,0,0.6,0.1,0.8,0.3c0.2,0.2,0.3,0.5,0.3,0.8v13.4c0,1-0.4,1.9-1.1,2.6
			c-0.7,0.7-1.6,1.1-2.5,1.1l-0.1,0H21v0h0.2c-1,0-1.9-0.4-2.6-1.1c-0.7-0.7-1.1-1.6-1.1-2.6l0-0.1V1.2c0-0.3,0.1-0.6,0.3-0.8
			C18,0.1,18.3,0,18.6,0c0.3,0,0.6,0.1,0.8,0.3c0.2,0.2,0.3,0.5,0.3,0.8V14.5z"/>
		<path class="st7" d="M37.2,3.8c0,0.3-0.1,0.6-0.3,0.8C36.7,4.9,36.4,5,36.1,5c-0.3,0-0.6-0.1-0.8-0.3c-0.2-0.2-0.3-0.5-0.3-0.8
			V3.8c0-0.4-0.2-0.7-0.4-1c-0.3-0.3-0.7-0.4-1.3-0.4h0.2c-0.4,0-0.8,0.2-1,0.5c-0.3,0.3-0.4,0.6-0.4,1c0,0.7,0.2,1.3,0.6,1.9
			c0.3,0.4,0.7,0.9,1.5,1.6c1.2,1.1,2,2,2.4,2.8c0.6,1,0.9,2.2,0.9,3.6c0,0.3,0,0.6,0,0.9v0c0,1-0.4,1.9-1.1,2.6
			c-0.7,0.7-1.6,1.1-2.6,1.1h-0.2c-1,0-1.9-0.4-2.7-1.1c-0.7-0.7-1.1-1.6-1.1-2.6l0-0.1v0c0-0.3,0.1-0.6,0.3-0.8
			c0.2-0.2,0.5-0.3,0.8-0.3c0.3,0,0.6,0.1,0.8,0.3c0.2,0.2,0.3,0.5,0.3,0.8v0c0,0.4,0.2,0.7,0.4,1c0.3,0.3,0.6,0.4,0.8,0.4h0.3
			c0.4,0,0.7-0.2,1-0.5c0.3-0.3,0.4-0.6,0.4-1v0c0-0.2,0-0.5,0-0.7c0-1-0.2-1.9-0.7-2.7c-0.3-0.6-1-1.3-1.9-2.1
			c-0.9-0.9-1.6-1.6-2-2.1c-0.6-0.9-0.9-1.9-0.9-3v0.1c0-1.1,0.4-2,1.2-2.8h0c0.7-0.7,1.5-1,2.5-1.1l0.1,0h0c1.1,0,2,0.4,2.8,1.1
			c0.7,0.7,1.1,1.6,1.1,2.6V3.8z"/>
		<path class="st7" d="M44.6,10.4v4.2c0,0.4,0.2,0.8,0.4,1c0.3,0.3,0.6,0.4,0.8,0.4h0.3c0.2,0,0.3,0,0.4-0.1v0l0.4-0.2
			c0.2-0.1,0.3-0.3,0.4-0.5c0.2-0.3,0.4-0.5,0.7-0.6c0.1,0,0.2,0,0.3,0c0.2,0,0.4,0,0.5,0.1c0.3,0.2,0.5,0.4,0.6,0.7
			c0,0.1,0.1,0.2,0.1,0.3c0,0.2,0,0.4-0.1,0.5c-0.3,0.6-0.7,1-1.3,1.4l-0.1,0.1l-0.1,0.1c0,0-0.1,0.1-0.2,0.1
			c-0.5,0.2-1,0.3-1.5,0.4l-0.1,0h-0.3v0h0.2c-1,0-1.9-0.4-2.7-1.1c-0.7-0.7-1.1-1.6-1.1-2.6l0-0.1V3.8l0-0.1c0-1,0.4-1.9,1.1-2.6
			C44.2,0.4,45.1,0,46.1,0h0.1l0.1,0c0.5,0,1,0.1,1.5,0.4v0l0.4,0.2l0,0c0.5,0.3,1,0.8,1.3,1.4c0.1,0.2,0.1,0.4,0.1,0.5
			c0,0.1,0,0.2-0.1,0.3c-0.1,0.3-0.3,0.5-0.6,0.7c-0.2,0.1-0.4,0.1-0.5,0.1c-0.1,0-0.2,0-0.3-0.1c-0.3-0.1-0.5-0.3-0.7-0.6
			c-0.1-0.2-0.3-0.4-0.5-0.6l-0.3-0.2c-0.1,0-0.3-0.1-0.5-0.1h-0.1c-0.4,0-0.7,0.1-1,0.4c-0.3,0.3-0.4,0.6-0.4,1v4.2h3.3
			c0.3,0,0.6,0.1,0.8,0.3c0.2,0.2,0.3,0.5,0.3,0.8c0,0.3-0.1,0.6-0.3,0.8c-0.2,0.2-0.5,0.3-0.8,0.3H44.6z M47.9,0.4L47.9,0.4
			L47.9,0.4L47.9,0.4L47.9,0.4z M47.9,0.4L47.9,0.4l0.2,0.1L47.9,0.4z"/>
		<path class="st7" d="M60.7,18.3c-0.3,0-0.6-0.1-0.8-0.3c-0.2-0.2-0.3-0.5-0.3-0.8V3.6h0c0-0.2-0.2-0.5-0.4-0.8
			c-0.3-0.3-0.6-0.4-1-0.4H58c-0.4,0-0.7,0.1-1,0.4c-0.3,0.3-0.4,0.6-0.4,1v13.4c0,0.3-0.1,0.6-0.3,0.8c-0.2,0.2-0.5,0.3-0.8,0.3
			c-0.3,0-0.6-0.1-0.8-0.3c-0.2-0.2-0.3-0.5-0.3-0.8V3.8l0-0.1c0-1,0.4-1.9,1.1-2.6C56.1,0.4,57,0,58,0H58l0.1,0
			c1,0,1.8,0.4,2.5,1.1l0,0l-0.1-0.1l0,0c0,0,0,0,0.1,0C61.5,0.4,62.3,0,63.4,0h0.1l0.1,0c1,0,1.8,0.4,2.6,1.1
			c0.7,0.7,1.1,1.6,1.1,2.7v13.4c0,0.3-0.1,0.6-0.3,0.8c-0.2,0.2-0.5,0.3-0.8,0.3c-0.3,0-0.6-0.1-0.8-0.3c-0.2-0.2-0.3-0.5-0.3-0.8
			V3.8c0-0.4-0.2-0.7-0.4-1s-0.6-0.4-1-0.4l-0.1,0c-0.4,0-0.7,0.2-1,0.4c-0.3,0.3-0.4,0.6-0.4,1v13.4c0,0.3-0.1,0.6-0.3,0.8
			C61.3,18.2,61.1,18.3,60.7,18.3L60.7,18.3z"/>
		<path class="st7" d="M74,10.4v4.2c0,0.4,0.2,0.8,0.4,1c0.3,0.3,0.6,0.4,0.8,0.4h0.3c0.2,0,0.3,0,0.4-0.1v0l0.4-0.2
			c0.2-0.1,0.3-0.3,0.4-0.5c0.2-0.3,0.4-0.5,0.7-0.6c0.1,0,0.2,0,0.3,0c0.2,0,0.4,0,0.5,0.1c0.3,0.2,0.5,0.4,0.6,0.7
			c0,0.1,0.1,0.2,0.1,0.3c0,0.2,0,0.4-0.1,0.5c-0.3,0.6-0.7,1-1.3,1.4l-0.1,0.1l-0.1,0.1c0,0-0.1,0.1-0.2,0.1
			c-0.5,0.2-1,0.3-1.5,0.4l-0.1,0h-0.3v0h0.2c-1,0-1.9-0.4-2.7-1.1c-0.7-0.7-1.1-1.6-1.1-2.6l0-0.1V3.8l0-0.1c0-1,0.4-1.9,1.1-2.6
			C73.6,0.4,74.5,0,75.5,0h0.1l0.1,0c0.5,0,1,0.1,1.5,0.4v0l0.4,0.2l0,0c0.5,0.3,1,0.8,1.3,1.4C79,2.2,79,2.4,79,2.5
			c0,0.1,0,0.2-0.1,0.3c-0.1,0.3-0.3,0.5-0.6,0.7c-0.2,0.1-0.4,0.1-0.5,0.1c-0.1,0-0.2,0-0.3-0.1c-0.3-0.1-0.5-0.3-0.7-0.6
			c-0.1-0.2-0.3-0.4-0.5-0.6L76,2.4c-0.1,0-0.3-0.1-0.5-0.1h-0.1c-0.4,0-0.7,0.1-1,0.4c-0.3,0.3-0.4,0.6-0.4,1v4.2h3.3
			c0.3,0,0.6,0.1,0.8,0.3c0.2,0.2,0.3,0.5,0.3,0.8c0,0.3-0.1,0.6-0.3,0.8c-0.2,0.2-0.5,0.3-0.8,0.3H74z M77.3,0.4L77.3,0.4L77.3,0.4
			L77.3,0.4L77.3,0.4z M77.3,0.4L77.3,0.4l0.2,0.1L77.3,0.4z"/>
		<path class="st7" d="M85.9,17.2c0,0.3-0.1,0.6-0.3,0.8c-0.2,0.2-0.5,0.3-0.8,0.3c-0.3,0-0.6-0.1-0.8-0.3c-0.2-0.2-0.3-0.5-0.3-0.8
			V3.8l0-0.1c0-1,0.4-1.9,1.1-2.6C85.5,0.4,86.4,0,87.4,0h0.1l0.1,0c1,0,1.8,0.4,2.5,1.1c0.7,0.7,1.1,1.6,1.1,2.6v13.4
			c0,0.3-0.1,0.6-0.3,0.8c-0.2,0.2-0.5,0.3-0.8,0.3c-0.3,0-0.6-0.1-0.8-0.3c-0.2-0.2-0.3-0.5-0.3-0.8V3.6h0c0-0.2-0.2-0.5-0.4-0.8
			c-0.3-0.3-0.6-0.4-1-0.4h-0.1c-0.4,0-0.7,0.1-1,0.4c-0.3,0.3-0.4,0.6-0.4,1V17.2z"/>
		<path class="st7" d="M102.2,0c0.3,0,0.6,0.1,0.8,0.3c0.2,0.2,0.3,0.5,0.3,0.8c0,0.3-0.1,0.6-0.3,0.8c-0.2,0.2-0.5,0.3-0.8,0.3
			h-1.5v14.9c0,0.3-0.1,0.6-0.3,0.8c-0.2,0.2-0.5,0.3-0.8,0.3c-0.3,0-0.6-0.1-0.8-0.3c-0.2-0.2-0.3-0.5-0.3-0.8V2.3h-1.5
			c-0.3,0-0.6-0.1-0.8-0.3c-0.2-0.2-0.3-0.5-0.3-0.8c0-0.3,0.1-0.6,0.3-0.8C96.3,0.1,96.6,0,96.9,0H102.2z"/>
	</g>
</g>
</svg>
