<svg xmlns="http://www.w3.org/2000/svg" viewBox="0 0 131.2 73"><style>.st0{fill:#3f4d55}.st1{fill:#3c5a9a;stroke-miterlimit:10}.st1,.st2,.st3{stroke:#fff}.st2{stroke-miterlimit:10;fill:#fffc00}.st3{fill:#5da8dc;stroke-width:.5}.st4{fill:#fff}.st5,.st6{fill:#7953a5;stroke:#fff;stroke-miterlimit:10}.st6{fill:none;stroke-linecap:round}.st7{fill:#70cadb}.st8{fill:#e01765}.st9{fill:#e8a723}.st10{fill:#3eb890}.st11{fill:#cc2027}.st12{fill:#361238}.st13{fill:#65863a}.st14{fill:#1a937d}.st15{fill:#20ad8a}.st16{opacity:.49;fill:url(#)}.st17{fill:#262626}.st18{fill:#b7b7b7}.st19{fill:#ffc06c}.st20{fill:#eaedf4}.st21{fill:#ade9e9}.st22{fill:none;stroke:#fff;stroke-miterlimit:10}.st23{opacity:.49;fill:url(#SVGID_15_)}.st24{fill:#5d5d5d}.st25{fill:#adadad}.st26{opacity:.63;fill:#304b51}.st27{opacity:.7;fill:url(#SVGID_16_)}</style><g id="Capa_2"><path class="st20" d="M46.9 28.3c.4-1.6 4.4-15.1 24.5-10.1-10.3-.7-15.2 5.3-16.6 7.4-3.1 4.8-3.1 11.4.5 16.4 3.8 5.3 11.1 6.5 16.4 2.7 3.5-2.5 4.8-6.9 3.4-10.8.4 1.1.6 2.3.6 3.5 0 6.6-6.4 11.9-14.4 11.9-6.8 0-12.2-3.8-14.2-9-.3-.9-.6-1.8-.7-2.7-.2-1-.4-3-.3-5 0-2 .6-3.8.8-4.3z"/><path class="st21" d="M48.7 24.1c3.6-6.2 13.6-13.3 27.6-9 13.9 4 26 28.8 3.1 42.6 14.1-10.2 12.8-35.1-7.8-39.6-16.4-3.4-22.9 6-22.9 6z"/><path class="st15" d="M79.4 57.8C57 71.5 29.6 51.7 25.9 48.3c10.4 35.3 57.8 29.9 66 2.7 5.8-19-7.1-30.4-7.1-30.4s19.9 20.2-5.4 37.2z"/><path class="st19" d="M74.2 32.2S81 43.2 69 50c-13 5.9-20.7-5.1-22-9.7 0 0 6.8 13.3 21.2 7.5 11.8-6.3 6-15.6 6-15.6z"/><path class="st0" d="M57.9 73C46 73.3 14.5 63.7.1 36.1c-.1-.1-.1-.4-.1-.6l1.3-13c.2-1.9 1.2-2.1 2.1-.5 3.3 5.7 11.3 17.8 22.4 26.2C26.6 50.4 32 72 57.9 73"/><path class="st20" d="M84.3 44.8c-.4 1.6-4.4 15.1-24.5 10.1 10.3.7 15.2-5.3 16.6-7.4C79.5 42.6 79.6 36 76 31c-3.8-5.3-11.1-6.5-16.4-2.7-3.5 2.5-4.8 6.9-3.4 10.8-.4-1.1-.6-2.3-.6-3.5C55.6 29 62 23.7 70 23.7c6.8 0 12.2 3.8 14.2 9 .3.9.6 1.8.7 2.7.2 1 .4 3 .3 5-.1 2-.7 3.8-.9 4.4z"/><path class="st21" d="M82.5 48.9c-3.6 6.2-13.6 13.3-27.6 9-13.9-4-26-28.8-3.1-42.6C37.7 25.5 39 50.4 59.6 54.9c16.4 3.5 22.9-6 22.9-6z"/><path class="st15" d="M51.8 15.3c22.4-13.7 49.8 6.1 53.6 9.5-10.4-35.3-57.8-29.9-66-2.7-5.8 19 7.1 30.4 7.1 30.4s-20-20.3 5.3-37.2z"/><path class="st19" d="M57 40.8s-6.8-11 5.2-17.8c13-5.9 20.7 5.1 22 9.7 0 0-6.8-13.3-21.2-7.5-11.8 6.3-6 15.6-6 15.6z"/><path class="st0" d="M73.3.1c11.9-.3 43.3 9.3 57.7 36.8.1.2.1.5.1.7l-1.3 13c-.2 1.9-1.2 2.1-2.1.5-3.3-5.7-11.3-17.8-22.4-26.2-.7-2.2-6.2-23.8-32-24.8"/></g></svg>