<svg id="Layer_1" xmlns="http://www.w3.org/2000/svg" viewBox="-197 241.7 103.4 18.3"><style>.st0{fill:#526e77}</style><path id="Capa_3" class="st0" d="M-190.5 260c-.3 0-.6-.1-.8-.3-.2-.2-.3-.5-.3-.8v-13.6c0-.2-.2-.5-.4-.8-.3-.3-.6-.4-1-.4h-.2c-.4 0-.7.1-1 .4-.3.2-.5.6-.5 1v13.4c0 .3-.1.6-.3.8-.2.2-.5.3-.8.3s-.6-.1-.8-.3c-.3-.2-.4-.5-.4-.8v-13.5c0-1 .4-1.9 1.1-2.6.8-.7 1.6-1.1 2.7-1.1h.2c1 0 1.8.4 2.5 1.1h.1c.6-.7 1.5-1.1 2.5-1.1h.2c1 0 1.8.4 2.6 1.1.7.8 1.1 1.7 1.1 2.7v13.4c0 .3-.1.6-.3.8-.2.2-.5.3-.8.3-.3 0-.6-.1-.8-.3-.2-.2-.3-.5-.3-.8v-13.4c0-.4-.2-.7-.4-1-.3-.3-.6-.4-1-.4h-.1c-.4 0-.7.2-1 .4-.5.2-.6.6-.6 1v13.4c0 .3-.1.6-.3.8-.3.2-.5.3-.9.3zm13.3-3.8c0 .4.2.8.4 1 .3.3.6.4 1 .4h.1c.4 0 .7-.2 1-.5.3-.3.4-.6.4-.8v-13.4c0-.3.1-.6.3-.8.3-.3.6-.4.9-.4.3 0 .6.1.8.3s.3.5.3.8v13.4c0 1-.4 1.9-1.1 2.6-.7.7-1.6 1.1-2.5 1.1h-.4.2c-1 0-1.9-.4-2.6-1.1-.7-.7-1.1-1.6-1.1-2.6v-13.3c0-.3.1-.6.3-.8.2-.3.5-.4.8-.4.3 0 .6.1.8.3.2.2.3.5.3.8v13.4h.1zm17.4-10.7c0 .3-.1.6-.3.8-.2.3-.5.4-.8.4-.3 0-.6-.1-.8-.3s-.3-.5-.3-.8v-.1c0-.4-.2-.7-.4-1-.3-.3-.7-.4-1.3-.4h.2c-.4 0-.8.2-1 .5-.3.3-.4.6-.4 1 0 .7.2 1.3.6 1.9.3.4.7.9 1.5 1.6 1.2 1.1 2 2 2.4 2.8.6 1 .9 2.2.9 3.6v.9c0 1-.4 1.9-1.1 2.6s-1.6 1.1-2.6 1.1h-.2c-1 0-1.9-.4-2.7-1.1-.7-.7-1.1-1.6-1.1-2.6v-.1c0-.3.1-.6.3-.8.2-.2.5-.3.8-.3.3 0 .6.1.8.3.2.2.3.5.3.8 0 .4.2.7.4 1 .3.3.6.4.8.4h.3c.4 0 .7-.2 1-.5.3-.3.4-.6.4-1v-.7c0-1-.2-1.9-.7-2.7-.3-.6-1-1.3-1.9-2.1-.9-.9-1.6-1.6-2-2.1-.6-.9-.9-1.9-.9-3v.1c0-1.1.4-2 1.2-2.8.7-.7 1.5-1 2.5-1.1h.1c1.1 0 2 .4 2.8 1.1.7.7 1.1 1.6 1.2 2.6zm7.4 6.6v4.2c0 .4.2.8.4 1 .3.3.6.4.8.4h.3c.2 0 .3 0 .4-.1l.4-.2c.2-.1.3-.3.4-.5.2-.3.4-.5.7-.6h.3c.2 0 .4 0 .5.1.3.2.5.4.6.7 0 .1.1.2.1.3 0 .2 0 .4-.1.5-.3.6-.7 1-1.3 1.4l-.1.1-.1.1s-.1.1-.2.1c-.5.2-1 .3-1.5.4h-.4.2c-1 0-1.9-.4-2.7-1.1-.7-.7-1.1-1.6-1.1-2.6v-10.9c0-1 .4-1.9 1.1-2.6.9-.7 1.8-1.1 2.8-1.1h.2c.5 0 1 .1 1.5.4l.4.2c.5.3 1 .8 1.3 1.4.1.2.1.4.1.5s0 .2-.1.3c-.1.3-.3.5-.6.7-.2.1-.4.1-.5.1s-.2 0-.3-.1c-.3-.1-.5-.3-.7-.6-.1-.2-.3-.4-.5-.6l-.3-.2c-.1 0-.3-.1-.5-.1h-.1c-.4 0-.7.1-1 .4-.3.3-.4.6-.4 1v4.2h3.3c.3 0 .6.1.8.3.2.2.3.5.3.8s-.1.6-.3.8-.5.3-.8.3h-3.3v.6zm3.3-10l.2.1-.2-.1zm12.8 17.9c-.3 0-.6-.1-.8-.3-.2-.2-.3-.5-.3-.8v-13.6c0-.2-.2-.5-.4-.8-.3-.3-.6-.4-1-.4h-.2c-.4 0-.7.1-1 .4s-.4.6-.4 1v13.4c0 .3-.1.6-.3.8-.2.2-.5.3-.8.3s-.6-.1-.8-.3c-.2-.2-.3-.5-.3-.8v-13.5c0-1 .4-1.9 1.1-2.6.6-.7 1.5-1.1 2.5-1.1h.1c1 0 1.8.4 2.5 1.1l-.1-.1h.1c.9-.6 1.7-1 2.8-1h.2c1 0 1.8.4 2.6 1.1.7.7 1.1 1.6 1.1 2.7v13.4c0 .3-.1.6-.3.8-.2.2-.5.3-.8.3-.3 0-.6-.1-.8-.3-.2-.2-.3-.5-.3-.8v-13.4c0-.4-.2-.7-.4-1s-.6-.4-1-.4h-.1c-.4 0-.7.2-1 .4-.3.3-.4.6-.4 1v13.4c0 .3-.1.6-.3.8-.6.2-.8.3-1.2.3zm13.3-7.9v4.2c0 .4.2.8.4 1 .3.3.6.4.8.4h.3c.2 0 .3 0 .4-.1l.4-.2c.2-.1.3-.3.4-.5.2-.3.4-.5.7-.6h.3c.2 0 .4 0 .5.1.3.2.5.4.6.7 0 .1.1.2.1.3 0 .2 0 .4-.1.5-.3.6-.7 1-1.3 1.4l-.1.1-.1.1s-.1.1-.2.1c-.5.2-1 .3-1.5.4h-.4.2c-1 0-1.9-.4-2.7-1.1-.7-.7-1.1-1.6-1.1-2.6v-10.9c0-1 .4-1.9 1.1-2.6.9-.7 1.8-1.1 2.8-1.1h.2c.5 0 1 .1 1.5.4l.4.2c.5.3 1 .8 1.3 1.4.1.2.1.4.1.5s0 .2-.1.3c-.1.3-.3.5-.6.7-.2.1-.4.1-.5.1s-.2 0-.3-.1c-.3-.1-.5-.3-.7-.6-.1-.2-.3-.4-.5-.6l-.3.1c-.1 0-.3-.1-.5-.1h-.1c-.4 0-.7.1-1 .4s-.4.6-.4 1v4.2h3.3c.3 0 .6.1.8.3.2.2.3.5.3.8s-.1.6-.3.8c-.2.2-.5.3-.8.3h-3.3v.3zm3.3-10l.2.1-.2-.1zm8.6 16.8c0 .3-.1.6-.3.8-.2.2-.5.3-.8.3s-.6-.1-.8-.3c-.2-.2-.3-.5-.3-.8v-13.5c0-1 .4-1.9 1.1-2.6.7-.7 1.6-1.1 2.6-1.1h.2c1 0 1.8.4 2.5 1.1.7.7 1.1 1.6 1.1 2.6v13.4c0 .3-.1.6-.3.8-.2.2-.5.3-.8.3s-.6-.1-.8-.3c-.2-.2-.3-.5-.3-.8v-13.5c0-.2-.2-.5-.4-.8-.3-.3-.6-.4-1-.4h-.1c-.4 0-.7.1-1 .4s-.4.6-.4 1v13.4h-.2zm16.3-17.2c.3 0 .6.1.8.3.2.2.3.5.3.8 0 .3-.1.6-.3.8-.2.2-.5.3-.8.3h-1.5v14.9c0 .3-.1.6-.3.8-.2.2-.5.3-.8.3s-.6-.1-.8-.3c-.2-.2-.3-.5-.3-.8V244h-1.5c-.3 0-.6-.1-.8-.3-.2-.2-.3-.5-.3-.8s.1-.6.3-.8c.1-.3.4-.4.7-.4h5.3z"/></svg>