<?xml version="1.0" encoding="utf-8"?>
<!-- Generator: Adobe Illustrator 19.1.0, SVG Export Plug-In . SVG Version: 6.00 Build 0)  -->
<svg version="1.1" id="Layer_1" xmlns="http://www.w3.org/2000/svg" xmlns:xlink="http://www.w3.org/1999/xlink" x="0px" y="0px"
	 viewBox="-197 241.7 103.4 18.3" style="enable-background:new -197 241.7 103.4 18.3;" xml:space="preserve">
<style type="text/css">
	.st0{fill:#526E77;}
</style>
<path id="Capa_3" class="st0" d="M-190.5,260c-0.3,0-0.6-0.1-0.8-0.3c-0.2-0.2-0.3-0.5-0.3-0.8v-13.6c0-0.2-0.2-0.5-0.4-0.8
	c-0.3-0.3-0.6-0.4-1-0.4h-0.2c-0.4,0-0.7,0.1-1,0.4c-0.3,0.2-0.5,0.6-0.5,1v13.4c0,0.3-0.1,0.6-0.3,0.8c-0.2,0.2-0.5,0.3-0.8,0.3
	s-0.6-0.1-0.8-0.3c-0.3-0.2-0.4-0.5-0.4-0.8v-13.5c0-1,0.4-1.9,1.1-2.6c0.8-0.7,1.6-1.1,2.7-1.1h0.2c1,0,1.8,0.4,2.5,1.1h0.1
	c0.6-0.7,1.5-1.1,2.5-1.1h0.2c1,0,1.8,0.4,2.6,1.1c0.7,0.8,1.1,1.7,1.1,2.7v13.4c0,0.3-0.1,0.6-0.3,0.8c-0.2,0.2-0.5,0.3-0.8,0.3
	c-0.3,0-0.6-0.1-0.8-0.3c-0.2-0.2-0.3-0.5-0.3-0.8v-13.4c0-0.4-0.2-0.7-0.4-1c-0.3-0.3-0.6-0.4-1-0.4h-0.1c-0.4,0-0.7,0.2-1,0.4
	c-0.5,0.2-0.6,0.6-0.6,1v13.4c0,0.3-0.1,0.6-0.3,0.8C-189.9,259.9-190.1,260-190.5,260z M-177.2,256.2c0,0.4,0.2,0.8,0.4,1
	c0.3,0.3,0.6,0.4,1,0.4h0.1c0.4,0,0.7-0.2,1-0.5c0.3-0.3,0.4-0.6,0.4-0.8v-13.4c0-0.3,0.1-0.6,0.3-0.8c0.3-0.3,0.6-0.4,0.9-0.4
	c0.3,0,0.6,0.1,0.8,0.3s0.3,0.5,0.3,0.8v13.4c0,1-0.4,1.9-1.1,2.6c-0.7,0.7-1.6,1.1-2.5,1.1h-0.4h0.2c-1,0-1.9-0.4-2.6-1.1
	c-0.7-0.7-1.1-1.6-1.1-2.6v-13.3c0-0.3,0.1-0.6,0.3-0.8c0.2-0.3,0.5-0.4,0.8-0.4c0.3,0,0.6,0.1,0.8,0.3c0.2,0.2,0.3,0.5,0.3,0.8
	v13.4L-177.2,256.2z M-159.8,245.5c0,0.3-0.1,0.6-0.3,0.8c-0.2,0.3-0.5,0.4-0.8,0.4c-0.3,0-0.6-0.1-0.8-0.3s-0.3-0.5-0.3-0.8v-0.1
	c0-0.4-0.2-0.7-0.4-1c-0.3-0.3-0.7-0.4-1.3-0.4h0.2c-0.4,0-0.8,0.2-1,0.5c-0.3,0.3-0.4,0.6-0.4,1c0,0.7,0.2,1.3,0.6,1.9
	c0.3,0.4,0.7,0.9,1.5,1.6c1.2,1.1,2,2,2.4,2.8c0.6,1,0.9,2.2,0.9,3.6v0.9c0,1-0.4,1.9-1.1,2.6s-1.6,1.1-2.6,1.1h-0.2
	c-1,0-1.9-0.4-2.7-1.1c-0.7-0.7-1.1-1.6-1.1-2.6v-0.1c0-0.3,0.1-0.6,0.3-0.8c0.2-0.2,0.5-0.3,0.8-0.3c0.3,0,0.6,0.1,0.8,0.3
	c0.2,0.2,0.3,0.5,0.3,0.8c0,0.4,0.2,0.7,0.4,1c0.3,0.3,0.6,0.4,0.8,0.4h0.3c0.4,0,0.7-0.2,1-0.5c0.3-0.3,0.4-0.6,0.4-1v-0.7
	c0-1-0.2-1.9-0.7-2.7c-0.3-0.6-1-1.3-1.9-2.1c-0.9-0.9-1.6-1.6-2-2.1c-0.6-0.9-0.9-1.9-0.9-3v0.1c0-1.1,0.4-2,1.2-2.8
	c0.7-0.7,1.5-1,2.5-1.1h0.1c1.1,0,2,0.4,2.8,1.1C-160.3,243.6-159.9,244.5-159.8,245.5L-159.8,245.5z M-152.4,252.1v4.2
	c0,0.4,0.2,0.8,0.4,1c0.3,0.3,0.6,0.4,0.8,0.4h0.3c0.2,0,0.3,0,0.4-0.1l0.4-0.2c0.2-0.1,0.3-0.3,0.4-0.5c0.2-0.3,0.4-0.5,0.7-0.6
	h0.3c0.2,0,0.4,0,0.5,0.1c0.3,0.2,0.5,0.4,0.6,0.7c0,0.1,0.1,0.2,0.1,0.3c0,0.2,0,0.4-0.1,0.5c-0.3,0.6-0.7,1-1.3,1.4l-0.1,0.1
	l-0.1,0.1c0,0-0.1,0.1-0.2,0.1c-0.5,0.2-1,0.3-1.5,0.4h-0.4h0.2c-1,0-1.9-0.4-2.7-1.1c-0.7-0.7-1.1-1.6-1.1-2.6v-10.9
	c0-1,0.4-1.9,1.1-2.6c0.9-0.7,1.8-1.1,2.8-1.1h0.2c0.5,0,1,0.1,1.5,0.4l0.4,0.2c0.5,0.3,1,0.8,1.3,1.4c0.1,0.2,0.1,0.4,0.1,0.5
	s0,0.2-0.1,0.3c-0.1,0.3-0.3,0.5-0.6,0.7c-0.2,0.1-0.4,0.1-0.5,0.1s-0.2,0-0.3-0.1c-0.3-0.1-0.5-0.3-0.7-0.6
	c-0.1-0.2-0.3-0.4-0.5-0.6l-0.3-0.2c-0.1,0-0.3-0.1-0.5-0.1h-0.1c-0.4,0-0.7,0.1-1,0.4c-0.3,0.3-0.4,0.6-0.4,1v4.2h3.3
	c0.3,0,0.6,0.1,0.8,0.3c0.2,0.2,0.3,0.5,0.3,0.8s-0.1,0.6-0.3,0.8s-0.5,0.3-0.8,0.3h-3.3V252.1z M-149.1,242.1l0.2,0.1L-149.1,242.1
	z M-136.3,260c-0.3,0-0.6-0.1-0.8-0.3c-0.2-0.2-0.3-0.5-0.3-0.8v-13.6c0-0.2-0.2-0.5-0.4-0.8c-0.3-0.3-0.6-0.4-1-0.4h-0.2
	c-0.4,0-0.7,0.1-1,0.4s-0.4,0.6-0.4,1v13.4c0,0.3-0.1,0.6-0.3,0.8c-0.2,0.2-0.5,0.3-0.8,0.3s-0.6-0.1-0.8-0.3
	c-0.2-0.2-0.3-0.5-0.3-0.8v-13.5c0-1,0.4-1.9,1.1-2.6c0.6-0.7,1.5-1.1,2.5-1.1h0.1c1,0,1.8,0.4,2.5,1.1l-0.1-0.1h0.1
	c0.9-0.6,1.7-1,2.8-1h0.2c1,0,1.8,0.4,2.6,1.1c0.7,0.7,1.1,1.6,1.1,2.7v13.4c0,0.3-0.1,0.6-0.3,0.8c-0.2,0.2-0.5,0.3-0.8,0.3
	c-0.3,0-0.6-0.1-0.8-0.3c-0.2-0.2-0.3-0.5-0.3-0.8v-13.4c0-0.4-0.2-0.7-0.4-1s-0.6-0.4-1-0.4h-0.1c-0.4,0-0.7,0.2-1,0.4
	c-0.3,0.3-0.4,0.6-0.4,1v13.4c0,0.3-0.1,0.6-0.3,0.8C-135.7,259.9-135.9,260-136.3,260L-136.3,260z M-123,252.1v4.2
	c0,0.4,0.2,0.8,0.4,1c0.3,0.3,0.6,0.4,0.8,0.4h0.3c0.2,0,0.3,0,0.4-0.1l0.4-0.2c0.2-0.1,0.3-0.3,0.4-0.5c0.2-0.3,0.4-0.5,0.7-0.6
	h0.3c0.2,0,0.4,0,0.5,0.1c0.3,0.2,0.5,0.4,0.6,0.7c0,0.1,0.1,0.2,0.1,0.3c0,0.2,0,0.4-0.1,0.5c-0.3,0.6-0.7,1-1.3,1.4l-0.1,0.1
	l-0.1,0.1c0,0-0.1,0.1-0.2,0.1c-0.5,0.2-1,0.3-1.5,0.4h-0.4h0.2c-1,0-1.9-0.4-2.7-1.1c-0.7-0.7-1.1-1.6-1.1-2.6v-10.9
	c0-1,0.4-1.9,1.1-2.6c0.9-0.7,1.8-1.1,2.8-1.1h0.2c0.5,0,1,0.1,1.5,0.4l0.4,0.2c0.5,0.3,1,0.8,1.3,1.4c0.1,0.2,0.1,0.4,0.1,0.5
	s0,0.2-0.1,0.3c-0.1,0.3-0.3,0.5-0.6,0.7c-0.2,0.1-0.4,0.1-0.5,0.1s-0.2,0-0.3-0.1c-0.3-0.1-0.5-0.3-0.7-0.6
	c-0.1-0.2-0.3-0.4-0.5-0.6l-0.3,0.1c-0.1,0-0.3-0.1-0.5-0.1h-0.1c-0.4,0-0.7,0.1-1,0.4s-0.4,0.6-0.4,1v4.2h3.3
	c0.3,0,0.6,0.1,0.8,0.3c0.2,0.2,0.3,0.5,0.3,0.8s-0.1,0.6-0.3,0.8c-0.2,0.2-0.5,0.3-0.8,0.3h-3.3V252.1z M-119.7,242.1l0.2,0.1
	L-119.7,242.1z M-111.1,258.9c0,0.3-0.1,0.6-0.3,0.8c-0.2,0.2-0.5,0.3-0.8,0.3s-0.6-0.1-0.8-0.3c-0.2-0.2-0.3-0.5-0.3-0.8v-13.5
	c0-1,0.4-1.9,1.1-2.6c0.7-0.7,1.6-1.1,2.6-1.1h0.2c1,0,1.8,0.4,2.5,1.1c0.7,0.7,1.1,1.6,1.1,2.6v13.4c0,0.3-0.1,0.6-0.3,0.8
	c-0.2,0.2-0.5,0.3-0.8,0.3s-0.6-0.1-0.8-0.3c-0.2-0.2-0.3-0.5-0.3-0.8v-13.5c0-0.2-0.2-0.5-0.4-0.8c-0.3-0.3-0.6-0.4-1-0.4h-0.1
	c-0.4,0-0.7,0.1-1,0.4s-0.4,0.6-0.4,1v13.4H-111.1z M-94.8,241.7c0.3,0,0.6,0.1,0.8,0.3c0.2,0.2,0.3,0.5,0.3,0.8
	c0,0.3-0.1,0.6-0.3,0.8c-0.2,0.2-0.5,0.3-0.8,0.3h-1.5v14.9c0,0.3-0.1,0.6-0.3,0.8c-0.2,0.2-0.5,0.3-0.8,0.3s-0.6-0.1-0.8-0.3
	c-0.2-0.2-0.3-0.5-0.3-0.8V244h-1.5c-0.3,0-0.6-0.1-0.8-0.3c-0.2-0.2-0.3-0.5-0.3-0.8s0.1-0.6,0.3-0.8c0.1-0.3,0.4-0.4,0.7-0.4
	C-100.1,241.7-94.8,241.7-94.8,241.7z"/>
</svg>
