<?xml version="1.0" encoding="utf-8"?>
<!-- Generator: Adobe Illustrator 19.2.1, SVG Export Plug-In . SVG Version: 6.00 Build 0)  -->
<svg version="1.1" xmlns="http://www.w3.org/2000/svg" xmlns:xlink="http://www.w3.org/1999/xlink" x="0px" y="0px"
	 viewBox="0 0 836 292.5" style="enable-background:new 0 0 836 292.5;" xml:space="preserve">
<style type="text/css">
	.st0{opacity:0.49;fill:url(#SVGID_3_);}
	.st1{fill:#FFFFFF;}
	.st2{fill:#262626;}
	.st3{fill:#EAEDF4;}
	.st4{fill:#ADE9E9;}
	.st5{fill:#20AD8A;}
	.st6{fill:#FFC06C;}
	.st7{fill:#3F4D55;}
	.st8{fill:#5D5D5D;}
	.st9{fill:#B7B7B7;}
	.st10{fill:#ADADAD;}
	.st11{fill:#B2B2B2;}
	.st12{fill:#808080;}
	.st13{fill:#4D4D4D;}
	.st14{fill:#333333;}
	.st15{fill:#EFCE4A;}
	.st16{fill:#ED8A19;}
	.st17{fill:#EBBA16;}
	.st18{fill:#C7CAC7;}
	.st19{fill:#E7ECED;}
	.st20{opacity:0.7;clip-path:url(#SVGID_5_);}
	.st21{opacity:0.12;fill:#FFC06C;}
	.st22{opacity:0.16;fill:#FFC06C;}
	.st23{opacity:0.22;fill:#FFC06C;}
	.st24{opacity:0.3;fill:#FFC06C;}
	.st25{clip-path:url(#SVGID_7_);}
	.st26{opacity:0.15;fill:#20AD8A;}
	.st27{opacity:0.23;fill:#20AD8A;}
	.st28{opacity:0.3;fill:#20AD8A;}
	.st29{fill:#AAAAAA;}
	.st30{fill:none;stroke:#3F4D55;stroke-miterlimit:10;}
	.st31{fill:none;stroke:#3F4D55;stroke-linecap:round;stroke-miterlimit:10;}
	.st32{fill:#F00101;}
	.st33{fill:#030303;}
	.st34{fill:#70CADB;}
	.st35{fill:#E01765;}
	.st36{fill:#E8A723;}
	.st37{fill:#3EB890;}
	.st38{fill:#CC2027;}
	.st39{fill:#361238;}
	.st40{fill:#65863A;}
	.st41{fill:#1A937D;}
	.st42{fill:#666666;}
	.st43{fill:#D5E1E8;}
	.st44{fill:#E6EEF2;}
	.st45{fill:#573D82;}
	.st46{fill:#453068;}
	.st47{fill:#3FBA91;}
	.st48{fill:#6FCBDC;}
	.st49{fill:#DCDCDC;}
	.st50{fill:#FFC585;}
	.st51{fill:#FF3E88;}
	.st52{fill:#675470;}
	.st53{fill:#4A4687;}
	.st54{fill:#F3F3F3;}
	.st55{opacity:0.5;fill:#8977A7;}
	.st56{fill:#E1E9EF;}
	.st57{fill:#FFD7A3;}
	.st58{fill:#FDC88E;}
	.st59{fill:#FFE1B2;}
	.st60{fill:#A2CDE2;}
	.st61{fill:#545465;}
	.st62{fill:#29394A;}
	.st63{fill:#B5E0F0;}
	.st64{fill:#4A698E;}
	.st65{fill:#416185;}
	.st66{fill:#395A7F;}
	.st67{fill:#FFD5AB;}
	.st68{fill:#E4EBF0;}
	.st69{fill:#D0D7DC;}
	.st70{fill:#527992;}
	.st71{fill:#475F7F;}
	.st72{fill:#D3E5BD;}
	.st73{fill:#827873;}
	.st74{fill:#E0DDDC;}
	.st75{fill:#A19996;}
	.st76{fill:#33CCFF;}
	.st77{fill:#D8DCE1;}
	.st78{fill:#DB4026;}
	.st79{fill:#5C546A;}
	.st80{fill:#E8D21D;}
	.st81{fill:#4AECAF;}
	.st82{fill:#80362D;}
	.st83{fill:#FFB980;}
	.st84{fill:#F8AB6B;}
	.st85{fill:#BF9B5F;}
	.st86{fill:#83603F;}
	.st87{fill:#B0E070;}
	.st88{fill:#7E5C62;}
	.st89{fill:#A27082;}
	.st90{fill:#7E5449;}
	.st91{fill:#FFDA44;}
	.st92{fill:#FFCD00;}
	.st93{fill:#B1664F;}
	.st94{fill:#FFDAA9;}
	.st95{fill:#5FBEA0;}
	.st96{fill:none;stroke:#FFFFFF;stroke-width:2;stroke-linecap:round;stroke-miterlimit:10;}
	.st97{fill:#188268;}
	.st98{fill:#D2EFE8;}
	.st99{fill:#79CEB9;}
	.st100{fill:#EBEBED;}
	.st101{fill:#474F49;}
	.st102{fill:#DAABA9;}
	.st103{fill:#757EAF;}
	.st104{fill:#EDCC70;}
	.st105{fill:#B9BBC1;}
	.st106{fill:#53DCFF;}
	.st107{fill:#FCEE21;}
	.st108{fill:#8B8996;}
	.st109{fill:#686777;}
	.st110{fill:#67A2A9;}
	.st111{fill:#FF93B5;}
	.st112{fill:#FF93B5;stroke:#FFFFFF;stroke-width:2;stroke-linecap:round;stroke-miterlimit:10;}
	.st113{fill:#F3D960;}
	.st114{fill:#F3D960;stroke:#FFFFFF;stroke-width:2;stroke-linecap:round;stroke-miterlimit:10;}
	.st115{fill:#7BD766;}
	.st116{fill:#8166A4;}
	.st117{fill:#F67D69;}
	.st118{fill:#CCCCCC;}
	.st119{fill:#E6E6E6;}
	.st120{fill:#B3B3B3;}
	.st121{fill:none;stroke:#DA6F67;stroke-linecap:round;stroke-miterlimit:10;}
	.st122{fill:#BC679B;}
	.st123{fill:#09614B;}
	.st124{fill:#50748A;}
	.st125{fill:#E2E4FF;}
	.st126{fill:#A7795E;}
	.st127{fill:#ADB4BA;}
	.st128{fill:#4EA0CA;}
	.st129{fill:#394959;}
	.st130{fill:#E05040;}
	.st131{fill:#B4A87D;}
	.st132{fill:#7B7256;}
	.st133{fill:#FCC261;}
	.st134{fill:#111820;}
	.st135{fill:#DFDED6;}
	.st136{fill:#FF6953;}
	.st137{fill:#B06E53;}
	.st138{fill:#728EA0;}
	.st139{fill:#E5E4E3;}
	.st140{fill:#F7F3A8;}
	.st141{fill:#82827F;}
	.st142{fill:#353535;}
	.st143{fill:#A0B7D1;}
	.st144{fill:#ECEC66;}
	.st145{fill:#90BA72;}
	.st146{fill:#E7F2FC;}
	
		.st147{fill:none;stroke:#C6C6C6;stroke-width:2;stroke-linecap:round;stroke-linejoin:round;stroke-miterlimit:10;stroke-dasharray:5,10,5,10,5,10;}
	.st148{fill:#73A950;}
	.st149{fill:#FFA168;}
	.st150{fill:#2D688D;}
</style>
<g id="Capa_2">
</g>
<g id="Capa_3">
	<g>
		<g>
			<g>
				<path class="st61" d="M464.8,139l4.3,19.6c0.2,1.1,1.2,1.9,2.3,1.9h5.2v-19.1L464.8,139z"/>
			</g>
			<g>
				<path class="st61" d="M526.7,139l-4.3,19.6c-0.2,1.1-1.2,1.9-2.3,1.9h-5.2v-19.1L526.7,139z"/>
			</g>
			<g>
				<path class="st57" d="M469.6,169.3c5.3-3.4,4.7-13.6,4.7-16h42.9c0,2.4-0.7,12.6,4.7,16l-26.1,29.2L469.6,169.3z"/>
			</g>
			<g>
				<path class="st58" d="M512.4,179.5l9.4-10.2c-5.3-3.4-4.7-13.6-4.7-16h-42.9C477.4,162.1,497.7,177.3,512.4,179.5z"/>
			</g>
			<g>
				<path class="st59" d="M529.1,122.3c0,19.1-11,42.9-33.3,42.9c-22.4,0-33.3-23.8-33.3-42.9s14.9-26.2,33.3-26.2
					S529.1,103.2,529.1,122.3z"/>
			</g>
			<g>
				<path class="st5" d="M550.5,228.7c3.9,0,7.1-3.2,7.1-7.1V197c0-10.5-8.2-21.7-18.1-24.9l-14.9-4.8c-8,6.1-19.5,14.5-28.9,14.5
					s-20.9-8.4-28.9-14.5l-14.9,4.8c-10,3.2-18.1,14.4-18.1,24.9v24.5c0,3.9,3.2,7.1,7.1,7.1H550.5z"/>
			</g>
			<g>
				<path class="st123" d="M452.9,228.7h85.7v-56.8l-14-4.5c-8,6.1-19.5,14.5-28.9,14.5s-20.9-8.4-28.9-14.5l-14,4.5L452.9,228.7
					L452.9,228.7z"/>
			</g>
			<g>
				<path class="st124" d="M488.6,186.6l3.8,3.8c1.9,1.9,4.9,1.9,6.7,0l6.2-6.2l-9.5-2.4L488.6,186.6z"/>
			</g>
			<g>
				<path class="st61" d="M479.1,81.8c20.8-14.3,63.3-1.8,50,45.3l-7.1-7.1c0,0-26.6-6.4-50-19.1"/>
			</g>
			<g>
				<path class="st125" d="M495.8,181.8l-9.9,9.9c-1,1-2.7,0.9-3.6-0.3l-17.4-23.9l5.5-5.5c0.9-0.9,2.3-0.9,3.3-0.1L495.8,181.8z"/>
			</g>
			<g>
				<path class="st125" d="M495.8,181.8l9.9,9.9c1,1,2.7,0.9,3.6-0.3l17.4-23.9l-5.5-5.5c-0.9-0.9-2.3-0.9-3.3-0.1L495.8,181.8z"/>
			</g>
			<g>
				<path class="st59" d="M463.6,127.1c-3.6-0.9-5.9,1-5.9,4.8c0,5,4.8,17.1,9.8,9.5C472.5,133.8,463.6,127.1,463.6,127.1z"/>
			</g>
			<g>
				<path class="st59" d="M527.4,127.1c3.9-0.9,6.5,1,6.5,4.8c0,5-5.2,17.1-10.8,9.5C517.6,133.8,527.4,127.1,527.4,127.1z"/>
			</g>
			<g>
				<path class="st61" d="M462.4,127.1c0.8,2.4,2.4,4.8,2.4,4.8s13.9-17.9,14.3-31c0.4-13.1-2.4-11.9-2.4-11.9l4.8-2.4
					c0,0,8.3-3.7-2.4-4.8C464.1,80.3,450.5,91.1,462.4,127.1z"/>
			</g>
			<g>
				<g>
					<path class="st15" d="M494.2,14.3c-6.2,0.7-11.3,5.8-12,12c-0.5,4.5,1.2,8.5,4.1,11.3c2.2,2.1,3.5,5,3.5,8v0.7H501l0,0
						c0-3.2,1.4-6.2,3.8-8.3c2.8-2.5,4.6-6.1,4.6-10.2C509.3,19.8,502.4,13.4,494.2,14.3z"/>
				</g>
				<g>
					<path class="st1" d="M495.4,36.6L495.4,36.6c-1.5,0-2.8-1.3-2.8-2.8l0,0c0-1.5,1.3-2.8,2.8-2.8l0,0c1.5,0,2.8,1.3,2.8,2.8l0,0
						C498.2,35.3,496.9,36.6,495.4,36.6z"/>
					<path class="st16" d="M495.4,37.3c-1.9,0-3.5-1.6-3.5-3.5c0-1.9,1.6-3.5,3.5-3.5s3.5,1.6,3.5,3.5
						C498.9,35.7,497.3,37.3,495.4,37.3z M495.4,31.7c-1.2,0-2.1,0.9-2.1,2.1c0,1.2,0.9,2.1,2.1,2.1s2.1-0.9,2.1-2.1
						C497.5,32.6,496.5,31.7,495.4,31.7z"/>
				</g>
				<path class="st17" d="M495.4,47.1c-0.4,0-0.7-0.3-0.7-0.7V33.8c0-0.4,0.3-0.7,0.7-0.7c0.4,0,0.7,0.3,0.7,0.7v12.6
					C496.1,46.8,495.8,47.1,495.4,47.1z"/>
				<polygon class="st18" points="497.5,54.7 493.3,54.7 491.2,52 499.6,52 				"/>
				<rect x="489.8" y="49.2" class="st19" width="11.2" height="2.8"/>
				<rect x="489.8" y="46.4" class="st18" width="11.2" height="2.8"/>
				<path class="st15" d="M495.4,10.5c-0.4,0-0.7-0.3-0.7-0.7V0.7c0-0.4,0.3-0.7,0.7-0.7c0.4,0,0.7,0.3,0.7,0.7v9.1
					C496.1,10.2,495.8,10.5,495.4,10.5z"/>
				<path class="st15" d="M508.4,15.6c-0.2,0-0.4-0.1-0.5-0.2c-0.3-0.3-0.3-0.7,0-1l6.4-6.4c0.3-0.3,0.7-0.3,1,0
					c0.3,0.3,0.3,0.7,0,1l-6.4,6.4C508.7,15.5,508.5,15.6,508.4,15.6z"/>
				<path class="st15" d="M482.6,16.1c-0.2,0-0.4-0.1-0.5-0.2l-6.4-6.4c-0.3-0.3-0.3-0.7,0-1c0.3-0.3,0.7-0.3,1,0l6.4,6.4
					c0.3,0.3,0.3,0.7,0,1C482.9,16,482.8,16.1,482.6,16.1z"/>
				<path class="st15" d="M477.5,29.1h-9.1c-0.4,0-0.7-0.3-0.7-0.7s0.3-0.7,0.7-0.7h9.1c0.4,0,0.7,0.3,0.7,0.7
					S477.9,29.1,477.5,29.1z"/>
				<path class="st15" d="M523,28.4H514c-0.4,0-0.7-0.3-0.7-0.7s0.3-0.7,0.7-0.7h9.1c0.4,0,0.7,0.3,0.7,0.7S523.4,28.4,523,28.4z"/>
				<path class="st15" d="M481.9,42l-6.4,6.4c-0.3,0.3-0.7,0.3-1,0c-0.3-0.3-0.3-0.7,0-1l6.4-6.4c0.3-0.3,0.7-0.3,1,0
					C482.1,41.3,482.1,41.7,481.9,42z"/>
				<path class="st15" d="M511,40.2l6.4,6.4c0.3,0.3,0.3,0.7,0,1c-0.3,0.3-0.7,0.3-1,0l-6.4-6.4c-0.3-0.3-0.3-0.7,0-1
					C510.2,40,510.7,40,511,40.2z"/>
			</g>
		</g>
		<g>
			<g>
				<path class="st57" d="M609.8,171.1c5.3-3.4,4.7-13.6,4.7-15.9h42.6c0,2.4-0.7,12.5,4.6,15.9l-26,29.1L609.8,171.1z"/>
			</g>
			<g>
				<path class="st58" d="M652.6,179l9.4-5.4c-5.3-3.4-4.6-18.3-4.6-20.7h-42.6C617.8,161.7,638,176.8,652.6,179z"/>
			</g>
			<g>
				<path class="st69" d="M690.3,229c3.9,0,7.1-3.2,7.1-7.1v-23.2c0-10.4-8.1-21.6-18.1-24.7l-14.8-4.7c-8,6.1-19.4,14.4-28.7,14.4
					s-20.8-8.3-28.7-14.4l-14.8,4.7c-9.9,3.2-18.1,14.3-18.1,24.7v23.2c0,3.9,3.2,7.1,7.1,7.1L690.3,229L690.3,229z"/>
			</g>
			<g>
				<path class="st126" d="M640.5,184.5c0,1.3-1.1,2.4-2.4,2.4h-4.7c-1.3,0-2.4-1.1-2.4-2.4v-3.1c0-1.3,1.1-2.4,2.4-2.4h4.7
					c1.3,0,2.4,1.1,2.4,2.4V184.5z"/>
			</g>
			<g>
				<circle class="st69" cx="635.8" cy="204.9" r="2.4"/>
			</g>
			<g>
				<path class="st68" d="M635.8,178.9l-9.9,9.9c-1,1-2.7,0.9-3.6-0.3L605,169.4l5.5-5.5c0.9-0.9,2.3-0.9,3.3-0.1L635.8,178.9z"/>
			</g>
			<g>
				<path class="st68" d="M635.8,178.9l9.9,9.9c1,1,2.7,0.9,3.6-0.3l17.3-19.1l-5.5-5.5c-0.9-0.9-2.3-0.9-3.3-0.1L635.8,178.9z"/>
			</g>
			<g>
				<polygon class="st126" points="639.1,185 635.8,185 632.6,185 631.1,224.4 635.8,224.4 640.5,224.4 				"/>
			</g>
			<g>
				<path class="st59" d="M667.6,126.9c3.9-0.9,6.4,1,6.4,4.7c0,4.9-5.2,17-10.7,9.5C657.8,133.5,667.6,126.9,667.6,126.9z"/>
			</g>
			<g>
				<path class="st59" d="M604,126.9c-3.6-0.9-5.9,1-5.9,4.7c0,4.9,4.8,17,9.8,9.5S604,126.9,604,126.9z"/>
			</g>
			<g>
				<path class="st59" d="M669.2,122.1c0,19-10.9,42.6-33.2,42.6s-33.2-23.7-33.2-42.6c0-26.1,14.9-35.6,33.2-35.6
					S669.2,96.2,669.2,122.1z"/>
			</g>
			<g>
				<path class="st127" d="M637.4,146c0-3.1-3.4-3.8-5.7-3.1c-4.2,1.4-8.7,5.3-12.6,2.9c0,0,1.3,5,3.6,5
					C627.2,150.8,637.4,151.3,637.4,146z"/>
			</g>
			<g>
				<path class="st127" d="M636.3,146c0-3.1,3.4-3.8,5.7-3.1c4.2,1.4,8.7,5.3,12.6,2.9c0,0-1.3,5-3.6,5
					C646.5,150.8,636.3,151.3,636.3,146z"/>
			</g>
			<g>
				<path class="st49" d="M669.2,120.9c-0.5-24.9-15.1-34.3-33.1-34.3c-18,0-32.6,9.2-33.1,34.3c8.6-6,14.2-15.9,14.2-27.2
					c0-0.1,0-0.1,0-0.2c5,4.5,11.7,7.3,19,7.3s13.9-2.8,19-7.3c0,0.1,0,0.1,0,0.2C655,104.9,660.6,114.9,669.2,120.9z"/>
			</g>
			<g>
				<path class="st49" d="M602.9,122.1c0,2.5,0,3.8,0.2,6.7l7.2,3c0,0-2.6-12,3.1-19.3c3.6-4.6,6.9-10,3.8-18.8
					c-0.2-0.7-0.5-1.3-0.8-1.9C608.2,97,602.9,106.6,602.9,122.1z"/>
			</g>
			<g>
				<path class="st49" d="M669.3,122.1c0,2.5,0,3.8-0.2,6.7l-7.2,3c0,0,2.6-12-3.1-19.3c-3.6-4.6-6.9-10-3.8-18.8
					c0.2-0.7,0.5-1.3,0.8-1.9C664.1,97,669.3,106.6,669.3,122.1z"/>
			</g>
			<g>
				<path class="st61" d="M617.4,130.5c-0.1,0-0.2,0-0.3,0l-14.4-3.6c-0.6-0.2-1-0.8-0.9-1.4c0.2-0.6,0.8-1,1.4-0.9l14.4,3.6
					c0.6,0.2,1,0.8,0.9,1.4C618.4,130.1,617.9,130.5,617.4,130.5z"/>
			</g>
			<g>
				<path class="st61" d="M654.2,130.5c-0.5,0-1-0.4-1.1-0.9c-0.2-0.6,0.2-1.3,0.9-1.4l14.5-3.6c0.6-0.2,1.3,0.2,1.4,0.9
					c0.2,0.6-0.2,1.3-0.9,1.4l-14.5,3.6C654.4,130.5,654.3,130.5,654.2,130.5z"/>
			</g>
			<g>
				<path class="st61" d="M642.6,131.1c-0.7,0-1.2-0.5-1.2-1.2c0-1.8-2.6-3.3-5.6-3.3c-3.1,0-5.6,1.5-5.6,3.3c0,0.7-0.5,1.2-1.2,1.2
					s-1.2-0.5-1.2-1.2c0-3.2,3.5-5.6,8-5.6c4.5,0,8,2.5,8,5.6C643.8,130.6,643.3,131.1,642.6,131.1z"/>
			</g>
			<g>
				<path class="st61" d="M623.2,136.3c-3.8,0-7-3.1-7-7c0-3.8,3.1-7,7-7s7,3.1,7,7C630.2,133.2,627,136.3,623.2,136.3z
					 M623.2,124.7c-2.5,0-4.6,2.1-4.6,4.6c0,2.5,2.1,4.6,4.6,4.6c2.5,0,4.6-2.1,4.6-4.6C627.8,126.8,625.7,124.7,623.2,124.7z"/>
			</g>
			<g>
				<path class="st61" d="M648.4,136.3c-3.8,0-7-3.1-7-7c0-3.8,3.1-7,7-7s7,3.1,7,7C655.4,133.2,652.3,136.3,648.4,136.3z
					 M648.4,124.7c-2.5,0-4.6,2.1-4.6,4.6c0,2.5,2.1,4.6,4.6,4.6s4.6-2.1,4.6-4.6C653,126.8,651,124.7,648.4,124.7z"/>
			</g>
			<g>
				<path class="st129" d="M682.4,175.2l-19.2-9.2l-25.7,25.7c-0.9,0.9-2.4,0.9-3.4,0L608.4,166l-19.2,9.2c-9.6,4.5-15,13.1-15,23.5
					v23.2c0,3.6,2.7,6.6,6.3,7h110.6c3.5-0.4,6.3-3.4,6.3-7v-23.2C697.4,188.2,692,179.7,682.4,175.2z"/>
			</g>
			<g>
				<path class="st130" d="M667.6,224.3v14.2l6.7-3.3l6.7,3.3v-14.6c-1.9,1.4-4.3,2.3-6.9,2.3C671.6,226.2,669.4,225.5,667.6,224.3z
					"/>
				<path class="st1" d="M669.5,224.7v10.2l4.8-2.4l4.8,2.4v-10.5c-1.4,1-3.1,1.6-5,1.6C672.4,226.1,670.8,225.6,669.5,224.7z"/>
				<path class="st91" d="M674,202.8c-6.5,0-11.7,5.3-11.7,11.7c0,4.1,2.1,7.7,5.3,9.8c1.8,1.2,4,1.9,6.4,1.9L674,202.8L674,202.8z"
					/>
				<path class="st92" d="M685.7,214.5c0-6.5-5.3-11.7-11.7-11.7v23.4c2.6,0,5-0.8,6.9-2.3C683.8,221.8,685.7,218.4,685.7,214.5z"/>
				<circle class="st15" cx="674" cy="214.6" r="8.2"/>
			</g>
		</g>
		<g>
			<g>
				<path class="st131" d="M329.4,173.7c5.1-3.3,4.5-13.1,4.5-15.3H375c0,2.3-0.6,12.1,4.5,15.3l-25,28L329.4,173.7z"/>
			</g>
			<g>
				<path class="st132" d="M370.4,183.4l9-9.8c-5.1-3.3-4.5-13.1-4.5-15.3h-41.1C336.9,166.8,356.4,181.3,370.4,183.4z"/>
			</g>
			<g>
				<path class="st131" d="M386.4,128.7c0,18.3-10.5,41.1-31.9,41.1s-31.9-22.8-31.9-41.1s14.3-25.1,31.9-25.1
					C372.1,103.6,386.4,110.4,386.4,128.7z"/>
			</g>
			<g>
				<path class="st133" d="M406.9,229.1c3.8,0,6.8-3.1,6.8-6.8v-22c0-10-7.8-20.8-17.4-23.8l-14.3-4.6c-7.7,5.9-18.7,13.9-27.7,13.9
					s-20-8-27.7-13.9l-14.3,4.6c-9.6,3.1-17.4,13.8-17.4,23.8v22c0,3.8,3.1,6.8,6.8,6.8H406.9z"/>
			</g>
			<g>
				<path class="st134" d="M340.8,89.9c-2.1,0-2.4,0-4.6,0c-8.8,0-16,7-17.3,15.8c-1.9,12.9,3.6,27.4,3.6,27.4s2.9-19,15.4-24.5
					C344.6,105.6,340.8,89.9,340.8,89.9z"/>
			</g>
			<g>
				<path class="st134" d="M332.9,90.2c26.7-2.4,34.6-8.2,35.5-13.8c21.9,11.3,26,43.4,18.1,56.6l-6.8-15.8c0,0-28.1,6.6-47.9-5.8"
					/>
			</g>
			<g>
				<path class="st135" d="M354.5,185.7L343,197.1L324.8,172l5.3-5.3c0.9-0.9,2.2-0.9,3.1-0.1L354.5,185.7z"/>
			</g>
			<g>
				<path class="st135" d="M354.5,185.7l11.4,11.4l18.3-25.1l-5.3-5.3c-0.9-0.9-2.2-0.9-3.1-0.1L354.5,185.7z"/>
			</g>
			<g>
				<path class="st131" d="M323.6,133.2c-3.4-0.9-5.7,1-5.7,4.6c0,4.8,4.6,16.4,9.4,9.1C332.2,139.7,323.6,133.2,323.6,133.2z"/>
			</g>
			<g>
				<path class="st131" d="M384.8,133.2c3.7-0.9,6.2,1,6.2,4.6c0,4.8-5,16.4-10.3,9.1S384.8,133.2,384.8,133.2z"/>
			</g>
			<g>
				<path class="st136" d="M365.9,229h41.9c3.4-0.4,6-3.3,6-6.8v-22c0-10-7.8-20.8-17.4-23.8l-12.4-4h0L365.9,229z"/>
			</g>
			<g>
				<path class="st136" d="M325,172.4L325,172.4l-12.4,4c-9.6,3.1-17.4,13.8-17.4,23.8v22c0,3.5,2.6,6.4,6,6.8H343L325,172.4z"/>
			</g>
			<g>
				<path class="st130" d="M384.6,224.3v14.2l6.7-3.3l6.7,3.3v-14.6c-1.9,1.4-4.3,2.3-6.9,2.3C388.6,226.2,386.4,225.5,384.6,224.3z
					"/>
				<path class="st1" d="M386.5,224.7v10.2l4.8-2.4l4.8,2.4v-10.5c-1.4,1-3.1,1.6-5,1.6C389.4,226.1,387.8,225.6,386.5,224.7z"/>
				<path class="st91" d="M391,202.8c-6.5,0-11.7,5.3-11.7,11.7c0,4.1,2.1,7.7,5.3,9.8c1.8,1.2,4,1.9,6.4,1.9L391,202.8L391,202.8z"
					/>
				<path class="st92" d="M402.7,214.5c0-6.5-5.3-11.7-11.7-11.7v23.4c2.6,0,5-0.8,6.9-2.3C400.8,221.8,402.7,218.4,402.7,214.5z"/>
				<circle class="st15" cx="391" cy="214.6" r="8.2"/>
			</g>
		</g>
		<g>
			<g>
				<path class="st137" d="M42,76.3l13.4,84.1l-25.8,12.8C3.5,154.2,6.6,76.3,42,76.3z"/>
			</g>
			<g>
				<path class="st137" d="M42,76.3c4.3-2.6,27-9.3,44.3,0c21.2,11.4,37.2,54.2,15.5,96.9c0,0.1-20.3-10.4-20.3-10.4L42,76.3z"/>
			</g>
			<g>
				<path class="st57" d="M81.4,158.4h-0.1v-5.7H46.8v5.7c0,5.6,0,11.7-4.9,15.4V229H64c0,0,11.6,0,22.2,0v-55.2
					C81.4,170,81.4,164,81.4,158.4z"/>
			</g>
			<g>
				<path class="st138" d="M100.9,177.3h-0.8c-9.4,0-14-2.5-16.4-6L64,183l-19.7-11.7c-2.4,3.6-7.1,6-16.4,6h-0.8
					c-15,0-27.1,12.1-27.1,27.1v17.2c0,4.1,3.3,7.4,7.4,7.4h41.8h8.7h12.2h13.6h36.9c4.1,0,7.4-3.3,7.4-7.4v-17.2
					C128,189.4,115.9,177.3,100.9,177.3z"/>
			</g>
			<g>
				<path class="st58" d="M83.7,184.7c0.9,0.2,1.7,0.4,2.5,0.4v-11.3c-4.8-3.7-4.8-9.8-4.8-15.4h-0.1v-5.7H54.2l-7.4,2.5
					C51.7,160.7,66.8,180,83.7,184.7z"/>
			</g>
			<g>
				<path class="st59" d="M98.5,120.6c0,19.7-19.6,44.3-34.5,44.3s-34.5-24.6-34.5-44.3S45,93.6,64,93.6S98.5,100.9,98.5,120.6z"/>
			</g>
			<g>
				<path class="st137" d="M59.2,81.3c1.4,0,5.9,1.6,9.5,2.9l0.3-0.5c0,0,0.5,0.4,1.4,1.1c2,0.8,3.5,1.4,3.5,1.4l-0.6,1
					c9.3,7.4,30.7,24.2,32.6,26.1c2.5,2.5-14.8,65.3-14.8,29.5c0-29.8-16.6-35.8-32-39.4c-7-1.6-9-5.7-9.8-9.8
					C48.6,89.5,56.8,81.3,59.2,81.3z"/>
			</g>
			<g>
				<path class="st137" d="M51.8,97.9c0,0-7.4,26.9-26.6,42.4c-3.7,3,2-32,2-32s6.6-16.8,7.4-17.2c0.8-0.4,7.4-14.8,7.4-14.8
					l7.3,11.8L51.8,97.9z"/>
			</g>
			<g>
				<path class="st139" d="M64,183l-19.5-12.1l-6,4.8c0,0,3.1,18.3,13.2,18.3C61.6,194,64,183,64,183z"/>
			</g>
			<g>
				<path class="st139" d="M64,183l19.5-12.1l6,4.8c0,0-3.1,18.3-13.2,18.3C66.4,194,64,183,64,183z"/>
			</g>
			<g>
				<g>
					<path class="st15" d="M58.9,14.3c-6.2,0.7-11.3,5.8-12,12c-0.5,4.5,1.2,8.5,4.1,11.3c2.2,2.1,3.5,5,3.5,8v0.7h11.2l0,0
						c0-3.2,1.4-6.2,3.8-8.3c2.8-2.5,4.6-6.1,4.6-10.2C74.1,19.8,67.1,13.4,58.9,14.3z"/>
				</g>
				<g>
					<path class="st1" d="M60.1,36.6L60.1,36.6c-1.5,0-2.8-1.3-2.8-2.8l0,0c0-1.5,1.3-2.8,2.8-2.8l0,0c1.5,0,2.8,1.3,2.8,2.8l0,0
						C62.9,35.3,61.7,36.6,60.1,36.6z"/>
					<path class="st16" d="M60.1,37.3c-1.9,0-3.5-1.6-3.5-3.5c0-1.9,1.6-3.5,3.5-3.5s3.5,1.6,3.5,3.5C63.6,35.7,62.1,37.3,60.1,37.3
						z M60.1,31.7c-1.2,0-2.1,0.9-2.1,2.1c0,1.2,0.9,2.1,2.1,2.1s2.1-0.9,2.1-2.1C62.2,32.6,61.3,31.7,60.1,31.7z"/>
				</g>
				<path class="st17" d="M60.1,47.1c-0.4,0-0.7-0.3-0.7-0.7V33.8c0-0.4,0.3-0.7,0.7-0.7c0.4,0,0.7,0.3,0.7,0.7v12.6
					C60.8,46.8,60.5,47.1,60.1,47.1z"/>
				<polygon class="st18" points="62.2,54.7 58,54.7 55.9,52 64.3,52 				"/>
				<rect x="54.6" y="49.2" class="st19" width="11.2" height="2.8"/>
				<rect x="54.6" y="46.4" class="st18" width="11.2" height="2.8"/>
				<path class="st15" d="M60.1,10.5c-0.4,0-0.7-0.3-0.7-0.7V0.7c0-0.4,0.3-0.7,0.7-0.7c0.4,0,0.7,0.3,0.7,0.7v9.1
					C60.8,10.2,60.5,10.5,60.1,10.5z"/>
				<path class="st15" d="M73.1,15.6c-0.2,0-0.4-0.1-0.5-0.2c-0.3-0.3-0.3-0.7,0-1L79.1,8c0.3-0.3,0.7-0.3,1,0c0.3,0.3,0.3,0.7,0,1
					l-6.4,6.4C73.5,15.5,73.3,15.6,73.1,15.6z"/>
				<path class="st15" d="M47.3,16.1c-0.2,0-0.4-0.1-0.5-0.2l-6.4-6.4c-0.3-0.3-0.3-0.7,0-1c0.3-0.3,0.7-0.3,1,0l6.4,6.4
					c0.3,0.3,0.3,0.7,0,1C47.7,16,47.5,16.1,47.3,16.1z"/>
				<path class="st15" d="M42.2,29.1h-9.1c-0.4,0-0.7-0.3-0.7-0.7s0.3-0.7,0.7-0.7h9.1c0.4,0,0.7,0.3,0.7,0.7S42.6,29.1,42.2,29.1z"
					/>
				<path class="st15" d="M87.8,28.4h-9.1c-0.4,0-0.7-0.3-0.7-0.7s0.3-0.7,0.7-0.7h9.1c0.4,0,0.7,0.3,0.7,0.7S88.2,28.4,87.8,28.4z"
					/>
				<path class="st15" d="M46.6,42l-6.4,6.4c-0.3,0.3-0.7,0.3-1,0c-0.3-0.3-0.3-0.7,0-1l6.4-6.4c0.3-0.3,0.7-0.3,1,0
					C46.9,41.3,46.9,41.7,46.6,42z"/>
				<path class="st15" d="M75.7,40.2l6.4,6.4c0.3,0.3,0.3,0.7,0,1c-0.3,0.3-0.7,0.3-1,0l-6.4-6.4c-0.3-0.3-0.3-0.7,0-1
					C75,40,75.4,40,75.7,40.2z"/>
			</g>
		</g>
		<g>
			<g>
				<path class="st57" d="M183.9,169.5c5.4-3.5,4.8-13.9,4.8-16.3h43.6c0,2.4-0.7,12.8,4.7,16.3l-26.5,29.7L183.9,169.5z"/>
			</g>
			<g>
				<path class="st58" d="M227.5,179.8l9.6-10.3c-5.4-3.5-4.7-13.9-4.7-16.3h-43.6C191.9,162.2,212.5,177.6,227.5,179.8z"/>
			</g>
			<g>
				<path class="st59" d="M244.4,121.7c0,19.4-11.2,43.6-33.9,43.6s-33.9-24.2-33.9-43.6s15.2-26.6,33.9-26.6
					S244.4,102.3,244.4,121.7z"/>
			</g>
			<g>
				<path class="st140" d="M266.2,228.2c4,0,7.3-3.3,7.3-7.3v-23.3c0-10.7-8.3-22-18.4-25.3l-15.1-4.8c-8.1,6.2-19.8,14.7-29.4,14.7
					c-9.6,0-21.2-8.5-29.4-14.7l-15.1,4.8c-10.1,3.2-18.4,14.6-18.4,25.3V221c0,4,3.3,7.3,7.3,7.3L266.2,228.2L266.2,228.2z"/>
			</g>
			<g>
				<path class="st141" d="M244.4,78.2c-16,0-41-12.4-50.8,2.4c-0.7,0-1.3,0-2.5,0c-9.4,0-16.9,7.7-16.9,17c0,8.7,2.4,28.9,2.4,28.9
					s5.1-15.3,14.5-24.2c0,0,46,4.8,46,4.8l7.3,19.4C248.5,112.8,246.8,81.6,244.4,78.2z"/>
			</g>
			<g>
				<g>
					<g>
						<path class="st61" d="M205.1,126.5v1.8c0,5.3-4.3,9.7-9.7,9.7H193c-2.7,0-4.8-2.2-4.8-4.8v-6.7L205.1,126.5 M205.1,124.1
							h-16.9c-1.3,0-2.4,1.1-2.4,2.4v6.7c0,4,3.3,7.3,7.3,7.3h2.4c6.7,0,12.1-5.4,12.1-12.1v-1.8
							C207.6,125.2,206.5,124.1,205.1,124.1L205.1,124.1z"/>
					</g>
				</g>
				<g>
					<g>
						<path class="st61" d="M232.9,126.5v6.7c0,2.7-2.2,4.8-4.8,4.8h-2.4c-5.3,0-9.7-4.3-9.7-9.7v-1.8L232.9,126.5 M232.9,124.1H216
							c-1.3,0-2.4,1.1-2.4,2.4v1.8c0,6.7,5.4,12.1,12.1,12.1h2.4c4,0,7.3-3.3,7.3-7.3v-6.7C235.3,125.2,234.3,124.1,232.9,124.1
							L232.9,124.1z"/>
					</g>
				</g>
				<g>
					<g>
						<polygon class="st61" points="176.6,124.1 188.2,124.1 188.2,129.9 176.6,127.1 						"/>
					</g>
				</g>
				<g>
					<g>
						<polygon class="st61" points="244.5,124.1 232.9,124.1 232.9,129.9 244.5,127.1 						"/>
					</g>
				</g>
				<g>
					<g>
						<path class="st61" d="M216.1,129.9h-2.4c0-1-1.5-2-3.1-2c-1.7,0-3.1,0.9-3.1,2H205c0-2.5,2.4-4.4,5.5-4.4
							S216.1,127.4,216.1,129.9z"/>
					</g>
				</g>
			</g>
			<g>
				<g>
					<path class="st142" d="M244.4,78.2c-16,0-41-12.4-50.8,2.4c-0.7,0-1.3,0-2.5,0c-6.6,0-12.4,3.9-15.1,9.4
						c21.9,25.9,56,20.8,70.8,17C247.2,93.9,246,80.4,244.4,78.2z"/>
				</g>
			</g>
			<g>
				<path class="st143" d="M205.1,126.5v1.8c0,5.3-4.3,9.7-9.7,9.7H193c-2.7,0-4.8-2.2-4.8-4.8v-6.7L205.1,126.5"/>
			</g>
			<g>
				<path class="st143" d="M216,126.5v1.8c0,5.3,4.3,9.7,9.7,9.7h2.4c2.7,0,4.8-2.2,4.8-4.8v-6.7L216,126.5"/>
			</g>
			<g>
				<path class="st144" d="M171.8,201.6l-16.2-22.4c-4.8,5-8,11.9-8,18.4V221c0,4,3.3,7.3,7.3,7.3h16.9V201.6z"/>
			</g>
			<g>
				<path class="st144" d="M249.3,201.6l16.2-22.4c4.8,5,8,11.9,8,18.4V221c0,4-3.3,7.3-7.3,7.3h-16.9V201.6z"/>
			</g>
			<g>
				<path class="st144" d="M210.5,189.5c12,0,25.1-9.9,37.5-19.4l-8.2-2.6c-8.1,6.2-19.8,14.7-29.4,14.7c-9.6,0-21.2-8.5-29.4-14.7
					l-8.2,2.6C185.4,179.6,198.5,189.5,210.5,189.5z"/>
			</g>
			<g>
				<g>
					<path class="st15" d="M211.3,14.3c-6.2,0.7-11.3,5.8-12,12c-0.5,4.5,1.2,8.5,4.1,11.3c2.2,2.1,3.5,5,3.5,8v0.7h11.2l0,0
						c0-3.2,1.4-6.2,3.8-8.3c2.8-2.5,4.6-6.1,4.6-10.2C226.5,19.8,219.6,13.4,211.3,14.3z"/>
				</g>
				<g>
					<path class="st1" d="M212.5,36.6L212.5,36.6c-1.5,0-2.8-1.3-2.8-2.8l0,0c0-1.5,1.3-2.8,2.8-2.8l0,0c1.5,0,2.8,1.3,2.8,2.8l0,0
						C215.3,35.3,214.1,36.6,212.5,36.6z"/>
					<path class="st16" d="M212.5,37.3c-1.9,0-3.5-1.6-3.5-3.5c0-1.9,1.6-3.5,3.5-3.5s3.5,1.6,3.5,3.5
						C216,35.7,214.5,37.3,212.5,37.3z M212.5,31.7c-1.2,0-2.1,0.9-2.1,2.1c0,1.2,0.9,2.1,2.1,2.1s2.1-0.9,2.1-2.1
						C214.6,32.6,213.7,31.7,212.5,31.7z"/>
				</g>
				<path class="st17" d="M212.5,47.1c-0.4,0-0.7-0.3-0.7-0.7V33.8c0-0.4,0.3-0.7,0.7-0.7c0.4,0,0.7,0.3,0.7,0.7v12.6
					C213.2,46.8,212.9,47.1,212.5,47.1z"/>
				<polygon class="st18" points="214.6,54.7 210.5,54.7 208.4,52 216.7,52 				"/>
				<rect x="207" y="49.2" class="st19" width="11.2" height="2.8"/>
				<rect x="207" y="46.4" class="st18" width="11.2" height="2.8"/>
				<path class="st15" d="M212.5,10.5c-0.4,0-0.7-0.3-0.7-0.7V0.7c0-0.4,0.3-0.7,0.7-0.7c0.4,0,0.7,0.3,0.7,0.7v9.1
					C213.2,10.2,212.9,10.5,212.5,10.5z"/>
				<path class="st15" d="M225.5,15.6c-0.2,0-0.4-0.1-0.5-0.2c-0.3-0.3-0.3-0.7,0-1l6.4-6.4c0.3-0.3,0.7-0.3,1,0
					c0.3,0.3,0.3,0.7,0,1l-6.4,6.4C225.9,15.5,225.7,15.6,225.5,15.6z"/>
				<path class="st15" d="M199.7,16.1c-0.2,0-0.4-0.1-0.5-0.2l-6.4-6.4c-0.3-0.3-0.3-0.7,0-1c0.3-0.3,0.7-0.3,1,0l6.4,6.4
					c0.3,0.3,0.3,0.7,0,1C200.1,16,199.9,16.1,199.7,16.1z"/>
				<path class="st15" d="M194.7,29.1h-9.1c-0.4,0-0.7-0.3-0.7-0.7s0.3-0.7,0.7-0.7h9.1c0.4,0,0.7,0.3,0.7,0.7S195,29.1,194.7,29.1z
					"/>
				<path class="st15" d="M240.2,28.4h-9.1c-0.4,0-0.7-0.3-0.7-0.7s0.3-0.7,0.7-0.7h9.1c0.4,0,0.7,0.3,0.7,0.7
					S240.6,28.4,240.2,28.4z"/>
				<path class="st15" d="M199.1,42l-6.4,6.4c-0.3,0.3-0.7,0.3-1,0c-0.3-0.3-0.3-0.7,0-1l6.4-6.4c0.3-0.3,0.7-0.3,1,0
					C199.3,41.3,199.3,41.7,199.1,42z"/>
				<path class="st15" d="M228.1,40.2l6.4,6.4c0.3,0.3,0.3,0.7,0,1c-0.3,0.3-0.7,0.3-1,0l-6.4-6.4c-0.3-0.3-0.3-0.7,0-1
					C227.4,40,227.9,40,228.1,40.2z"/>
			</g>
		</g>
		<g>
			<g>
				<path class="st82" d="M795.7,82l-16.6,90.1l11.9,2.4C816,156.1,826.8,82,795.7,82z"/>
			</g>
			<g>
				<path class="st82" d="M795.7,82c-4.1-2.5-26-8.9-42.7,0c-20.4,11-38.3,50.2-9.5,90.1c0,0.1,21.3-2.4,21.3-2.4L795.7,82z"/>
			</g>
			<g>
				<path class="st57" d="M790.9,161L790.9,161v-5.5h-33.2v5.5c0,5.4,0,11.3-4.7,14.9V229h21.3c0,0,11.2,0,21.3,0v-53.2
					C791.1,172.2,790.9,166.4,790.9,161z"/>
			</g>
			<g>
				<path class="st134" d="M774.3,191.9c-5.1,0-9.9-1.1-14.2-2.9V229h33.2v-42.4C787.9,190,781.4,191.9,774.3,191.9z"/>
			</g>
			<g>
				<path class="st58" d="M793.3,186.3c0.9,0.2,1.6,0.4,2.4,0.4v-10.9c-4.6-3.6-4.7-9.4-4.7-14.8l0,0v-5.5h-26.1l-7.1,2.4
					C762.5,163.2,777,181.8,793.3,186.3z"/>
			</g>
			<g>
				<path class="st145" d="M793.3,169.8c2.2,3.6,6.5,9.3,15.8,9.3h0.8c14.4,0,26.1,11.7,26.1,26.1v16.6c0,3.9-3.2,7.1-7.1,7.1h-48.6
					l3.4-48.8c0.1-2.1,1.2-4,2.8-5.2L793.3,169.8z"/>
			</g>
			<g>
				<path class="st59" d="M807.5,124.6c0,19-18.9,42.7-33.2,42.7c-14.3,0-33.2-23.7-33.2-42.7s14.9-26.1,33.2-26.1
					C792.7,98.6,807.5,105.7,807.5,124.6z"/>
			</g>
			<g>
				<path class="st82" d="M779.1,86.7c-1.3,0-5.7,1.5-9.2,2.8l-0.3-0.4c0,0-0.5,0.4-1.3,1c-2,0.7-3.4,1.3-3.4,1.3l0.6,0.9
					c-9,7.1-29.5,23.3-31.4,25.2c-2.4,2.4,14.2,62.9,14.2,28.4c0-28.7,16-34.4,30.8-37.9c6.7-1.6,8.7-5.5,9.5-9.5
					C789.4,94.6,781.5,86.7,779.1,86.7z"/>
			</g>
			<g>
				<path class="st82" d="M786.2,100.9c4.3,15.6,13,22.7,21.2,24.7c4.5,1.1,2.5-12.9,2.5-12.9s-6.3-16.2-7.1-16.6
					c-0.8-0.4-7.1-14.2-7.1-14.2l-14.2,11.9L786.2,100.9z"/>
			</g>
			<g>
				<path class="st145" d="M755.4,169.8c-2.2,3.6-6.5,9.3-15.8,9.3h-0.8c-14.4,0-26.1,11.7-26.1,26.1v16.6c0,3.9,3.2,7.1,7.1,7.1
					h48.6l-3.4-48.8c-0.1-2.1-1.2-4-2.8-5.2L755.4,169.8z"/>
			</g>
			<g>
				<path class="st59" d="M804,124.9c3.9-0.9,6.4,1,6.4,4.7c0,4.9-5.2,17-10.7,9.5C794.2,131.5,804,124.9,804,124.9z"/>
			</g>
			<g>
				<circle class="st146" cx="757.6" cy="181.2" r="5.4"/>
			</g>
			<g>
				<path class="st146" d="M760,194.5c2.6,4.6,6.5,7.8,10.2,8.7c1-3.7,0.3-8.6-2.3-13.2c-2.6-4.6-6.5-7.8-10.2-8.7
					C756.7,184.9,757.4,189.9,760,194.5z"/>
			</g>
			<g>
				<path class="st146" d="M754.4,198.4c-3.4,6-8.4,10-13.2,11.3c-1.3-4.8-0.4-11.2,3-17.1c3.4-6,8.4-10,13.2-11.3
					C758.8,186,757.8,192.4,754.4,198.4z"/>
			</g>
			<g>
				<path class="st146" d="M796,173.5c-4,3.9-11.7,7-21.6,7c-9.9,0-17.7-3.1-21.7-7l0,0l-5.8,4.2c5.5,6,15.6,9.9,27.5,9.9
					c11.9,0,22-3.9,27.5-9.9L796,173.5z"/>
			</g>
			<g>
				<path class="st130" d="M797,224.3v14.2l6.7-3.3l6.7,3.3v-14.6c-1.9,1.4-4.3,2.3-6.9,2.3C801,226.2,798.8,225.5,797,224.3z"/>
				<path class="st1" d="M798.9,224.7v10.2l4.8-2.4l4.8,2.4v-10.5c-1.4,1-3.1,1.6-5,1.6C801.8,226.1,800.2,225.6,798.9,224.7z"/>
				<path class="st91" d="M803.4,202.8c-6.5,0-11.7,5.3-11.7,11.7c0,4.1,2.1,7.7,5.3,9.8c1.8,1.2,4,1.9,6.4,1.9L803.4,202.8
					L803.4,202.8z"/>
				<path class="st92" d="M815.1,214.5c0-6.5-5.3-11.7-11.7-11.7v23.4c2.6,0,5-0.8,6.9-2.3C813.2,221.8,815.1,218.4,815.1,214.5z"/>
				<circle class="st15" cx="803.4" cy="214.6" r="8.2"/>
			</g>
		</g>
		<polyline class="st147" points="58.9,247.1 58.9,285.1 493.9,285.1 493.9,247.1 		"/>
		<polyline class="st147" points="206.9,247.1 206.9,266.1 635.9,266.1 635.9,247.1 		"/>
		<polyline class="st147" points="356.9,247.1 356.9,277.1 773.9,277.1 773.9,247.1 		"/>
		<circle class="st148" cx="113.6" cy="285.1" r="7.3"/>
		<circle class="st149" cx="280.9" cy="266.1" r="7.3"/>
		<circle class="st150" cx="433.8" cy="276.2" r="7.3"/>
		<circle class="st113" cx="719" cy="276.2" r="7.3"/>
		<circle class="st1" cx="113.6" cy="285.1" r="0.8"/>
		<circle class="st1" cx="110.3" cy="285.1" r="0.8"/>
		<circle class="st1" cx="116.9" cy="285.1" r="0.8"/>
		<g>
			<path class="st1" d="M280.7,267.3c0,0.7-0.2,1.2-0.7,1.7c-0.3,0.3-0.7,0.5-1.3,0.5c-0.6,0-1-0.2-1.3-0.5
				c-0.3-0.3-0.5-0.8-0.5-1.3c0-0.4,0.2-0.8,0.5-1.1c0.2-0.2,0.4-0.4,0.7-0.7c0.2-0.2,0.4-0.6,0.4-1.1h0.7c0,0.6-0.1,1-0.3,1.3
				c-0.1,0.2-0.4,0.5-0.7,0.9c-0.2,0.2-0.3,0.5-0.3,0.7c0,0.4,0.1,0.6,0.3,0.8c0.2,0.2,0.4,0.2,0.7,0.2c0.2,0,0.4-0.1,0.6-0.2
				c0.3-0.3,0.4-0.7,0.4-1.2H280.7z M279.3,263.7h-0.9v-0.9h0.9V263.7z"/>
			<path class="st1" d="M281.5,264.9c0-0.7,0.2-1.2,0.7-1.7c0.3-0.3,0.7-0.5,1.3-0.5c0.6,0,1,0.2,1.3,0.5c0.3,0.3,0.5,0.8,0.5,1.3
				c0,0.4-0.2,0.8-0.5,1.1c-0.2,0.2-0.4,0.4-0.7,0.7c-0.2,0.2-0.4,0.6-0.4,1.1H283c0-0.6,0.1-1,0.3-1.3c0.1-0.2,0.4-0.5,0.7-0.9
				c0.2-0.2,0.3-0.5,0.3-0.7c0-0.4-0.1-0.6-0.3-0.8c-0.2-0.2-0.4-0.2-0.7-0.2c-0.2,0-0.4,0.1-0.6,0.2c-0.3,0.3-0.4,0.7-0.4,1.2
				H281.5z M282.9,268.6h0.9v0.9h-0.9V268.6z"/>
		</g>
		<path class="st1" d="M436.9,275.1c-0.1-1-0.8-1.7-1.7-1.7c-0.6,0-1.1,0.3-1.4,0.8c-0.3-0.5-0.8-0.8-1.4-0.8
			c-0.9,0-1.6,0.7-1.7,1.7c0,0,0,0.3,0.1,0.7c0.1,0.5,0.4,1,0.9,1.4l2.2,2l2.2-2c0.4-0.4,0.7-0.9,0.9-1.4
			C437,275.3,436.9,275.1,436.9,275.1z"/>
		<path class="st1" d="M722.3,275.8c-0.7-0.1-1-0.9-0.6-1.5l0.3-0.4l-0.6-0.6l-0.4,0.3c-0.6,0.4-1.3,0-1.4-0.6l-0.1-0.5h-0.9
			l-0.1,0.6c-0.1,0.7-0.9,1-1.4,0.6l-0.5-0.3L716,274l0.3,0.4c0.4,0.5,0.1,1.3-0.6,1.5l-0.4,0.1v0.9l0.5,0.1c0.7,0.1,1,0.9,0.6,1.4
			l-0.3,0.4l0.6,0.6l0.4-0.3c0.5-0.4,1.3-0.1,1.5,0.6l0.1,0.4h0.9l0.1-0.3c0.1-0.7,0.9-1,1.5-0.6l0.3,0.2l0.6-0.6l-0.3-0.4
			c-0.4-0.6,0-1.3,0.6-1.4l0.5-0.1v-0.9L722.3,275.8z M719.1,277c-0.4,0-0.6-0.3-0.6-0.6c0-0.4,0.3-0.6,0.6-0.6
			c0.4,0,0.6,0.3,0.6,0.6C719.7,276.7,719.5,277,719.1,277z"/>
	</g>
</g>
</svg>
