<svg xmlns="http://www.w3.org/2000/svg" viewBox="0 0 836 292.5"><style>.st0{opacity:.49;fill:url(#SVGID_3_)}.st1{fill:#fff}.st2{fill:#262626}.st3{fill:#eaedf4}.st4{fill:#ade9e9}.st5{fill:#20ad8a}.st6{fill:#ffc06c}.st7{fill:#3f4d55}.st8{fill:#5d5d5d}.st9{fill:#b7b7b7}.st10{fill:#adadad}.st11{fill:#b2b2b2}.st12{fill:gray}.st13{fill:#4d4d4d}.st14{fill:#333}.st15{fill:#efce4a}.st16{fill:#ed8a19}.st17{fill:#ebba16}.st18{fill:#c7cac7}.st19{fill:#e7eced}.st20{opacity:.7;clip-path:url(#SVGID_5_)}.st21{opacity:.12;fill:#ffc06c}.st22{opacity:.16}.st22,.st23,.st24{fill:#ffc06c}.st23{opacity:.22}.st24{opacity:.3}.st25{clip-path:url(#SVGID_7_)}.st26{opacity:.15}.st26,.st27,.st28{fill:#20ad8a}.st27{opacity:.23}.st28{opacity:.3}.st29{fill:#aaa}.st30,.st31{fill:none;stroke:#3f4d55;stroke-miterlimit:10}.st31{stroke-linecap:round}.st32{fill:#f00101}.st33{fill:#030303}.st34{fill:#70cadb}.st35{fill:#e01765}.st36{fill:#e8a723}.st37{fill:#3eb890}.st38{fill:#cc2027}.st39{fill:#361238}.st40{fill:#65863a}.st41{fill:#1a937d}.st42{fill:#666}.st43{fill:#d5e1e8}.st44{fill:#e6eef2}.st45{fill:#573d82}.st46{fill:#453068}.st47{fill:#3fba91}.st48{fill:#6fcbdc}.st49{fill:#dcdcdc}.st50{fill:#ffc585}.st51{fill:#ff3e88}.st52{fill:#675470}.st53{fill:#4a4687}.st54{fill:#f3f3f3}.st55{opacity:.5;fill:#8977a7}.st56{fill:#e1e9ef}.st57{fill:#ffd7a3}.st58{fill:#fdc88e}.st59{fill:#ffe1b2}.st60{fill:#a2cde2}.st61{fill:#545465}.st62{fill:#29394a}.st63{fill:#b5e0f0}.st64{fill:#4a698e}.st65{fill:#416185}.st66{fill:#395a7f}.st67{fill:#ffd5ab}.st68{fill:#e4ebf0}.st69{fill:#d0d7dc}.st70{fill:#527992}.st71{fill:#475f7f}.st72{fill:#d3e5bd}.st73{fill:#827873}.st74{fill:#e0dddc}.st75{fill:#a19996}.st76{fill:#3cf}.st77{fill:#d8dce1}.st78{fill:#db4026}.st79{fill:#5c546a}.st80{fill:#e8d21d}.st81{fill:#4aecaf}.st82{fill:#80362d}.st83{fill:#ffb980}.st84{fill:#f8ab6b}.st85{fill:#bf9b5f}.st86{fill:#83603f}.st87{fill:#b0e070}.st88{fill:#7e5c62}.st89{fill:#a27082}.st90{fill:#7e5449}.st91{fill:#ffda44}.st92{fill:#ffcd00}.st93{fill:#b1664f}.st94{fill:#ffdaa9}.st95{fill:#5fbea0}.st96{fill:none;stroke:#fff;stroke-width:2;stroke-linecap:round;stroke-miterlimit:10}.st97{fill:#188268}.st98{fill:#d2efe8}.st99{fill:#79ceb9}.st100{fill:#ebebed}.st101{fill:#474f49}.st102{fill:#daaba9}.st103{fill:#757eaf}.st104{fill:#edcc70}.st105{fill:#b9bbc1}.st106{fill:#53dcff}.st107{fill:#fcee21}.st108{fill:#8b8996}.st109{fill:#686777}.st110{fill:#67a2a9}.st111,.st112{fill:#ff93b5}.st112{stroke:#fff;stroke-width:2;stroke-linecap:round;stroke-miterlimit:10}.st113,.st114{fill:#f3d960}.st114{stroke:#fff;stroke-width:2;stroke-linecap:round;stroke-miterlimit:10}.st115{fill:#7bd766}.st116{fill:#8166a4}.st117{fill:#f67d69}.st118{fill:#ccc}.st119{fill:#e6e6e6}.st120{fill:#b3b3b3}.st121{fill:none;stroke:#da6f67;stroke-linecap:round;stroke-miterlimit:10}.st122{fill:#bc679b}.st123{fill:#09614b}.st124{fill:#50748a}.st125{fill:#e2e4ff}.st126{fill:#a7795e}.st127{fill:#adb4ba}.st128{fill:#4ea0ca}.st129{fill:#394959}.st130{fill:#e05040}.st131{fill:#b4a87d}.st132{fill:#7b7256}.st133{fill:#fcc261}.st134{fill:#111820}.st135{fill:#dfded6}.st136{fill:#ff6953}.st137{fill:#b06e53}.st138{fill:#728ea0}.st139{fill:#e5e4e3}.st140{fill:#f7f3a8}.st141{fill:#82827f}.st142{fill:#353535}.st143{fill:#a0b7d1}.st144{fill:#ecec66}.st145{fill:#90ba72}.st146{fill:#e7f2fc}.st147{fill:none;stroke:#c6c6c6;stroke-width:2;stroke-linecap:round;stroke-linejoin:round;stroke-miterlimit:10;stroke-dasharray:5,10,5,10,5,10}.st148{fill:#73a950}.st149{fill:#ffa168}.st150{fill:#2d688d}</style><g id="Capa_3"><path class="st61" d="M464.8 139l4.3 19.6c.2 1.1 1.2 1.9 2.3 1.9h5.2v-19.1l-11.8-2.4zm61.9 0l-4.3 19.6c-.2 1.1-1.2 1.9-2.3 1.9h-5.2v-19.1l11.8-2.4z"/><path class="st57" d="M469.6 169.3c5.3-3.4 4.7-13.6 4.7-16h42.9c0 2.4-.7 12.6 4.7 16l-26.1 29.2-26.2-29.2z"/><path class="st58" d="M512.4 179.5l9.4-10.2c-5.3-3.4-4.7-13.6-4.7-16h-42.9c3.2 8.8 23.5 24 38.2 26.2z"/><path class="st59" d="M529.1 122.3c0 19.1-11 42.9-33.3 42.9-22.4 0-33.3-23.8-33.3-42.9s14.9-26.2 33.3-26.2 33.3 7.1 33.3 26.2z"/><path class="st5" d="M550.5 228.7c3.9 0 7.1-3.2 7.1-7.1V197c0-10.5-8.2-21.7-18.1-24.9l-14.9-4.8c-8 6.1-19.5 14.5-28.9 14.5s-20.9-8.4-28.9-14.5l-14.9 4.8c-10 3.2-18.1 14.4-18.1 24.9v24.5c0 3.9 3.2 7.1 7.1 7.1h109.6z"/><path class="st123" d="M452.9 228.7h85.7v-56.8l-14-4.5c-8 6.1-19.5 14.5-28.9 14.5s-20.9-8.4-28.9-14.5l-14 4.5.1 56.8z"/><path class="st124" d="M488.6 186.6l3.8 3.8c1.9 1.9 4.9 1.9 6.7 0l6.2-6.2-9.5-2.4-7.2 4.8z"/><path class="st61" d="M479.1 81.8c20.8-14.3 63.3-1.8 50 45.3L522 120s-26.6-6.4-50-19.1"/><path class="st125" d="M495.8 181.8l-9.9 9.9c-1 1-2.7.9-3.6-.3l-17.4-23.9 5.5-5.5c.9-.9 2.3-.9 3.3-.1l22.1 19.9z"/><path class="st125" d="M495.8 181.8l9.9 9.9c1 1 2.7.9 3.6-.3l17.4-23.9-5.5-5.5c-.9-.9-2.3-.9-3.3-.1l-22.1 19.9z"/><path class="st59" d="M463.6 127.1c-3.6-.9-5.9 1-5.9 4.8 0 5 4.8 17.1 9.8 9.5 5-7.6-3.9-14.3-3.9-14.3zm63.8 0c3.9-.9 6.5 1 6.5 4.8 0 5-5.2 17.1-10.8 9.5-5.5-7.6 4.3-14.3 4.3-14.3z"/><path class="st61" d="M462.4 127.1c.8 2.4 2.4 4.8 2.4 4.8s13.9-17.9 14.3-31c.4-13.1-2.4-11.9-2.4-11.9l4.8-2.4s8.3-3.7-2.4-4.8c-15-1.5-28.6 9.3-16.7 45.3z"/><path class="st15" d="M494.2 14.3c-6.2.7-11.3 5.8-12 12-.5 4.5 1.2 8.5 4.1 11.3 2.2 2.1 3.5 5 3.5 8v.7H501c0-3.2 1.4-6.2 3.8-8.3 2.8-2.5 4.6-6.1 4.6-10.2-.1-8-7-14.4-15.2-13.5z"/><path class="st1" d="M495.4 36.6c-1.5 0-2.8-1.3-2.8-2.8 0-1.5 1.3-2.8 2.8-2.8 1.5 0 2.8 1.3 2.8 2.8 0 1.5-1.3 2.8-2.8 2.8z"/><path class="st16" d="M495.4 37.3c-1.9 0-3.5-1.6-3.5-3.5s1.6-3.5 3.5-3.5 3.5 1.6 3.5 3.5-1.6 3.5-3.5 3.5zm0-5.6c-1.2 0-2.1.9-2.1 2.1 0 1.2.9 2.1 2.1 2.1s2.1-.9 2.1-2.1c0-1.2-1-2.1-2.1-2.1z"/><path class="st17" d="M495.4 47.1c-.4 0-.7-.3-.7-.7V33.8c0-.4.3-.7.7-.7.4 0 .7.3.7.7v12.6c0 .4-.3.7-.7.7z"/><path class="st18" d="M497.5 54.7h-4.2l-2.1-2.7h8.4z"/><path class="st19" d="M489.8 49.2H501V52h-11.2z"/><path class="st18" d="M489.8 46.4H501v2.8h-11.2z"/><path class="st15" d="M495.4 10.5c-.4 0-.7-.3-.7-.7V.7c0-.4.3-.7.7-.7.4 0 .7.3.7.7v9.1c0 .4-.3.7-.7.7zm13 5.1c-.2 0-.4-.1-.5-.2-.3-.3-.3-.7 0-1l6.4-6.4c.3-.3.7-.3 1 0 .3.3.3.7 0 1l-6.4 6.4c-.2.1-.4.2-.5.2zm-25.8.5c-.2 0-.4-.1-.5-.2l-6.4-6.4c-.3-.3-.3-.7 0-1 .3-.3.7-.3 1 0l6.4 6.4c.3.3.3.7 0 1-.2.1-.3.2-.5.2zm-5.1 13h-9.1c-.4 0-.7-.3-.7-.7s.3-.7.7-.7h9.1c.4 0 .7.3.7.7s-.3.7-.7.7zm45.5-.7h-9c-.4 0-.7-.3-.7-.7s.3-.7.7-.7h9.1c.4 0 .7.3.7.7s-.4.7-.8.7zM481.9 42l-6.4 6.4c-.3.3-.7.3-1 0-.3-.3-.3-.7 0-1l6.4-6.4c.3-.3.7-.3 1 0 .2.3.2.7 0 1zm29.1-1.8l6.4 6.4c.3.3.3.7 0 1-.3.3-.7.3-1 0l-6.4-6.4c-.3-.3-.3-.7 0-1 .2-.2.7-.2 1 0z"/><path class="st57" d="M609.8 171.1c5.3-3.4 4.7-13.6 4.7-15.9h42.6c0 2.4-.7 12.5 4.6 15.9l-26 29.1-25.9-29.1z"/><path class="st58" d="M652.6 179l9.4-5.4c-5.3-3.4-4.6-18.3-4.6-20.7h-42.6c3 8.8 23.2 23.9 37.8 26.1z"/><path class="st69" d="M690.3 229c3.9 0 7.1-3.2 7.1-7.1v-23.2c0-10.4-8.1-21.6-18.1-24.7l-14.8-4.7c-8 6.1-19.4 14.4-28.7 14.4s-20.8-8.3-28.7-14.4l-14.8 4.7c-9.9 3.2-18.1 14.3-18.1 24.7v23.2c0 3.9 3.2 7.1 7.1 7.1h109z"/><path class="st126" d="M640.5 184.5c0 1.3-1.1 2.4-2.4 2.4h-4.7c-1.3 0-2.4-1.1-2.4-2.4v-3.1c0-1.3 1.1-2.4 2.4-2.4h4.7c1.3 0 2.4 1.1 2.4 2.4v3.1z"/><circle class="st69" cx="635.8" cy="204.9" r="2.4"/><path class="st68" d="M635.8 178.9l-9.9 9.9c-1 1-2.7.9-3.6-.3L605 169.4l5.5-5.5c.9-.9 2.3-.9 3.3-.1l22 15.1zm0 0l9.9 9.9c1 1 2.7.9 3.6-.3l17.3-19.1-5.5-5.5c-.9-.9-2.3-.9-3.3-.1l-22 15.1z"/><path class="st126" d="M639.1 185h-6.5l-1.5 39.4h9.4z"/><path class="st59" d="M667.6 126.9c3.9-.9 6.4 1 6.4 4.7 0 4.9-5.2 17-10.7 9.5-5.5-7.6 4.3-14.2 4.3-14.2zm-63.6 0c-3.6-.9-5.9 1-5.9 4.7 0 4.9 4.8 17 9.8 9.5s-3.9-14.2-3.9-14.2z"/><path class="st59" d="M669.2 122.1c0 19-10.9 42.6-33.2 42.6s-33.2-23.7-33.2-42.6c0-26.1 14.9-35.6 33.2-35.6s33.2 9.7 33.2 35.6z"/><path class="st127" d="M637.4 146c0-3.1-3.4-3.8-5.7-3.1-4.2 1.4-8.7 5.3-12.6 2.9 0 0 1.3 5 3.6 5 4.5 0 14.7.5 14.7-4.8z"/><path class="st127" d="M636.3 146c0-3.1 3.4-3.8 5.7-3.1 4.2 1.4 8.7 5.3 12.6 2.9 0 0-1.3 5-3.6 5-4.5 0-14.7.5-14.7-4.8z"/><path class="st49" d="M669.2 120.9c-.5-24.9-15.1-34.3-33.1-34.3s-32.6 9.2-33.1 34.3c8.6-6 14.2-15.9 14.2-27.2v-.2c5 4.5 11.7 7.3 19 7.3s13.9-2.8 19-7.3v.2c-.2 11.2 5.4 21.2 14 27.2z"/><path class="st49" d="M602.9 122.1c0 2.5 0 3.8.2 6.7l7.2 3s-2.6-12 3.1-19.3c3.6-4.6 6.9-10 3.8-18.8-.2-.7-.5-1.3-.8-1.9-8.2 5.2-13.5 14.8-13.5 30.3zm66.4 0c0 2.5 0 3.8-.2 6.7l-7.2 3s2.6-12-3.1-19.3c-3.6-4.6-6.9-10-3.8-18.8.2-.7.5-1.3.8-1.9 8.3 5.2 13.5 14.8 13.5 30.3z"/><path class="st61" d="M617.4 130.5h-.3l-14.4-3.6c-.6-.2-1-.8-.9-1.4.2-.6.8-1 1.4-.9l14.4 3.6c.6.2 1 .8.9 1.4-.1.5-.6.9-1.1.9zm36.8 0c-.5 0-1-.4-1.1-.9-.2-.6.2-1.3.9-1.4l14.5-3.6c.6-.2 1.3.2 1.4.9.2.6-.2 1.3-.9 1.4l-14.5 3.6h-.3zm-11.6.6c-.7 0-1.2-.5-1.2-1.2 0-1.8-2.6-3.3-5.6-3.3-3.1 0-5.6 1.5-5.6 3.3 0 .7-.5 1.2-1.2 1.2s-1.2-.5-1.2-1.2c0-3.2 3.5-5.6 8-5.6s8 2.5 8 5.6c0 .7-.5 1.2-1.2 1.2z"/><path class="st61" d="M623.2 136.3c-3.8 0-7-3.1-7-7 0-3.8 3.1-7 7-7s7 3.1 7 7-3.2 7-7 7zm0-11.6c-2.5 0-4.6 2.1-4.6 4.6 0 2.5 2.1 4.6 4.6 4.6 2.5 0 4.6-2.1 4.6-4.6 0-2.5-2.1-4.6-4.6-4.6zm25.2 11.6c-3.8 0-7-3.1-7-7 0-3.8 3.1-7 7-7s7 3.1 7 7-3.1 7-7 7zm0-11.6c-2.5 0-4.6 2.1-4.6 4.6 0 2.5 2.1 4.6 4.6 4.6s4.6-2.1 4.6-4.6c0-2.5-2-4.6-4.6-4.6z"/><path class="st129" d="M682.4 175.2l-19.2-9.2-25.7 25.7c-.9.9-2.4.9-3.4 0L608.4 166l-19.2 9.2c-9.6 4.5-15 13.1-15 23.5v23.2c0 3.6 2.7 6.6 6.3 7h110.6c3.5-.4 6.3-3.4 6.3-7v-23.2c0-10.5-5.4-19-15-23.5z"/><path class="st130" d="M667.6 224.3v14.2l6.7-3.3 6.7 3.3v-14.6c-1.9 1.4-4.3 2.3-6.9 2.3-2.5 0-4.7-.7-6.5-1.9z"/><path class="st1" d="M669.5 224.7v10.2l4.8-2.4 4.8 2.4v-10.5c-1.4 1-3.1 1.6-5 1.6-1.7.1-3.3-.4-4.6-1.3z"/><path class="st91" d="M674 202.8c-6.5 0-11.7 5.3-11.7 11.7 0 4.1 2.1 7.7 5.3 9.8 1.8 1.2 4 1.9 6.4 1.9v-23.4z"/><path class="st92" d="M685.7 214.5c0-6.5-5.3-11.7-11.7-11.7v23.4c2.6 0 5-.8 6.9-2.3 2.9-2.1 4.8-5.5 4.8-9.4z"/><circle class="st15" cx="674" cy="214.6" r="8.2"/><path class="st131" d="M329.4 173.7c5.1-3.3 4.5-13.1 4.5-15.3H375c0 2.3-.6 12.1 4.5 15.3l-25 28-25.1-28z"/><path class="st132" d="M370.4 183.4l9-9.8c-5.1-3.3-4.5-13.1-4.5-15.3h-41.1c3.1 8.5 22.6 23 36.6 25.1z"/><path class="st131" d="M386.4 128.7c0 18.3-10.5 41.1-31.9 41.1s-31.9-22.8-31.9-41.1 14.3-25.1 31.9-25.1c17.6 0 31.9 6.8 31.9 25.1z"/><path class="st133" d="M406.9 229.1c3.8 0 6.8-3.1 6.8-6.8v-22c0-10-7.8-20.8-17.4-23.8l-14.3-4.6c-7.7 5.9-18.7 13.9-27.7 13.9s-20-8-27.7-13.9l-14.3 4.6c-9.6 3.1-17.4 13.8-17.4 23.8v22c0 3.8 3.1 6.8 6.8 6.8h105.2z"/><path class="st134" d="M340.8 89.9h-4.6c-8.8 0-16 7-17.3 15.8-1.9 12.9 3.6 27.4 3.6 27.4s2.9-19 15.4-24.5c6.7-3 2.9-18.7 2.9-18.7z"/><path class="st134" d="M332.9 90.2c26.7-2.4 34.6-8.2 35.5-13.8 21.9 11.3 26 43.4 18.1 56.6l-6.8-15.8s-28.1 6.6-47.9-5.8"/><path class="st135" d="M354.5 185.7L343 197.1 324.8 172l5.3-5.3c.9-.9 2.2-.9 3.1-.1l21.3 19.1z"/><path class="st135" d="M354.5 185.7l11.4 11.4 18.3-25.1-5.3-5.3c-.9-.9-2.2-.9-3.1-.1l-21.3 19.1z"/><path class="st131" d="M323.6 133.2c-3.4-.9-5.7 1-5.7 4.6 0 4.8 4.6 16.4 9.4 9.1 4.9-7.2-3.7-13.7-3.7-13.7zm61.2 0c3.7-.9 6.2 1 6.2 4.6 0 4.8-5 16.4-10.3 9.1s4.1-13.7 4.1-13.7z"/><path class="st136" d="M365.9 229h41.9c3.4-.4 6-3.3 6-6.8v-22c0-10-7.8-20.8-17.4-23.8l-12.4-4-18.1 56.6zM325 172.4l-12.4 4c-9.6 3.1-17.4 13.8-17.4 23.8v22c0 3.5 2.6 6.4 6 6.8H343l-18-56.6z"/><path class="st130" d="M384.6 224.3v14.2l6.7-3.3 6.7 3.3v-14.6c-1.9 1.4-4.3 2.3-6.9 2.3-2.5 0-4.7-.7-6.5-1.9z"/><path class="st1" d="M386.5 224.7v10.2l4.8-2.4 4.8 2.4v-10.5c-1.4 1-3.1 1.6-5 1.6-1.7.1-3.3-.4-4.6-1.3z"/><path class="st91" d="M391 202.8c-6.5 0-11.7 5.3-11.7 11.7 0 4.1 2.1 7.7 5.3 9.8 1.8 1.2 4 1.9 6.4 1.9v-23.4z"/><path class="st92" d="M402.7 214.5c0-6.5-5.3-11.7-11.7-11.7v23.4c2.6 0 5-.8 6.9-2.3 2.9-2.1 4.8-5.5 4.8-9.4z"/><circle class="st15" cx="391" cy="214.6" r="8.2"/><path class="st137" d="M42 76.3l13.4 84.1-25.8 12.8c-26.1-19-23-96.9 12.4-96.9z"/><path class="st137" d="M42 76.3c4.3-2.6 27-9.3 44.3 0 21.2 11.4 37.2 54.2 15.5 96.9 0 .1-20.3-10.4-20.3-10.4L42 76.3z"/><path class="st57" d="M81.4 158.4h-.1v-5.7H46.8v5.7c0 5.6 0 11.7-4.9 15.4V229h44.3v-55.2c-4.8-3.8-4.8-9.8-4.8-15.4z"/><path class="st138" d="M100.9 177.3h-.8c-9.4 0-14-2.5-16.4-6L64 183l-19.7-11.7c-2.4 3.6-7.1 6-16.4 6h-.8c-15 0-27.1 12.1-27.1 27.1v17.2c0 4.1 3.3 7.4 7.4 7.4h113.2c4.1 0 7.4-3.3 7.4-7.4v-17.2c0-15-12.1-27.1-27.1-27.1z"/><path class="st58" d="M83.7 184.7c.9.2 1.7.4 2.5.4v-11.3c-4.8-3.7-4.8-9.8-4.8-15.4h-.1v-5.7H54.2l-7.4 2.5c4.9 5.5 20 24.8 36.9 29.5z"/><path class="st59" d="M98.5 120.6c0 19.7-19.6 44.3-34.5 44.3s-34.5-24.6-34.5-44.3 15.5-27 34.5-27 34.5 7.3 34.5 27z"/><path class="st137" d="M59.2 81.3c1.4 0 5.9 1.6 9.5 2.9l.3-.5s.5.4 1.4 1.1l3.5 1.4-.6 1c9.3 7.4 30.7 24.2 32.6 26.1 2.5 2.5-14.8 65.3-14.8 29.5 0-29.8-16.6-35.8-32-39.4-7-1.6-9-5.7-9.8-9.8-.7-4.1 7.5-12.3 9.9-12.3z"/><path class="st137" d="M51.8 97.9s-7.4 26.9-26.6 42.4c-3.7 3 2-32 2-32s6.6-16.8 7.4-17.2c.8-.4 7.4-14.8 7.4-14.8l7.3 11.8 2.5 9.8z"/><path class="st139" d="M64 183l-19.5-12.1-6 4.8S41.6 194 51.7 194c9.9 0 12.3-11 12.3-11zm0 0l19.5-12.1 6 4.8S86.4 194 76.3 194c-9.9 0-12.3-11-12.3-11z"/><path class="st15" d="M58.9 14.3c-6.2.7-11.3 5.8-12 12-.5 4.5 1.2 8.5 4.1 11.3 2.2 2.1 3.5 5 3.5 8v.7h11.2c0-3.2 1.4-6.2 3.8-8.3 2.8-2.5 4.6-6.1 4.6-10.2 0-8-7-14.4-15.2-13.5z"/><path class="st1" d="M60.1 36.6c-1.5 0-2.8-1.3-2.8-2.8 0-1.5 1.3-2.8 2.8-2.8 1.5 0 2.8 1.3 2.8 2.8 0 1.5-1.2 2.8-2.8 2.8z"/><path class="st16" d="M60.1 37.3c-1.9 0-3.5-1.6-3.5-3.5s1.6-3.5 3.5-3.5 3.5 1.6 3.5 3.5-1.5 3.5-3.5 3.5zm0-5.6c-1.2 0-2.1.9-2.1 2.1 0 1.2.9 2.1 2.1 2.1s2.1-.9 2.1-2.1c0-1.2-.9-2.1-2.1-2.1z"/><path class="st17" d="M60.1 47.1c-.4 0-.7-.3-.7-.7V33.8c0-.4.3-.7.7-.7.4 0 .7.3.7.7v12.6c0 .4-.3.7-.7.7z"/><path class="st18" d="M62.2 54.7H58L55.9 52h8.4z"/><path class="st19" d="M54.6 49.2h11.2V52H54.6z"/><path class="st18" d="M54.6 46.4h11.2v2.8H54.6z"/><path class="st15" d="M60.1 10.5c-.4 0-.7-.3-.7-.7V.7c0-.4.3-.7.7-.7.4 0 .7.3.7.7v9.1c0 .4-.3.7-.7.7zm13 5.1c-.2 0-.4-.1-.5-.2-.3-.3-.3-.7 0-1L79.1 8c.3-.3.7-.3 1 0 .3.3.3.7 0 1l-6.4 6.4c-.2.1-.4.2-.6.2zm-25.8.5c-.2 0-.4-.1-.5-.2l-6.4-6.4c-.3-.3-.3-.7 0-1 .3-.3.7-.3 1 0l6.4 6.4c.3.3.3.7 0 1-.1.1-.3.2-.5.2zm-5.1 13h-9.1c-.4 0-.7-.3-.7-.7s.3-.7.7-.7h9.1c.4 0 .7.3.7.7s-.3.7-.7.7zm45.6-.7h-9.1c-.4 0-.7-.3-.7-.7s.3-.7.7-.7h9.1c.4 0 .7.3.7.7s-.3.7-.7.7zM46.6 42l-6.4 6.4c-.3.3-.7.3-1 0-.3-.3-.3-.7 0-1l6.4-6.4c.3-.3.7-.3 1 0 .3.3.3.7 0 1zm29.1-1.8l6.4 6.4c.3.3.3.7 0 1-.3.3-.7.3-1 0l-6.4-6.4c-.3-.3-.3-.7 0-1 .3-.2.7-.2 1 0z"/><path class="st57" d="M183.9 169.5c5.4-3.5 4.8-13.9 4.8-16.3h43.6c0 2.4-.7 12.8 4.7 16.3l-26.5 29.7-26.6-29.7z"/><path class="st58" d="M227.5 179.8l9.6-10.3c-5.4-3.5-4.7-13.9-4.7-16.3h-43.6c3.1 9 23.7 24.4 38.7 26.6z"/><path class="st59" d="M244.4 121.7c0 19.4-11.2 43.6-33.9 43.6s-33.9-24.2-33.9-43.6 15.2-26.6 33.9-26.6 33.9 7.2 33.9 26.6z"/><path class="st140" d="M266.2 228.2c4 0 7.3-3.3 7.3-7.3v-23.3c0-10.7-8.3-22-18.4-25.3l-15.1-4.8c-8.1 6.2-19.8 14.7-29.4 14.7-9.6 0-21.2-8.5-29.4-14.7l-15.1 4.8c-10.1 3.2-18.4 14.6-18.4 25.3V221c0 4 3.3 7.3 7.3 7.3l111.2-.1z"/><path class="st141" d="M244.4 78.2c-16 0-41-12.4-50.8 2.4h-2.5c-9.4 0-16.9 7.7-16.9 17 0 8.7 2.4 28.9 2.4 28.9s5.1-15.3 14.5-24.2l46 4.8 7.3 19.4c4.1-13.7 2.4-44.9 0-48.3z"/><path class="st61" d="M205.1 126.5v1.8c0 5.3-4.3 9.7-9.7 9.7H193c-2.7 0-4.8-2.2-4.8-4.8v-6.7h16.9m0-2.4h-16.9c-1.3 0-2.4 1.1-2.4 2.4v6.7c0 4 3.3 7.3 7.3 7.3h2.4c6.7 0 12.1-5.4 12.1-12.1v-1.8c0-1.4-1.1-2.5-2.5-2.5zm27.8 2.4v6.7c0 2.7-2.2 4.8-4.8 4.8h-2.4c-5.3 0-9.7-4.3-9.7-9.7v-1.8h16.9m0-2.4H216c-1.3 0-2.4 1.1-2.4 2.4v1.8c0 6.7 5.4 12.1 12.1 12.1h2.4c4 0 7.3-3.3 7.3-7.3v-6.7c-.1-1.2-1.1-2.3-2.5-2.3z"/><path class="st61" d="M176.6 124.1h11.6v5.8l-11.6-2.8zm67.9 0h-11.6v5.8l11.6-2.8zm-28.4 5.8h-2.4c0-1-1.5-2-3.1-2-1.7 0-3.1.9-3.1 2H205c0-2.5 2.4-4.4 5.5-4.4s5.6 1.9 5.6 4.4z"/><path class="st142" d="M244.4 78.2c-16 0-41-12.4-50.8 2.4h-2.5c-6.6 0-12.4 3.9-15.1 9.4 21.9 25.9 56 20.8 70.8 17 .4-13.1-.8-26.6-2.4-28.8z"/><path class="st143" d="M205.1 126.5v1.8c0 5.3-4.3 9.7-9.7 9.7H193c-2.7 0-4.8-2.2-4.8-4.8v-6.7h16.9m10.9 0v1.8c0 5.3 4.3 9.7 9.7 9.7h2.4c2.7 0 4.8-2.2 4.8-4.8v-6.7H216"/><path class="st144" d="M171.8 201.6l-16.2-22.4c-4.8 5-8 11.9-8 18.4V221c0 4 3.3 7.3 7.3 7.3h16.9v-26.7zm77.5 0l16.2-22.4c4.8 5 8 11.9 8 18.4V221c0 4-3.3 7.3-7.3 7.3h-16.9v-26.7zm-38.8-12.1c12 0 25.1-9.9 37.5-19.4l-8.2-2.6c-8.1 6.2-19.8 14.7-29.4 14.7-9.6 0-21.2-8.5-29.4-14.7l-8.2 2.6c12.6 9.5 25.7 19.4 37.7 19.4z"/><path class="st15" d="M211.3 14.3c-6.2.7-11.3 5.8-12 12-.5 4.5 1.2 8.5 4.1 11.3 2.2 2.1 3.5 5 3.5 8v.7h11.2c0-3.2 1.4-6.2 3.8-8.3 2.8-2.5 4.6-6.1 4.6-10.2 0-8-6.9-14.4-15.2-13.5z"/><path class="st1" d="M212.5 36.6c-1.5 0-2.8-1.3-2.8-2.8 0-1.5 1.3-2.8 2.8-2.8 1.5 0 2.8 1.3 2.8 2.8 0 1.5-1.2 2.8-2.8 2.8z"/><path class="st16" d="M212.5 37.3c-1.9 0-3.5-1.6-3.5-3.5s1.6-3.5 3.5-3.5 3.5 1.6 3.5 3.5-1.5 3.5-3.5 3.5zm0-5.6c-1.2 0-2.1.9-2.1 2.1 0 1.2.9 2.1 2.1 2.1s2.1-.9 2.1-2.1c0-1.2-.9-2.1-2.1-2.1z"/><path class="st17" d="M212.5 47.1c-.4 0-.7-.3-.7-.7V33.8c0-.4.3-.7.7-.7.4 0 .7.3.7.7v12.6c0 .4-.3.7-.7.7z"/><path class="st18" d="M214.6 54.7h-4.1l-2.1-2.7h8.3z"/><path class="st19" d="M207 49.2h11.2V52H207z"/><path class="st18" d="M207 46.4h11.2v2.8H207z"/><path class="st15" d="M212.5 10.5c-.4 0-.7-.3-.7-.7V.7c0-.4.3-.7.7-.7.4 0 .7.3.7.7v9.1c0 .4-.3.7-.7.7zm13 5.1c-.2 0-.4-.1-.5-.2-.3-.3-.3-.7 0-1l6.4-6.4c.3-.3.7-.3 1 0 .3.3.3.7 0 1l-6.4 6.4c-.1.1-.3.2-.5.2zm-25.8.5c-.2 0-.4-.1-.5-.2l-6.4-6.4c-.3-.3-.3-.7 0-1 .3-.3.7-.3 1 0l6.4 6.4c.3.3.3.7 0 1-.1.1-.3.2-.5.2zm-5 13h-9.1c-.4 0-.7-.3-.7-.7s.3-.7.7-.7h9.1c.4 0 .7.3.7.7s-.4.7-.7.7zm45.5-.7h-9.1c-.4 0-.7-.3-.7-.7s.3-.7.7-.7h9.1c.4 0 .7.3.7.7s-.3.7-.7.7zM199.1 42l-6.4 6.4c-.3.3-.7.3-1 0-.3-.3-.3-.7 0-1l6.4-6.4c.3-.3.7-.3 1 0 .2.3.2.7 0 1zm29-1.8l6.4 6.4c.3.3.3.7 0 1-.3.3-.7.3-1 0l-6.4-6.4c-.3-.3-.3-.7 0-1 .3-.2.8-.2 1 0z"/><path class="st82" d="M795.7 82l-16.6 90.1 11.9 2.4c25-18.4 35.8-92.5 4.7-92.5zm0 0c-4.1-2.5-26-8.9-42.7 0-20.4 11-38.3 50.2-9.5 90.1 0 .1 21.3-2.4 21.3-2.4L795.7 82z"/><path class="st57" d="M790.9 161v-5.5h-33.2v5.5c0 5.4 0 11.3-4.7 14.9V229h42.6v-53.2c-4.5-3.6-4.7-9.4-4.7-14.8z"/><path class="st134" d="M774.3 191.9c-5.1 0-9.9-1.1-14.2-2.9v40h33.2v-42.4c-5.4 3.4-11.9 5.3-19 5.3z"/><path class="st58" d="M793.3 186.3c.9.2 1.6.4 2.4.4v-10.9c-4.6-3.6-4.7-9.4-4.7-14.8v-5.5h-26.1l-7.1 2.4c4.7 5.3 19.2 23.9 35.5 28.4z"/><path class="st145" d="M793.3 169.8c2.2 3.6 6.5 9.3 15.8 9.3h.8c14.4 0 26.1 11.7 26.1 26.1v16.6c0 3.9-3.2 7.1-7.1 7.1h-48.6l3.4-48.8c.1-2.1 1.2-4 2.8-5.2l6.8-5.1z"/><path class="st59" d="M807.5 124.6c0 19-18.9 42.7-33.2 42.7-14.3 0-33.2-23.7-33.2-42.7s14.9-26.1 33.2-26.1c18.4.1 33.2 7.2 33.2 26.1z"/><path class="st82" d="M779.1 86.7c-1.3 0-5.7 1.5-9.2 2.8l-.3-.4s-.5.4-1.3 1c-2 .7-3.4 1.3-3.4 1.3l.6.9c-9 7.1-29.5 23.3-31.4 25.2-2.4 2.4 14.2 62.9 14.2 28.4 0-28.7 16-34.4 30.8-37.9 6.7-1.6 8.7-5.5 9.5-9.5.8-3.9-7.1-11.8-9.5-11.8z"/><path class="st82" d="M786.2 100.9c4.3 15.6 13 22.7 21.2 24.7 4.5 1.1 2.5-12.9 2.5-12.9s-6.3-16.2-7.1-16.6c-.8-.4-7.1-14.2-7.1-14.2l-14.2 11.9 4.7 7.1z"/><path class="st145" d="M755.4 169.8c-2.2 3.6-6.5 9.3-15.8 9.3h-.8c-14.4 0-26.1 11.7-26.1 26.1v16.6c0 3.9 3.2 7.1 7.1 7.1h48.6l-3.4-48.8c-.1-2.1-1.2-4-2.8-5.2l-6.8-5.1z"/><path class="st59" d="M804 124.9c3.9-.9 6.4 1 6.4 4.7 0 4.9-5.2 17-10.7 9.5-5.5-7.6 4.3-14.2 4.3-14.2z"/><circle class="st146" cx="757.6" cy="181.2" r="5.4"/><path class="st146" d="M760 194.5c2.6 4.6 6.5 7.8 10.2 8.7 1-3.7.3-8.6-2.3-13.2-2.6-4.6-6.5-7.8-10.2-8.7-1 3.6-.3 8.6 2.3 13.2z"/><path class="st146" d="M754.4 198.4c-3.4 6-8.4 10-13.2 11.3-1.3-4.8-.4-11.2 3-17.1 3.4-6 8.4-10 13.2-11.3 1.4 4.7.4 11.1-3 17.1z"/><path class="st146" d="M796 173.5c-4 3.9-11.7 7-21.6 7-9.9 0-17.7-3.1-21.7-7l-5.8 4.2c5.5 6 15.6 9.9 27.5 9.9s22-3.9 27.5-9.9l-5.9-4.2z"/><path class="st130" d="M797 224.3v14.2l6.7-3.3 6.7 3.3v-14.6c-1.9 1.4-4.3 2.3-6.9 2.3-2.5 0-4.7-.7-6.5-1.9z"/><path class="st1" d="M798.9 224.7v10.2l4.8-2.4 4.8 2.4v-10.5c-1.4 1-3.1 1.6-5 1.6-1.7.1-3.3-.4-4.6-1.3z"/><path class="st91" d="M803.4 202.8c-6.5 0-11.7 5.3-11.7 11.7 0 4.1 2.1 7.7 5.3 9.8 1.8 1.2 4 1.9 6.4 1.9v-23.4z"/><path class="st92" d="M815.1 214.5c0-6.5-5.3-11.7-11.7-11.7v23.4c2.6 0 5-.8 6.9-2.3 2.9-2.1 4.8-5.5 4.8-9.4z"/><circle class="st15" cx="803.4" cy="214.6" r="8.2"/><path class="st147" d="M58.9 247.1v38h435v-38"/><path class="st147" d="M206.9 247.1v19h429v-19"/><path class="st147" d="M356.9 247.1v30h417v-30"/><circle class="st148" cx="113.6" cy="285.1" r="7.3"/><circle class="st149" cx="280.9" cy="266.1" r="7.3"/><circle class="st150" cx="433.8" cy="276.2" r="7.3"/><circle class="st113" cx="719" cy="276.2" r="7.3"/><circle class="st1" cx="113.6" cy="285.1" r=".8"/><circle class="st1" cx="110.3" cy="285.1" r=".8"/><circle class="st1" cx="116.9" cy="285.1" r=".8"/><path class="st1" d="M280.7 267.3c0 .7-.2 1.2-.7 1.7-.3.3-.7.5-1.3.5-.6 0-1-.2-1.3-.5-.3-.3-.5-.8-.5-1.3 0-.4.2-.8.5-1.1l.7-.7c.2-.2.4-.6.4-1.1h.7c0 .6-.1 1-.3 1.3-.1.2-.4.5-.7.9-.2.2-.3.5-.3.7 0 .4.1.6.3.8.2.2.4.2.7.2.2 0 .4-.1.6-.2.3-.3.4-.7.4-1.2h.8zm-1.4-3.6h-.9v-.9h.9v.9zm2.2 1.2c0-.7.2-1.2.7-1.7.3-.3.7-.5 1.3-.5.6 0 1 .2 1.3.5.3.3.5.8.5 1.3 0 .4-.2.8-.5 1.1l-.7.7c-.2.2-.4.6-.4 1.1h-.7c0-.6.1-1 .3-1.3.1-.2.4-.5.7-.9.2-.2.3-.5.3-.7 0-.4-.1-.6-.3-.8-.2-.2-.4-.2-.7-.2-.2 0-.4.1-.6.2-.3.3-.4.7-.4 1.2h-.8zm1.4 3.7h.9v.9h-.9v-.9zm154 6.5c-.1-1-.8-1.7-1.7-1.7-.6 0-1.1.3-1.4.8-.3-.5-.8-.8-1.4-.8-.9 0-1.6.7-1.7 1.7 0 0 0 .3.1.7.1.5.4 1 .9 1.4l2.2 2 2.2-2c.4-.4.7-.9.9-1.4 0-.5-.1-.7-.1-.7zm285.4.7c-.7-.1-1-.9-.6-1.5l.3-.4-.6-.6-.4.3c-.6.4-1.3 0-1.4-.6l-.1-.5h-.9l-.1.6c-.1.7-.9 1-1.4.6l-.5-.3-.6.6.3.4c.4.5.1 1.3-.6 1.5l-.4.1v.9l.5.1c.7.1 1 .9.6 1.4l-.3.4.6.6.4-.3c.5-.4 1.3-.1 1.5.6l.1.4h.9l.1-.3c.1-.7.9-1 1.5-.6l.3.2.6-.6-.3-.4c-.4-.6 0-1.3.6-1.4l.5-.1v-.9l-.6-.2zm-3.2 1.2c-.4 0-.6-.3-.6-.6 0-.4.3-.6.6-.6.4 0 .6.3.6.6s-.2.6-.6.6z"/></g></svg>