<?xml version="1.0" encoding="utf-8"?>
<!-- Generator: Adobe Illustrator 19.0.0, SVG Export Plug-In . SVG Version: 6.00 Build 0)  -->
<svg version="1.1" id="Layer_1" xmlns="http://www.w3.org/2000/svg" xmlns:xlink="http://www.w3.org/1999/xlink" x="0px" y="0px"
	 viewBox="0 0 300 250" style="enable-background:new 0 0 300 250;" xml:space="preserve">
<style type="text/css">
	.st0{fill:#FFFFFF;}
	.st1{fill:#FFDE5D;}
	.st2{fill:#E5B92E;}
	.st3{fill:#C6C6C6;}
	.st4{fill:#C19721;}
</style>
<g id="XMLID_1388_">
	<polygon id="XMLID_1592_" class="st0" points="22.6,101.2 277.4,101.2 261.1,128.6 277.4,156 22.6,156 40.5,128.6 	"/>
	<g id="XMLID_1601_">
		<path id="XMLID_1549_" class="st1" d="M83.7,125c0-36.5,29.7-66.3,66.3-66.3v-6.8c-6.8,0-14.1-4.4-20.3-2.8
			c-6.5,1.7-10.6,9.3-16.2,12.5c-5.8,3.3-14.3,3.1-19,7.8c-4.7,4.7-4.5,13.2-7.8,19c-3.3,5.7-10.8,9.7-12.5,16.2
			c-1.7,6.3,2.8,13.5,2.8,20.3c0,6.8-4.4,14.1-2.8,20.3c1.7,6.5,9.2,10.6,12.5,16.2c3.3,5.7,3.1,14.3,7.8,19
			c4.7,4.7,13.2,4.5,19,7.8c5.7,3.3,9.7,10.8,16.2,12.5c6.3,1.7,13.5-2.8,20.3-2.8v-6.8C113.5,191.3,83.7,161.5,83.7,125z"/>
		<path id="XMLID_1542_" class="st1" d="M86.4,125c0,35,28.5,63.6,63.6,63.6V185c-33.1,0-59.9-26.9-59.9-59.9
			c0-33.1,26.9-59.9,59.9-59.9v-3.6C115,61.4,86.4,90,86.4,125z"/>
		<path id="XMLID_1397_" class="st1" d="M92.8,125c0,31.6,25.7,57.2,57.2,57.2V67.8C118.4,67.8,92.8,93.4,92.8,125z"/>
		<path id="XMLID_1384_" class="st0" d="M83.7,125c0,36.5,29.7,66.3,66.3,66.3v-1.4c-35.8,0-64.9-29.1-64.9-64.9
			c0-35.8,29.1-64.9,64.9-64.9v-1.4C113.5,58.7,83.7,88.5,83.7,125z"/>
		<path id="XMLID_1364_" class="st0" d="M86.4,125c0-35,28.5-63.6,63.6-63.6v-1.4c-35.8,0-64.9,29.1-64.9,64.9
			c0,35.8,29.1,64.9,64.9,64.9v-1.4C115,188.6,86.4,160,86.4,125z"/>
		<path id="XMLID_1361_" class="st0" d="M92.8,125c0-31.6,25.7-57.2,57.2-57.2v-2.7c-33.1,0-59.9,26.9-59.9,59.9
			c0,33.1,26.9,59.9,59.9,59.9v-2.7C118.4,182.2,92.8,156.6,92.8,125z"/>
		<path id="XMLID_1187_" class="st2" d="M170.3,200.8c6.5-1.7,10.6-9.2,16.2-12.5c5.7-3.3,14.3-3.1,19-7.8
			c4.7-4.7,4.5-13.2,7.8-18.9c3.3-5.7,10.8-9.7,12.5-16.2c1.7-6.3-2.8-13.5-2.8-20.3c0-6.8,4.4-14.1,2.8-20.3
			c-1.7-6.5-9.2-10.6-12.5-16.2c-3.3-5.7-3.1-14.3-7.8-19c-4.7-4.7-13.2-4.5-18.9-7.8c-5.7-3.3-9.7-10.8-16.2-12.5
			c-6.3-1.7-13.5,2.8-20.3,2.8h0v6.8c36.5,0,66.3,29.7,66.3,66.3c0,36.5-29.7,66.3-66.3,66.3v6.8h0
			C156.8,198.1,164.1,202.5,170.3,200.8z"/>
		<path id="XMLID_1186_" class="st2" d="M207.2,125c0-31.6-25.7-57.2-57.2-57.2v114.5C181.6,182.2,207.2,156.6,207.2,125z"/>
		<path id="XMLID_1185_" class="st2" d="M210,125c0,33.1-26.9,59.9-60,59.9v3.6c35,0,63.6-28.5,63.6-63.6S185,61.4,150,61.4v3.6
			C183.1,65.1,210,91.9,210,125z"/>
		<path id="XMLID_1163_" class="st3" d="M214.9,125c0,35.8-29.1,64.9-64.9,64.9v1.4c36.5,0,66.3-29.7,66.3-66.3
			c0-36.5-29.7-66.3-66.3-66.3v1.4C185.8,60.1,214.9,89.2,214.9,125z"/>
		<path id="XMLID_1088_" class="st3" d="M214.9,125c0-35.8-29.1-64.9-64.9-64.9v1.4c35,0,63.6,28.5,63.6,63.6S185,188.6,150,188.6
			v1.4C185.8,189.9,214.9,160.8,214.9,125z"/>
		<path id="XMLID_1087_" class="st3" d="M210,125c0-33.1-26.9-59.9-60-59.9v2.7c31.6,0,57.2,25.7,57.2,57.2
			c0,31.6-25.7,57.2-57.2,57.2v2.7C183.1,185,210,158.1,210,125z"/>
	</g>
	<g id="XMLID_1523_">
		<g id="XMLID_1080_">
			<polygon id="XMLID_14_" class="st2" points="141.4,113.1 113.5,113.1 136.1,129.5 127.4,156.1 150,139.7 150,86.6 			"/>
		</g>
		<polygon id="XMLID_333_" class="st4" points="163.9,129.5 186.5,113.1 158.6,113.1 150,86.6 150,139.7 172.6,156.1 		"/>
	</g>
</g>
</svg>
