<svg xmlns="http://www.w3.org/2000/svg" viewBox="0 0 283.5 330.6"><style>.st0{opacity:.49;fill:url(#SVGID_3_)}.st1{fill:#fff}.st2{fill:#262626}.st3{fill:#eaedf4}.st4{fill:#ade9e9}.st5{fill:#20ad8a}.st6{fill:#ffc06c}.st7{fill:#3f4d55}.st8{fill:#5d5d5d}.st9{fill:#b7b7b7}.st10{fill:#adadad}.st11{fill:#b2b2b2}.st12{fill:gray}.st13{fill:#4d4d4d}.st14{fill:#333}.st15{fill:#efce4a}.st16{fill:#ed8a19}.st17{fill:#ebba16}.st18{fill:#c7cac7}.st19{fill:#e7eced}.st20{opacity:.7;clip-path:url(#SVGID_5_)}.st21{opacity:.12;fill:#ffc06c}.st22{opacity:.16}.st22,.st23,.st24{fill:#ffc06c}.st23{opacity:.22}.st24{opacity:.3}.st25{clip-path:url(#SVGID_7_)}.st26{opacity:.15}.st26,.st27,.st28{fill:#20ad8a}.st27{opacity:.23}.st28{opacity:.3}.st29{fill:#aaa}.st30,.st31{fill:none;stroke:#3f4d55;stroke-miterlimit:10}.st31{stroke-linecap:round}.st32{fill:#f00101}.st33{fill:#030303}.st34{fill:#70cadb}.st35{fill:#e01765}.st36{fill:#e8a723}.st37{fill:#3eb890}.st38{fill:#cc2027}.st39{fill:#361238}.st40{fill:#65863a}.st41{fill:#1a937d}.st42{fill:#666}.st43{fill:#d5e1e8}.st44{fill:#e6eef2}.st45{fill:#573d82}.st46{fill:#453068}.st47{fill:#3fba91}.st48{fill:#6fcbdc}.st49{fill:#dcdcdc}.st50{fill:#ffc585}.st51{fill:#ff3e88}.st52{fill:#675470}.st53{fill:#4a4687}.st54{fill:#f3f3f3}.st55{opacity:.5;fill:#8977a7}.st56{fill:#e1e9ef}.st57{fill:#ffd7a3}.st58{fill:#fdc88e}.st59{fill:#ffe1b2}.st60{fill:#a2cde2}.st61{fill:#545465}.st62{fill:#29394a}.st63{fill:#b5e0f0}.st64{fill:#4a698e}.st65{fill:#416185}.st66{fill:#395a7f}.st67{fill:#ffd5ab}.st68{fill:#e4ebf0}.st69{fill:#d0d7dc}.st70{fill:#527992}.st71{fill:#475f7f}.st72{fill:#d3e5bd}.st73{fill:#827873}.st74{fill:#e0dddc}.st75{fill:#a19996}.st76{fill:#3cf}.st77{fill:#d8dce1}.st78{fill:#db4026}.st79{fill:#5c546a}.st80{fill:#e8d21d}.st81{fill:#4aecaf}.st82{fill:#80362d}.st83{fill:#ffb980}.st84{fill:#f8ab6b}.st85{fill:#bf9b5f}.st86{fill:#83603f}.st87{fill:#b0e070}.st88{fill:#7e5c62}.st89{fill:#a27082}.st90{fill:#7e5449}.st91{fill:#ffda44}.st92{fill:#ffcd00}.st93{fill:#b1664f}.st94{fill:#ffdaa9}.st95{fill:#5fbea0}.st96{fill:none;stroke:#fff;stroke-width:2;stroke-linecap:round;stroke-miterlimit:10}.st97{fill:#188268}.st98{fill:#d2efe8}.st99{fill:#79ceb9}.st100{fill:#ebebed}.st101{fill:#474f49}.st102{fill:#daaba9}.st103{fill:#757eaf}.st104{fill:#edcc70}.st105{fill:#b9bbc1}.st106{fill:#53dcff}.st107{fill:#fcee21}.st108{fill:#8b8996}.st109{fill:#686777}.st110{fill:#67a2a9}.st111,.st112{fill:#ff93b5}.st112{stroke:#fff;stroke-width:2;stroke-linecap:round;stroke-miterlimit:10}.st113,.st114{fill:#f3d960}.st114{stroke:#fff;stroke-width:2;stroke-linecap:round;stroke-miterlimit:10}.st115{fill:#7bd766}.st116{fill:#8166a4}.st117{fill:#f67d69}.st118{fill:#ccc}.st119{fill:#e6e6e6}.st120{fill:#b3b3b3}.st121{fill:none;stroke:#da6f67;stroke-linecap:round;stroke-miterlimit:10}.st122{fill:#bc679b}.st123{fill:#09614b}.st124{fill:#50748a}.st125{fill:#e2e4ff}.st126{fill:#a7795e}.st127{fill:#adb4ba}.st128{fill:#4ea0ca}.st129{fill:#394959}.st130{fill:#e05040}.st131{fill:#b4a87d}.st132{fill:#7b7256}.st133{fill:#fcc261}.st134{fill:#111820}.st135{fill:#dfded6}.st136{fill:#ff6953}.st137{fill:#b06e53}.st138{fill:#728ea0}.st139{fill:#e5e4e3}.st140{fill:#f7f3a8}.st141{fill:#82827f}.st142{fill:#353535}.st143{fill:#a0b7d1}.st144{fill:#ecec66}.st145{fill:#90ba72}.st146{fill:#e7f2fc}.st147{fill:none;stroke:#c6c6c6;stroke-width:2;stroke-linecap:round;stroke-linejoin:round;stroke-miterlimit:10;stroke-dasharray:5,10,5,10,5,10}.st148{fill:#73a950}.st149{fill:#ffa168}.st150{fill:#2d688d}</style><g id="Capa_3"><path class="st98" d="M142.8 268.6c-2.7 0-4.8-2.1-4.8-4.8V158.3c0-2.6 2.1-4.8 4.8-4.8s4.8 2.1 4.8 4.8v105.5c-.1 2.7-2.2 4.8-4.8 4.8zm-93.7-30c-1.5 0-3-.6-4.1-1.7-2.3-2.3-2.3-6 0-8.3l73.5-73.5c2.3-2.3 6-2.3 8.3 0 2.3 2.3 2.3 6 0 8.3l-73.5 73.5c-1.3 1.2-2.7 1.7-4.2 1.7zm183.5-4c-1.4 0-2.9-.5-4-1.6l-65.1-65.1c-2.2-2.2-2.2-5.7 0-7.9s5.7-2.2 7.9 0l65.1 65.1c2.2 2.2 2.2 5.7 0 7.9-1 1-2.4 1.6-3.9 1.6z"/><path class="st58" d="M142.8 115.1c-11.2 0-21.3-4.8-28.8-12.5 0 4.6-.2 11.3-1.4 16.2.8.5 1.4 1.3 1.6 2.3 1.6 13 13.9 22.8 28.6 22.8 14.7 0 27-9.8 28.6-22.8.1-1 .7-1.8 1.6-2.3-1.2-4.9-1.4-11.6-1.4-16.2-7.5 7.7-17.7 12.5-28.8 12.5z"/><path class="st83" d="M170.9 103.2c-7.4 7.4-17.3 12-28.2 12-11.2 0-21.3-4.8-28.8-12.5 0 4.6-.2 11.3-1.4 16.2.8.5 1.4 1.3 1.6 2.3.7 5.7 3.5 10.9 7.7 14.8 19.3-2.8 41.1-21.8 49.1-32.8z"/><path class="st5" d="M201.1 122.3c-.1 0-.3-.1-.4-.1l-25.5-3.8h-.6c-1.6 0-3 1.2-3.2 2.8-1.6 13-13.9 22.8-28.6 22.8-14.7 0-27-9.8-28.6-22.8-.2-1.7-1.7-2.9-3.3-2.8h-.6l-25.5 3.8c-.1 0-.3 0-.4.1-12.1 3.4-18.4 15.2-18.4 25.2v12.4c0 5.3 4.7 9.6 10.5 9.6H209c5.8 0 10.5-4.3 10.5-9.6v-12.4c0-10-6.3-21.8-18.4-25.2z"/><path class="st59" d="M171.5 35.2h-54.4c-8.8 0-16 7.2-16 16v19.2c0 24.7 18.7 44.8 41.6 44.8s41.6-20.1 41.6-44.8V48c0-7.1-5.7-12.8-12.8-12.8z"/><path class="st90" d="M165.1 0h-41.6c-6 0-11.1 4.2-12.4 9.8-11 1.4-19.5 10.8-19.5 22.2v16c0 8.2 3.5 15.9 9.6 21.4V51.2c0-8.8 7.2-16 16-16h54.4c7.1 0 12.8 5.7 12.8 12.8v21.4c6.1-5.5 9.6-13.2 9.6-21.4V28.8C193.9 12.9 181 0 165.1 0zm-26.2 106.5h9.7l-4.9 8.6z"/><circle class="st99" cx="142.8" cy="201.1" r="11.7"/><circle class="st1" cx="142.8" cy="201.1" r="1.8"/><circle class="st1" cx="136.1" cy="201.1" r="1.8"/><circle class="st1" cx="149.4" cy="201.1" r="1.8"/><circle class="st99" cx="89.5" cy="191.1" r="11.7"/><circle class="st1" cx="89.5" cy="191.1" r="1.8"/><circle class="st1" cx="82.8" cy="191.1" r="1.8"/><circle class="st1" cx="96.1" cy="191.1" r="1.8"/><circle class="st99" cx="196" cy="191.1" r="11.7"/><circle class="st1" cx="196" cy="191.1" r="1.8"/><circle class="st1" cx="189.4" cy="191.1" r="1.8"/><circle class="st1" cx="202.7" cy="191.1" r="1.8"/><circle class="st100" cx="33.8" cy="253" r="33.8"/><circle class="st100" cx="249.6" cy="253" r="33.8"/><circle class="st100" cx="141.7" cy="296.8" r="33.8"/><path class="st82" d="M40.3 229.4l-5 27.4 3.6.7c7.6-5.6 10.9-28.1 1.4-28.1z"/><path class="st82" d="M40.3 229.4c-1.3-.8-7.9-2.7-13 0-6.2 3.3-11.6 15.2-2.9 27.4l6.5-.7 9.4-26.7z"/><path class="st57" d="M38.9 253.4v-1.7H28.8v1.7c0 1.6 0 3.4-1.4 4.5V274h13v-16.2c-1.5-1-1.5-2.8-1.5-4.4z"/><path class="st101" d="M33.8 266.8c-1.5 0-3-.2-4.3-.6v7.8h10.1v-8.2c-1.6.6-3.6 1-5.8 1z"/><path class="st58" d="M39.6 261.1c.3.1.5.1.7.1v-3.3c-1.4-1.1-1.4-2.9-1.4-4.5v-1.7h-8l-2.2.7c1.5 1.6 5.9 7.3 10.9 8.7z"/><path class="st59" d="M43.9 242.3c0 5.8-5.7 13-10.1 13s-10.1-7.2-10.1-13 4.5-7.9 10.1-7.9 10.1 2.2 10.1 7.9z"/><path class="st82" d="M35.3 230.8c-.4 0-1.7.5-2.8.9l-.1-.1s-.1.1-.4.3c-.6.2-1 .4-1 .4l.2.3c-2.7 2.2-9 7.1-9.5 7.6-.7.7 4.3 19.1 4.3 8.6 0-8.7 4.9-10.5 9.4-11.5 2-.5 2.6-1.7 2.9-2.9.1-1.2-2.3-3.6-3-3.6z"/><path class="st82" d="M37.4 235.1c1.3 4.7 4 6.9 6.4 7.5 1.4.3.8-3.9.8-3.9s-1.9-4.9-2.2-5c-.2-.1-2.2-4.3-2.2-4.3L36 233l1.4 2.1z"/><path class="st102" d="M28.1 257c-.7 1.1-2.1 1.9-4.9 1.9H23c-4.4 0-7.9 3.5-7.9 7.9v5c0 1.2 1 2.2 2.2 2.2H32l-3.9-17zm11.4 0c.7 1.1 2.1 1.9 4.9 1.9h.2c4.4 0 7.9 3.5 7.9 7.9v5c0 1.2-1 2.2-2.2 2.2H35.6l3.9-17z"/><g><path class="st90" d="M136.8 274.7l3.5 23.9-6.7-7.7c-2.7-3.4-6.9-16.2 3.2-16.2z"/><path class="st90" d="M134.9 275.4c1.6-3 9.8-4.1 14.4-1.2 6.5 4.1 5.8 11.5 2.8 17.2l-7.1 5-10.1-21z"/><path class="st57" d="M147.7 298v-1.6h-9.8v1.6c0 1.6 0 3.3-1.4 4.4v15.7h12.6v-15.7c-1.4-1.1-1.4-2.8-1.4-4.4z"/><path class="st103" d="M153.3 303.4h-.3c-2.7 0-4-.7-4.7-1.7l-5.6 3.3-5.6-3.3c-.7 1-2 1.7-4.7 1.7h-.2c-4.3 0-7.7 3.5-7.7 7.7v4.9c0 1.2.9 2.1 2.1 2.1h32.3c1.2 0 2.1-.9 2.1-2.1v-4.9c0-4.3-3.5-7.7-7.7-7.7z"/><path class="st58" d="M147.7 304.8c.3.1-.2-.7 0-.7l1.4-1.7c-1.4-1.1-1.4-2.8-1.4-4.4v-1.6H140l-2.1.7c1.3 1.5 4.9 6.4 9.8 7.7z"/><path class="st59" d="M152.6 287.2c0 5.6-5.6 12.6-9.8 12.6s-9.8-7-9.8-12.6 4.4-7.7 9.8-7.7 9.8 2.1 9.8 7.7z"/><path class="st90" d="M139.3 280.8s-5.3 1.6-6.3 7.4c-.2 1.3-2.1-4.6-2.1-4.6s1.1-4.7 1.3-4.8c.2-.1 5-2 5-2l1.4 1.2.7 2.8z"/><path class="st68" d="M142.8 305l-5.6-3.7-1.6 1.6 3.7 5.4c.4.6 1.1.3 1.4 0l2.1-3.3zm0 0l5.6-3.7 1.6 1.6-3.7 5.4c-.4.6-1.1.3-1.4 0l-2.1-3.3z"/><path class="st59" d="M152 288.1c1.1-.3 1.7.3 1.7 1.4 0 1.5-1.4 5-2.9 2.8-1.5-2.3 1.2-4.2 1.2-4.2z"/><ellipse class="st90" cx="141.9" cy="273.4" rx="5.5" ry="4.3"/><path class="st61" d="M139.1 292.7c-1.6 0-2.8-1.3-2.8-2.8 0-1.6 1.3-2.8 2.8-2.8s2.8 1.3 2.8 2.8c0 1.5-1.3 2.8-2.8 2.8zm0-5c-1.2 0-2.1 1-2.1 2.1 0 1.2 1 2.1 2.1 2.1 1.2 0 2.1-1 2.1-2.1 0-1.2-.9-2.1-2.1-2.1zm7.3 5c-1.6 0-2.8-1.3-2.8-2.8 0-1.6 1.3-2.8 2.8-2.8 1.6 0 2.8 1.3 2.8 2.8.1 1.5-1.2 2.8-2.8 2.8zm0-5c-1.2 0-2.1 1-2.1 2.1 0 1.2 1 2.1 2.1 2.1 1.2 0 2.1-1 2.1-2.1.1-1.2-.9-2.1-2.1-2.1z"/><path class="st61" d="M144.3 289.4h-.7c0-.5-.4-.9-.9-.9s-.9.4-.9.9h-.7c0-.9.7-1.6 1.6-1.6.9 0 1.6.7 1.6 1.6zm-7.3-.7h-4.3c-.2 0-.4-.2-.4-.4s.2-.4.4-.4h4.3c.2 0 .4.2.4.4 0 .3-.2.4-.4.4zm15 0h-3.6c-.2 0-.4-.2-.4-.4s.2-.4.4-.4h3.6c.2 0 .4.2.4.4 0 .3-.2.4-.4.4z"/><path class="st104" d="M141.4 276c.4 0 1.7.4 2.7.8l.1-.1s.1.1.4.3c.6.2 1 .4 1 .4l-.2.3c2.7 2.1 7.8 3.3 7.8 7.3 0 4.7-3.3 8.2-3.3 8.2 2.2-8.6-2.7-10.2-7.9-11.2-2-.4-3.3-1.3-3.5-2.4-.1-1.2 2.2-3.6 2.9-3.6z"/><path class="st59" d="M133.5 288.1c-1-.5-1.7.3-1.7 1.4 0 1.5 1.4 5 2.9 2.8 1.5-2.3-.2-3.8-1.2-4.2z"/></g><g><path class="st57" d="M241.4 257.4c1.6-1 1.4-4 1.4-4.7h12.5c0 .7-.2 3.7 1.4 4.7l-7.6 8.5-7.7-8.5z"/><path class="st58" d="M253.9 260.4l2.7-3c-1.6-1-1.4-4-1.4-4.7h-12.5c.9 2.6 6.9 7 11.2 7.7z"/><path class="st59" d="M258.7 243.7c0 5.6-3.2 12.5-9.7 12.5-6.5 0-9.7-6.9-9.7-12.5s4.4-7.6 9.7-7.6 9.7 2.1 9.7 7.6z"/><path class="st68" d="M258.9 257.3l-.9-.3-6.7 16.8h-4.4l-6.9-17 .6-.1c2.3 1.8 5.7 4.3 8.4 4.3 2.8 0 6.1-2.4 8.4-4.2l1.5.5z"/><path class="st61" d="M244.8 231.9h-1.4c-2.7 0-4.9 2.2-4.9 4.9 0 2.5.7 6.9.7 6.9s.8-3.5 4.2-4.9c2.1-.8 1.4-6.9 1.4-6.9z"/><path class="st61" d="M244.1 231.9c2.8-4.3 10-.7 14.6-.7.7 1 1.2 8.5 0 12.5l-2.1-3.5s-6.4 2.3-13.2-1.4"/><path class="st69" d="M249 261.1l-3.5 3.5-5.5-7.6 1.6-1.6c.3-.3.7-.3 1 0l6.4 5.7zm9-4.2l-5.6 7.6-1.8-1.8-1.7-1.7.3-.3 6.2-5.5c.3-.3.7-.2.9 0l1.7 1.7z"/><path class="st61" d="M246.9 273.8H233c-1.2 0-2.4-.5-2.4-1.6v-6.7c0-3.1 2.5-6.3 5.4-7.2l.3-.1 1.4-.4 2.1-.9 7.1 16.9zm-9-16.1l-1.4.4zm28.8 7.8v6.7c0 1.2-.6 1.6-1.7 1.6h-13.7L258 257l.9.3 1.2.4 1.4.5h.1c2.9.9 5.1 4.2 5.1 7.3zm-16-2.8v.4c0 .4-.6.6-1 .6h-1.4c-.4 0-.6-.3-.6-.6v-.7l1.3-1.6h.3l-.3.3 1.7 1.6z"/><path class="st59" d="M239.6 245.1c-1-.3-1.7.3-1.7 1.4 0 1.4 1.4 5 2.9 2.8 1.4-2.3-1.2-4.2-1.2-4.2zm18.6 0c1.1-.3 1.9.3 1.9 1.4 0 1.4-1.5 5-3.1 2.8-1.6-2.3 1.2-4.2 1.2-4.2z"/><path class="st61" d="M248.7 263.8l-1.1 10h3.1l-1-10"/></g></g></svg>