<svg id="Layer_1" xmlns="http://www.w3.org/2000/svg" viewBox="0 0 234 173"><style>.st0{fill:#d2efe8}.st1{fill:#fdc88e}.st2{fill:#ffb980}.st3{fill:#20ad8a}.st4{fill:#ffe1b2}.st5{fill:#7e5449}.st6{fill:#79ceb9}.st7{fill:#fff}.st8{fill:#ebebed}.st9{fill:#80362d}.st10{fill:#ffd7a3}.st11{fill:#474f49}.st12{fill:#daaba9}.st13{fill:#757eaf}.st14{fill:#e4ebf0}.st15{fill:#545465}.st16{fill:#edcc70}.st17{fill:#d0d7dc}</style><g id="Capa_3"><path class="st0" d="M117.3 139.7c-1.4 0-2.5-1.1-2.5-2.5V82.3c0-1.4 1.1-2.5 2.5-2.5s2.5 1.1 2.5 2.5v54.9c-.1 1.4-1.2 2.5-2.5 2.5zm-48.8-15.6c-.8 0-1.6-.3-2.1-.9-1.2-1.2-1.2-3.1 0-4.3l38.2-38.2c1.2-1.2 3.1-1.2 4.3 0 1.2 1.2 1.2 3.1 0 4.3l-38.2 38.2c-.7.7-1.4.9-2.2.9zM164 122c-.7 0-1.5-.3-2.1-.8L128 87.3c-1.1-1.1-1.1-3 0-4.1 1.1-1.1 3-1.1 4.1 0l33.9 33.9c1.1 1.1 1.1 3 0 4.1-.5.5-1.2.8-2 .8z"/><path class="st1" d="M117.3 59.9c-5.8 0-11.1-2.5-15-6.5 0 2.4-.1 5.9-.7 8.4.4.3.7.7.8 1.2.8 6.8 7.2 11.9 14.9 11.9s14-5.1 14.9-11.9c.1-.5.4-.9.8-1.2-.6-2.5-.7-6-.7-8.4-3.9 4-9.3 6.5-15 6.5z"/><path class="st2" d="M131.9 53.7c-3.8 3.8-9 6.2-14.7 6.2-5.8 0-11.1-2.5-15-6.5 0 2.4-.1 5.9-.7 8.4.4.3.7.7.8 1.2.4 3 1.8 5.7 4 7.7 10.1-1.4 21.4-11.3 25.6-17z"/><path class="st3" d="M147.6 63.6c-.1 0-.2-.1-.2-.1l-13.3-2h-.3c-.8 0-1.6.6-1.7 1.5-.8 6.8-7.2 11.9-14.9 11.9s-14-5.1-14.9-11.9c-.1-.9-.9-1.5-1.7-1.5h-.3l-13.3 2c-.1 0-.2 0-.2.1-6.3 1.8-9.6 7.9-9.6 13.1v6.4c0 2.8 2.4 5 5.5 5h68.9c3 0 5.5-2.2 5.5-5v-6.4c.1-5.2-3.2-11.3-9.5-13.1z"/><path class="st4" d="M132.2 18.3h-28.3c-4.6 0-8.3 3.7-8.3 8.3v10c0 12.8 9.7 23.3 21.6 23.3s21.6-10.5 21.6-23.3V25c.1-3.7-2.9-6.7-6.6-6.7z"/><path class="st5" d="M128.9 0h-21.6c-3.1 0-5.8 2.2-6.4 5.1-5.7.7-10.1 5.6-10.1 11.5V25c0 4.3 1.8 8.3 5 11.1v-9.5c0-4.6 3.7-8.3 8.3-8.3h28.3c3.7 0 6.7 3 6.7 6.7v11.1c3.2-2.9 5-6.9 5-11.1V15c-.2-8.3-7-15-15.2-15zm-13.7 55.4h5l-2.5 4.5-2.5-4.5z"/><circle class="st6" cx="117.3" cy="104.6" r="6.1"/><circle class="st7" cx="117.3" cy="104.6" r=".9"/><circle class="st7" cx="113.8" cy="104.6" r=".9"/><circle class="st7" cx="120.7" cy="104.6" r=".9"/><circle class="st6" cx="89.5" cy="99.4" r="6.1"/><circle class="st7" cx="89.5" cy="99.4" r=".9"/><circle class="st7" cx="86.1" cy="99.4" r=".9"/><circle class="st7" cx="93" cy="99.4" r=".9"/><circle class="st6" cx="144.9" cy="99.4" r="6.1"/><circle class="st7" cx="144.9" cy="99.4" r=".9"/><circle class="st7" cx="141.5" cy="99.4" r=".9"/><circle class="st7" cx="148.4" cy="99.4" r=".9"/><circle class="st8" cx="60.6" cy="131.6" r="17.6"/><circle class="st8" cx="172.8" cy="131.6" r="17.6"/><circle class="st8" cx="116.7" cy="154.4" r="17.6"/><path class="st9" d="M64 119.3l-2.6 14.3 1.9.4c3.9-3 5.6-14.7.7-14.7zM64 119.3c-.7-.4-4.1-1.4-6.8 0-3.2 1.7-6 7.9-1.5 14.3l3.4-.4 4.9-13.9z"/><path class="st10" d="M63.2 131.8v-.9H58v.9c0 .8 0 1.8-.7 2.3v8.4H64v-8.4c-.8-.5-.8-1.5-.8-2.3z"/><path class="st11" d="M60.6 138.8c-.8 0-1.6-.1-2.2-.3v4.1h5.3v-4.3c-.9.3-2 .5-3.1.5z"/><path class="st1" d="M63.6 135.8c.2.1.3.1.4.1v-1.7c-.7-.6-.7-1.5-.7-2.3v-.9h-4.2l-1.1.4c.7.7 3 3.7 5.6 4.4z"/><path class="st4" d="M65.8 126c0 3-3 6.8-5.3 6.8s-5.3-3.7-5.3-6.8 2.3-4.1 5.3-4.1 5.3 1.2 5.3 4.1z"/><path class="st9" d="M61.4 120.1c-.2 0-.9.3-1.5.5l-.1-.1-.2.2c-.3.1-.5.2-.5.2l.1.2c-1.4 1.1-4.7 3.7-4.9 4-.4.4 2.2 9.9 2.2 4.5 0-4.5 2.5-5.5 4.9-6 1-.3 1.4-.9 1.5-1.5.1-.8-1.2-2-1.5-2z"/><path class="st9" d="M62.4 122.3c.7 2.4 2.1 3.6 3.3 3.9.7.2.4-2 .4-2s-1-2.5-1.1-2.6c-.1-.1-1.1-2.2-1.1-2.2l-2.2 1.9.7 1z"/><path class="st12" d="M57.6 133.7c-.4.6-1.1 1-2.5 1H55c-2.3 0-4.1 1.8-4.1 4.1v2.6c0 .6.5 1.1 1.1 1.1h7.6l-2-8.8zm5.9 0c.4.6 1.1 1 2.5 1h.1c2.3 0 4.1 1.8 4.1 4.1v2.6c0 .6-.5 1.1-1.1 1.1h-7.6l2-8.8z"/><path class="st5" d="M114.2 142.9l1.8 12.4-3.5-4c-1.4-1.8-3.6-8.4 1.7-8.4z"/><path class="st5" d="M113.2 143.3c.8-1.6 5.1-2.1 7.5-.6 3.4 2.1 3 6 1.5 8.9l-3.7 2.6-5.3-10.9z"/><path class="st10" d="M119.8 155v-.8h-5.1v.8c0 .8 0 1.7-.7 2.3v8.2h6.6v-8.2c-.8-.6-.8-1.5-.8-2.3z"/><path class="st13" d="M122.7 157.8h-.2c-1.4 0-2.1-.4-2.4-.9l-2.9 1.7-2.9-1.7c-.4.5-1 .9-2.4.9h-.1c-2.2 0-4 1.8-4 4v2.5c0 .6.5 1.1 1.1 1.1h16.8c.6 0 1.1-.5 1.1-1.1v-2.5c-.1-2.2-1.9-4-4.1-4z"/><path class="st1" d="M119.8 158.5c.2.1-.1-.4 0-.4l.7-.9c-.7-.6-.7-1.5-.7-2.3v-.8h-4l-1.1.4c.7.8 2.6 3.4 5.1 4z"/><path class="st4" d="M122.4 149.4c0 2.9-2.9 6.6-5.1 6.6-2.2 0-5.1-3.6-5.1-6.6s2.3-4 5.1-4 5.1 1.1 5.1 4z"/><path class="st5" d="M115.5 146.1s-2.8.8-3.3 3.8c-.1.7-1.1-2.4-1.1-2.4s.6-2.4.7-2.5c.1-.1 2.6-1 2.6-1l.7.6.4 1.5z"/><path class="st14" d="M117.3 158.6l-2.9-1.9-.8.8 1.9 2.8c.2.3.6.2.7 0l1.1-1.7zm0 0l2.9-1.9.8.8-1.9 2.8c-.2.3-.6.2-.7 0l-1.1-1.7z"/><path class="st4" d="M122.1 149.9c.6-.2.9.2.9.7 0 .8-.7 2.6-1.5 1.5-.8-1.3.6-2.2.6-2.2z"/><ellipse class="st5" cx="116.8" cy="142.2" rx="2.9" ry="2.2"/><path class="st15" d="M115.3 152.3c-.8 0-1.5-.7-1.5-1.5s.7-1.5 1.5-1.5 1.5.7 1.5 1.5-.7 1.5-1.5 1.5zm0-2.6c-.6 0-1.1.5-1.1 1.1 0 .6.5 1.1 1.1 1.1.6 0 1.1-.5 1.1-1.1 0-.7-.4-1.1-1.1-1.1zm3.8 2.6c-.8 0-1.5-.7-1.5-1.5s.7-1.5 1.5-1.5 1.5.7 1.5 1.5c.1.8-.6 1.5-1.5 1.5zm0-2.6c-.6 0-1.1.5-1.1 1.1 0 .6.5 1.1 1.1 1.1.6 0 1.1-.5 1.1-1.1.1-.7-.4-1.1-1.1-1.1z"/><path class="st15" d="M118.1 150.5h-.4c0-.3-.2-.5-.5-.5s-.5.2-.5.5h-.4c0-.5.4-.8.8-.8.6 0 1 .4 1 .8zm-3.8-.3H112c-.1 0-.2-.1-.2-.2s.1-.2.2-.2h2.2c.1 0 .2.1.2.2.1.1 0 .2-.1.2zm7.8 0h-1.9c-.1 0-.2-.1-.2-.2s.1-.2.2-.2h1.9c.1 0 .2.1.2.2s-.1.2-.2.2z"/><path class="st16" d="M116.5 143.6c.2 0 .9.2 1.4.4l.1-.1.2.2c.3.1.5.2.5.2l-.1.2c1.4 1.1 4.1 1.7 4.1 3.8 0 2.4-1.7 4.3-1.7 4.3 1.1-4.5-1.4-5.3-4.1-5.8-1-.2-1.7-.7-1.8-1.2-.1-.8 1.1-2 1.4-2z"/><path class="st4" d="M112.4 149.9c-.5-.3-.9.2-.9.7 0 .8.7 2.6 1.5 1.5.8-1.3 0-2-.6-2.2z"/><g><path class="st10" d="M168.6 133.9c.8-.5.7-2.1.7-2.4h6.5c0 .4-.1 1.9.7 2.4l-4 4.4-3.9-4.4z"/><path class="st1" d="M175.1 135.4l1.4-1.6c-.8-.5-.7-2.1-.7-2.4h-6.5c.4 1.4 3.5 3.7 5.8 4z"/><path class="st4" d="M177.6 126.8c0 2.9-1.7 6.5-5 6.5s-5-3.6-5-6.5 2.3-4 5-4 5 1.1 5 4z"/><path class="st14" d="M177.7 133.8l-.5-.2-3.5 8.7h-2.3l-3.6-8.8.3-.1c1.2.9 3 2.2 4.4 2.2 1.5 0 3.2-1.2 4.4-2.2l.8.4z"/><path class="st15" d="M170.3 120.6h-.7c-1.4 0-2.5 1.1-2.5 2.5 0 1.3.4 3.6.4 3.6s.4-1.8 2.2-2.5c1-.4.6-3.6.6-3.6z"/><path class="st15" d="M170 120.6c1.5-2.2 5.2-.4 7.6-.4.4.5.6 4.4 0 6.5l-1.1-1.8s-3.3 1.2-6.9-.7"/><path class="st17" d="M172.5 135.8l-1.8 1.8-2.9-4 .8-.8c.2-.2.4-.2.5 0l3.4 3zm4.7-2.2l-2.9 4-.9-.9-.9-.9.2-.2 3.2-2.9c.2-.2.4-.1.5 0l.8.9z"/><path class="st15" d="M171.4 142.4h-7.2c-.6 0-1.2-.3-1.2-.8v-3.5c0-1.6 1.3-3.3 2.8-3.7l.2-.1.7-.2 1.1-.5 3.6 8.8zm-4.7-8.4l-.7.2.7-.2zm15 4.1v3.5c0 .6-.3.8-.9.8h-7.1l3.5-8.7.5.2.6.2.7.3h.1c1.5.4 2.6 2.1 2.6 3.7zm-8.3-1.5v.2c0 .2-.3.3-.5.3h-.7c-.2 0-.3-.2-.3-.3v-.4l.7-.8h.2l-.2.2.8.8z"/><path class="st4" d="M167.6 127.5c-.5-.2-.9.2-.9.7 0 .7.7 2.6 1.5 1.5.8-1.2-.6-2.2-.6-2.2zm9.7 0c.6-.2 1 .2 1 .7 0 .7-.8 2.6-1.6 1.5-.9-1.2.6-2.2.6-2.2z"/><path class="st15" d="M172.4 137.2l-.6 5.2h1.6l-.5-5.2"/></g></g></svg>