<?xml version="1.0" encoding="utf-8"?>
<!-- Generator: Adobe Illustrator 19.2.1, SVG Export Plug-In . SVG Version: 6.00 Build 0)  -->
<svg version="1.1" xmlns="http://www.w3.org/2000/svg" xmlns:xlink="http://www.w3.org/1999/xlink" x="0px" y="0px"
	 viewBox="0 0 283.5 330.6" style="enable-background:new 0 0 283.5 330.6;" xml:space="preserve">
<style type="text/css">
	.st0{opacity:0.49;fill:url(#SVGID_3_);}
	.st1{fill:#FFFFFF;}
	.st2{fill:#262626;}
	.st3{fill:#EAEDF4;}
	.st4{fill:#ADE9E9;}
	.st5{fill:#20AD8A;}
	.st6{fill:#FFC06C;}
	.st7{fill:#3F4D55;}
	.st8{fill:#5D5D5D;}
	.st9{fill:#B7B7B7;}
	.st10{fill:#ADADAD;}
	.st11{fill:#B2B2B2;}
	.st12{fill:#808080;}
	.st13{fill:#4D4D4D;}
	.st14{fill:#333333;}
	.st15{fill:#EFCE4A;}
	.st16{fill:#ED8A19;}
	.st17{fill:#EBBA16;}
	.st18{fill:#C7CAC7;}
	.st19{fill:#E7ECED;}
	.st20{opacity:0.7;clip-path:url(#SVGID_5_);}
	.st21{opacity:0.12;fill:#FFC06C;}
	.st22{opacity:0.16;fill:#FFC06C;}
	.st23{opacity:0.22;fill:#FFC06C;}
	.st24{opacity:0.3;fill:#FFC06C;}
	.st25{clip-path:url(#SVGID_7_);}
	.st26{opacity:0.15;fill:#20AD8A;}
	.st27{opacity:0.23;fill:#20AD8A;}
	.st28{opacity:0.3;fill:#20AD8A;}
	.st29{fill:#AAAAAA;}
	.st30{fill:none;stroke:#3F4D55;stroke-miterlimit:10;}
	.st31{fill:none;stroke:#3F4D55;stroke-linecap:round;stroke-miterlimit:10;}
	.st32{fill:#F00101;}
	.st33{fill:#030303;}
	.st34{fill:#70CADB;}
	.st35{fill:#E01765;}
	.st36{fill:#E8A723;}
	.st37{fill:#3EB890;}
	.st38{fill:#CC2027;}
	.st39{fill:#361238;}
	.st40{fill:#65863A;}
	.st41{fill:#1A937D;}
	.st42{fill:#666666;}
	.st43{fill:#D5E1E8;}
	.st44{fill:#E6EEF2;}
	.st45{fill:#573D82;}
	.st46{fill:#453068;}
	.st47{fill:#3FBA91;}
	.st48{fill:#6FCBDC;}
	.st49{fill:#DCDCDC;}
	.st50{fill:#FFC585;}
	.st51{fill:#FF3E88;}
	.st52{fill:#675470;}
	.st53{fill:#4A4687;}
	.st54{fill:#F3F3F3;}
	.st55{opacity:0.5;fill:#8977A7;}
	.st56{fill:#E1E9EF;}
	.st57{fill:#FFD7A3;}
	.st58{fill:#FDC88E;}
	.st59{fill:#FFE1B2;}
	.st60{fill:#A2CDE2;}
	.st61{fill:#545465;}
	.st62{fill:#29394A;}
	.st63{fill:#B5E0F0;}
	.st64{fill:#4A698E;}
	.st65{fill:#416185;}
	.st66{fill:#395A7F;}
	.st67{fill:#FFD5AB;}
	.st68{fill:#E4EBF0;}
	.st69{fill:#D0D7DC;}
	.st70{fill:#527992;}
	.st71{fill:#475F7F;}
	.st72{fill:#D3E5BD;}
	.st73{fill:#827873;}
	.st74{fill:#E0DDDC;}
	.st75{fill:#A19996;}
	.st76{fill:#33CCFF;}
	.st77{fill:#D8DCE1;}
	.st78{fill:#DB4026;}
	.st79{fill:#5C546A;}
	.st80{fill:#E8D21D;}
	.st81{fill:#4AECAF;}
	.st82{fill:#80362D;}
	.st83{fill:#FFB980;}
	.st84{fill:#F8AB6B;}
	.st85{fill:#BF9B5F;}
	.st86{fill:#83603F;}
	.st87{fill:#B0E070;}
	.st88{fill:#7E5C62;}
	.st89{fill:#A27082;}
	.st90{fill:#7E5449;}
	.st91{fill:#FFDA44;}
	.st92{fill:#FFCD00;}
	.st93{fill:#B1664F;}
	.st94{fill:#FFDAA9;}
	.st95{fill:#5FBEA0;}
	.st96{fill:none;stroke:#FFFFFF;stroke-width:2;stroke-linecap:round;stroke-miterlimit:10;}
	.st97{fill:#188268;}
	.st98{fill:#D2EFE8;}
	.st99{fill:#79CEB9;}
	.st100{fill:#EBEBED;}
	.st101{fill:#474F49;}
	.st102{fill:#DAABA9;}
	.st103{fill:#757EAF;}
	.st104{fill:#EDCC70;}
	.st105{fill:#B9BBC1;}
	.st106{fill:#53DCFF;}
	.st107{fill:#FCEE21;}
	.st108{fill:#8B8996;}
	.st109{fill:#686777;}
	.st110{fill:#67A2A9;}
	.st111{fill:#FF93B5;}
	.st112{fill:#FF93B5;stroke:#FFFFFF;stroke-width:2;stroke-linecap:round;stroke-miterlimit:10;}
	.st113{fill:#F3D960;}
	.st114{fill:#F3D960;stroke:#FFFFFF;stroke-width:2;stroke-linecap:round;stroke-miterlimit:10;}
	.st115{fill:#7BD766;}
	.st116{fill:#8166A4;}
	.st117{fill:#F67D69;}
	.st118{fill:#CCCCCC;}
	.st119{fill:#E6E6E6;}
	.st120{fill:#B3B3B3;}
	.st121{fill:none;stroke:#DA6F67;stroke-linecap:round;stroke-miterlimit:10;}
	.st122{fill:#BC679B;}
	.st123{fill:#09614B;}
	.st124{fill:#50748A;}
	.st125{fill:#E2E4FF;}
	.st126{fill:#A7795E;}
	.st127{fill:#ADB4BA;}
	.st128{fill:#4EA0CA;}
	.st129{fill:#394959;}
	.st130{fill:#E05040;}
	.st131{fill:#B4A87D;}
	.st132{fill:#7B7256;}
	.st133{fill:#FCC261;}
	.st134{fill:#111820;}
	.st135{fill:#DFDED6;}
	.st136{fill:#FF6953;}
	.st137{fill:#B06E53;}
	.st138{fill:#728EA0;}
	.st139{fill:#E5E4E3;}
	.st140{fill:#F7F3A8;}
	.st141{fill:#82827F;}
	.st142{fill:#353535;}
	.st143{fill:#A0B7D1;}
	.st144{fill:#ECEC66;}
	.st145{fill:#90BA72;}
	.st146{fill:#E7F2FC;}
	
		.st147{fill:none;stroke:#C6C6C6;stroke-width:2;stroke-linecap:round;stroke-linejoin:round;stroke-miterlimit:10;stroke-dasharray:5,10,5,10,5,10;}
	.st148{fill:#73A950;}
	.st149{fill:#FFA168;}
	.st150{fill:#2D688D;}
</style>
<g id="Capa_2">
</g>
<g id="Capa_3">
	<g>
		<g>
			<g>
				<path class="st98" d="M142.8,268.6c-2.7,0-4.8-2.1-4.8-4.8V158.3c0-2.6,2.1-4.8,4.8-4.8s4.8,2.1,4.8,4.8v105.5
					C147.5,266.5,145.4,268.6,142.8,268.6z"/>
			</g>
		</g>
		<g>
			<g>
				<path class="st98" d="M49.1,238.6c-1.5,0-3-0.6-4.1-1.7c-2.3-2.3-2.3-6,0-8.3l73.5-73.5c2.3-2.3,6-2.3,8.3,0
					c2.3,2.3,2.3,6,0,8.3l-73.5,73.5C52,238.1,50.6,238.6,49.1,238.6z"/>
			</g>
		</g>
		<g>
			<g>
				<path class="st98" d="M232.6,234.6c-1.4,0-2.9-0.5-4-1.6l-65.1-65.1c-2.2-2.2-2.2-5.7,0-7.9s5.7-2.2,7.9,0l65.1,65.1
					c2.2,2.2,2.2,5.7,0,7.9C235.5,234,234.1,234.6,232.6,234.6z"/>
			</g>
		</g>
		<g>
			<g>
				<path class="st58" d="M142.8,115.1c-11.2,0-21.3-4.8-28.8-12.5c0,4.6-0.2,11.3-1.4,16.2c0.8,0.5,1.4,1.3,1.6,2.3
					c1.6,13,13.9,22.8,28.6,22.8c14.7,0,27-9.8,28.6-22.8c0.1-1,0.7-1.8,1.6-2.3c-1.2-4.9-1.4-11.6-1.4-16.2
					C164.1,110.3,153.9,115.1,142.8,115.1z"/>
			</g>
			<g>
				<path class="st83" d="M170.9,103.2c-7.4,7.4-17.3,12-28.2,12c-11.2,0-21.3-4.8-28.8-12.5c0,4.6-0.2,11.3-1.4,16.2
					c0.8,0.5,1.4,1.3,1.6,2.3c0.7,5.7,3.5,10.9,7.7,14.8C141.1,133.2,162.9,114.2,170.9,103.2z"/>
			</g>
			<g>
				<path class="st5" d="M201.1,122.3c-0.1,0-0.3-0.1-0.4-0.1l-25.5-3.8c-0.2,0-0.5,0-0.6,0c-1.6,0-3,1.2-3.2,2.8
					c-1.6,13-13.9,22.8-28.6,22.8c-14.7,0-27-9.8-28.6-22.8c-0.2-1.7-1.7-2.9-3.3-2.8c-0.2,0-0.4,0-0.6,0l-25.5,3.8
					c-0.1,0-0.3,0-0.4,0.1C72.3,125.7,66,137.5,66,147.5v12.4c0,5.3,4.7,9.6,10.5,9.6H209c5.8,0,10.5-4.3,10.5-9.6v-12.4
					C219.5,137.5,213.2,125.7,201.1,122.3z"/>
			</g>
			<g>
				<path class="st59" d="M171.5,35.2h-54.4c-8.8,0-16,7.2-16,16v19.2c0,24.7,18.7,44.8,41.6,44.8s41.6-20.1,41.6-44.8V48
					C184.3,40.9,178.6,35.2,171.5,35.2z"/>
			</g>
			<g>
				<path class="st90" d="M165.1,0h-41.6c-6,0-11.1,4.2-12.4,9.8c-11,1.4-19.5,10.8-19.5,22.2v16c0,8.2,3.5,15.9,9.6,21.4V51.2
					c0-8.8,7.2-16,16-16h54.4c7.1,0,12.8,5.7,12.8,12.8v21.4c6.1-5.5,9.6-13.2,9.6-21.4V28.8C193.9,12.9,181,0,165.1,0z"/>
			</g>
		</g>
		<polygon class="st90" points="138.9,106.5 148.6,106.5 143.7,115.1 		"/>
		<circle class="st99" cx="142.8" cy="201.1" r="11.7"/>
		<circle class="st1" cx="142.8" cy="201.1" r="1.8"/>
		<circle class="st1" cx="136.1" cy="201.1" r="1.8"/>
		<circle class="st1" cx="149.4" cy="201.1" r="1.8"/>
		<circle class="st99" cx="89.5" cy="191.1" r="11.7"/>
		<circle class="st1" cx="89.5" cy="191.1" r="1.8"/>
		<circle class="st1" cx="82.8" cy="191.1" r="1.8"/>
		<circle class="st1" cx="96.1" cy="191.1" r="1.8"/>
		<circle class="st99" cx="196" cy="191.1" r="11.7"/>
		<circle class="st1" cx="196" cy="191.1" r="1.8"/>
		<circle class="st1" cx="189.4" cy="191.1" r="1.8"/>
		<circle class="st1" cx="202.7" cy="191.1" r="1.8"/>
		<circle class="st100" cx="33.8" cy="253" r="33.8"/>
		<circle class="st100" cx="249.6" cy="253" r="33.8"/>
		<circle class="st100" cx="141.7" cy="296.8" r="33.8"/>
		<g>
			<g>
				<path class="st82" d="M40.3,229.4l-5,27.4l3.6,0.7C46.5,251.9,49.8,229.4,40.3,229.4z"/>
			</g>
			<g>
				<path class="st82" d="M40.3,229.4c-1.3-0.8-7.9-2.7-13,0c-6.2,3.3-11.6,15.2-2.9,27.4c0,0,6.5-0.7,6.5-0.7L40.3,229.4z"/>
			</g>
			<g>
				<path class="st57" d="M38.9,253.4L38.9,253.4l0-1.7H28.8v1.7c0,1.6,0,3.4-1.4,4.5V274h6.5c0,0,3.4,0,6.5,0v-16.2
					C38.9,256.8,38.9,255,38.9,253.4z"/>
			</g>
			<g>
				<path class="st101" d="M33.8,266.8c-1.5,0-3-0.2-4.3-0.6v7.8h10.1v-8.2C38,266.4,36,266.8,33.8,266.8z"/>
			</g>
			<g>
				<path class="st58" d="M39.6,261.1c0.3,0.1,0.5,0.1,0.7,0.1v-3.3c-1.4-1.1-1.4-2.9-1.4-4.5l0,0v-1.7l-8,0l-2.2,0.7
					C30.2,254,34.6,259.7,39.6,261.1z"/>
			</g>
			<g>
				<path class="st59" d="M43.9,242.3c0,5.8-5.7,13-10.1,13s-10.1-7.2-10.1-13c0-5.8,4.5-7.9,10.1-7.9S43.9,236.6,43.9,242.3z"/>
			</g>
			<g>
				<path class="st82" d="M35.3,230.8c-0.4,0-1.7,0.5-2.8,0.9l-0.1-0.1c0,0-0.1,0.1-0.4,0.3c-0.6,0.2-1,0.4-1,0.4l0.2,0.3
					c-2.7,2.2-9,7.1-9.5,7.6c-0.7,0.7,4.3,19.1,4.3,8.6c0-8.7,4.9-10.5,9.4-11.5c2-0.5,2.6-1.7,2.9-2.9
					C38.4,233.2,36,230.8,35.3,230.8z"/>
			</g>
			<g>
				<path class="st82" d="M37.4,235.1c1.3,4.7,4,6.9,6.4,7.5c1.4,0.3,0.8-3.9,0.8-3.9s-1.9-4.9-2.2-5c-0.2-0.1-2.2-4.3-2.2-4.3
					L36,233L37.4,235.1z"/>
			</g>
			<g>
				<path class="st102" d="M28.1,257c-0.7,1.1-2.1,1.9-4.9,1.9H23c-4.4,0-7.9,3.5-7.9,7.9v5c0,1.2,1,2.2,2.2,2.2H32L28.1,257z"/>
			</g>
			<g>
				<path class="st102" d="M39.5,257c0.7,1.1,2.1,1.9,4.9,1.9h0.2c4.4,0,7.9,3.5,7.9,7.9v5c0,1.2-1,2.2-2.2,2.2H35.6L39.5,257z"/>
			</g>
		</g>
		<g>
			<g>
				<path class="st90" d="M136.8,274.7l3.5,23.9l-6.7-7.7C130.9,287.5,126.7,274.7,136.8,274.7z"/>
			</g>
			<g>
				<path class="st90" d="M134.9,275.4c1.6-3,9.8-4.1,14.4-1.2c6.5,4.1,5.8,11.5,2.8,17.2c0,0-7.1,5-7.1,5L134.9,275.4z"/>
			</g>
			<g>
				<path class="st57" d="M147.7,298L147.7,298l0-1.6h-9.8v1.6c0,1.6,0,3.3-1.4,4.4v15.7h6.3c0,0,3.3,0,6.3,0v-15.7
					C147.7,301.3,147.7,299.6,147.7,298z"/>
			</g>
			<g>
				<path class="st103" d="M153.3,303.4H153c-2.7,0-4-0.7-4.7-1.7l-5.6,3.3l-5.6-3.3c-0.7,1-2,1.7-4.7,1.7h-0.2
					c-4.3,0-7.7,3.5-7.7,7.7v4.9c0,1.2,0.9,2.1,2.1,2.1h11.9h2.5h3.5h3.9h10.5c1.2,0,2.1-0.9,2.1-2.1v-4.9
					C161,306.8,157.5,303.4,153.3,303.4z"/>
			</g>
			<g>
				<path class="st58" d="M147.7,304.8c0.3,0.1-0.2-0.7,0-0.7l1.4-1.7c-1.4-1.1-1.4-2.8-1.4-4.4h0v-1.6h-7.7l-2.1,0.7
					C139.2,298.6,142.8,303.5,147.7,304.8z"/>
			</g>
			<g>
				<path class="st59" d="M152.6,287.2c0,5.6-5.6,12.6-9.8,12.6s-9.8-7-9.8-12.6s4.4-7.7,9.8-7.7S152.6,281.6,152.6,287.2z"/>
			</g>
			<g>
				<path class="st90" d="M139.3,280.8c0,0-5.3,1.6-6.3,7.4c-0.2,1.3-2.1-4.6-2.1-4.6s1.1-4.7,1.3-4.8c0.2-0.1,5-2,5-2l1.4,1.2
					L139.3,280.8z"/>
			</g>
			<g>
				<path class="st68" d="M142.8,305l-5.6-3.7l-1.6,1.6l3.7,5.4c0.4,0.6,1.1,0.3,1.4,0L142.8,305z"/>
			</g>
			<g>
				<path class="st68" d="M142.8,305l5.6-3.7l1.6,1.6l-3.7,5.4c-0.4,0.6-1.1,0.3-1.4,0L142.8,305z"/>
			</g>
			<g>
				<path class="st59" d="M152,288.1c1.1-0.3,1.7,0.3,1.7,1.4c0,1.5-1.4,5-2.9,2.8C149.3,290,152,288.1,152,288.1z"/>
			</g>
			<g>
				<ellipse class="st90" cx="141.9" cy="273.4" rx="5.5" ry="4.3"/>
			</g>
			<g>
				<path class="st61" d="M139.1,292.7c-1.6,0-2.8-1.3-2.8-2.8c0-1.6,1.3-2.8,2.8-2.8s2.8,1.3,2.8,2.8
					C141.9,291.4,140.6,292.7,139.1,292.7z M139.1,287.7c-1.2,0-2.1,1-2.1,2.1c0,1.2,1,2.1,2.1,2.1c1.2,0,2.1-1,2.1-2.1
					C141.2,288.6,140.3,287.7,139.1,287.7z"/>
			</g>
			<g>
				<path class="st61" d="M146.4,292.7c-1.6,0-2.8-1.3-2.8-2.8c0-1.6,1.3-2.8,2.8-2.8c1.6,0,2.8,1.3,2.8,2.8
					C149.3,291.4,148,292.7,146.4,292.7z M146.4,287.7c-1.2,0-2.1,1-2.1,2.1c0,1.2,1,2.1,2.1,2.1c1.2,0,2.1-1,2.1-2.1
					C148.6,288.6,147.6,287.7,146.4,287.7z"/>
			</g>
			<g>
				<path class="st61" d="M144.3,289.4h-0.7c0-0.5-0.4-0.9-0.9-0.9s-0.9,0.4-0.9,0.9h-0.7c0-0.9,0.7-1.6,1.6-1.6
					C143.6,287.8,144.3,288.5,144.3,289.4z"/>
			</g>
			<g>
				<path class="st61" d="M137,288.7h-4.3c-0.2,0-0.4-0.2-0.4-0.4c0-0.2,0.2-0.4,0.4-0.4h4.3c0.2,0,0.4,0.2,0.4,0.4
					C137.4,288.6,137.2,288.7,137,288.7z"/>
			</g>
			<g>
				<path class="st61" d="M152,288.7h-3.6c-0.2,0-0.4-0.2-0.4-0.4c0-0.2,0.2-0.4,0.4-0.4h3.6c0.2,0,0.4,0.2,0.4,0.4
					C152.4,288.6,152.2,288.7,152,288.7z"/>
			</g>
			<g>
				<path class="st104" d="M141.4,276c0.4,0,1.7,0.4,2.7,0.8l0.1-0.1c0,0,0.1,0.1,0.4,0.3c0.6,0.2,1,0.4,1,0.4l-0.2,0.3
					c2.7,2.1,7.8,3.3,7.8,7.3c0,4.7-3.3,8.2-3.3,8.2c2.2-8.6-2.7-10.2-7.9-11.2c-2-0.4-3.3-1.3-3.5-2.4
					C138.4,278.4,140.7,276,141.4,276z"/>
			</g>
			<g>
				<path class="st59" d="M133.5,288.1c-1-0.5-1.7,0.3-1.7,1.4c0,1.5,1.4,5,2.9,2.8C136.2,290,134.5,288.5,133.5,288.1z"/>
			</g>
		</g>
		<g>
			<g>
				<path class="st57" d="M241.4,257.4c1.6-1,1.4-4,1.4-4.7h12.5c0,0.7-0.2,3.7,1.4,4.7l-7.6,8.5L241.4,257.4z"/>
			</g>
			<g>
				<path class="st58" d="M253.9,260.4l2.7-3c-1.6-1-1.4-4-1.4-4.7h-12.5C243.6,255.3,249.6,259.7,253.9,260.4z"/>
			</g>
			<g>
				<path class="st59" d="M258.7,243.7c0,5.6-3.2,12.5-9.7,12.5c-6.5,0-9.7-6.9-9.7-12.5c0-5.6,4.4-7.6,9.7-7.6
					S258.7,238.2,258.7,243.7z"/>
			</g>
			<g>
				<path class="st68" d="M258.9,257.3L258,257l-6.7,16.8h-4.4l-6.9-17l0.6-0.1c2.3,1.8,5.7,4.3,8.4,4.3c2.8,0,6.1-2.4,8.4-4.2
					L258.9,257.3z"/>
			</g>
			<g>
				<path class="st61" d="M244.8,231.9c-0.7,0-0.7,0-1.4,0c-2.7,0-4.9,2.2-4.9,4.9c0,2.5,0.7,6.9,0.7,6.9s0.8-3.5,4.2-4.9
					C245.5,238,244.8,231.9,244.8,231.9z"/>
			</g>
			<g>
				<path class="st61" d="M244.1,231.9c2.8-4.3,10-0.7,14.6-0.7c0.7,1,1.2,8.5,0,12.5l-2.1-3.5c0,0-6.4,2.3-13.2-1.4"/>
			</g>
			<g>
				<path class="st69" d="M249,261.1l-3.5,3.5l-5.5-7.6l1.6-1.6c0.3-0.3,0.7-0.3,1,0L249,261.1z"/>
			</g>
			<g>
				<path class="st69" d="M258,256.9l-5.6,7.6l-1.8-1.8l-1.7-1.7l0.3-0.3l6.2-5.5c0.3-0.3,0.7-0.2,0.9,0L258,256.9z"/>
			</g>
			<g>
				<path class="st61" d="M246.9,273.8h-9.3l0,0H233c-1.2,0-2.4-0.5-2.4-1.6v-6.7c0-3.1,2.5-6.3,5.4-7.2l0.3-0.1l1.4-0.4l2.1-0.9
					L246.9,273.8z"/>
				<polygon class="st61" points="237.9,257.7 236.5,258.1 236.5,258.1 				"/>
			</g>
			<g>
				<path class="st61" d="M266.7,265.5v6.7c0,1.2-0.6,1.6-1.7,1.6h-13.7L258,257l0.9,0.3l1.2,0.4l1.4,0.5l0.1,0
					C264.5,259.1,266.7,262.4,266.7,265.5z"/>
			</g>
			<g>
				<path class="st61" d="M250.7,262.7v0.4c0,0.4-0.6,0.6-1,0.6h-1.4c-0.4,0-0.6-0.3-0.6-0.6v-0.7l1.3-1.6h0.3l-0.3,0.3L250.7,262.7
					z"/>
			</g>
			<g>
				<path class="st59" d="M239.6,245.1c-1-0.3-1.7,0.3-1.7,1.4c0,1.4,1.4,5,2.9,2.8C242.2,247,239.6,245.1,239.6,245.1z"/>
			</g>
			<g>
				<path class="st59" d="M258.2,245.1c1.1-0.3,1.9,0.3,1.9,1.4c0,1.4-1.5,5-3.1,2.8C255.4,247,258.2,245.1,258.2,245.1z"/>
			</g>
			<polyline class="st61" points="248.7,263.8 247.6,273.8 250.7,273.8 249.7,263.8 			"/>
		</g>
	</g>
</g>
</svg>
