<?xml version="1.0" encoding="utf-8"?>
<!-- Generator: Adobe Illustrator 19.1.0, SVG Export Plug-In . SVG Version: 6.00 Build 0)  -->
<svg version="1.1" id="Layer_1" xmlns="http://www.w3.org/2000/svg" xmlns:xlink="http://www.w3.org/1999/xlink" x="0px" y="0px"
	 viewBox="590 -158.4 1280.2 417.4" style="enable-background:new 590 -158.4 1280.2 417.4;" xml:space="preserve">
<style type="text/css">
	.st0{fill:#F1AC71;}
	.st1{fill:#ECA373;}
	.st2{fill:#E39577;}
	.st3{fill:#C77881;}
</style>
<g id="Ejemplo_1">
</g>
<g id="Landing_Page">
</g>
<g id="Elements">
</g>
<g id="CallAction_section_city">
</g>
<g id="Slack_section_city">
	<polygon id="Buildings_4_1_" class="st0" points="1764.8,237.8 1764.8,116.7 1735.3,116.7 1735.3,13.6 1661.7,13.6 1661.7,237.8 
		1628.8,237.8 1628.8,116.7 1570.7,116.7 1570.7,65.2 1533.9,65.2 1533.9,79.9 1518.3,79.9 1518.3,86.3 1499.8,86.3 1499.8,97.4 
		1489.4,97.4 1489.4,237.8 1477.7,237.8 1477.7,65.2 1423.4,65.2 1423.4,237.8 1415.4,237.8 1415.4,145.2 1345.4,145.2 
		1345.4,237.8 1341.7,237.8 1341.7,-4.8 1271.7,-4.8 1271.7,237.8 1252.4,237.8 1252.4,57.3 1182.5,15 1182.5,133.3 1163.2,133.3 
		1163.2,107.5 1117.5,107.5 1117.5,237.8 1024.8,237.8 1024.8,36.2 951.9,36.2 951.9,237.8 873.2,237.8 873.2,-36.1 800.3,-36.1 
		800.3,111.2 777,111.2 777,76.2 704.1,76.2 704.1,145.2 680.7,145.2 680.7,237.8 660,237.8 660,65.2 590,65.2 590,381.3 
		1870.2,381.3 1870.2,237.8 	"/>
	<path id="Buildings_3_1_" class="st1" d="M600,125.5h-10v255.9h1280.2V120.3h-37v168.3h-6.9V174.7h-37.8v113.8h-61V108.4h-45.4
		v180.1h-9.6v-217c0-12.1-9.4-22.1-21.3-22.8L1649.8-9l-1.4,57.7c-11.9,0.7-21.3,10.6-21.3,22.8v217H1568V126.4h-45.4v162.1h-37.1
		V161.1h-51.8v127.4h-29.3V66.8h-19.6l-1.7-69.3l-1.7,69.3h-26.1v44.6H1323l-16-27.9l-16,27.9h-3.2V85.1h-45.7v203.4h-8.9v-91.3h-21
		v-27.7h-34.9v-19.2H1140v31.9h-16.8V23.7h-12.1c-3.8-9.6-12.7-16.6-23.4-17.4l-1.8-74.7l-1.8,74.7c-11,0.6-20.3,7.6-24.1,17.5h-9.5
		v264.8h-8.9V125.5h-43.3v163.1h-14V125.5h-30.6l-30-52.3l-30,52.3h-29.6v163.1h-7v-83.4h-47.5v83.4h-10.3v-66h-23.8v66h-21.4v-112
		h-35.9v112h-2.3v-73.7h-23.8v-9.8h-23.5v83.4h-7V163h-33.5v-37.5h-24.2"/>
	<polygon id="Buildings_2_1_" class="st2" points="1798.9,153.8 1798.9,215.7 1776,215.7 1776,326.7 1731.9,326.7 1731.9,258.6 
		1689.2,258.6 1689.2,287 1675.5,287 1675.5,355.2 1622.3,355.2 1622.3,248.4 1548.7,248.4 1548.7,223.2 1467.3,223.2 1467.3,255.4 
		1401.4,255.4 1401.4,355.2 1330.7,355.2 1330.7,244.1 1282,244.1 1282,355.2 1256,355.2 1256,199.1 1235.3,199.1 1235.3,154.6 
		1186.6,154.6 1186.6,355.2 1167,355.2 1167,208.7 1090.7,208.7 1090.7,355.2 1074.3,355.2 1074.3,229.1 998,229.1 998,355.2 
		953.9,355.2 953.9,222.1 869.9,222.1 869.9,246.3 791.5,246.3 791.5,355.2 728.2,355.2 728.2,255.9 644.3,255.9 644.3,355.2 
		634.5,355.2 634.5,218.4 590,218.4 590,381.3 1870.2,381.3 1870.2,153.8 	"/>
	<polygon id="Buildings_1_1_" class="st3" points="1822,281.4 1822,347.1 1792.7,347.1 1792.7,313 1726,313 1726,337.2 
		1659.2,337.2 1659.2,359.2 1606.2,359.2 1606.2,286.1 1559.2,286.1 1559.2,331.4 1535.8,331.4 1535.8,359.2 1522.3,359.2 
		1522.3,309.3 1438.4,309.3 1438.4,360.1 1395.4,360.1 1395.4,309.3 1361,309.3 1361,359.2 1345,359.2 1345,341 1310.6,341 
		1310.6,359.2 1290.6,359.2 1290.6,309.3 1227,309.3 1227,359.2 1216.8,359.2 1216.8,309.3 1182.5,309.3 1182.5,359.2 1174.8,359.2 
		1174.8,243.5 1140.4,243.5 1140.4,360.1 1099.4,360.1 1099.4,281.4 1050.4,281.4 1050.4,300.6 1001.3,300.6 1001.3,328.5 
		970.4,328.5 970.4,286.1 917.8,286.1 917.8,275.7 834.6,275.7 834.6,286.1 774.2,286.1 774.2,313 750.7,313 750.7,297.2 
		712.6,297.2 712.6,281.4 590,281.4 590,381.3 1870.2,381.3 1870.2,281.4 	"/>
</g>
<g id="City">
</g>
</svg>
