<svg id="Layer_1" xmlns="http://www.w3.org/2000/svg" viewBox="590 -158.4 1280.2 417.4"><style>.st0{fill:#f1ac71}.st1{fill:#eca373}.st2{fill:#e39577}.st3{fill:#c77881}</style><g id="Slack_section_city"><path id="Buildings_4_1_" class="st0" d="M1764.8 237.8V116.7h-29.5V13.6h-73.6v224.2h-32.9V116.7h-58.1V65.2h-36.8v14.7h-15.6v6.4h-18.5v11.1h-10.4v140.4h-11.7V65.2h-54.3v172.6h-8v-92.6h-70v92.6h-3.7V-4.8h-70v242.6h-19.3V57.3L1182.5 15v118.3h-19.3v-25.8h-45.7v130.3h-92.7V36.2h-72.9v201.6h-78.7V-36.1h-72.9v147.3H777v-35h-72.9v69h-23.4v92.6H660V65.2h-70v316.1h1280.2V237.8z"/><path id="Buildings_3_1_" class="st1" d="M600 125.5h-10v255.9h1280.2V120.3h-37v168.3h-6.9V174.7h-37.8v113.8h-61V108.4h-45.4v180.1h-9.6v-217c0-12.1-9.4-22.1-21.3-22.8L1649.8-9l-1.4 57.7c-11.9.7-21.3 10.6-21.3 22.8v217H1568V126.4h-45.4v162.1h-37.1V161.1h-51.8v127.4h-29.3V66.8h-19.6l-1.7-69.3-1.7 69.3h-26.1v44.6H1323l-16-27.9-16 27.9h-3.2V85.1h-45.7v203.4h-8.9v-91.3h-21v-27.7h-34.9v-19.2H1140v31.9h-16.8V23.7h-12.1c-3.8-9.6-12.7-16.6-23.4-17.4l-1.8-74.7-1.8 74.7c-11 .6-20.3 7.6-24.1 17.5h-9.5v264.8h-8.9V125.5h-43.3v163.1h-14V125.5h-30.6l-30-52.3-30 52.3h-29.6v163.1h-7v-83.4h-47.5v83.4h-10.3v-66h-23.8v66h-21.4v-112h-35.9v112h-2.3v-73.7h-23.8v-9.8h-23.5v83.4h-7V163h-33.5v-37.5h-24.2"/><path id="Buildings_2_1_" class="st2" d="M1798.9 153.8v61.9H1776v111h-44.1v-68.1h-42.7V287h-13.7v68.2h-53.2V248.4h-73.6v-25.2h-81.4v32.2h-65.9v99.8h-70.7V244.1H1282v111.1h-26V199.1h-20.7v-44.5h-48.7v200.6H1167V208.7h-76.3v146.5h-16.4V229.1H998v126.1h-44.1V222.1h-84v24.2h-78.4v108.9h-63.3v-99.3h-83.9v99.3h-9.8V218.4H590v162.9h1280.2V153.8z"/><path id="Buildings_1_1_" class="st3" d="M1822 281.4v65.7h-29.3V313H1726v24.2h-66.8v22h-53v-73.1h-47v45.3h-23.4v27.8h-13.5v-49.9h-83.9v50.8h-43v-50.8H1361v49.9h-16V341h-34.4v18.2h-20v-49.9H1227v49.9h-10.2v-49.9h-34.3v49.9h-7.7V243.5h-34.4v116.6h-41v-78.7h-49v19.2h-49.1v27.9h-30.9v-42.4h-52.6v-10.4h-83.2v10.4h-60.4V313h-23.5v-15.8h-38.1v-15.8H590v99.9h1280.2v-99.9z"/></g></svg>