<?xml version="1.0" encoding="utf-8"?>
<!-- Generator: Adobe Illustrator 19.2.1, SVG Export Plug-In . SVG Version: 6.00 Build 0)  -->
<svg version="1.1" xmlns="http://www.w3.org/2000/svg" xmlns:xlink="http://www.w3.org/1999/xlink" x="0px" y="0px"
	 viewBox="0 0 290.4 245.9" style="enable-background:new 0 0 290.4 245.9;" xml:space="preserve">
<style type="text/css">
	.st0{opacity:0.49;fill:url(#SVGID_3_);}
	.st1{fill:#FFFFFF;}
	.st2{fill:#262626;}
	.st3{fill:#EAEDF4;}
	.st4{fill:#ADE9E9;}
	.st5{fill:#20AD8A;}
	.st6{fill:#FFC06C;}
	.st7{fill:#3F4D55;}
	.st8{fill:#5D5D5D;}
	.st9{fill:#B7B7B7;}
	.st10{fill:#ADADAD;}
	.st11{fill:#B2B2B2;}
	.st12{fill:#808080;}
	.st13{fill:#4D4D4D;}
	.st14{fill:#333333;}
	.st15{fill:#EFCE4A;}
	.st16{fill:#ED8A19;}
	.st17{fill:#EBBA16;}
	.st18{fill:#C7CAC7;}
	.st19{fill:#E7ECED;}
	.st20{opacity:0.7;clip-path:url(#SVGID_5_);}
	.st21{opacity:0.12;fill:#FFC06C;}
	.st22{opacity:0.16;fill:#FFC06C;}
	.st23{opacity:0.22;fill:#FFC06C;}
	.st24{opacity:0.3;fill:#FFC06C;}
	.st25{clip-path:url(#SVGID_7_);}
	.st26{opacity:0.15;fill:#20AD8A;}
	.st27{opacity:0.23;fill:#20AD8A;}
	.st28{opacity:0.3;fill:#20AD8A;}
	.st29{fill:#AAAAAA;}
	.st30{fill:none;stroke:#3F4D55;stroke-miterlimit:10;}
	.st31{fill:none;stroke:#3F4D55;stroke-linecap:round;stroke-miterlimit:10;}
	.st32{fill:#F00101;}
	.st33{fill:#030303;}
	.st34{fill:#70CADB;}
	.st35{fill:#E01765;}
	.st36{fill:#E8A723;}
	.st37{fill:#3EB890;}
	.st38{fill:#CC2027;}
	.st39{fill:#361238;}
	.st40{fill:#65863A;}
	.st41{fill:#1A937D;}
	.st42{fill:#666666;}
	.st43{fill:#D5E1E8;}
	.st44{fill:#E6EEF2;}
	.st45{fill:#573D82;}
	.st46{fill:#453068;}
	.st47{fill:#3FBA91;}
	.st48{fill:#6FCBDC;}
	.st49{fill:#DCDCDC;}
	.st50{fill:#FFC585;}
	.st51{fill:#FF3E88;}
	.st52{fill:#675470;}
	.st53{fill:#4A4687;}
	.st54{fill:#F3F3F3;}
	.st55{opacity:0.5;fill:#8977A7;}
	.st56{fill:#E1E9EF;}
	.st57{fill:#FFD7A3;}
	.st58{fill:#FDC88E;}
	.st59{fill:#FFE1B2;}
	.st60{fill:#A2CDE2;}
	.st61{fill:#545465;}
	.st62{fill:#29394A;}
	.st63{fill:#B5E0F0;}
	.st64{fill:#4A698E;}
	.st65{fill:#416185;}
	.st66{fill:#395A7F;}
	.st67{fill:#FFD5AB;}
	.st68{fill:#E4EBF0;}
	.st69{fill:#D0D7DC;}
	.st70{fill:#527992;}
	.st71{fill:#475F7F;}
	.st72{fill:#D3E5BD;}
	.st73{fill:#827873;}
	.st74{fill:#E0DDDC;}
	.st75{fill:#A19996;}
	.st76{fill:#33CCFF;}
	.st77{fill:#D8DCE1;}
	.st78{fill:#DB4026;}
	.st79{fill:#5C546A;}
	.st80{fill:#E8D21D;}
	.st81{fill:#4AECAF;}
	.st82{fill:#80362D;}
	.st83{fill:#FFB980;}
	.st84{fill:#F8AB6B;}
	.st85{fill:#BF9B5F;}
	.st86{fill:#83603F;}
	.st87{fill:#B0E070;}
	.st88{fill:#7E5C62;}
	.st89{fill:#A27082;}
	.st90{fill:#7E5449;}
	.st91{fill:#FFDA44;}
	.st92{fill:#FFCD00;}
	.st93{fill:#B1664F;}
	.st94{fill:#FFDAA9;}
	.st95{fill:#5FBEA0;}
	.st96{fill:none;stroke:#FFFFFF;stroke-width:2;stroke-linecap:round;stroke-miterlimit:10;}
	.st97{fill:#188268;}
	.st98{fill:#D2EFE8;}
	.st99{fill:#79CEB9;}
	.st100{fill:#EBEBED;}
	.st101{fill:#474F49;}
	.st102{fill:#DAABA9;}
	.st103{fill:#757EAF;}
	.st104{fill:#EDCC70;}
	.st105{fill:#B9BBC1;}
	.st106{fill:#53DCFF;}
	.st107{fill:#FCEE21;}
	.st108{fill:#8B8996;}
	.st109{fill:#686777;}
	.st110{fill:#67A2A9;}
	.st111{fill:#FF93B5;}
	.st112{fill:#FF93B5;stroke:#FFFFFF;stroke-width:2;stroke-linecap:round;stroke-miterlimit:10;}
	.st113{fill:#F3D960;}
	.st114{fill:#F3D960;stroke:#FFFFFF;stroke-width:2;stroke-linecap:round;stroke-miterlimit:10;}
	.st115{fill:#7BD766;}
	.st116{fill:#8166A4;}
	.st117{fill:#F67D69;}
	.st118{fill:#CCCCCC;}
	.st119{fill:#E6E6E6;}
	.st120{fill:#B3B3B3;}
	.st121{fill:none;stroke:#DA6F67;stroke-linecap:round;stroke-miterlimit:10;}
	.st122{fill:#BC679B;}
	.st123{fill:#09614B;}
	.st124{fill:#50748A;}
	.st125{fill:#E2E4FF;}
	.st126{fill:#A7795E;}
	.st127{fill:#ADB4BA;}
	.st128{fill:#4EA0CA;}
	.st129{fill:#394959;}
	.st130{fill:#E05040;}
	.st131{fill:#B4A87D;}
	.st132{fill:#7B7256;}
	.st133{fill:#FCC261;}
	.st134{fill:#111820;}
	.st135{fill:#DFDED6;}
	.st136{fill:#FF6953;}
	.st137{fill:#B06E53;}
	.st138{fill:#728EA0;}
	.st139{fill:#E5E4E3;}
	.st140{fill:#F7F3A8;}
	.st141{fill:#82827F;}
	.st142{fill:#353535;}
	.st143{fill:#A0B7D1;}
	.st144{fill:#ECEC66;}
	.st145{fill:#90BA72;}
	.st146{fill:#E7F2FC;}
	
		.st147{fill:none;stroke:#C6C6C6;stroke-width:2;stroke-linecap:round;stroke-linejoin:round;stroke-miterlimit:10;stroke-dasharray:5,10,5,10,5,10;}
	.st148{fill:#73A950;}
	.st149{fill:#FFA168;}
	.st150{fill:#2D688D;}
</style>
<g id="Capa_2">
</g>
<g id="Capa_3">
	<g>
		<rect x="98" y="194" class="st42" width="94.3" height="43.7"/>
		<g>
			<path class="st14" d="M290.4,196.1c0,3-2.5,5.5-5.5,5.5H5.5c-3,0-5.5-2.5-5.5-5.5V5.5C0,2.5,2.5,0,5.5,0h279.4
				c3,0,5.5,2.5,5.5,5.5V196.1z"/>
			<rect x="15" y="13" class="st43" width="260.4" height="175.6"/>
			<polygon class="st44" points="275.4,188.6 15,188.6 20.3,18.3 270.1,18.3 			"/>
		</g>
		<rect x="15" y="18.3" class="st45" width="66.3" height="170.3"/>
		<polygon class="st14" points="245,245.9 45.4,245.9 50.7,234.8 239.7,234.8 		"/>
		<rect x="15" y="18.3" class="st46" width="17" height="170.3"/>
		<path class="st47" d="M103.2,41.8h-7.9c-2.2,0-4.1-1.8-4.1-4.1v-7.9c0-2.2,1.8-4.1,4.1-4.1h7.9c2.2,0,4.1,1.8,4.1,4.1v7.9
			C107.2,40,105.4,41.8,103.2,41.8z"/>
		<path class="st47" d="M25.8,30.6h-5.1c-0.8,0-1.5-0.7-1.5-1.5V24c0-0.8,0.7-1.5,1.5-1.5h5.1c0.8,0,1.5,0.7,1.5,1.5v5.1
			C27.3,29.9,26.6,30.6,25.8,30.6z"/>
		<path class="st48" d="M218.8,93.7h-8.8c-0.8,0-1.5-0.7-1.5-1.5v-8.8c0-0.8,0.7-1.5,1.5-1.5h8.8c0.8,0,1.5,0.7,1.5,1.5v8.8
			C220.3,93,219.6,93.7,218.8,93.7z"/>
		<path class="st49" d="M240.4,27.3h-31.9c-1,0-1.9-0.9-1.9-1.9v-2.7c0-1,0.9-1.9,1.9-1.9h31.9c1,0,1.9,0.9,1.9,1.9v2.7
			C242.3,26.5,241.4,27.3,240.4,27.3z M208.5,22.3c-0.2,0-0.4,0.2-0.4,0.4v2.7c0,0.2,0.2,0.4,0.4,0.4h31.9c0.2,0,0.4-0.2,0.4-0.4
			v-2.7c0-0.2-0.2-0.4-0.4-0.4H208.5z"/>
		<path class="st50" d="M218.8,114.3h-8.8c-0.8,0-1.5-0.7-1.5-1.5V104c0-0.8,0.7-1.5,1.5-1.5h8.8c0.8,0,1.5,0.7,1.5,1.5v8.8
			C220.3,113.6,219.6,114.3,218.8,114.3z"/>
		<path class="st51" d="M218.8,134.8l-8.8,0c-0.8,0-1.5-0.7-1.5-1.5v-8.8c0-0.8,0.7-1.5,1.5-1.5h8.8c0.8,0,1.5,0.7,1.5,1.5v8.8
			C220.3,134.1,219.6,134.8,218.8,134.8z"/>
		<path class="st52" d="M25.7,47.3h-5.1c-0.8,0-1.5-0.7-1.5-1.5v-5.1c0-0.8,0.7-1.5,1.5-1.5h5.1c0.8,0,1.5,0.7,1.5,1.5v5.1
			C27.3,46.7,26.6,47.3,25.7,47.3z"/>
		<path class="st53" d="M25.7,64.1h-5.1c-0.8,0-1.5-0.7-1.5-1.5v-5.1c0-0.8,0.7-1.5,1.5-1.5h5.1c0.8,0,1.5,0.7,1.5,1.5v5.1
			C27.3,63.4,26.6,64.1,25.7,64.1z"/>
		<path class="st48" d="M103.2,160.3h-7.9c-2.2,0-4.1-1.8-4.1-4.1v-7.9c0-2.2,1.8-4.1,4.1-4.1h7.9c2.2,0,4.1,1.8,4.1,4.1v7.9
			C107.2,158.5,105.4,160.3,103.2,160.3z"/>
		<path class="st54" d="M187.7,130.6h-69.1c-2.2,0-4.1-1.8-4.1-4.1V73.6c0-2.2,1.8-4.1,4.1-4.1h69.1c2.2,0,4.1,1.8,4.1,4.1v52.9
			C191.8,128.7,189.9,130.6,187.7,130.6z"/>
		<path class="st49" d="M144.8,28.6h-30.2c-0.4,0-0.8-0.3-0.8-0.8c0-0.4,0.3-0.8,0.8-0.8h30.2c0.4,0,0.8,0.3,0.8,0.8
			C145.5,28.3,145.2,28.6,144.8,28.6z"/>
		<path class="st1" d="M66.4,28.2H36.2c-0.2,0-0.4-0.2-0.4-0.4s0.2-0.4,0.4-0.4h30.2c0.2,0,0.4,0.2,0.4,0.4S66.7,28.2,66.4,28.2z"/>
		<path class="st1" d="M62.7,47.5H36.2c-0.2,0-0.4-0.2-0.4-0.4s0.2-0.4,0.4-0.4h26.5c0.2,0,0.4,0.2,0.4,0.4S62.9,47.5,62.7,47.5z"/>
		<path class="st1" d="M54.2,37.5h-18c-0.2,0-0.4-0.2-0.4-0.4c0-0.2,0.2-0.4,0.4-0.4h18c0.2,0,0.4,0.2,0.4,0.4
			C54.6,37.3,54.4,37.5,54.2,37.5z"/>
		<path class="st55" d="M62.7,58.2H36.2c-0.2,0-0.4-0.2-0.4-0.4c0-0.2,0.2-0.4,0.4-0.4h26.5c0.2,0,0.4,0.2,0.4,0.4
			C63.1,58,62.9,58.2,62.7,58.2z"/>
		<path class="st55" d="M56.4,78.5H36.2c-0.2,0-0.4-0.2-0.4-0.4s0.2-0.4,0.4-0.4h20.2c0.2,0,0.4,0.2,0.4,0.4S56.6,78.5,56.4,78.5z"
			/>
		<path class="st55" d="M52,67.5H36.2c-0.2,0-0.4-0.2-0.4-0.4c0-0.2,0.2-0.4,0.4-0.4H52c0.2,0,0.4,0.2,0.4,0.4
			C52.3,67.3,52.2,67.5,52,67.5z"/>
		<path class="st49" d="M192.8,34.6h-78.3c-0.4,0-0.8-0.3-0.8-0.8c0-0.4,0.3-0.8,0.8-0.8h78.3c0.4,0,0.8,0.3,0.8,0.8
			C193.6,34.2,193.3,34.6,192.8,34.6z"/>
		<path class="st49" d="M192.8,48.8h-78.3c-0.4,0-0.8-0.3-0.8-0.8c0-0.4,0.3-0.8,0.8-0.8h78.3c0.4,0,0.8,0.3,0.8,0.8
			C193.6,48.5,193.3,48.8,192.8,48.8z"/>
		<path class="st49" d="M192.8,55.8h-78.3c-0.4,0-0.8-0.3-0.8-0.8s0.3-0.8,0.8-0.8h78.3c0.4,0,0.8,0.3,0.8,0.8
			S193.3,55.8,192.8,55.8z"/>
		<path class="st49" d="M184.5,63h-70c-0.4,0-0.8-0.3-0.8-0.8c0-0.4,0.3-0.8,0.8-0.8h70c0.4,0,0.8,0.3,0.8,0.8
			C185.3,62.7,184.9,63,184.5,63z"/>
		<path class="st49" d="M187.7,41.6h-73.2c-0.4,0-0.8-0.3-0.8-0.8s0.3-0.8,0.8-0.8h73.2c0.4,0,0.8,0.3,0.8,0.8
			S188.1,41.6,187.7,41.6z"/>
		<path class="st49" d="M144.8,146.9h-30.2c-0.4,0-0.8-0.3-0.8-0.8c0-0.4,0.3-0.8,0.8-0.8h30.2c0.4,0,0.8,0.3,0.8,0.8
			C145.5,146.5,145.2,146.9,144.8,146.9z"/>
		<path class="st49" d="M192.8,152.9h-78.3c-0.4,0-0.8-0.3-0.8-0.8c0-0.4,0.3-0.8,0.8-0.8h78.3c0.4,0,0.8,0.3,0.8,0.8
			C193.6,152.5,193.3,152.9,192.8,152.9z"/>
		<path class="st49" d="M192.8,167.1h-78.3c-0.4,0-0.8-0.3-0.8-0.8s0.3-0.8,0.8-0.8h78.3c0.4,0,0.8,0.3,0.8,0.8
			S193.3,167.1,192.8,167.1z"/>
		<path class="st49" d="M187.7,159.9h-73.2c-0.4,0-0.8-0.3-0.8-0.8s0.3-0.8,0.8-0.8h73.2c0.4,0,0.8,0.3,0.8,0.8
			S188.1,159.9,187.7,159.9z"/>
		<path class="st49" d="M196,182.3H90.1c-1.1,0-2-0.9-2-2v-5.9c0-1.1,0.9-2,2-2H196c1.1,0,2,0.9,2,2v5.9
			C198,181.4,197.1,182.3,196,182.3z M90.1,173.8c-0.3,0-0.5,0.2-0.5,0.5v5.9c0,0.3,0.2,0.5,0.5,0.5H196c0.3,0,0.5-0.2,0.5-0.5v-5.9
			c0-0.3-0.2-0.5-0.5-0.5H90.1z"/>
		<path class="st49" d="M268.4,182.3H211c-1.2,0-2.1-1-2.1-2.1v-5.7c0-1.2,1-2.1,2.1-2.1h57.4c1.2,0,2.1,1,2.1,2.1v5.7
			C270.5,181.4,269.6,182.3,268.4,182.3z M211,173.8c-0.3,0-0.6,0.3-0.6,0.6v5.7c0,0.3,0.3,0.6,0.6,0.6h57.4c0.3,0,0.6-0.3,0.6-0.6
			v-5.7c0-0.3-0.3-0.6-0.6-0.6H211z"/>
		<circle class="st51" cx="75.5" cy="27.8" r="2.2"/>
		<path class="st49" d="M247.2,27.3c-1.8,0-3.3-1.5-3.3-3.3s1.5-3.3,3.3-3.3c1.8,0,3.3,1.5,3.3,3.3S249,27.3,247.2,27.3z
			 M247.2,22.3c-1,0-1.7,0.8-1.7,1.7c0,1,0.8,1.7,1.7,1.7c1,0,1.7-0.8,1.7-1.7C248.9,23.1,248.1,22.3,247.2,22.3z"/>
		<path class="st49" d="M256.8,27.3c-1.8,0-3.3-1.5-3.3-3.3s1.5-3.3,3.3-3.3c1.8,0,3.3,1.5,3.3,3.3S258.6,27.3,256.8,27.3z
			 M256.8,22.3c-1,0-1.7,0.8-1.7,1.7c0,1,0.8,1.7,1.7,1.7c1,0,1.7-0.8,1.7-1.7C258.5,23.1,257.7,22.3,256.8,22.3z"/>
		<path class="st49" d="M265.3,27.3c-1.8,0-3.3-1.5-3.3-3.3s1.5-3.3,3.3-3.3c1.8,0,3.3,1.5,3.3,3.3S267.1,27.3,265.3,27.3z
			 M265.3,22.3c-1,0-1.7,0.8-1.7,1.7c0,1,0.8,1.7,1.7,1.7c1,0,1.7-0.8,1.7-1.7C267,23.1,266.2,22.3,265.3,22.3z"/>
		<path class="st49" d="M265.8,84.5h-41.9c-0.4,0-0.8-0.3-0.8-0.8c0-0.4,0.3-0.8,0.8-0.8h41.9c0.4,0,0.8,0.3,0.8,0.8
			C266.5,84.1,266.2,84.5,265.8,84.5z"/>
		<path class="st49" d="M246.1,88.5h-22.2c-0.4,0-0.8-0.3-0.8-0.8c0-0.4,0.3-0.8,0.8-0.8h22.2c0.4,0,0.8,0.3,0.8,0.8
			C246.9,88.2,246.5,88.5,246.1,88.5z"/>
		<path class="st49" d="M256.5,92.7h-32.6c-0.4,0-0.8-0.3-0.8-0.8s0.3-0.8,0.8-0.8h32.6c0.4,0,0.8,0.3,0.8,0.8
			S256.9,92.7,256.5,92.7z"/>
		<path class="st49" d="M262.6,104.6h-38.7c-0.4,0-0.8-0.3-0.8-0.8c0-0.4,0.3-0.8,0.8-0.8h38.7c0.4,0,0.8,0.3,0.8,0.8
			C263.4,104.2,263,104.6,262.6,104.6z"/>
		<path class="st49" d="M247.3,109.2h-23.4c-0.4,0-0.8-0.3-0.8-0.8c0-0.4,0.3-0.8,0.8-0.8h23.4c0.4,0,0.8,0.3,0.8,0.8
			C248,108.8,247.7,109.2,247.3,109.2z"/>
		<path class="st49" d="M257.3,113.5h-33.4c-0.4,0-0.8-0.3-0.8-0.8c0-0.4,0.3-0.8,0.8-0.8h33.4c0.4,0,0.8,0.3,0.8,0.8
			C258,113.1,257.7,113.5,257.3,113.5z"/>
		<path class="st49" d="M267.4,125.3h-43.5c-0.4,0-0.8-0.3-0.8-0.8c0-0.4,0.3-0.8,0.8-0.8h43.5c0.4,0,0.8,0.3,0.8,0.8
			C268.1,125,267.8,125.3,267.4,125.3z"/>
		<path class="st49" d="M253.1,129.7h-29.2c-0.4,0-0.8-0.3-0.8-0.8c0-0.4,0.3-0.8,0.8-0.8h29.2c0.4,0,0.8,0.3,0.8,0.8
			C253.9,129.3,253.5,129.7,253.1,129.7z"/>
		<path class="st49" d="M258.8,134.1h-34.9c-0.4,0-0.8-0.3-0.8-0.8c0-0.4,0.3-0.8,0.8-0.8h34.9c0.4,0,0.8,0.3,0.8,0.8
			C259.5,133.7,259.2,134.1,258.8,134.1z"/>
		<path class="st54" d="M264.5,72.4h-52.9c-1.8,0-3.3-1.5-3.3-3.3V37.1c0-1.8,1.5-3.3,3.3-3.3h52.9c1.8,0,3.3,1.5,3.3,3.3v32.1
			C267.8,71,266.3,72.4,264.5,72.4z"/>
	</g>
</g>
</svg>
