<svg id="Layer_1" xmlns="http://www.w3.org/2000/svg" viewBox="100 0 300 100"><style>.st0{fill:#fff}</style><path class="st0" d="M240.3 38.9c1.5.7 1.7 1.2.5 3.5-1.2 2.4-1.5 2.5-3.1 1.9-1.9-.8-4.4-1.4-5.9-1.4-2.6 0-4.3.9-4.3 2.3 0 4.6 14.8 2.1 14.8 12.1 0 5-4.3 8.3-10.7 8.3-3.4 0-7.5-1.1-10.4-2.6-1.4-.7-1.5-1.2-.3-3.5 1.1-2.1 1.4-2.3 3-1.7 2.5 1.1 5.5 1.9 7.6 1.9 2.4 0 3.9-1 3.9-2.4 0-4.5-15.1-2.4-15.1-12 0-5.1 4.3-8.5 10.6-8.5 3 0 6.8.9 9.4 2.1zm12-11.8v37c0 .6-.6 1.2-1.4 1.2H247c-.8 0-1.4-.6-1.4-1.2v-37c0-1.8.5-2 3.4-2 3.2 0 3.3.2 3.3 2zm27.6 20.8v15.9c0 .8-.6 1.4-1.4 1.4h-3.8c-.9 0-1.5-.6-1.4-1.5l.1-1.7c-2.1 2.3-5.1 3.5-8.1 3.5-5.8 0-9.7-3.4-9.7-8.4 0-5.3 4.4-8.9 11-8.9 2.5 0 4.8.5 6.6 1.2v-1.8c0-2.9-2.3-4.7-6.2-4.7-1.8 0-4.1.7-5.9 1.8-1.4.8-1.7.7-3.2-1.5s-1.4-2.6 0-3.5c2.7-1.7 6.4-2.9 9.7-2.9 7.6 0 12.3 4.1 12.3 11.1zM262 57.1c0 1.9 1.6 3.2 4 3.2 2.9 0 5.6-1.4 7.1-3.8V54c-1.5-.6-3.4-1-5.1-1-3.6 0-6 1.8-6 4.1zm44.3-18.2c1.4.8 1.5 1.3-.1 3.7-1.5 2.3-1.7 2.4-3.3 1.6-1.2-.6-3.1-1.2-4.6-1.2-4.9 0-8.1 3.2-8.1 8.1 0 5 3.2 8.4 8.1 8.4 1.7 0 3.8-.6 5.2-1.4 1.4-.8 1.7-.8 3.2 1.4 1.4 2 1.3 2.5.1 3.4-2.2 1.5-5.6 2.6-8.6 2.6-9 0-15-5.8-15-14.4s6-14.3 15.1-14.3c2.7 0 6 .9 8 2.1zm29.4 22.8c1.1 1.4.7 1.9-2.1 3-2.9 1-3.3 1-4.3-.3l-8.1-10.8-3.6 3.5v7c0 .6-.6 1.2-1.4 1.2h-3.9c-.8 0-1.4-.6-1.4-1.2v-37c0-1.8.5-2 3.4-2 3.3 0 3.4.2 3.4 2v21l11-10.6c1.2-1.2 1.9-1.1 4.1.4 2.4 1.5 2.6 2 1.4 3.1l-8.2 8 9.7 12.7zM183 54.8l-2.1-6.4 6.6-2.2 2.1 6.4-6.6 2.2z"/><path class="st0" d="M183 54.8l-2.1-6.4 6.6-2.2 2.1 6.4-6.6 2.2z"/><path class="st0" d="M208 43.7c-5.1-17-12.5-21-29.5-15.9s-21 12.5-15.9 29.5 12.5 21 29.5 15.9 21-12.5 15.9-29.5zm-8.6 11l-3.2 1.1 1.1 3.3c.5 1.3-.3 2.8-1.6 3.3-.3.1-.6.1-.9.1-1 0-2-.7-2.4-1.8l-1.1-3.3-6.6 2.2 1.1 3.3c.5 1.3-.3 2.8-1.6 3.3-.3.1-.6.1-.9.1-1 0-2-.7-2.4-1.8l-1.1-3.3-3.2 1.1c-.3.1-.6.1-.9.1-1 0-2-.7-2.4-1.8-.5-1.3.3-2.8 1.6-3.3l3.2-1.1-2.1-6.4-3.2 1.1c-.3.1-.6.1-.9.1-1 0-2-.7-2.4-1.8-.5-1.3.3-2.8 1.6-3.3l3.2-1.1-1.1-3.3c-.5-1.3.3-2.8 1.6-3.3s2.8.3 3.3 1.6l1.1 3.3 6.6-2.2-1.1-3.3c-.5-1.3.3-2.8 1.6-3.3s2.8.3 3.3 1.6l1.1 3.3 3.2-1.1c1.3-.5 2.8.3 3.3 1.6s-.3 2.8-1.6 3.3l-3.2 1.1 2.1 6.4 3.2-1.1c1.3-.5 2.8.3 3.3 1.6.5 1.8-.3 3.3-1.6 3.7z"/></svg>