<svg xmlns="http://www.w3.org/2000/svg" viewBox="0 0 290.4 245.9"><style>.st0{opacity:.49;fill:url(#SVGID_3_)}.st1{fill:#fff}.st2{fill:#262626}.st3{fill:#eaedf4}.st4{fill:#ade9e9}.st5{fill:#20ad8a}.st6{fill:#ffc06c}.st7{fill:#3f4d55}.st8{fill:#5d5d5d}.st9{fill:#b7b7b7}.st10{fill:#adadad}.st11{fill:#b2b2b2}.st12{fill:gray}.st13{fill:#4d4d4d}.st14{fill:#333}.st15{fill:#efce4a}.st16{fill:#ed8a19}.st17{fill:#ebba16}.st18{fill:#c7cac7}.st19{fill:#e7eced}.st20{opacity:.7;clip-path:url(#SVGID_5_)}.st21{opacity:.12;fill:#ffc06c}.st22{opacity:.16}.st22,.st23,.st24{fill:#ffc06c}.st23{opacity:.22}.st24{opacity:.3}.st25{clip-path:url(#SVGID_7_)}.st26{opacity:.15}.st26,.st27,.st28{fill:#20ad8a}.st27{opacity:.23}.st28{opacity:.3}.st29{fill:#aaa}.st30,.st31{fill:none;stroke:#3f4d55;stroke-miterlimit:10}.st31{stroke-linecap:round}.st32{fill:#f00101}.st33{fill:#030303}.st34{fill:#70cadb}.st35{fill:#e01765}.st36{fill:#e8a723}.st37{fill:#3eb890}.st38{fill:#cc2027}.st39{fill:#361238}.st40{fill:#65863a}.st41{fill:#1a937d}.st42{fill:#666}.st43{fill:#d5e1e8}.st44{fill:#e6eef2}.st45{fill:#573d82}.st46{fill:#453068}.st47{fill:#3fba91}.st48{fill:#6fcbdc}.st49{fill:#dcdcdc}.st50{fill:#ffc585}.st51{fill:#ff3e88}.st52{fill:#675470}.st53{fill:#4a4687}.st54{fill:#f3f3f3}.st55{opacity:.5;fill:#8977a7}.st56{fill:#e1e9ef}.st57{fill:#ffd7a3}.st58{fill:#fdc88e}.st59{fill:#ffe1b2}.st60{fill:#a2cde2}.st61{fill:#545465}.st62{fill:#29394a}.st63{fill:#b5e0f0}.st64{fill:#4a698e}.st65{fill:#416185}.st66{fill:#395a7f}.st67{fill:#ffd5ab}.st68{fill:#e4ebf0}.st69{fill:#d0d7dc}.st70{fill:#527992}.st71{fill:#475f7f}.st72{fill:#d3e5bd}.st73{fill:#827873}.st74{fill:#e0dddc}.st75{fill:#a19996}.st76{fill:#3cf}.st77{fill:#d8dce1}.st78{fill:#db4026}.st79{fill:#5c546a}.st80{fill:#e8d21d}.st81{fill:#4aecaf}.st82{fill:#80362d}.st83{fill:#ffb980}.st84{fill:#f8ab6b}.st85{fill:#bf9b5f}.st86{fill:#83603f}.st87{fill:#b0e070}.st88{fill:#7e5c62}.st89{fill:#a27082}.st90{fill:#7e5449}.st91{fill:#ffda44}.st92{fill:#ffcd00}.st93{fill:#b1664f}.st94{fill:#ffdaa9}.st95{fill:#5fbea0}.st96{fill:none;stroke:#fff;stroke-width:2;stroke-linecap:round;stroke-miterlimit:10}.st97{fill:#188268}.st98{fill:#d2efe8}.st99{fill:#79ceb9}.st100{fill:#ebebed}.st101{fill:#474f49}.st102{fill:#daaba9}.st103{fill:#757eaf}.st104{fill:#edcc70}.st105{fill:#b9bbc1}.st106{fill:#53dcff}.st107{fill:#fcee21}.st108{fill:#8b8996}.st109{fill:#686777}.st110{fill:#67a2a9}.st111,.st112{fill:#ff93b5}.st112{stroke:#fff;stroke-width:2;stroke-linecap:round;stroke-miterlimit:10}.st113,.st114{fill:#f3d960}.st114{stroke:#fff;stroke-width:2;stroke-linecap:round;stroke-miterlimit:10}.st115{fill:#7bd766}.st116{fill:#8166a4}.st117{fill:#f67d69}.st118{fill:#ccc}.st119{fill:#e6e6e6}.st120{fill:#b3b3b3}.st121{fill:none;stroke:#da6f67;stroke-linecap:round;stroke-miterlimit:10}.st122{fill:#bc679b}.st123{fill:#09614b}.st124{fill:#50748a}.st125{fill:#e2e4ff}.st126{fill:#a7795e}.st127{fill:#adb4ba}.st128{fill:#4ea0ca}.st129{fill:#394959}.st130{fill:#e05040}.st131{fill:#b4a87d}.st132{fill:#7b7256}.st133{fill:#fcc261}.st134{fill:#111820}.st135{fill:#dfded6}.st136{fill:#ff6953}.st137{fill:#b06e53}.st138{fill:#728ea0}.st139{fill:#e5e4e3}.st140{fill:#f7f3a8}.st141{fill:#82827f}.st142{fill:#353535}.st143{fill:#a0b7d1}.st144{fill:#ecec66}.st145{fill:#90ba72}.st146{fill:#e7f2fc}.st147{fill:none;stroke:#c6c6c6;stroke-width:2;stroke-linecap:round;stroke-linejoin:round;stroke-miterlimit:10;stroke-dasharray:5,10,5,10,5,10}.st148{fill:#73a950}.st149{fill:#ffa168}.st150{fill:#2d688d}</style><g id="Capa_3"><path class="st42" d="M98 194h94.3v43.7H98z"/><path class="st14" d="M290.4 196.1c0 3-2.5 5.5-5.5 5.5H5.5c-3 0-5.5-2.5-5.5-5.5V5.5C0 2.5 2.5 0 5.5 0h279.4c3 0 5.5 2.5 5.5 5.5v190.6z"/><path class="st43" d="M15 13h260.4v175.6H15z"/><path class="st44" d="M275.4 188.6H15l5.3-170.3h249.8z"/><path class="st45" d="M15 18.3h66.3v170.3H15z"/><path class="st14" d="M245 245.9H45.4l5.3-11.1h189z"/><path class="st46" d="M15 18.3h17v170.3H15z"/><path class="st47" d="M103.2 41.8h-7.9c-2.2 0-4.1-1.8-4.1-4.1v-7.9c0-2.2 1.8-4.1 4.1-4.1h7.9c2.2 0 4.1 1.8 4.1 4.1v7.9c-.1 2.3-1.9 4.1-4.1 4.1zM25.8 30.6h-5.1c-.8 0-1.5-.7-1.5-1.5V24c0-.8.7-1.5 1.5-1.5h5.1c.8 0 1.5.7 1.5 1.5v5.1c0 .8-.7 1.5-1.5 1.5z"/><path class="st48" d="M218.8 93.7H210c-.8 0-1.5-.7-1.5-1.5v-8.8c0-.8.7-1.5 1.5-1.5h8.8c.8 0 1.5.7 1.5 1.5v8.8c0 .8-.7 1.5-1.5 1.5z"/><path class="st49" d="M240.4 27.3h-31.9c-1 0-1.9-.9-1.9-1.9v-2.7c0-1 .9-1.9 1.9-1.9h31.9c1 0 1.9.9 1.9 1.9v2.7c0 1.1-.9 1.9-1.9 1.9zm-31.9-5c-.2 0-.4.2-.4.4v2.7c0 .2.2.4.4.4h31.9c.2 0 .4-.2.4-.4v-2.7c0-.2-.2-.4-.4-.4h-31.9z"/><path class="st50" d="M218.8 114.3H210c-.8 0-1.5-.7-1.5-1.5V104c0-.8.7-1.5 1.5-1.5h8.8c.8 0 1.5.7 1.5 1.5v8.8c0 .8-.7 1.5-1.5 1.5z"/><path class="st51" d="M218.8 134.8H210c-.8 0-1.5-.7-1.5-1.5v-8.8c0-.8.7-1.5 1.5-1.5h8.8c.8 0 1.5.7 1.5 1.5v8.8c0 .8-.7 1.5-1.5 1.5z"/><path class="st52" d="M25.7 47.3h-5.1c-.8 0-1.5-.7-1.5-1.5v-5.1c0-.8.7-1.5 1.5-1.5h5.1c.8 0 1.5.7 1.5 1.5v5.1c.1.9-.6 1.5-1.5 1.5z"/><path class="st53" d="M25.7 64.1h-5.1c-.8 0-1.5-.7-1.5-1.5v-5.1c0-.8.7-1.5 1.5-1.5h5.1c.8 0 1.5.7 1.5 1.5v5.1c.1.8-.6 1.5-1.5 1.5z"/><path class="st48" d="M103.2 160.3h-7.9c-2.2 0-4.1-1.8-4.1-4.1v-7.9c0-2.2 1.8-4.1 4.1-4.1h7.9c2.2 0 4.1 1.8 4.1 4.1v7.9c-.1 2.3-1.9 4.1-4.1 4.1z"/><path class="st54" d="M187.7 130.6h-69.1c-2.2 0-4.1-1.8-4.1-4.1V73.6c0-2.2 1.8-4.1 4.1-4.1h69.1c2.2 0 4.1 1.8 4.1 4.1v52.9c0 2.2-1.9 4.1-4.1 4.1z"/><path class="st49" d="M144.8 28.6h-30.2c-.4 0-.8-.3-.8-.8 0-.4.3-.8.8-.8h30.2c.4 0 .8.3.8.8-.1.5-.4.8-.8.8z"/><path class="st1" d="M66.4 28.2H36.2c-.2 0-.4-.2-.4-.4s.2-.4.4-.4h30.2c.2 0 .4.2.4.4s-.1.4-.4.4zm-3.7 19.3H36.2c-.2 0-.4-.2-.4-.4s.2-.4.4-.4h26.5c.2 0 .4.2.4.4s-.2.4-.4.4zm-8.5-10h-18c-.2 0-.4-.2-.4-.4s.2-.4.4-.4h18c.2 0 .4.2.4.4s-.2.4-.4.4z"/><path class="st55" d="M62.7 58.2H36.2c-.2 0-.4-.2-.4-.4s.2-.4.4-.4h26.5c.2 0 .4.2.4.4s-.2.4-.4.4zm-6.3 20.3H36.2c-.2 0-.4-.2-.4-.4s.2-.4.4-.4h20.2c.2 0 .4.2.4.4s-.2.4-.4.4zm-4.4-11H36.2c-.2 0-.4-.2-.4-.4s.2-.4.4-.4H52c.2 0 .4.2.4.4-.1.2-.2.4-.4.4z"/><path class="st49" d="M192.8 34.6h-78.3c-.4 0-.8-.3-.8-.8 0-.4.3-.8.8-.8h78.3c.4 0 .8.3.8.8 0 .4-.3.8-.8.8zm0 14.2h-78.3c-.4 0-.8-.3-.8-.8 0-.4.3-.8.8-.8h78.3c.4 0 .8.3.8.8s-.3.8-.8.8zm0 7h-78.3c-.4 0-.8-.3-.8-.8s.3-.8.8-.8h78.3c.4 0 .8.3.8.8s-.3.8-.8.8zm-8.3 7.2h-70c-.4 0-.8-.3-.8-.8 0-.4.3-.8.8-.8h70c.4 0 .8.3.8.8s-.4.8-.8.8zm3.2-21.4h-73.2c-.4 0-.8-.3-.8-.8s.3-.8.8-.8h73.2c.4 0 .8.3.8.8s-.4.8-.8.8zm-42.9 105.3h-30.2c-.4 0-.8-.3-.8-.8 0-.4.3-.8.8-.8h30.2c.4 0 .8.3.8.8-.1.4-.4.8-.8.8zm48 6h-78.3c-.4 0-.8-.3-.8-.8 0-.4.3-.8.8-.8h78.3c.4 0 .8.3.8.8 0 .4-.3.8-.8.8zm0 14.2h-78.3c-.4 0-.8-.3-.8-.8s.3-.8.8-.8h78.3c.4 0 .8.3.8.8s-.3.8-.8.8zm-5.1-7.2h-73.2c-.4 0-.8-.3-.8-.8s.3-.8.8-.8h73.2c.4 0 .8.3.8.8s-.4.8-.8.8zm8.3 22.4H90.1c-1.1 0-2-.9-2-2v-5.9c0-1.1.9-2 2-2H196c1.1 0 2 .9 2 2v5.9c0 1.1-.9 2-2 2zm-105.9-8.5c-.3 0-.5.2-.5.5v5.9c0 .3.2.5.5.5H196c.3 0 .5-.2.5-.5v-5.9c0-.3-.2-.5-.5-.5H90.1zm178.3 8.5H211c-1.2 0-2.1-1-2.1-2.1v-5.7c0-1.2 1-2.1 2.1-2.1h57.4c1.2 0 2.1 1 2.1 2.1v5.7c0 1.2-.9 2.1-2.1 2.1zm-57.4-8.5c-.3 0-.6.3-.6.6v5.7c0 .3.3.6.6.6h57.4c.3 0 .6-.3.6-.6v-5.7c0-.3-.3-.6-.6-.6H211z"/><circle class="st51" cx="75.5" cy="27.8" r="2.2"/><path class="st49" d="M247.2 27.3c-1.8 0-3.3-1.5-3.3-3.3s1.5-3.3 3.3-3.3c1.8 0 3.3 1.5 3.3 3.3s-1.5 3.3-3.3 3.3zm0-5c-1 0-1.7.8-1.7 1.7 0 1 .8 1.7 1.7 1.7 1 0 1.7-.8 1.7-1.7 0-.9-.8-1.7-1.7-1.7zm9.6 5c-1.8 0-3.3-1.5-3.3-3.3s1.5-3.3 3.3-3.3c1.8 0 3.3 1.5 3.3 3.3s-1.5 3.3-3.3 3.3zm0-5c-1 0-1.7.8-1.7 1.7 0 1 .8 1.7 1.7 1.7 1 0 1.7-.8 1.7-1.7 0-.9-.8-1.7-1.7-1.7zm8.5 5c-1.8 0-3.3-1.5-3.3-3.3s1.5-3.3 3.3-3.3c1.8 0 3.3 1.5 3.3 3.3s-1.5 3.3-3.3 3.3zm0-5c-1 0-1.7.8-1.7 1.7 0 1 .8 1.7 1.7 1.7 1 0 1.7-.8 1.7-1.7 0-.9-.8-1.7-1.7-1.7zm.5 62.2h-41.9c-.4 0-.8-.3-.8-.8 0-.4.3-.8.8-.8h41.9c.4 0 .8.3.8.8-.1.4-.4.8-.8.8zm-19.7 4h-22.2c-.4 0-.8-.3-.8-.8 0-.4.3-.8.8-.8h22.2c.4 0 .8.3.8.8s-.4.8-.8.8zm10.4 4.2h-32.6c-.4 0-.8-.3-.8-.8s.3-.8.8-.8h32.6c.4 0 .8.3.8.8s-.4.8-.8.8zm6.1 11.9h-38.7c-.4 0-.8-.3-.8-.8 0-.4.3-.8.8-.8h38.7c.4 0 .8.3.8.8 0 .4-.4.8-.8.8zm-15.3 4.6h-23.4c-.4 0-.8-.3-.8-.8 0-.4.3-.8.8-.8h23.4c.4 0 .8.3.8.8-.1.4-.4.8-.8.8zm10 4.3h-33.4c-.4 0-.8-.3-.8-.8 0-.4.3-.8.8-.8h33.4c.4 0 .8.3.8.8-.1.4-.4.8-.8.8zm10.1 11.8h-43.5c-.4 0-.8-.3-.8-.8 0-.4.3-.8.8-.8h43.5c.4 0 .8.3.8.8-.1.5-.4.8-.8.8zm-14.3 4.4h-29.2c-.4 0-.8-.3-.8-.8 0-.4.3-.8.8-.8h29.2c.4 0 .8.3.8.8 0 .4-.4.8-.8.8zm5.7 4.4h-34.9c-.4 0-.8-.3-.8-.8 0-.4.3-.8.8-.8h34.9c.4 0 .8.3.8.8-.1.4-.4.8-.8.8z"/><path class="st54" d="M264.5 72.4h-52.9c-1.8 0-3.3-1.5-3.3-3.3v-32c0-1.8 1.5-3.3 3.3-3.3h52.9c1.8 0 3.3 1.5 3.3 3.3v32.1c0 1.8-1.5 3.2-3.3 3.2z"/></g></svg>