<?xml version="1.0" encoding="utf-8"?>
<!-- Generator: Adobe Illustrator 19.1.0, SVG Export Plug-In . SVG Version: 6.00 Build 0)  -->
<svg version="1.1" id="Layer_1" xmlns="http://www.w3.org/2000/svg" xmlns:xlink="http://www.w3.org/1999/xlink" x="0px" y="0px"
	 viewBox="100 0 300 100" style="enable-background:new 100 0 300 100;" xml:space="preserve">
<style type="text/css">
	.st0{fill:#3F4D55;}
</style>
<path class="st0" d="M239.8,37.9c1.5,0.7,1.7,1.2,0.5,3.5c-1.2,2.4-1.5,2.5-3.1,1.9c-1.9-0.8-4.4-1.4-5.9-1.4
	c-2.6,0-4.3,0.9-4.3,2.3c0,4.6,14.8,2.1,14.8,12.1c0,5-4.3,8.3-10.7,8.3c-3.4,0-7.5-1.1-10.4-2.6c-1.4-0.7-1.5-1.2-0.3-3.5
	c1.1-2.1,1.4-2.3,3-1.7c2.5,1.1,5.5,1.9,7.6,1.9c2.4,0,3.9-1,3.9-2.4c0-4.5-15.1-2.4-15.1-12c0-5.1,4.3-8.5,10.6-8.5
	C233.4,35.8,237.2,36.7,239.8,37.9z M251.8,26.1v37c0,0.6-0.6,1.2-1.4,1.2h-3.9c-0.8,0-1.4-0.6-1.4-1.2v-37c0-1.8,0.5-2,3.4-2
	C251.7,24.1,251.8,24.3,251.8,26.1z M279.4,46.9v15.9c0,0.8-0.6,1.4-1.4,1.4h-3.8c-0.9,0-1.5-0.6-1.4-1.5l0.1-1.7
	c-2.1,2.3-5.1,3.5-8.1,3.5c-5.8,0-9.7-3.4-9.7-8.4c0-5.3,4.4-8.9,11-8.9c2.5,0,4.8,0.5,6.6,1.2v-1.8c0-2.9-2.3-4.7-6.2-4.7
	c-1.8,0-4.1,0.7-5.9,1.8c-1.4,0.8-1.7,0.7-3.2-1.5s-1.4-2.6,0-3.5c2.7-1.7,6.4-2.9,9.7-2.9C274.7,35.8,279.4,39.9,279.4,46.9z
	 M261.5,56.1c0,1.9,1.6,3.2,4,3.2c2.9,0,5.6-1.4,7.1-3.8V53c-1.5-0.6-3.4-1-5.1-1C263.9,52,261.5,53.8,261.5,56.1z M305.8,37.9
	c1.4,0.8,1.5,1.3-0.1,3.7c-1.5,2.3-1.7,2.4-3.3,1.6c-1.2-0.6-3.1-1.2-4.6-1.2c-4.9,0-8.1,3.2-8.1,8.1c0,5,3.2,8.4,8.1,8.4
	c1.7,0,3.8-0.6,5.2-1.4c1.4-0.8,1.7-0.8,3.2,1.4c1.4,2,1.3,2.5,0.1,3.4c-2.2,1.5-5.6,2.6-8.6,2.6c-9,0-15-5.8-15-14.4
	s6-14.3,15.1-14.3C300.5,35.8,303.8,36.7,305.8,37.9z M335.2,60.7c1.1,1.4,0.7,1.9-2.1,3c-2.9,1-3.3,1-4.3-0.3l-8.1-10.8l-3.6,3.5v7
	c0,0.6-0.6,1.2-1.4,1.2h-3.9c-0.8,0-1.4-0.6-1.4-1.2v-37c0-1.8,0.5-2,3.4-2c3.3,0,3.4,0.2,3.4,2v21l11-10.6c1.2-1.2,1.9-1.1,4.1,0.4
	c2.4,1.5,2.6,2,1.4,3.1l-8.2,8L335.2,60.7L335.2,60.7z"/>
<g>
	<path class="st0" d="M182.5,53.8l-2.1-6.4l6.6-2.2l2.1,6.4L182.5,53.8z"/>
	<path class="st0" d="M182.5,53.8l-2.1-6.4l6.6-2.2l2.1,6.4L182.5,53.8z"/>
	<path class="st0" d="M207.5,42.7c-5.1-17-12.5-21-29.5-15.9s-21,12.5-15.9,29.5c5.1,17,12.5,21,29.5,15.9S212.6,59.7,207.5,42.7z
		 M198.9,53.7l-3.2,1.1l1.1,3.3c0.5,1.3-0.3,2.8-1.6,3.3c-0.3,0.1-0.6,0.1-0.9,0.1c-1,0-2-0.7-2.4-1.8l-1.1-3.3l-6.6,2.2l1.1,3.3
		c0.5,1.3-0.3,2.8-1.6,3.3c-0.3,0.1-0.6,0.1-0.9,0.1c-1,0-2-0.7-2.4-1.8l-1.1-3.3l-3.2,1.1c-0.3,0.1-0.6,0.1-0.9,0.1
		c-1,0-2-0.7-2.4-1.8c-0.5-1.3,0.3-2.8,1.6-3.3l3.2-1.1l-2.1-6.4l-3.2,1.1c-0.3,0.1-0.6,0.1-0.9,0.1c-1,0-2-0.7-2.4-1.8
		c-0.5-1.3,0.3-2.8,1.6-3.3l3.2-1.1l-1.1-3.3c-0.5-1.3,0.3-2.8,1.6-3.3s2.8,0.3,3.3,1.6l1.1,3.3l6.6-2.2l-1.1-3.3
		c-0.5-1.3,0.3-2.8,1.6-3.3s2.8,0.3,3.3,1.6l1.1,3.3l3.2-1.1c1.3-0.5,2.8,0.3,3.3,1.6s-0.3,2.8-1.6,3.3l-3.2,1.1l2.1,6.4l3.2-1.1
		c1.3-0.5,2.8,0.3,3.3,1.6C201,51.8,200.2,53.3,198.9,53.7z"/>
</g>
</svg>
