<svg id="Layer_1" xmlns="http://www.w3.org/2000/svg" viewBox="0 0 100 100"><style>.st0{fill:#3f4d55}</style><path class="st0" d="M47.5 22.5h-1c-2.1 0-9.3.6-12.7 8.2-1.1 2.5-.9 6.9-.6 10.4 0 .4.1.8.1 1.2-.2.1-.5.2-1 .2-.7 0-1.5-.2-2.4-.6-.2-.1-.5-.2-.8-.2-1 0-2.3.7-2.5 1.7-.1.7.2 1.8 2.6 2.8.2.1.5.2.7.3 1 .3 2.5.8 2.9 1.7.2.5.1 1.1-.2 1.9v.1c-.1.3-3.3 7.5-10.2 8.6-.5.1-.9.6-.9 1.1 0 .2 0 .3.1.5.5 1.2 2.7 2.1 6.7 2.7.1.2.3.8.4 1.2l.3 1.2c.1.4.4.9 1.2.9.3 0 .7-.1 1.2-.2.7-.1 1.6-.3 2.7-.3.6 0 1.3.1 2 .2 1.3.2 2.4 1 3.7 1.9 1.8 1.3 3.9 2.8 7 2.8h.7c3.1 0 5.2-1.5 7-2.8 1.3-.9 2.4-1.7 3.7-1.9.7-.1 1.3-.2 2-.2 1.1 0 2 .1 2.7.3.5.1.9.1 1.2.1.6 0 1-.3 1.2-.9l.3-1.2c.1-.4.2-1 .4-1.2 4-.6 6.2-1.5 6.7-2.7.1-.2.1-.3.1-.5 0-.5-.4-1-.9-1.1-7-1.1-10.1-8.3-10.2-8.6V50c-.4-.8-.5-1.4-.2-1.9.4-.9 1.9-1.4 2.9-1.7.3-.1.5-.2.7-.3 1.7-.7 2.6-1.5 2.6-2.5 0-.8-.6-1.4-1.6-1.8-.3-.1-.7-.2-1.1-.2-.3 0-.6 0-1 .2-.8.4-1.6.6-2.2.6-.4 0-.7-.1-.9-.2 0-.4 0-.7.1-1.1V41c.2-3.5.5-7.8-.6-10.4-3.6-7.5-10.8-8.1-12.9-8.1z"/></svg>