<?xml version="1.0" encoding="utf-8"?>
<!-- Generator: Adobe Illustrator 19.1.0, SVG Export Plug-In . SVG Version: 6.00 Build 0)  -->
<svg version="1.1" id="Layer_1" xmlns="http://www.w3.org/2000/svg" xmlns:xlink="http://www.w3.org/1999/xlink" x="0px" y="0px"
	 viewBox="0 0 100 100" style="enable-background:new 0 0 100 100;" xml:space="preserve">
<style type="text/css">
	.st0{fill:#3F4D55;}
</style>
<path class="st0" d="M47.5,22.5L47.5,22.5h-1c-2.1,0-9.3,0.6-12.7,8.2c-1.1,2.5-0.9,6.9-0.6,10.4c0,0.4,0.1,0.8,0.1,1.2
	c-0.2,0.1-0.5,0.2-1,0.2c-0.7,0-1.5-0.2-2.4-0.6c-0.2-0.1-0.5-0.2-0.8-0.2c-1,0-2.3,0.7-2.5,1.7c-0.1,0.7,0.2,1.8,2.6,2.8
	c0.2,0.1,0.5,0.2,0.7,0.3c1,0.3,2.5,0.8,2.9,1.7c0.2,0.5,0.1,1.1-0.2,1.9v0.1c-0.1,0.3-3.3,7.5-10.2,8.6c-0.5,0.1-0.9,0.6-0.9,1.1
	c0,0.2,0,0.3,0.1,0.5c0.5,1.2,2.7,2.1,6.7,2.7c0.1,0.2,0.3,0.8,0.4,1.2l0.3,1.2c0.1,0.4,0.4,0.9,1.2,0.9c0.3,0,0.7-0.1,1.2-0.2
	c0.7-0.1,1.6-0.3,2.7-0.3c0.6,0,1.3,0.1,2,0.2c1.3,0.2,2.4,1,3.7,1.9c1.8,1.3,3.9,2.8,7,2.8h0.7c3.1,0,5.2-1.5,7-2.8
	c1.3-0.9,2.4-1.7,3.7-1.9c0.7-0.1,1.3-0.2,2-0.2c1.1,0,2,0.1,2.7,0.3c0.5,0.1,0.9,0.1,1.2,0.1c0.6,0,1-0.3,1.2-0.9l0.3-1.2
	c0.1-0.4,0.2-1,0.4-1.2c4-0.6,6.2-1.5,6.7-2.7c0.1-0.2,0.1-0.3,0.1-0.5c0-0.5-0.4-1-0.9-1.1c-7-1.1-10.1-8.3-10.2-8.6V50
	c-0.4-0.8-0.5-1.4-0.2-1.9c0.4-0.9,1.9-1.4,2.9-1.7c0.3-0.1,0.5-0.2,0.7-0.3c1.7-0.7,2.6-1.5,2.6-2.5c0-0.8-0.6-1.4-1.6-1.8
	c-0.3-0.1-0.7-0.2-1.1-0.2c-0.3,0-0.6,0-1,0.2c-0.8,0.4-1.6,0.6-2.2,0.6c-0.4,0-0.7-0.1-0.9-0.2c0-0.4,0-0.7,0.1-1.1V41
	c0.2-3.5,0.5-7.8-0.6-10.4C56.8,23.1,49.6,22.5,47.5,22.5z"/>
</svg>
