<?xml version="1.0" encoding="utf-8"?>
<!-- Generator: Adobe Illustrator 19.1.0, SVG Export Plug-In . SVG Version: 6.00 Build 0)  -->
<svg version="1.1" id="Layer_1" xmlns="http://www.w3.org/2000/svg" xmlns:xlink="http://www.w3.org/1999/xlink" x="0px" y="0px"
	 viewBox="0 0 100 100" style="enable-background:new 0 0 100 100;" xml:space="preserve">
<style type="text/css">
	.st0{fill:#3F4D55;}
</style>
<path class="st0" d="M72,34.1c-1.7,0.8-3.4,1.2-5.3,1.5c1.9-1.1,3.4-3,4.1-5.1c-1.8,1.1-3.7,1.8-5.8,2.2c-1.7-1.8-4.1-2.9-6.7-2.9
	c-5.1,0-9.3,4.1-9.3,9.3c0,0.7,0.1,1.5,0.3,2.1c-7.7-0.4-14.5-4.1-19.1-9.7c-0.8,1.3-1.3,2.9-1.3,4.6c0,3.2,1.7,6,4.1,7.7
	c-1.5-0.1-2.9-0.4-4.2-1.1v0.1c0,4.5,3.2,8.2,7.4,9.1c-0.8,0.2-1.6,0.3-2.4,0.3c-0.6,0-1.1-0.1-1.7-0.2c1.2,3.7,4.6,6.4,8.6,6.4
	c-3.2,2.5-7.2,3.9-11.5,3.9c-0.8,0-1.5-0.1-2.2-0.1c4.1,2.6,9,4.1,14.2,4.1c17,0,26.3-14.1,26.3-26.3v-1.2
	C69.2,37.6,70.8,35.9,72,34.1L72,34.1z"/>
</svg>
