<svg id="Layer_1" xmlns="http://www.w3.org/2000/svg" viewBox="0 0 100 100"><style>.st0{fill:#ffffff}</style><path class="st0" d="M76 38.1c-1.7.8-3.4 1.2-5.3 1.5 1.9-1.1 3.4-3 4.1-5.1-1.8 1.1-3.7 1.8-5.8 2.2-1.7-1.8-4.1-2.9-6.7-2.9-5.1 0-9.3 4.1-9.3 9.3 0 .7.1 1.5.3 2.1-7.7-.4-14.5-4.1-19.1-9.7-.8 1.3-1.3 2.9-1.3 4.6 0 3.2 1.7 6 4.1 7.7-1.5-.1-2.9-.4-4.2-1.1v.1c0 4.5 3.2 8.2 7.4 9.1-.8.2-1.6.3-2.4.3-.6 0-1.1-.1-1.7-.2 1.2 3.7 4.6 6.4 8.6 6.4-3.2 2.5-7.2 3.9-11.5 3.9-.8 0-1.5-.1-2.2-.1 4.1 2.6 9 4.1 14.2 4.1 17 0 26.3-14.1 26.3-26.3v-1.2c1.7-1.2 3.3-2.9 4.5-4.7z"/></svg>
