<svg xmlns="http://www.w3.org/2000/svg" viewBox="0 0 265.9 207.8"><style>.st0{opacity:.49;fill:url(#SVGID_3_)}.st1{fill:#fff}.st2{fill:#262626}.st3{fill:#eaedf4}.st4{fill:#ade9e9}.st5{fill:#20ad8a}.st6{fill:#ffc06c}.st7{fill:#3f4d55}.st8{fill:#5d5d5d}.st9{fill:#b7b7b7}.st10{fill:#adadad}.st11{fill:#b2b2b2}.st12{fill:gray}.st13{fill:#4d4d4d}.st14{fill:#333}.st15{fill:#efce4a}.st16{fill:#ed8a19}.st17{fill:#ebba16}.st18{fill:#c7cac7}.st19{fill:#e7eced}.st20{opacity:.7;clip-path:url(#SVGID_5_)}.st21{opacity:.12;fill:#ffc06c}.st22{opacity:.16}.st22,.st23,.st24{fill:#ffc06c}.st23{opacity:.22}.st24{opacity:.3}.st25{clip-path:url(#SVGID_7_)}.st26{opacity:.15}.st26,.st27,.st28{fill:#20ad8a}.st27{opacity:.23}.st28{opacity:.3}.st29{fill:#aaa}.st30,.st31{fill:none;stroke:#3f4d55;stroke-miterlimit:10}.st31{stroke-linecap:round}.st32{fill:#f00101}.st33{fill:#030303}.st34{fill:#70cadb}.st35{fill:#e01765}.st36{fill:#e8a723}.st37{fill:#3eb890}.st38{fill:#cc2027}.st39{fill:#361238}.st40{fill:#65863a}.st41{fill:#1a937d}.st42{fill:#666}.st43{fill:#d5e1e8}.st44{fill:#e6eef2}.st45{fill:#573d82}.st46{fill:#453068}.st47{fill:#3fba91}.st48{fill:#6fcbdc}.st49{fill:#dcdcdc}.st50{fill:#ffc585}.st51{fill:#ff3e88}.st52{fill:#675470}.st53{fill:#4a4687}.st54{fill:#f3f3f3}.st55{opacity:.5;fill:#8977a7}.st56{fill:#e1e9ef}.st57{fill:#ffd7a3}.st58{fill:#fdc88e}.st59{fill:#ffe1b2}.st60{fill:#a2cde2}.st61{fill:#545465}.st62{fill:#29394a}.st63{fill:#b5e0f0}.st64{fill:#4a698e}.st65{fill:#416185}.st66{fill:#395a7f}.st67{fill:#ffd5ab}.st68{fill:#e4ebf0}.st69{fill:#d0d7dc}.st70{fill:#527992}.st71{fill:#475f7f}.st72{fill:#d3e5bd}.st73{fill:#827873}.st74{fill:#e0dddc}.st75{fill:#a19996}.st76{fill:#3cf}.st77{fill:#d8dce1}.st78{fill:#db4026}.st79{fill:#5c546a}.st80{fill:#e8d21d}.st81{fill:#4aecaf}.st82{fill:#80362d}.st83{fill:#ffb980}.st84{fill:#f8ab6b}.st85{fill:#bf9b5f}.st86{fill:#83603f}.st87{fill:#b0e070}.st88{fill:#7e5c62}.st89{fill:#a27082}.st90{fill:#7e5449}.st91{fill:#ffda44}.st92{fill:#ffcd00}.st93{fill:#b1664f}.st94{fill:#ffdaa9}.st95{fill:#5fbea0}.st96{fill:none;stroke:#fff;stroke-width:2;stroke-linecap:round;stroke-miterlimit:10}.st97{fill:#188268}.st98{fill:#d2efe8}.st99{fill:#79ceb9}.st100{fill:#ebebed}.st101{fill:#474f49}.st102{fill:#daaba9}.st103{fill:#757eaf}.st104{fill:#edcc70}.st105{fill:#b9bbc1}.st106{fill:#53dcff}.st107{fill:#fcee21}.st108{fill:#8b8996}.st109{fill:#686777}.st110{fill:#67a2a9}.st111,.st112{fill:#ff93b5}.st112{stroke:#fff;stroke-width:2;stroke-linecap:round;stroke-miterlimit:10}.st113,.st114{fill:#f3d960}.st114{stroke:#fff;stroke-width:2;stroke-linecap:round;stroke-miterlimit:10}.st115{fill:#7bd766}.st116{fill:#8166a4}.st117{fill:#f67d69}.st118{fill:#ccc}.st119{fill:#e6e6e6}.st120{fill:#b3b3b3}.st121{fill:none;stroke:#da6f67;stroke-linecap:round;stroke-miterlimit:10}.st122{fill:#bc679b}.st123{fill:#09614b}.st124{fill:#50748a}.st125{fill:#e2e4ff}.st126{fill:#a7795e}.st127{fill:#adb4ba}.st128{fill:#4ea0ca}.st129{fill:#394959}.st130{fill:#e05040}.st131{fill:#b4a87d}.st132{fill:#7b7256}.st133{fill:#fcc261}.st134{fill:#111820}.st135{fill:#dfded6}.st136{fill:#ff6953}.st137{fill:#b06e53}.st138{fill:#728ea0}.st139{fill:#e5e4e3}.st140{fill:#f7f3a8}.st141{fill:#82827f}.st142{fill:#353535}.st143{fill:#a0b7d1}.st144{fill:#ecec66}.st145{fill:#90ba72}.st146{fill:#e7f2fc}.st147{fill:none;stroke:#c6c6c6;stroke-width:2;stroke-linecap:round;stroke-linejoin:round;stroke-miterlimit:10;stroke-dasharray:5,10,5,10,5,10}.st148{fill:#73a950}.st149{fill:#ffa168}.st150{fill:#2d688d}</style><g id="Capa_3"><path class="st93" d="M208.2 179.7l-9.4-56.4c-1.3-7.6-6.6-15.5-15.5-18-.1 0-.2-.1-.3-.1l-22-3.3h-.6c-1.4 0-2.6 1-2.7 2.4-1.2 9.5-9 17-19.1 19h-11c-10.1-2-18-9.5-19.1-19-.2-1.4-1.5-2.5-2.8-2.4h-.5l-22 3.3c-.1 0-.2 0-.3.1-8.9 2.5-14.2 10.4-15.5 18L58 179.7c-1.9 10.2 5.9 19.7 16.3 19.7H192c10.3.1 18.1-9.4 16.2-19.7z"/><path class="st58" d="M133 99.1c-9.6 0-18.3-4.1-24.8-10.8 0 4-.2 9.8-1.2 14 .7.4 1.2 1.1 1.3 2 1.4 11.2 12 19.6 24.7 19.6s23.3-8.4 24.7-19.6c.1-.9.6-1.6 1.3-2-1.1-4.2-1.2-10-1.2-14-6.5 6.7-15.2 10.8-24.8 10.8z"/><path class="st83" d="M157.2 88.8c-6.4 6.4-14.9 10.3-24.2 10.3-9.6 0-18.3-4.1-24.8-10.8 0 4-.2 9.8-1.2 14 .7.4 1.2 1.1 1.3 2 .6 4.9 3 9.3 6.6 12.7 16.6-2.3 35.4-18.7 42.3-28.2z"/><path class="st59" d="M157.8 30.3H111c-7.6 0-13.8 6.2-13.8 13.8v16.5c0 21.3 16.1 38.6 35.8 38.6s35.8-17.3 35.8-38.6V41.3c0-6.1-5-11-11-11z"/><path class="st90" d="M152.2 0h-35.8c-5.2 0-9.5 3.6-10.7 8.4-9.5 1.2-16.8 9.3-16.8 19.1v13.8c0 7.1 3 13.7 8.3 18.4V44.1c0-7.6 6.2-13.8 13.8-13.8h46.8c6.1 0 11 4.9 11 11v18.4C174 55 177 48.4 177 41.3V24.8C177 11.1 165.9 0 152.2 0z"/><path class="st77" d="M182.8 199.5H83.1c-2.3 0-4.2-1.9-4.2-4.2v-54c0-2.3 1.9-4.2 4.2-4.2h99.7c2.3 0 4.2 1.9 4.2 4.2v54c0 2.3-1.9 4.2-4.2 4.2z"/><path class="st94" d="M261.8 207.8H4.2c-2.3 0-4.2-1.9-4.2-4.2 0-2.3 1.9-4.2 4.2-4.2h257.6c2.3 0 4.2 1.9 4.2 4.2-.1 2.3-1.9 4.2-4.2 4.2z"/><circle class="st1" cx="133" cy="170.4" r="8.3"/><path class="st61" d="M127.2 49.7v1.9c0 5.6-4.6 10.2-10.2 10.2h-2.6c-2.8 0-5.1-2.3-5.1-5.1v-7h17.9m0-2.5h-17.9c-1.4 0-2.6 1.1-2.6 2.6v7c0 4.2 3.4 7.7 7.7 7.7h2.6c7.1 0 12.8-5.7 12.8-12.8v-1.9c0-1.5-1.1-2.6-2.6-2.6zm29.4 2.5v7c0 2.8-2.3 5.1-5.1 5.1h-2.6c-5.6 0-10.2-4.6-10.2-10.2v-1.9h17.9m0-2.5h-17.9c-1.4 0-2.6 1.1-2.6 2.6v1.9c0 7.1 5.7 12.8 12.8 12.8h2.6c4.2 0 7.7-3.4 7.7-7.7v-7c-.1-1.5-1.2-2.6-2.6-2.6z"/><path class="st61" d="M97.2 47.2h12.2v6l-12.2-2.9zm71.6 0h-12.2v6l12.2-2.9zm-30 6h-2.6c0-1.1-1.5-2.1-3.3-2.1s-3.3 1-3.3 2.1H127c0-2.6 2.6-4.6 5.8-4.6 3.4 0 6 2 6 4.6z"/></g></svg>