<?xml version="1.0" encoding="utf-8"?>
<!-- Generator: Adobe Illustrator 19.2.1, SVG Export Plug-In . SVG Version: 6.00 Build 0)  -->
<svg version="1.1" xmlns="http://www.w3.org/2000/svg" xmlns:xlink="http://www.w3.org/1999/xlink" x="0px" y="0px"
	 viewBox="0 0 265.9 207.8" style="enable-background:new 0 0 265.9 207.8;" xml:space="preserve">
<style type="text/css">
	.st0{opacity:0.49;fill:url(#SVGID_3_);}
	.st1{fill:#FFFFFF;}
	.st2{fill:#262626;}
	.st3{fill:#EAEDF4;}
	.st4{fill:#ADE9E9;}
	.st5{fill:#20AD8A;}
	.st6{fill:#FFC06C;}
	.st7{fill:#3F4D55;}
	.st8{fill:#5D5D5D;}
	.st9{fill:#B7B7B7;}
	.st10{fill:#ADADAD;}
	.st11{fill:#B2B2B2;}
	.st12{fill:#808080;}
	.st13{fill:#4D4D4D;}
	.st14{fill:#333333;}
	.st15{fill:#EFCE4A;}
	.st16{fill:#ED8A19;}
	.st17{fill:#EBBA16;}
	.st18{fill:#C7CAC7;}
	.st19{fill:#E7ECED;}
	.st20{opacity:0.7;clip-path:url(#SVGID_5_);}
	.st21{opacity:0.12;fill:#FFC06C;}
	.st22{opacity:0.16;fill:#FFC06C;}
	.st23{opacity:0.22;fill:#FFC06C;}
	.st24{opacity:0.3;fill:#FFC06C;}
	.st25{clip-path:url(#SVGID_7_);}
	.st26{opacity:0.15;fill:#20AD8A;}
	.st27{opacity:0.23;fill:#20AD8A;}
	.st28{opacity:0.3;fill:#20AD8A;}
	.st29{fill:#AAAAAA;}
	.st30{fill:none;stroke:#3F4D55;stroke-miterlimit:10;}
	.st31{fill:none;stroke:#3F4D55;stroke-linecap:round;stroke-miterlimit:10;}
	.st32{fill:#F00101;}
	.st33{fill:#030303;}
	.st34{fill:#70CADB;}
	.st35{fill:#E01765;}
	.st36{fill:#E8A723;}
	.st37{fill:#3EB890;}
	.st38{fill:#CC2027;}
	.st39{fill:#361238;}
	.st40{fill:#65863A;}
	.st41{fill:#1A937D;}
	.st42{fill:#666666;}
	.st43{fill:#D5E1E8;}
	.st44{fill:#E6EEF2;}
	.st45{fill:#573D82;}
	.st46{fill:#453068;}
	.st47{fill:#3FBA91;}
	.st48{fill:#6FCBDC;}
	.st49{fill:#DCDCDC;}
	.st50{fill:#FFC585;}
	.st51{fill:#FF3E88;}
	.st52{fill:#675470;}
	.st53{fill:#4A4687;}
	.st54{fill:#F3F3F3;}
	.st55{opacity:0.5;fill:#8977A7;}
	.st56{fill:#E1E9EF;}
	.st57{fill:#FFD7A3;}
	.st58{fill:#FDC88E;}
	.st59{fill:#FFE1B2;}
	.st60{fill:#A2CDE2;}
	.st61{fill:#545465;}
	.st62{fill:#29394A;}
	.st63{fill:#B5E0F0;}
	.st64{fill:#4A698E;}
	.st65{fill:#416185;}
	.st66{fill:#395A7F;}
	.st67{fill:#FFD5AB;}
	.st68{fill:#E4EBF0;}
	.st69{fill:#D0D7DC;}
	.st70{fill:#527992;}
	.st71{fill:#475F7F;}
	.st72{fill:#D3E5BD;}
	.st73{fill:#827873;}
	.st74{fill:#E0DDDC;}
	.st75{fill:#A19996;}
	.st76{fill:#33CCFF;}
	.st77{fill:#D8DCE1;}
	.st78{fill:#DB4026;}
	.st79{fill:#5C546A;}
	.st80{fill:#E8D21D;}
	.st81{fill:#4AECAF;}
	.st82{fill:#80362D;}
	.st83{fill:#FFB980;}
	.st84{fill:#F8AB6B;}
	.st85{fill:#BF9B5F;}
	.st86{fill:#83603F;}
	.st87{fill:#B0E070;}
	.st88{fill:#7E5C62;}
	.st89{fill:#A27082;}
	.st90{fill:#7E5449;}
	.st91{fill:#FFDA44;}
	.st92{fill:#FFCD00;}
	.st93{fill:#B1664F;}
	.st94{fill:#FFDAA9;}
	.st95{fill:#5FBEA0;}
	.st96{fill:none;stroke:#FFFFFF;stroke-width:2;stroke-linecap:round;stroke-miterlimit:10;}
	.st97{fill:#188268;}
	.st98{fill:#D2EFE8;}
	.st99{fill:#79CEB9;}
	.st100{fill:#EBEBED;}
	.st101{fill:#474F49;}
	.st102{fill:#DAABA9;}
	.st103{fill:#757EAF;}
	.st104{fill:#EDCC70;}
	.st105{fill:#B9BBC1;}
	.st106{fill:#53DCFF;}
	.st107{fill:#FCEE21;}
	.st108{fill:#8B8996;}
	.st109{fill:#686777;}
	.st110{fill:#67A2A9;}
	.st111{fill:#FF93B5;}
	.st112{fill:#FF93B5;stroke:#FFFFFF;stroke-width:2;stroke-linecap:round;stroke-miterlimit:10;}
	.st113{fill:#F3D960;}
	.st114{fill:#F3D960;stroke:#FFFFFF;stroke-width:2;stroke-linecap:round;stroke-miterlimit:10;}
	.st115{fill:#7BD766;}
	.st116{fill:#8166A4;}
	.st117{fill:#F67D69;}
	.st118{fill:#CCCCCC;}
	.st119{fill:#E6E6E6;}
	.st120{fill:#B3B3B3;}
	.st121{fill:none;stroke:#DA6F67;stroke-linecap:round;stroke-miterlimit:10;}
	.st122{fill:#BC679B;}
	.st123{fill:#09614B;}
	.st124{fill:#50748A;}
	.st125{fill:#E2E4FF;}
	.st126{fill:#A7795E;}
	.st127{fill:#ADB4BA;}
	.st128{fill:#4EA0CA;}
	.st129{fill:#394959;}
	.st130{fill:#E05040;}
	.st131{fill:#B4A87D;}
	.st132{fill:#7B7256;}
	.st133{fill:#FCC261;}
	.st134{fill:#111820;}
	.st135{fill:#DFDED6;}
	.st136{fill:#FF6953;}
	.st137{fill:#B06E53;}
	.st138{fill:#728EA0;}
	.st139{fill:#E5E4E3;}
	.st140{fill:#F7F3A8;}
	.st141{fill:#82827F;}
	.st142{fill:#353535;}
	.st143{fill:#A0B7D1;}
	.st144{fill:#ECEC66;}
	.st145{fill:#90BA72;}
	.st146{fill:#E7F2FC;}
	
		.st147{fill:none;stroke:#C6C6C6;stroke-width:2;stroke-linecap:round;stroke-linejoin:round;stroke-miterlimit:10;stroke-dasharray:5,10,5,10,5,10;}
	.st148{fill:#73A950;}
	.st149{fill:#FFA168;}
	.st150{fill:#2D688D;}
</style>
<g id="Capa_2">
</g>
<g id="Capa_3">
	<g>
		<g>
			<path class="st93" d="M208.2,179.7l-9.4-56.4h0c-1.3-7.6-6.6-15.5-15.5-18c-0.1,0-0.2-0.1-0.3-0.1l-22-3.3c-0.1,0-0.4,0-0.6,0
				c-1.4,0-2.6,1-2.7,2.4c-1.2,9.5-9,17-19.1,19h-11c-10.1-2-18-9.5-19.1-19c-0.2-1.4-1.5-2.5-2.8-2.4c-0.2,0-0.3,0-0.5,0l-22,3.3
				c-0.1,0-0.2,0-0.3,0.1c-8.9,2.5-14.2,10.4-15.5,18h0l-9.4,56.4c-1.9,10.2,5.9,19.7,16.3,19.7h0.7h116.3h0.7
				C202.3,199.5,210.1,190,208.2,179.7z"/>
		</g>
		<g>
			<path class="st58" d="M133,99.1c-9.6,0-18.3-4.1-24.8-10.8c0,4-0.2,9.8-1.2,14c0.7,0.4,1.2,1.1,1.3,2c1.4,11.2,12,19.6,24.7,19.6
				c12.7,0,23.3-8.4,24.7-19.6c0.1-0.9,0.6-1.6,1.3-2c-1.1-4.2-1.2-10-1.2-14C151.3,95,142.6,99.1,133,99.1z"/>
		</g>
		<g>
			<path class="st83" d="M157.2,88.8c-6.4,6.4-14.9,10.3-24.2,10.3c-9.6,0-18.3-4.1-24.8-10.8c0,4-0.2,9.8-1.2,14
				c0.7,0.4,1.2,1.1,1.3,2c0.6,4.9,3,9.3,6.6,12.7C131.5,114.7,150.3,98.3,157.2,88.8z"/>
		</g>
		<g>
			<path class="st59" d="M157.8,30.3h-46.8c-7.6,0-13.8,6.2-13.8,13.8v16.5c0,21.3,16.1,38.6,35.8,38.6s35.8-17.3,35.8-38.6V41.3
				C168.8,35.2,163.8,30.3,157.8,30.3z"/>
		</g>
		<g>
			<path class="st90" d="M152.2,0h-35.8c-5.2,0-9.5,3.6-10.7,8.4c-9.5,1.2-16.8,9.3-16.8,19.1v13.8c0,7.1,3,13.7,8.3,18.4V44.1
				c0-7.6,6.2-13.8,13.8-13.8h46.8c6.1,0,11,4.9,11,11v18.4C174,55,177,48.4,177,41.3V24.8C177,11.1,165.9,0,152.2,0z"/>
		</g>
		<g>
			<path class="st77" d="M182.8,199.5H83.1c-2.3,0-4.2-1.9-4.2-4.2v-54c0-2.3,1.9-4.2,4.2-4.2h99.7c2.3,0,4.2,1.9,4.2,4.2v54
				C187,197.6,185.1,199.5,182.8,199.5z"/>
		</g>
		<g>
			<g>
				<path class="st94" d="M261.8,207.8H4.2c-2.3,0-4.2-1.9-4.2-4.2c0-2.3,1.9-4.2,4.2-4.2h257.6c2.3,0,4.2,1.9,4.2,4.2
					C265.9,205.9,264.1,207.8,261.8,207.8z"/>
			</g>
		</g>
		<g>
			<circle class="st1" cx="133" cy="170.4" r="8.3"/>
		</g>
		<g>
			<g>
				<g>
					<path class="st61" d="M127.2,49.7v1.9c0,5.6-4.6,10.2-10.2,10.2h-2.6c-2.8,0-5.1-2.3-5.1-5.1v-7H127.2 M127.2,47.2h-17.9
						c-1.4,0-2.6,1.1-2.6,2.6v7c0,4.2,3.4,7.7,7.7,7.7h2.6c7.1,0,12.8-5.7,12.8-12.8v-1.9C129.8,48.3,128.7,47.2,127.2,47.2
						L127.2,47.2z"/>
				</g>
			</g>
			<g>
				<g>
					<path class="st61" d="M156.6,49.7v7c0,2.8-2.3,5.1-5.1,5.1h-2.6c-5.6,0-10.2-4.6-10.2-10.2v-1.9H156.6 M156.6,47.2h-17.9
						c-1.4,0-2.6,1.1-2.6,2.6v1.9c0,7.1,5.7,12.8,12.8,12.8h2.6c4.2,0,7.7-3.4,7.7-7.7v-7C159.1,48.3,158,47.2,156.6,47.2
						L156.6,47.2z"/>
				</g>
			</g>
			<g>
				<g>
					<polygon class="st61" points="97.2,47.2 109.4,47.2 109.4,53.2 97.2,50.3 					"/>
				</g>
			</g>
			<g>
				<g>
					<polygon class="st61" points="168.8,47.2 156.6,47.2 156.6,53.2 168.8,50.3 					"/>
				</g>
			</g>
			<g>
				<g>
					<path class="st61" d="M138.8,53.2h-2.6c0-1.1-1.5-2.1-3.3-2.1s-3.3,1-3.3,2.1h-2.6c0-2.6,2.6-4.6,5.8-4.6
						C136.2,48.6,138.8,50.6,138.8,53.2z"/>
				</g>
			</g>
		</g>
	</g>
</g>
</svg>
