<svg id="Layer_1" xmlns="http://www.w3.org/2000/svg" viewBox="0 0 234 173"><style>.st0{fill:#d37b72}.st1{fill:#ffe6c0}.st2{fill:#fcc699}.st3{fill:#7e554a}.st4{fill:#d7dbe0}.st5{fill:#ffdaa9}.st6{fill:#fff}.st7{fill:#555465}.st8{fill:#c8e4c7}.st9{fill:none;stroke:#fff;stroke-width:2;stroke-linecap:round;stroke-miterlimit:10}.st10{fill:#94cd91}.st11{fill:#7cc47a}</style><path class="st0" d="M163.8 150.5l-7.4-44.4c-1-6-5.2-12.2-12.2-14.2-.1 0-.2 0-.3-.1l-17.3-2.6h-.4c-1.1 0-2 .8-2.2 1.9-.9 7.5-7.1 13.4-15.1 15h-8.7c-8-1.6-14.2-7.5-15.1-15C85 90 84 89.2 83 89.3h-.4l-17.3 2.6c-.1 0-.2 0-.3.1-7 2-11.2 8.2-12.2 14.2l-7.4 44.4c-1.5 8.1 4.6 15.5 12.9 15.5h92.6c8.3 0 14.4-7.5 12.9-15.6z"/><path class="st1" d="M104.6 87.1c-7.6 0-14.4-3.3-19.5-8.5 0 3.1-.1 7.7-1 11 .5.3 1 .9 1.1 1.6 1.1 8.8 9.4 15.4 19.4 15.4 10 0 18.3-6.6 19.4-15.4.1-.7.5-1.2 1.1-1.6-.8-3.3-.9-7.9-1-11-5.1 5.2-11.9 8.5-19.5 8.5z"/><path class="st2" d="M123.7 79c-5 5-11.7 8.1-19.1 8.1-7.6 0-14.4-3.3-19.5-8.5 0 3.1-.1 7.7-1 11 .5.3 1 .9 1.1 1.6.5 3.9 2.4 7.4 5.2 10 13-1.9 27.9-14.8 33.3-22.2z"/><path class="st1" d="M124.1 32.9H87.2c-6 0-10.8 4.9-10.8 10.8v13c0 16.7 12.6 30.4 28.2 30.4s28.2-13.6 28.2-30.4V41.5c0-4.7-3.9-8.6-8.7-8.6z"/><path class="st3" d="M119.8 9H91.6c-4.1 0-7.5 2.8-8.4 6.6-7.5.9-13.3 7.3-13.3 15.1v10.8c0 5.6 2.4 10.8 6.5 14.5V43.7c0-6 4.9-10.8 10.8-10.8h36.9c4.8 0 8.7 3.9 8.7 8.7v14.5c4.1-3.7 6.5-8.9 6.5-14.5v-13c0-10.8-8.8-19.6-19.5-19.6z"/><path class="st4" d="M143.9 166.1H65.3c-1.8 0-3.3-1.5-3.3-3.3v-42.5c0-1.8 1.5-3.3 3.3-3.3h78.5c1.8 0 3.3 1.5 3.3 3.3v42.5c0 1.8-1.4 3.3-3.2 3.3z"/><path class="st5" d="M206 172.6H3.1c-1.8 0-3.3-1.5-3.3-3.3s1.5-3.3 3.3-3.3H206c1.8 0 3.3 1.5 3.3 3.3s-1.5 3.3-3.3 3.3z"/><circle class="st6" cx="104.6" cy="143.2" r="6.5"/><path class="st7" d="M100.1 48.2v1.5c0 4.4-3.6 8-8 8h-2c-2.2 0-4-1.8-4-4v-5.5h14m0-2H86c-1.1 0-2 .9-2 2v5.5c0 3.3 2.7 6 6 6h2c5.6 0 10.1-4.5 10.1-10.1v-1.5c0-1-.9-1.9-2-1.9zM123.2 48.2v5.5c0 2.2-1.8 4-4 4h-2c-4.4 0-8-3.6-8-8v-1.5h14m0-2h-14.1c-1.1 0-2 .9-2 2v1.5c0 5.6 4.5 10.1 10.1 10.1h2c3.3 0 6-2.7 6-6v-5.5c0-1.2-.9-2.1-2-2.1z"/><path class="st7" d="M76.4 46.2H86v4.7l-9.6-2.3zM132.8 46.2h-9.6v4.7l9.6-2.3zM109.2 50.9h-2c0-.9-1.2-1.6-2.6-1.6-1.4 0-2.6.8-2.6 1.6h-2c0-2 2-3.6 4.6-3.6s4.6 1.6 4.6 3.6z"/><g><path id="XMLID_3_" class="st8" d="M196 81.1v23c0 1.7.3 3.8-1.5 3.8H157l-7.5 5.1-1.8-5.1h-2c-1.7 0-3.7-2.1-3.7-3.8v-23c0-1.7 2-4.1 3.7-4.1h48.8c1.8 0 1.5 2.4 1.5 4.1z"/><path class="st9" d="M153.5 90.2h20M153.5 93.6h33.1M153.5 97.4h32.9"/><path id="XMLID_2_" class="st10" d="M211 42.5v23c0 1.7-.6 3.4-2.3 3.4h-37.5l-7.5 5.1-1.8-5.1h-2c-1.7 0-3.9-1.7-3.9-3.4v-23c0-1.7 2.1-3.5 3.9-3.5h48.8c1.7 0 2.3 1.8 2.3 3.5z"/><path class="st9" d="M167.7 50.8h16.1M167.7 54.2h32.8M167.7 58h32.8"/><circle class="st6" cx="147.1" cy="82.6" r="2.1"/><circle class="st6" cx="161.3" cy="43" r="2.1"/><path id="XMLID_1_" class="st11" d="M234 4v23c0 1.7-3.1 3-4.8 3h-37.5l-7.5 5.1-1.8-5.1h-2c-1.7 0-2.4-1.3-2.4-3V4c0-1.7.6-4 2.4-4h48.8c1.7 0 4.8 2.2 4.8 4z"/><path class="st9" d="M188.2 12.2h18M188.2 15.6H221M188.2 19.4H221"/><circle class="st6" cx="181.8" cy="4.4" r="2.1"/></g></svg>