<svg id="Layer_1" xmlns="http://www.w3.org/2000/svg" viewBox="0 0 234 173"><style>.st0{fill:#a0acbf}.st1{fill:#626e74}.st2{fill:#3f4d55}.st3{fill:#ffc06c}.st4{fill:#ecaf66}.st5{fill:#fff}.st6{fill:#f2f2f2}.st7{fill:#20ad8a}.st8{fill:none;stroke:#7e878d;stroke-width:2;stroke-linecap:round;stroke-miterlimit:10}</style><path id="XMLID_7_" class="st0" d="M187.1 79.2h-8.9c.2 2.1.3 4.2.3 6.4s-.1 4.3-.3 6.4h8.9V79.2z"/><path id="XMLID_6_" class="st1" d="M114.4 8.7H75.9v25.7c10.7-8.1 24-12.8 38.5-12.8V8.7z"/><path id="XMLID_5_" class="st1" d="M75.9 137v25.7h38.5v-12.8c-14.5-.1-27.8-4.9-38.5-12.9z"/><path id="XMLID_4_" class="st2" d="M114.4 162.6h38.5V137c-10.7 8.1-24 12.8-38.5 12.8v12.8z"/><path id="XMLID_3_" class="st2" d="M152.9 34.3V8.7h-38.5v12.8c14.4 0 27.7 4.8 38.5 12.8z"/><path id="XMLID_2_" class="st3" d="M114.4 137C86 137 63 114 63 85.6s23-51.3 51.3-51.3V21.5c-14.4 0-27.8 4.8-38.5 12.8-14 10.5-23.5 26.6-25.3 44.9-.2 2.1-.3 4.2-.3 6.4s.1 4.3.3 6.4c1.8 18.3 11.4 34.4 25.3 44.9 10.7 8.1 24 12.8 38.5 12.8V137z"/><path id="XMLID_1_" class="st4" d="M178.2 79.2c-1.8-18.3-11.4-34.4-25.3-44.9-10.7-8.1-24-12.8-38.5-12.8v12.8c28.3 0 51.3 23 51.3 51.3s-23 51.3-51.3 51.3v12.8c14.4 0 27.8-4.8 38.5-12.8 14-10.5 23.5-26.6 25.3-44.9.2-2.1.3-4.2.3-6.4s-.1-4.3-.3-6.4z"/><path id="XMLID_17_" class="st5" d="M114 60v32h1v45c-30 0-51.3-23-51.3-51.3S85 34.3 115 34.3V60h-1z"/><path id="XMLID_16_" class="st6" d="M166.3 85.6C166.3 114 143 137 115 137V92h-1V60h1V34.3c28 0 51.3 23 51.3 51.3z"/><path class="st7" d="M220.2 28.4c0 4-3.2 7.2-7.2 7.2-1.6 0-3.1-.5-4.3-1.4-18.4-4.2-37.3-1.4-53.7 8.1-17.1 9.9-29.4 25.9-34.5 45.1l-3.1-.8c-4.7 21.8-17.5 40.6-36.3 52.7-13.7 8.9-29.5 13.6-45.5 13.6-4.6 0-9.3-.4-14-1.2-1.2-.2-2.4-.4-3.6-.7l1.3-6.3c1.3.3 2.6.5 3.9.7 40.4 6.4 79.3-19.9 87.8-60.4l3.1.7-6.2-1.7c6-22.5 20.4-41.3 40.5-52.9 19-11 41.1-14.4 62.4-9.6.6-.2 1.3-.3 2-.3 4.2 0 7.4 3.2 7.4 7.2z"/><circle class="st3" cx="114.4" cy="85.6" r="8.7"/><path class="st7" d="M18.2 150.9c1.2.3 2.4.5 3.6.7-.7.4-1.5.6-2.3.6-2.5 0-4.6-2-4.6-4.6 0-2.5 2.1-4.6 4.6-4.6 1.7 0 3.2.9 4 2.3-1.3-.2-2.6-.4-3.9-.7l-1.4 6.3z"/><path id="XMLID_15_" class="st8" d="M115 35v5"/><path id="XMLID_14_" class="st8" d="M115 132v5"/><path id="XMLID_13_" class="st8" d="M63 87h5"/><path id="XMLID_12_" class="st8" d="M161 87h5"/><path id="XMLID_11_" class="st1" d="M114 0v17H82.8C79 17 76 13.9 76 10.1V6.8C76 2.9 79 0 82.8 0H114z"/><path id="XMLID_10_" class="st2" d="M153 6.8v3.3c0 3.8-3.2 6.9-7.1 6.9H114V0h31.9c3.9 0 7.1 2.9 7.1 6.8z"/><path id="XMLID_9_" class="st1" d="M114 154v18H82.8c-3.8 0-6.8-3.3-6.8-7.1v-3.3c0-3.8 3-7.5 6.8-7.5H114z"/><path id="XMLID_8_" class="st2" d="M153 161.5v3.3c0 3.8-3.2 7.1-7.1 7.1H114v-18h31.9c3.9.1 7.1 3.8 7.1 7.6z"/></svg>